<svg xmlns="http://www.w3.org/2000/svg" width="105.388" height="39.074" viewBox="0 0 105.388 39.074"><defs><style>.a{fill:#f3716a;}.b{fill:#d45051;}.c{fill:#ae3c3d;}.d{fill:#bd4446;}</style></defs><g transform="translate(278.194 -407.022)"><path class="a" d="M-278.194,415.26a5.789,5.789,0,0,1,3.1-4.453c2.783-1.225,4.124-1.924,24.723-3.228a322.617,322.617,0,0,1,50.529,1c13.8,1.447,16.475,2.188,19.258,2.708s5.79,1.522,7.236,3.971l.536,9.507-105.388.559Z" transform="translate(0)"/><path class="b" d="M-250.783,415.765c25.129-.851,14.882,11.824,21.391,12.4,7.23.641,19.073-.364,27.613-5.326,2.476-1.439,12.688,13.99-19.593,16.793-22.591,1.96-46.506-4.408-46.506-4.408.69.119-10.311-7.225-10.316-13.068,0-2.941,4.967-4.453,6.676-4.739A168.991,168.991,0,0,1-250.783,415.765Z" transform="translate(0 3.169)"/><path class="a" d="M-255.273,422.993a64.014,64.014,0,0,0,34.857,1.911,114.616,114.616,0,0,0-17.324-3.692A42.824,42.824,0,0,0-255.273,422.993Z" transform="translate(8.348 5.069)"/><path class="c" d="M-267.878,434.783c.69.119-10.311-7.225-10.316-13.068,0-2.941,4.967-4.453,6.676-4.739C-265.627,415.991-267.878,434.783-267.878,434.783Z" transform="translate(0 3.612)"/><path class="a" d="M-273.476,417.266s-.861,10.485,6.81,23.878l2.893,1.67h11.031s33.218-2.6,49.143-10.036c0,0-38.3,3.348-43.555,2.988s-10.384-.967-11.163-6.2,12.36-5.181,30.461-5.835c-9.352-3.63-21.327-7.772-28.053-7.693C-269.163,416.191-273.476,417.266-273.476,417.266Z" transform="translate(1.708 3.283)"/><path class="c" d="M-267.635,416.5s7.443.937,16.864,8.412a198.543,198.543,0,0,1,33.834-.374c13.469,1.113,11.807,2.155,11.807,2.155s.668,1.336-2.115,2.114-27.234,7.378-27.234,7.378,36.251-3.258,40.258-4.372v3.059l13.062-8.288s4.563-2.82,4.506-4.408-.213-2.663-5.217-3.471-28.591-2.893-47.469-3.016C-247.209,415.579-258.163,415.747-267.635,416.5Z" transform="translate(3.846 3.146)"/><path class="d" d="M-197.18,438.637h-61.105s13.635-5.85,22.608-7.151,38.052-3.982,38.052-3.982Z" transform="translate(7.251 7.46)"/></g></svg>