<svg xmlns="http://www.w3.org/2000/svg" xmlns:xlink="http://www.w3.org/1999/xlink" width="110.622" height="116.715" viewBox="0 0 110.622 116.715"><defs><style>.a{fill:#ac182b;}.a,.b,.c,.d,.e,.f,.g,.h,.i,.j,.k,.l,.m,.n,.o,.p,.q,.r,.s{fill-rule:evenodd;}.b{fill:#d21838;}.c{fill:#fa859e;}.d{fill:url(#a);}.e{fill:url(#b);}.f{fill:url(#c);}.g{fill:url(#d);}.h{fill:url(#e);}.i{fill:url(#f);}.j{fill:url(#g);}.k{fill:url(#h);}.l{fill:url(#i);}.m{fill:url(#j);}.n{fill:url(#k);}.o{fill:url(#l);}.p{fill:url(#m);}.q{fill:url(#n);}.r{fill:url(#o);}.s{fill:url(#p);}</style><linearGradient id="a" x1="57.948" y1="-31.919" x2="60.509" y2="-31.919" gradientUnits="objectBoundingBox"><stop offset="0.816" stop-color="#e03c52"/><stop offset="1" stop-color="#e03c52"/></linearGradient><linearGradient id="b" x1="11040.257" y1="-29.852" x2="11064.295" y2="-29.852" xlink:href="#a"/><linearGradient id="c" x1="9895.352" y1="-22.954" x2="9919.39" y2="-22.954" xlink:href="#a"/><linearGradient id="d" x1="38.59" y1="-201.398" x2="40.897" y2="-201.398" xlink:href="#a"/><linearGradient id="e" x1="59.929" y1="-1.228" x2="62.965" y2="-1.228" xlink:href="#a"/><linearGradient id="f" x1="68.948" y1="-6.954" x2="71.868" y2="-6.954" xlink:href="#a"/><linearGradient id="g" x1="57.904" y1="-11.707" x2="60.466" y2="-11.707" xlink:href="#a"/><linearGradient id="h" x1="38.59" y1="-255.805" x2="40.897" y2="-255.805" xlink:href="#a"/><linearGradient id="i" x1="62.636" y1="-31.595" x2="65.197" y2="-31.595" xlink:href="#a"/><linearGradient id="j" x1="11689.868" y1="-29.462" x2="11713.906" y2="-29.462" xlink:href="#a"/><linearGradient id="k" x1="10544.969" y1="-22.565" x2="10569.007" y2="-22.565" xlink:href="#a"/><linearGradient id="l" x1="42.123" y1="-178.5" x2="44.429" y2="-178.5" xlink:href="#a"/><linearGradient id="m" x1="67.178" y1="-0.986" x2="70.215" y2="-0.986" xlink:href="#a"/><linearGradient id="n" x1="75.517" y1="-6.717" x2="78.437" y2="-6.717" xlink:href="#a"/><linearGradient id="o" x1="62.593" y1="-11.502" x2="65.154" y2="-11.502" xlink:href="#a"/><linearGradient id="p" x1="42.123" y1="-232.906" x2="44.429" y2="-232.906" xlink:href="#a"/></defs><g transform="translate(141.996 -334.838)"><path class="a" d="M-98.844,380.6v3.325l-33.093-33.082V347.52Z" transform="translate(4.393 5.54)"/><path class="b" d="M-105.173,385.814l6.526-3.769-33.761-33.469-6.526,3.768Z" transform="translate(1.337 6.001)"/><path class="a" d="M-113.025,348.794a.393.393,0,0,0-.114-.294.4.4,0,0,0-.289-.132.4.4,0,0,0-.295.115q-7.754,7.366-14.632,6.841-6.869-.584-12.9-9.053a.4.4,0,0,0-.267-.168.394.394,0,0,0-.307.073v0a.4.4,0,0,0-.168.27.4.4,0,0,0,.072.307q6.289,8.843,13.494,9.4,7.194.608,15.269-7.065A.394.394,0,0,0-113.025,348.794Z" transform="translate(0 4.917)"/><path class="a" d="M-102.4,344.869a.4.4,0,0,0-.114-.295.4.4,0,0,0-.289-.131.4.4,0,0,0-.295.113q-7.754,7.369-14.634,6.841-6.866-.584-12.894-9.053a.388.388,0,0,0-.267-.167.4.4,0,0,0-.307.072v0a.4.4,0,0,0-.168.27.4.4,0,0,0,.072.307q6.289,8.843,13.494,9.4,7.194.61,15.269-7.063A.4.4,0,0,0-102.4,344.869Z" transform="translate(4.639 3.203)"/><path class="b" d="M-98.559,381.993l6.874-3.97-33.761-33.469-6.875,3.97Z" transform="translate(4.226 4.244)"/><path class="a" d="M-105.37,384.515v3.325l-33.094-33.082v-3.325Z" transform="translate(1.543 7.248)"/><path class="c" d="M-116.532,371.945v27.8l4.754-2.745V369.2Z" transform="translate(11.123 15.009)"/><path class="d" d="M-116.644,375.115v28.952l-10.835-11.536V368.858Z" transform="translate(6.341 14.859)"/><path class="c" d="M-119.92,374.065v28.921l4.887-2.822V371.243Z" transform="translate(9.643 15.901)"/><path class="e" d="M-112.073,369.078V398l-1.154-.666V368.412Z" transform="translate(12.566 14.665)"/><path class="c" d="M-112.422,369.439v28.9l3.239-1.87v-28.9Z" transform="translate(12.917 14.296)"/><path class="c" d="M-110.166,368.263v27.8l4.754-2.745v-27.8Z" transform="translate(13.903 13.401)"/><path class="f" d="M-105.707,365.4v28.925l-1.154-.666V364.739Z" transform="translate(15.346 13.06)"/><path class="c" d="M-106.052,366.03v28.918l4.666-2.7V363.335Z" transform="translate(15.7 12.447)"/><g transform="translate(-122.889 366.057)"><path class="c" d="M-120.314,380.108v3.333l26.309-15.194v-3.332Z" transform="translate(132.359 -352.92)"/><path class="g" d="M-116.664,379.137v3.325l-12.034-12v-3.326Z" transform="translate(128.697 -351.948)"/><path class="b" d="M-128.7,371.76l12.045,11.995,26.309-15.193-11.865-11.995Z" transform="translate(128.697 -356.567)"/></g><g transform="translate(-121.438 346.976)"><path class="h" d="M-103.481,348.563v28.381l-9.14-10.635V343.286Z" transform="translate(134.268 -343.286)"/><path class="c" d="M-106.26,347.769v28.44l4.666-2.7v-28.44Z" transform="translate(137.046 -342.505)"/><path class="i" d="M-109.732,352.294v28.443l-9.506-10.137V346.805Z" transform="translate(131.378 -341.749)"/><path class="c" d="M-112.631,351.182v28.457l3.239-1.871V349.312Z" transform="translate(134.264 -340.654)"/><path class="c" d="M-120.128,355.833V384.28l4.887-2.822V353.011Z" transform="translate(130.989 -339.038)"/><path class="j" d="M-116.852,358.278v28.437l-10.835-10.578v-28.7Z" transform="translate(127.688 -341.473)"/><path class="c" d="M-116.811,364.813l0-10.335,3.2-1.838q-1.3.871-2.223,4.435A31.855,31.855,0,0,0-116.811,364.813Z" transform="translate(132.437 -339.2)"/><path class="c" d="M-115.142,353.556v-.046l3.784-2.014,0,12.259a22.666,22.666,0,0,0-1.216-7.858Q-113.656,353.14-115.142,353.556Z" transform="translate(133.167 -339.7)"/><path class="c" d="M-110.38,361.142l0-10.335,3.2-1.838q-1.3.871-2.224,4.435A31.789,31.789,0,0,0-110.38,361.142Z" transform="translate(135.245 -340.803)"/><path class="c" d="M-108.712,349.9l3.784-2.062,0,12.259a22.678,22.678,0,0,0-1.216-7.858Q-107.226,349.483-108.712,349.9Z" transform="translate(135.976 -341.297)"/></g><g transform="translate(-122.889 334.838)"><path class="c" d="M-120.314,358.38v3.333l26.309-15.194v-3.332Z" transform="translate(132.359 -331.191)"/><path class="k" d="M-116.664,357.408v3.326l-12.034-12v-3.325Z" transform="translate(128.697 -330.219)"/><path class="b" d="M-128.7,350.031l12.045,11.995,26.309-15.193-11.865-11.995Z" transform="translate(128.697 -334.838)"/></g><path class="a" d="M-76.91,402.43v3.325L-110,372.673v-3.325Z" transform="translate(13.974 15.073)"/><path class="b" d="M-83.239,407.642l6.526-3.769L-110.474,370.4-117,374.173Z" transform="translate(10.918 15.535)"/><path class="b" d="M-76.624,403.82l6.874-3.97-33.761-33.469-6.875,3.97Z" transform="translate(13.807 13.778)"/><path class="a" d="M-83.435,406.343v3.325l-33.094-33.082V373.26Z" transform="translate(11.124 16.782)"/><path class="c" d="M-93.889,394.653v27.8l4.754-2.744v-27.8Z" transform="translate(21.012 24.927)"/><path class="l" d="M-94,397.823v28.952l-10.835-11.536V391.567Z" transform="translate(16.231 24.778)"/><path class="c" d="M-97.277,396.773v28.921l4.887-2.822V393.951Z" transform="translate(19.532 25.819)"/><path class="m" d="M-89.43,391.787v28.921l-1.154-.666V391.12Z" transform="translate(22.456 24.583)"/><path class="c" d="M-89.78,392.147v28.9l3.239-1.87v-28.9Z" transform="translate(22.807 24.215)"/><path class="c" d="M-87.524,390.971v27.8l4.754-2.745v-27.8Z" transform="translate(23.793 23.319)"/><path class="n" d="M-83.065,388.113v28.925l-1.154-.666V387.447Z" transform="translate(25.236 22.979)"/><path class="c" d="M-83.41,388.738v28.918l4.666-2.7V386.043Z" transform="translate(25.59 22.366)"/><g transform="translate(-90.357 398.684)"><path class="c" d="M-97.672,402.816v3.333l26.309-15.194v-3.332Z" transform="translate(109.717 -375.628)"/><path class="o" d="M-94.021,401.845v3.325l-12.034-12v-3.326Z" transform="translate(106.055 -374.656)"/><path class="b" d="M-106.055,394.468l12.045,11.995L-67.7,391.27l-11.865-11.995Z" transform="translate(106.055 -379.275)"/></g><path class="a" d="M-118.584,354.824a.173.173,0,0,0-.21-.056.354.354,0,0,0-.168.227.781.781,0,0,0-.032.371q3.825,26.155,11.286,31.636,3.935,3.442,6.935,1.29,2.994-2.091,5.039-9.733a.82.82,0,0,0,.011-.374.477.477,0,0,0-.142-.277.166.166,0,0,0-.211-.02h0a.406.406,0,0,0-.154.251q-1.938,7.231-4.747,9.247-2.8,1.957-6.484-1.266l-.006,0-.01-.007h0q-7.237-5.409-10.98-30.99A.523.523,0,0,0-118.584,354.824Z" transform="translate(10.043 8.698)"/><g transform="translate(-88.906 379.602)"><path class="p" d="M-80.839,371.271v28.381l-9.14-10.634V365.994Z" transform="translate(111.626 -365.994)"/><path class="c" d="M-83.618,370.478v28.44l4.666-2.7v-28.44Z" transform="translate(114.404 -365.213)"/><path class="q" d="M-87.09,375v28.443L-96.6,393.308V369.513Z" transform="translate(108.736 -364.457)"/><path class="c" d="M-89.989,373.891v28.457l3.239-1.871V372.02Z" transform="translate(111.622 -363.362)"/><path class="c" d="M-97.486,378.541v28.447l4.887-2.822V375.719Z" transform="translate(108.347 -361.746)"/><path class="r" d="M-94.21,380.986v28.437l-10.835-10.578v-28.7Z" transform="translate(105.045 -364.181)"/><path class="c" d="M-94.168,387.521l0-10.333,3.2-1.839q-1.3.871-2.224,4.435A31.788,31.788,0,0,0-94.168,387.521Z" transform="translate(109.794 -361.908)"/><path class="c" d="M-92.5,376.264v-.046l3.783-2.014v12.259a22.708,22.708,0,0,0-1.217-7.858Q-91.014,375.848-92.5,376.264Z" transform="translate(110.525 -362.408)"/><path class="c" d="M-87.738,383.85l0-10.333,3.2-1.839q-1.3.871-2.223,4.435A31.717,31.717,0,0,0-87.738,383.85Z" transform="translate(112.603 -363.511)"/><path class="c" d="M-86.069,372.609l3.783-2.062v12.259a22.694,22.694,0,0,0-1.217-7.856Q-84.584,372.191-86.069,372.609Z" transform="translate(113.334 -364.005)"/></g><path class="a" d="M-103.934,346.725a.176.176,0,0,0-.21-.056.357.357,0,0,0-.168.227.8.8,0,0,0-.032.371q3.828,26.155,11.286,31.638,3.938,3.44,6.937,1.289,2.991-2.091,5.037-9.733a.8.8,0,0,0,.011-.374.468.468,0,0,0-.142-.276.163.163,0,0,0-.211-.02h0a.4.4,0,0,0-.155.251q-1.938,7.231-4.747,9.247-2.8,1.955-6.483-1.266l-.006,0-.01-.007h0q-7.237-5.412-10.978-30.991A.538.538,0,0,0-103.934,346.725Z" transform="translate(16.442 5.161)"/><path class="c" d="M-80.371,410.318v3.289l6.524-3.768v-3.289Z" transform="translate(26.917 31.323)"/><path class="c" d="M-73.839,406.46v3.289l6.832-3.944v-3.289Z" transform="translate(29.77 29.56)"/><g transform="translate(-90.357 367.465)"><path class="c" d="M-97.672,381.088v3.333l26.309-15.194v-3.332Z" transform="translate(109.717 -353.9)"/><path class="s" d="M-94.021,380.116v3.326l-12.034-12v-3.326Z" transform="translate(106.055 -352.927)"/><path class="b" d="M-106.055,372.739l12.045,11.995L-67.7,369.541l-11.865-11.995Z" transform="translate(106.055 -357.546)"/></g><path class="a" d="M-67.933,410.985v3.325L-87.359,395.4v-3.325Z" transform="translate(23.865 24.999)"/><path class="b" d="M-74.262,416.2l6.526-3.769-20.093-19.3-6.526,3.768Z" transform="translate(20.808 25.46)"/><path class="b" d="M-67.766,412.318l6.832-3.944L-80.867,389.1l-6.875,3.97Z" transform="translate(23.697 23.703)"/><path class="a" d="M-74.459,414.9v3.325l-19.426-18.914v-3.325Z" transform="translate(21.014 26.707)"/><path class="a" d="M-95.919,375.951a.23.23,0,0,0-.227-.046.318.318,0,0,0-.181.187.5.5,0,0,0-.034.3q6.25,32.4,18.417,39.2,6.381,4.226,11.244,1.593c3.236-1.723,2.879-2.424-.224-.741q-4.649,2.474-10.756-1.573l-.006,0-.01-.006h0q-11.927-6.744-18.086-38.672A.4.4,0,0,0-95.919,375.951Z" transform="translate(19.928 17.932)"/><path class="a" d="M-82.82,371.129a.166.166,0,0,0-.185-.043.283.283,0,0,0-.148.178.547.547,0,0,0-.029.29q5.112,30.972,15.066,37.474,5.222,4.041,9.2,1.524c2.647-1.648,2.356-2.318-.184-.71q-3.8,2.366-8.8-1.5l-.006,0-.009-.006h0q-9.756-6.444-14.795-36.968A.4.4,0,0,0-82.82,371.129Z" transform="translate(25.686 15.827)"/></g></svg>