<svg xmlns="http://www.w3.org/2000/svg" xmlns:xlink="http://www.w3.org/1999/xlink" width="38.1" height="48.543" viewBox="0 0 38.1 48.543"><defs><style>.a{fill:none;}.b{fill:#0082a0;}.c{fill:#d1952b;}.d{fill:#00a19a;}.e{fill:#ededed;}.f{fill:#006177;}.g{clip-path:url(#a);}.h{fill:#c6c6c6;}.i{fill:#3c3c3b;}.j{fill:#b2b2b2;}.k{fill:#dadada;}.l{fill:#c42c24;}.m{fill:#e6332a;}.n{fill:#f6f6f6;}</style><clipPath id="a"><rect class="a" width="38.1" height="48.543"/></clipPath></defs><g transform="translate(0 0)"><path class="b" d="M14.119,43.846l-4.594,1.1L5.579,46.693,2.552,48.972,0,51.422V54.47l.649,2.847,1.9,2.653,3.027,2.278L9.525,64l4.594,1.1,4.931.375,4.93-.375L28.575,64l3.945-1.748,3.028-2.278,1.9-2.653L38.1,54.47V51.445l-.648.179-1.9-2.652L32.52,46.693l-3.945-1.748-4.594-1.1-4.93-.375Z" transform="translate(0 -16.926)"/><path class="c" d="M14.119,42.54l-4.594,1.1L5.579,45.386,2.552,47.665l-1.9,2.653L0,53.164.649,56.01l1.9,2.653,3.027,2.278,3.945,1.748,4.594,1.1,4.931.375,4.93-.375,4.594-1.1,3.945-1.748,3.028-2.278,1.9-2.653.648-2.846-.648-2.847-1.9-2.653L32.52,45.386l-3.945-1.748-4.594-1.1-4.93-.376Z" transform="translate(0 -16.417)"/><path class="b" d="M14.119,37.265l-4.594,1.1L5.579,40.111,2.552,42.389l-1.9,2.653L0,47.889l.649,2.847,1.9,2.653,3.027,2.278,3.945,1.748,4.594,1.1,4.931.375,4.93-.375,4.594-1.1,3.945-1.748,3.028-2.278,1.9-2.653.648-2.847-.648-2.847-1.9-2.653L32.52,40.111l-3.945-1.748-4.594-1.1-4.93-.375Z" transform="translate(0 -14.363)"/><path class="d" d="M28.053,72.675l-4.93-.375v3.222l4.93.374Z" transform="translate(-9.003 -28.151)"/><path class="d" d="M15.6,70.5l4.594,1.1v3.222l-4.594-1.1Z" transform="translate(-6.073 -27.45)"/><path class="d" d="M13.083,69.386,9.137,67.638v3.222l3.945,1.748Z" transform="translate(-3.558 -26.335)"/><path class="d" d="M4.179,63.908l3.028,2.278v3.222L4.179,67.129Z" transform="translate(-1.627 -24.883)"/><path class="d" d="M1.063,62.785l1.9,2.653V62.217l-1.9-2.653Z" transform="translate(-0.414 -23.192)"/><path class="d" d="M0,58.123l.649,2.846V57.748L0,54.9Z" transform="translate(0 -21.376)"/><path class="b" d="M28.053,72.675l-4.93-.375,2.465,3.409Z" transform="translate(-9.003 -28.151)"/><path class="e" d="M15.6,70.5l4.594,1.1-2.3,2.672Z" transform="translate(-6.073 -27.45)"/><path class="b" d="M13.083,69.386,9.137,67.638l1.973,4.1Z" transform="translate(-3.558 -26.335)"/><path class="e" d="M4.179,63.908l3.028,2.278L5.693,68.268Z" transform="translate(-1.627 -24.883)"/><path class="b" d="M2.014,64.111l.951-1.895-1.9-2.653Z" transform="translate(-0.414 -23.192)"/><path class="e" d="M.324,59.41l.325-1.662L0,54.9Z" transform="translate(0 -21.376)"/><path class="d" d="M31.2,72.675l4.93-.375v3.222L31.2,75.9Z" transform="translate(-12.147 -28.151)"/><path class="d" d="M43.865,70.5l-4.594,1.1v3.222l4.594-1.1Z" transform="translate(-15.291 -27.45)"/><path class="d" d="M46.795,69.386l3.945-1.748v3.222l-3.945,1.748Z" transform="translate(-18.22 -26.335)"/><path class="d" d="M56.283,63.908l-3.028,2.278v3.222l3.028-2.278Z" transform="translate(-20.736 -24.883)"/><path class="d" d="M60.116,62.785l-1.9,2.653V62.217l1.9-2.653Z" transform="translate(-22.666 -23.192)"/><path class="d" d="M61.33,57.748V60.97l.649-2.846V54.9Z" transform="translate(-23.88 -21.377)"/><path class="e" d="M31.2,72.675l4.93-.375-2.465,3.409Z" transform="translate(-12.147 -28.151)"/><path class="b" d="M43.865,70.5l-4.594,1.1,2.3,2.672Z" transform="translate(-15.291 -27.45)"/><path class="e" d="M46.795,69.386l3.945-1.748-1.973,4.1Z" transform="translate(-18.22 -26.335)"/><path class="b" d="M56.283,63.908l-3.028,2.278,1.514,2.083Z" transform="translate(-20.736 -24.883)"/><path class="e" d="M59.165,64.111l-.952-1.895,1.9-2.653Z" transform="translate(-22.666 -23.192)"/><path class="d" d="M61.33,57.748l.324,1.662L61.98,54.9Z" transform="translate(-23.88 -21.377)"/><rect class="f" width="3.21" height="16.798" transform="translate(17.445 20.186)"/><path class="d" d="M24.015,31.539l2.78.927v16.8l-2.78-.926Z" transform="translate(-9.35 -12.28)"/><path class="f" d="M22.991,30.515l-1.6-1.605v16.8l1.6,1.605Z" transform="translate(-8.327 -11.256)"/><path class="d" d="M36.605,31.539l-2.78.927v16.8l2.78-.926Z" transform="translate(-13.17 -12.28)"/><path class="f" d="M38.378,30.515l1.6-1.605v16.8l-1.6,1.605Z" transform="translate(-14.943 -11.256)"/><rect class="e" width="1.174" height="13.45" transform="translate(18.463 29.219)"/><g transform="translate(0 0)"><g class="g"><path class="e" d="M31.237,69.42a.917.917,0,0,0-.83,0,.253.253,0,0,0,0,.479.917.917,0,0,0,.83,0,.253.253,0,0,0,0-.479" transform="translate(-11.772 -26.991)"/><path class="h" d="M31.237,47.394a.917.917,0,0,0-.83,0,.253.253,0,0,0,0,.479.917.917,0,0,0,.83,0,.253.253,0,0,0,0-.479" transform="translate(-11.772 -18.415)"/><rect class="e" width="1.174" height="13.45" transform="translate(1.6 20.056)"/><path class="e" d="M3.624,54.415a.917.917,0,0,0-.83,0,.254.254,0,0,0,0,.48.921.921,0,0,0,.83,0,.254.254,0,0,0,0-.48" transform="translate(-1.021 -21.148)"/><path class="h" d="M3.624,32.39a.917.917,0,0,0-.83,0,.253.253,0,0,0,0,.479.917.917,0,0,0,.83,0,.253.253,0,0,0,0-.479" transform="translate(-1.021 -12.573)"/><rect class="e" width="1.174" height="13.45" transform="translate(35.548 20.056)"/><path class="e" d="M59.216,54.415a.917.917,0,0,0-.83,0,.254.254,0,0,0,0,.48.921.921,0,0,0,.83,0,.254.254,0,0,0,0-.48" transform="translate(-22.666 -21.148)"/><path class="h" d="M59.216,32.39a.917.917,0,0,0-.83,0,.253.253,0,0,0,0,.479.917.917,0,0,0,.83,0,.253.253,0,0,0,0-.479" transform="translate(-22.666 -12.573)"/><path class="i" d="M50.234,47.355h0c-.817-.448-1.756.053-2.725,1.265v.012c-.281-.333-.776-.358-1.488.191-.122.107-.253.216-.389.322a11.255,11.255,0,0,1-.946.672l-.061-.035a1,1,0,0,0,.034-.238.433.433,0,0,0-.181-.4l-.224-.129a.922.922,0,0,0,.013-.151.434.434,0,0,0-.18-.4l-1.022-.59v0a.385.385,0,0,0-.363,0l-.365-.211,0,0a.426.426,0,0,0-.43.04,1.135,1.135,0,0,0-.308.278c-.092-.162-.282-.2-.5-.075a1.186,1.186,0,0,0-.436.5.382.382,0,0,0-.227.059,1,1,0,0,0-.453.785.573.573,0,0,0,.007.075l-.007,0a.65.65,0,0,0-.293.509c0,.187.131.263.293.169.008,0,.015-.013.023-.018a1.877,1.877,0,0,0-.09.294l-.785,1.892a1.655,1.655,0,0,0-.123.509c-.013.255.062.361.165.394l.961.555c.171.149.509-.071.509-.071a.963.963,0,0,0,.438-.7v-.242a1.354,1.354,0,0,1,.184-.174,4.42,4.42,0,0,0-.28,1.71,2.179,2.179,0,0,1-.167.981,29.222,29.222,0,0,0-.987,3.067q-.1.381-.2.774l1.031.6,1.362-.787a4.191,4.191,0,0,1,.089-.707,7.181,7.181,0,0,1,3.148-4.37c.015-.01.032-.02.047-.029A4.373,4.373,0,0,1,46,53.35a2.522,2.522,0,0,1,1.169-.15,1.813,1.813,0,0,1,.283.6,2.627,2.627,0,0,1,.089.6l0,0,1.034.6L50,54.175c-.065-.179-.137-.357-.211-.534a11.92,11.92,0,0,0-.726-1.439,2.961,2.961,0,0,1-.264-1.889,1.335,1.335,0,0,0,.015-.221,1.871,1.871,0,0,0-.1-.555,2.887,2.887,0,0,1,.407-.225,3.042,3.042,0,0,1,.034.431v0l1.034.6h0a2.173,2.173,0,0,0,1.641-1.906,1.952,1.952,0,0,0-.562-.484h0Zm-1.695,1.873,0-.007,0-.005Z" transform="translate(-15.184 -18.376)"/><path class="j" d="M56.267,50.721c-.021-1.312-.609-1.426-1.643-.689V49.6c1.2-1.5,2.353-1.913,3.286-.781a2.172,2.172,0,0,1-1.643,1.907" transform="translate(-21.268 -18.755)"/><path class="j" d="M42.392,51.812a.649.649,0,0,1-.293.508c-.162.093-.293.018-.293-.169a.646.646,0,0,1,.293-.508c.162-.093.293-.018.293.169" transform="translate(-16.278 -20.092)"/><path class="j" d="M43.192,50.479a1,1,0,0,1-.453.785c-.25.144-.453.027-.453-.262a1,1,0,0,1,.453-.785c.25-.145.453-.027.453.261" transform="translate(-16.465 -19.529)"/><path class="j" d="M44.316,49.623a1.242,1.242,0,0,1-.561.972c-.31.179-.562.034-.562-.324a1.243,1.243,0,0,1,.562-.973c.31-.179.561-.034.561.324" transform="translate(-16.818 -19.165)"/><path class="j" d="M44.434,50.028c0,.393.275.551.616.355a1.361,1.361,0,0,0,.616-1.066c0-.392-.276-.551-.616-.355a1.358,1.358,0,0,0-.616,1.066" transform="translate(-17.301 -19.031)"/><path class="j" d="M45.608,50.361c0,.393.275.551.616.355a1.361,1.361,0,0,0,.616-1.066c0-.392-.276-.551-.616-.355a1.361,1.361,0,0,0-.616,1.066" transform="translate(-17.758 -19.161)"/><path class="j" d="M46.25,51.474c0,.393.275.551.616.355a1.361,1.361,0,0,0,.616-1.066c0-.392-.276-.551-.616-.355a1.361,1.361,0,0,0-.616,1.066" transform="translate(-18.008 -19.594)"/><path class="j" d="M46.7,52.644c0,.393.275.551.616.355a1.362,1.362,0,0,0,.616-1.066c0-.393-.276-.551-.616-.355a1.361,1.361,0,0,0-.616,1.066" transform="translate(-18.185 -20.05)"/><path class="k" d="M50.657,55.321l-1.423.821a2.642,2.642,0,0,0-.089-.6c-.293-1.065-1.26-1.473-2.484-1.042a4.379,4.379,0,0,0-.711.332l-.046.028a7.184,7.184,0,0,0-3.148,4.37,4.191,4.191,0,0,0-.089.707l-1.362.786q.1-.393.2-.774A29.368,29.368,0,0,1,42.5,56.88a2.187,2.187,0,0,0,.167-.981,4.49,4.49,0,0,1,.285-1.727,1.426,1.426,0,0,0-.324-1.379c-.309.6-.677.716-.9.975v.242a.961.961,0,0,1-.437.7s-.641.42-.6-.283a1.674,1.674,0,0,1,.124-.509l.785-1.891a2.375,2.375,0,0,1,.49-.98c.046-.055-.2-.441-.145-.484.358-.285.561.161.561.161a1.851,1.851,0,0,1,2.712,1.38,6.154,6.154,0,0,0,2.107-1.216c.136-.106.267-.215.389-.322,1.133-.873,1.718-.3,1.761.674a1.338,1.338,0,0,1-.015.222,2.961,2.961,0,0,0,.264,1.889,12.009,12.009,0,0,1,.726,1.439c.075.177.147.355.211.534" transform="translate(-15.841 -19.521)"/><path class="l" d="M49.987,54.989v1.4a4.322,4.322,0,0,0-.71.332l-.047.028v-1.32Z" transform="translate(-19.168 -21.411)"/><path class="m" d="M50.3,51.273v.98a2.32,2.32,0,0,1-.757,1.588,1.677,1.677,0,0,1-.277.2l-.135.077a1.038,1.038,0,0,1-.345.131c-.4.068-.689-.208-.689-.728v-.98a6.165,6.165,0,0,0,2.107-1.216Z" transform="translate(-18.729 -19.964)"/><path class="i" d="M41.9,65.743l1.247-.72a4.268,4.268,0,0,0-.089.707l-1.362.786q.1-.393.2-.774" transform="translate(-16.236 -25.317)"/><path class="i" d="M56.051,58.287l-1.423.821a2.642,2.642,0,0,0-.089-.6l1.3-.751c.075.177.147.355.211.534" transform="translate(-21.235 -22.487)"/><path class="i" d="M6.431,42.5a.29.29,0,0,0-.122.223l-.225.131,0,0a.21.21,0,0,0-.076.179.649.649,0,0,0,.293.508c.008,0,.015,0,.023.008a.649.649,0,0,0-.09.19l-.785.986a.681.681,0,0,0-.124.366,1.113,1.113,0,0,0,.6.979.378.378,0,0,0,.34.021l0,0,.568-.328a.472.472,0,0,0,.423-.072,2.68,2.68,0,0,1,.324,1.754,2.543,2.543,0,0,0-.285,1.4,1.174,1.174,0,0,1-.167.788,8.873,8.873,0,0,0-.987,1.927c-.068.175-.137.354-.2.539l1.362.786,1.034-.6,0,0a2.714,2.714,0,0,1,.088-.6,1.817,1.817,0,0,1,.282-.6,3.013,3.013,0,0,1,1.835.457l.048.026a5.873,5.873,0,0,1,.71.488,7.251,7.251,0,0,1,2.483,3.91,4.212,4.212,0,0,1,.09.708L15.3,57.5l1.031-.6c-.065-.254-.137-.514-.211-.778-.22-.771-.473-1.561-.726-2.278a5.1,5.1,0,0,1-.3-1.508,3.012,3.012,0,0,1,.39,1.538c.524.559,1,.722,1.317.518h0l1.016-.586v0a.825.825,0,0,0,.341-.537c-.933-2.209-2.086-3.13-3.286-3.014v.012a2.735,2.735,0,0,0-1.488-1.527c-.122-.034-.253-.077-.389-.127a7.016,7.016,0,0,1-1.945-1.066.407.407,0,0,0,.217-.412,1.346,1.346,0,0,0-.32-.8.6.6,0,0,0,.042-.231,1.372,1.372,0,0,0-.429-.921.608.608,0,0,0,.037-.211,1.361,1.361,0,0,0-.615-1.066.773.773,0,0,0-.109-.05,1.372,1.372,0,0,0-.609-.981.515.515,0,0,0-.309-.079,1.236,1.236,0,0,0-.5-.655.364.364,0,0,0-.44,0,.824.824,0,0,0-.223-.206.313.313,0,0,0-.325-.028h0l-1.031.6Z" transform="translate(-2.073 -16.303)"/><path class="j" d="M20.907,59.6a2.6,2.6,0,0,0-1.643-2.587v-.437c1.2-.115,2.353.8,3.286,3.014-.2.8-.872.832-1.643.01" transform="translate(-7.501 -22.027)"/><path class="j" d="M7.032,43.986c0,.187-.131.263-.293.169a.649.649,0,0,1-.293-.508c0-.187.131-.263.293-.169a.649.649,0,0,1,.293.508" transform="translate(-2.51 -16.913)"/><path class="j" d="M7.832,43.693c0,.289-.2.406-.453.262a1,1,0,0,1-.453-.785c0-.289.2-.406.453-.261a1,1,0,0,1,.453.785" transform="translate(-2.697 -16.683)"/><path class="j" d="M8.957,44.216c0,.358-.252.5-.561.324a1.24,1.24,0,0,1-.561-.973c0-.357.251-.5.561-.324a1.242,1.242,0,0,1,.561.972" transform="translate(-3.051 -16.808)"/><path class="j" d="M9.075,44.8a1.361,1.361,0,0,0,.616,1.066c.34.2.616.037.616-.355a1.361,1.361,0,0,0-.616-1.066c-.34-.2-.616-.037-.616.355" transform="translate(-3.533 -17.271)"/><path class="j" d="M10.249,46.485a1.362,1.362,0,0,0,.616,1.066c.34.2.616.037.616-.355a1.361,1.361,0,0,0-.616-1.066c-.34-.2-.616-.037-.616.355" transform="translate(-3.991 -17.928)"/><path class="j" d="M10.891,48.34a1.361,1.361,0,0,0,.616,1.066c.34.2.616.037.616-.355a1.361,1.361,0,0,0-.616-1.066c-.34-.2-.616-.037-.616.355" transform="translate(-4.241 -18.651)"/><path class="j" d="M11.345,50.034a1.361,1.361,0,0,0,.616,1.066c.34.2.616.037.616-.355a1.361,1.361,0,0,0-.616-1.066c-.34-.2-.616-.037-.616.355" transform="translate(-4.417 -19.31)"/><path class="k" d="M15.3,58.015l-1.423-.821a4.209,4.209,0,0,0-.089-.708,7.256,7.256,0,0,0-2.484-3.91,5.693,5.693,0,0,0-.71-.488l-.047-.026c-1.528-.86-2.8-.517-3.148.735a2.653,2.653,0,0,0-.089.605l-1.362-.786c.067-.184.136-.363.2-.539a8.894,8.894,0,0,1,.987-1.927,1.171,1.171,0,0,0,.167-.788,2.547,2.547,0,0,1,.285-1.4,2.679,2.679,0,0,0-.324-1.754c-.308.241-.676-.065-.9-.059v.242c.01.256-.214.3-.437.192a1.112,1.112,0,0,1-.6-.979.675.675,0,0,1,.123-.366l.785-.986a.548.548,0,0,1,.49-.414c.046,0-.2-.672-.145-.652.358.129.562.81.562.81a7.347,7.347,0,0,1,2.712,4.513,6.335,6.335,0,0,0,2.107,1.216c.135.05.267.093.388.127a3.051,3.051,0,0,1,1.761,2.708.966.966,0,0,1-.015.2,4.571,4.571,0,0,0,.264,2.193c.253.716.506,1.506.727,2.278.074.263.146.524.211.778" transform="translate(-2.074 -16.816)"/><path class="l" d="M14.628,56v1.4a5.826,5.826,0,0,0-.71-.488l-.047-.026v-1.32Z" transform="translate(-5.401 -21.632)"/><path class="m" d="M14.946,53.179v.98c0,.549-.321.826-.757.714a1.066,1.066,0,0,1-.277-.117l-.135-.078a1.731,1.731,0,0,1-.345-.267,2.313,2.313,0,0,1-.689-1.525v-.98a6.316,6.316,0,0,0,2.107,1.216Z" transform="translate(-4.961 -20.21)"/><path class="i" d="M6.544,57.746l1.247.72a2.686,2.686,0,0,0-.089.6l-1.361-.786c.067-.184.136-.363.2-.539" transform="translate(-2.469 -22.484)"/><path class="i" d="M20.691,66.494l-1.423-.821a4.21,4.21,0,0,0-.089-.708l1.3.751c.074.263.146.524.211.778" transform="translate(-7.468 -25.295)"/><path class="b" d="M37.473,21.355l-.022-.1-1.9-2.653L32.52,16.328,28.575,14.58l-4.594-1.1-4.93-.375-4.93.375-4.594,1.1L5.58,16.328,2.552,18.606l-1.9,2.653-.023.1H0v2.75l.649,2.847,1.9,2.653L5.58,31.882,9.525,33.63l4.594,1.1,4.93.375,4.93-.375,4.594-1.1,3.946-1.748L35.547,29.6l1.9-2.653.649-2.847v-2.75Z" transform="translate(0 -5.103)"/><path class="d" d="M41.342,3.549C37.96,1.99,34.579,6.9,31.2,5.346v-3.6c3.382,2.756,6.763-.959,10.145,1.8" transform="translate(-12.147 -0.682)"/><path class="d" d="M15.6,31.356l4.594,1.1,4.93-18.127Z" transform="translate(-6.073 -5.579)"/><path class="d" d="M31.2,32.83l4.93-.375L31.2,14.328Z" transform="translate(-12.147 -5.579)"/><path class="e" d="M23.122,32.455l4.93.375v-18.5Z" transform="translate(-9.003 -5.579)"/><path class="e" d="M22.607,14.328h0L9.137,29.608l3.945,1.748Z" transform="translate(-3.558 -5.579)"/><path class="d" d="M0,21.831l.649,2.847,18.4-10.35Z" transform="translate(0 -5.579)"/><path class="e" d="M19.464,14.328l-18.4,10.35,1.9,2.653Z" transform="translate(-0.414 -5.579)"/><path class="d" d="M4.179,27.331l3.028,2.278,13.47-15.281Z" transform="translate(-1.627 -5.579)"/><path class="e" d="M.649,18.984h0L0,21.831l19.049-7.5Z" transform="translate(0 -5.579)"/><path class="d" d="M50.246,21.831,49.6,18.984,31.2,14.327Z" transform="translate(-12.147 -5.579)"/><path class="e" d="M49.6,24.678l.649-2.847-19.05-7.5Z" transform="translate(-12.147 -5.579)"/><path class="e" d="M49.6,18.984l-1.9-2.653-16.5-2Z" transform="translate(-12.147 -5.579)"/><path class="e" d="M36.127,32.455h0l4.594-1.1L31.2,14.328Z" transform="translate(-12.147 -5.579)"/><path class="d" d="M31.2,14.328l16.5,13,1.9-2.653Z" transform="translate(-12.147 -5.579)"/><path class="d" d="M31.2,14.328h0l9.525,17.029,3.946-1.748Z" transform="translate(-12.147 -5.579)"/><path class="e" d="M44.667,29.608l3.028-2.278-16.5-13Z" transform="translate(-12.146 -5.579)"/><path class="d" d="M2.966,16.332l-1.9,2.653,18.4-4.657Z" transform="translate(-0.414 -5.579)"/><path class="d" d="M31.2,14.153h0l16.5,2L44.667,13.88Z" transform="translate(-12.147 -5.404)"/><path class="e" d="M20.677,14.153h0L7.207,13.88,4.179,16.157Z" transform="translate(-1.627 -5.404)"/><path class="d" d="M13.083,11.017,9.137,12.765l13.47.274Z" transform="translate(-3.558 -4.289)"/><path class="e" d="M31.2,13.039l13.471-.274-3.946-1.748Z" transform="translate(-12.147 -4.29)"/><path class="e" d="M20.193,9.217l-4.594,1.1,9.525,2.022Z" transform="translate(-6.073 -3.589)"/><path class="d" d="M40.721,10.316h0l-4.594-1.1-4.93,3.12Z" transform="translate(-12.147 -3.589)"/><path class="d" d="M28.053,12.1V8.6l-4.93.375Z" transform="translate(-9.003 -3.35)"/><path class="e" d="M31.2,12.1l4.93-3.12L31.2,8.6Z" transform="translate(-12.147 -3.35)"/><path class="b" d="M30.807,9.36a.611.611,0,0,1-.611-.611V.611a.611.611,0,0,1,1.221,0V8.749a.611.611,0,0,1-.611.611" transform="translate(-11.757 0)"/><path class="n" d="M27.411,46.2a.672.672,0,0,1-.721.675.771.771,0,0,1-.722-.757.672.672,0,0,1,.722-.675.77.77,0,0,1,.721.757" transform="translate(-10.111 -17.692)"/><path class="n" d="M19.163,44.883a.551.551,0,0,1-.68.575A.9.9,0,0,1,17.8,44.6a.552.552,0,0,1,.681-.576.9.9,0,0,1,.68.856" transform="translate(-6.931 -17.137)"/><path class="n" d="M12.145,42.536c0,.4-.26.608-.581.476a1.088,1.088,0,0,1-.581-.954c0-.4.26-.609.581-.476a1.088,1.088,0,0,1,.581.954" transform="translate(-4.276 -16.175)"/><path class="n" d="M6.2,39.076c0,.4-.237.539-.533.321a1.549,1.549,0,0,1-.54-1.11c0-.4.237-.539.533-.321a1.544,1.544,0,0,1,.54,1.11" transform="translate(-1.997 -14.743)"/><path class="n" d="M2.142,34.64c0,.4-.172.478-.383.184a2.478,2.478,0,0,1-.383-1.246c0-.4.171-.478.383-.184a2.486,2.486,0,0,1,.383,1.246" transform="translate(-0.536 -12.934)"/><path class="n" d="M34.332,46.2a.672.672,0,0,0,.721.675.77.77,0,0,0,.721-.757.672.672,0,0,0-.721-.675.77.77,0,0,0-.721.757" transform="translate(-13.368 -17.692)"/><path class="n" d="M42.631,44.883a.552.552,0,0,0,.681.575.9.9,0,0,0,.68-.855.552.552,0,0,0-.68-.576.9.9,0,0,0-.681.856" transform="translate(-16.599 -17.137)"/><path class="n" d="M49.777,42.536c0,.4.26.608.581.476a1.088,1.088,0,0,0,.581-.954c0-.4-.26-.609-.581-.476a1.088,1.088,0,0,0-.581.954" transform="translate(-19.381 -16.175)"/><path class="n" d="M55.775,39.076c0,.4.237.539.533.321a1.546,1.546,0,0,0,.54-1.11c0-.4-.236-.539-.533-.321a1.546,1.546,0,0,0-.54,1.11" transform="translate(-21.717 -14.743)"/><path class="n" d="M60.032,34.64c0,.4.172.478.383.184a2.478,2.478,0,0,0,.383-1.246c0-.4-.172-.478-.383-.184a2.486,2.486,0,0,0-.383,1.246" transform="translate(-23.374 -12.934)"/></g></g></g></svg>