<svg xmlns="http://www.w3.org/2000/svg" width="57.75" height="80.572" viewBox="0 0 57.75 80.572"><defs><style>.a{fill:#c10000;}.b{fill:#e01717;}.c{fill:#d30000;}.d{fill:#6282f3;}.e{fill:#e97c00;}.f{fill:#f80;}.g{fill:#c16700;}.h{fill:#cd6d00;}</style></defs><g transform="translate(442.112 -362.057)"><g transform="translate(-419.244 401.996)"><path class="a" d="M-423.215,396.4v1.767l.584.338v-1.763Z" transform="translate(423.215 -394.781)"/><path class="b" d="M-422.631,397.019l2.8-1.618-.587-.339-2.8,1.615Z" transform="translate(423.215 -395.062)"/><path class="a" d="M-422.732,398.723l2.8-1.618v-1.763l-2.8,1.618Z" transform="translate(423.316 -395.003)"/></g><g transform="translate(-419.244 410.195)"><path class="a" d="M-423.215,403.173v1.764l.584.337v-1.763Z" transform="translate(423.215 -401.556)"/><path class="b" d="M-422.631,403.792l2.8-1.618-.587-.337-2.8,1.617Z" transform="translate(423.215 -401.837)"/><path class="a" d="M-422.732,405.5l2.8-1.618v-1.763l-2.8,1.618Z" transform="translate(423.316 -401.779)"/></g><g transform="translate(-421.066 399.459)"><path class="c" d="M-421.918,393.633h-2.8v19.651h0a.7.7,0,0,0,.41.574,2.187,2.187,0,0,0,1.98,0,.7.7,0,0,0,.41-.574h0Z" transform="translate(424.721 -392.825)"/><path class="b" d="M-422.328,394.345a2.187,2.187,0,0,1-1.98,0,.6.6,0,0,1,0-1.144,2.194,2.194,0,0,1,1.98,0A.6.6,0,0,1-422.328,394.345Z" transform="translate(424.72 -392.965)"/></g><g transform="translate(-421.458 399.229)"><path class="a" d="M-421.458,393.632h-3.586v1.035h0a.894.894,0,0,0,.528.731,2.791,2.791,0,0,0,2.535,0,.89.89,0,0,0,.523-.732h0Z" transform="translate(425.044 -392.596)"/><path class="b" d="M-421.982,394.543a2.8,2.8,0,0,1-2.535,0,.773.773,0,0,1,0-1.464,2.8,2.8,0,0,1,2.535,0A.773.773,0,0,1-421.982,394.543Z" transform="translate(425.045 -392.775)"/></g><g transform="translate(-425.697 404.424)"><path class="a" d="M-428.547,399.476v1.764l.585.339v-1.763Z" transform="translate(428.547 -396.563)"/><path class="b" d="M-427.962,400.322l5.049-2.913-.588-.34-5.046,2.913Z" transform="translate(428.547 -397.069)"/><path class="a" d="M-428.063,402.026l5.049-2.915V397.35l-5.049,2.913Z" transform="translate(428.648 -397.009)"/></g><g transform="translate(-425.697 412.617)"><path class="a" d="M-428.547,406.247v1.763l.585.337v-1.763Z" transform="translate(428.547 -403.333)"/><path class="b" d="M-427.962,407.09l5.049-2.913-.588-.338-5.046,2.914Z" transform="translate(428.547 -403.839)"/><path class="a" d="M-428.063,408.794l5.049-2.911v-1.765l-5.049,2.913Z" transform="translate(428.648 -403.78)"/></g><g transform="translate(-433.722 387.231)"><path class="a" d="M-429.438,385.608v2.954l-.986.568v-2.954Z" transform="translate(436.177 -382.283)"/><path class="b" d="M-429.425,386.753l-5.754-3.325.981-.567,5.759,3.324Z" transform="translate(435.179 -382.861)"/><path class="c" d="M-429.425,389.609l-5.754-3.325v-2.954l5.754,3.325Z" transform="translate(435.179 -382.762)"/></g><g transform="translate(-429.222 384.833)"><path class="c" d="M-427.035,381.67h-3.313l-1.112,38.213a1.381,1.381,0,0,0,.812,1.136,4.339,4.339,0,0,0,3.918,0,1.378,1.378,0,0,0,.81-1.133Z" transform="translate(431.46 -380.712)"/><path class="b" d="M-427.713,382.512a2.594,2.594,0,0,1-2.339,0,.712.712,0,0,1,0-1.352,2.572,2.572,0,0,1,2.339,0A.714.714,0,0,1-427.713,382.512Z" transform="translate(431.653 -380.879)"/></g><g transform="translate(-428.555 384.604)"><path class="a" d="M-426.7,381.694h-4.207v1.214h0a1.043,1.043,0,0,0,.618.858,3.274,3.274,0,0,0,2.972,0,1.042,1.042,0,0,0,.617-.858h0Z" transform="translate(430.909 -380.479)"/><path class="b" d="M-427.319,382.763a3.289,3.289,0,0,1-2.972,0,.906.906,0,0,1,0-1.718,3.289,3.289,0,0,1,2.972,0A.906.906,0,0,1-427.319,382.763Z" transform="translate(430.909 -380.69)"/></g><g transform="translate(-394.94 416.03)"><path class="a" d="M-403.13,408v1.762l.584.337v-1.762Z" transform="translate(403.13 -406.378)"/><path class="b" d="M-402.546,408.615l2.8-1.615-.586-.34-2.8,1.619Z" transform="translate(403.13 -406.659)"/><path class="a" d="M-402.647,410.318l2.8-1.615v-1.762l-2.8,1.615Z" transform="translate(403.231 -406.6)"/></g><g transform="translate(-394.94 424.226)"><path class="a" d="M-403.13,414.771v1.763l.584.338v-1.763Z" transform="translate(403.13 -413.152)"/><path class="b" d="M-402.546,415.39l2.8-1.617-.586-.34-2.8,1.619Z" transform="translate(403.13 -413.433)"/><path class="a" d="M-402.647,417.094l2.8-1.615v-1.764l-2.8,1.617Z" transform="translate(403.231 -413.374)"/></g><g transform="translate(-396.761 413.491)"><path class="c" d="M-401.834,405.231h-2.8V424.88h0a.7.7,0,0,0,.41.572,2.189,2.189,0,0,0,1.981,0,.693.693,0,0,0,.41-.572h0Z" transform="translate(404.635 -404.421)"/><path class="b" d="M-402.244,405.942a2.189,2.189,0,0,1-1.981,0,.6.6,0,0,1,0-1.14,2.16,2.16,0,0,1,1.981,0A.6.6,0,0,1-402.244,405.942Z" transform="translate(404.635 -404.561)"/></g><g transform="translate(-397.153 413.264)"><path class="a" d="M-401.373,405.229h-3.586v1.035h0a.893.893,0,0,0,.525.731,2.812,2.812,0,0,0,2.536,0,.892.892,0,0,0,.524-.731h0Z" transform="translate(404.959 -404.194)"/><path class="b" d="M-401.9,406.14a2.82,2.82,0,0,1-2.536,0,.774.774,0,0,1,0-1.465,2.827,2.827,0,0,1,2.536,0A.774.774,0,0,1-401.9,406.14Z" transform="translate(404.959 -404.374)"/></g><g transform="translate(-401.391 418.458)"><path class="a" d="M-408.461,411.075v1.761l.585.339v-1.764Z" transform="translate(408.461 -408.16)"/><path class="b" d="M-407.876,411.917l5.047-2.913-.587-.338-5.045,2.915Z" transform="translate(408.461 -408.666)"/><path class="a" d="M-407.977,413.623l5.047-2.913v-1.764l-5.047,2.913Z" transform="translate(408.562 -408.608)"/></g><g transform="translate(-401.391 426.651)"><path class="a" d="M-408.461,417.843v1.764l.585.339v-1.763Z" transform="translate(408.461 -414.931)"/><path class="b" d="M-407.876,418.689l5.047-2.914-.587-.338-5.045,2.912Z" transform="translate(408.461 -415.437)"/><path class="a" d="M-407.977,420.393l5.047-2.915v-1.762l-5.047,2.914Z" transform="translate(408.562 -415.378)"/></g><g transform="translate(-426.003 391.69)"><path class="a" d="M-409.29,397.239v2.956l-.986.569v-2.957Z" transform="translate(432.691 -384.298)"/><path class="b" d="M-406.383,400.053-428.8,387.111l.984-.566,22.417,12.941Z" transform="translate(428.8 -386.545)"/><path class="c" d="M-406.383,402.912-428.8,389.97v-2.957l22.416,12.942Z" transform="translate(428.8 -386.447)"/></g><g transform="translate(-417.003 392.048)"><path class="d" d="M-416.936,389.687l-4.426-2.551.507-.294,4.427,2.554Z" transform="translate(421.362 -386.841)"/></g><g transform="translate(-405.064 398.781)"><path class="c" d="M-407.071,393.2h-3.311l-1.114,38.215a1.38,1.38,0,0,0,.812,1.131,4.31,4.31,0,0,0,3.918,0,1.373,1.373,0,0,0,.812-1.129Z" transform="translate(411.496 -392.239)"/><path class="b" d="M-407.746,394.037a2.584,2.584,0,0,1-2.345,0,.715.715,0,0,1,0-1.353,2.6,2.6,0,0,1,2.345,0A.715.715,0,0,1-407.746,394.037Z" transform="translate(411.69 -392.405)"/></g><g transform="translate(-409.04 422.872)"><path class="a" d="M-414.782,414.722v1.763l.587.339v-1.763Z" transform="translate(414.782 -411.808)"/><path class="b" d="M-414.195,415.567l5.047-2.915-.587-.338-5.047,2.914Z" transform="translate(414.782 -412.314)"/><path class="a" d="M-414.3,417.271l5.047-2.914v-1.764l-5.047,2.915Z" transform="translate(414.884 -412.255)"/></g><g transform="translate(-409.04 431.064)"><path class="a" d="M-414.782,421.489v1.766l.587.337v-1.763Z" transform="translate(414.782 -418.578)"/><path class="b" d="M-414.195,422.334l5.047-2.914-.587-.337-5.047,2.912Z" transform="translate(414.782 -419.083)"/><path class="a" d="M-414.3,424.039l5.047-2.911v-1.767l-5.047,2.914Z" transform="translate(414.884 -419.025)"/></g><g transform="translate(-410.388 421.358)"><path class="c" d="M-413.093,411.732h-2.8v19.652h0a.686.686,0,0,0,.407.57,2.172,2.172,0,0,0,1.98,0,.69.69,0,0,0,.413-.57h0Z" transform="translate(415.897 -410.922)"/><path class="b" d="M-413.5,412.443a2.172,2.172,0,0,1-1.98,0,.6.6,0,0,1,0-1.142,2.179,2.179,0,0,1,1.98,0A.6.6,0,0,1-413.5,412.443Z" transform="translate(415.896 -411.063)"/></g><g transform="translate(-412.693 426.279)"><path class="c" d="M-417.8,416.466v1.764l.585.339V416.8Z" transform="translate(417.801 -414.848)"/><path class="b" d="M-417.216,417.085l2.8-1.617-.586-.339-2.8,1.618Z" transform="translate(417.801 -415.129)"/><path class="a" d="M-417.317,418.792l2.8-1.619v-1.763l-2.8,1.617Z" transform="translate(417.902 -415.07)"/></g><g transform="translate(-410.78 421.129)"><path class="a" d="M-412.634,411.73h-3.586v1.035h0a.892.892,0,0,0,.526.732,2.8,2.8,0,0,0,2.535,0,.892.892,0,0,0,.524-.732h0Z" transform="translate(416.22 -410.693)"/><path class="b" d="M-413.158,412.642a2.817,2.817,0,0,1-2.535,0,.774.774,0,0,1,0-1.467,2.81,2.81,0,0,1,2.535,0A.774.774,0,0,1-413.158,412.642Z" transform="translate(416.22 -410.873)"/></g><g transform="translate(-433.342 408.838)"><path class="a" d="M-434.865,403.124v1.763l.586.339v-1.764Z" transform="translate(434.865 -400.21)"/><path class="b" d="M-434.279,403.968l5.048-2.912-.588-.34-5.046,2.914Z" transform="translate(434.865 -400.716)"/><path class="a" d="M-434.381,405.673l5.048-2.913V401l-5.048,2.912Z" transform="translate(434.967 -400.657)"/></g><g transform="translate(-433.342 417.031)"><path class="a" d="M-434.865,409.894v1.764l.586.337v-1.763Z" transform="translate(434.865 -406.981)"/><path class="b" d="M-434.279,410.737l5.048-2.913-.588-.338-5.046,2.913Z" transform="translate(434.865 -407.487)"/><path class="a" d="M-434.381,412.442l5.048-2.913v-1.763l-5.048,2.913Z" transform="translate(434.967 -407.428)"/></g><g transform="translate(-434.692 407.325)"><path class="c" d="M-433.179,400.133h-2.8v19.652h0a.694.694,0,0,0,.413.574,2.174,2.174,0,0,0,1.977,0,.692.692,0,0,0,.411-.574h0Z" transform="translate(435.98 -399.326)"/><path class="b" d="M-433.59,400.848a2.182,2.182,0,0,1-1.977,0,.6.6,0,0,1,0-1.146,2.189,2.189,0,0,1,1.977,0A.6.6,0,0,1-433.59,400.848Z" transform="translate(435.98 -399.466)"/></g><g transform="translate(-436.998 412.244)"><path class="c" d="M-437.885,404.868v1.763l.585.339v-1.764Z" transform="translate(437.885 -403.249)"/><path class="b" d="M-437.3,405.487l2.8-1.618-.586-.339-2.8,1.619Z" transform="translate(437.885 -403.531)"/><path class="a" d="M-437.4,407.193l2.8-1.618v-1.764l-2.8,1.618Z" transform="translate(437.987 -403.472)"/></g><g transform="translate(-436.998 420.441)"><path class="c" d="M-437.885,411.643v1.764l.585.338v-1.763Z" transform="translate(437.885 -410.024)"/><path class="b" d="M-437.3,412.263l2.8-1.618-.586-.34-2.8,1.619Z" transform="translate(437.885 -410.305)"/><path class="a" d="M-437.4,413.967l2.8-1.618v-1.763l-2.8,1.618Z" transform="translate(437.987 -410.246)"/></g><g transform="translate(-435.083 407.097)"><path class="a" d="M-432.716,400.132H-436.3v1.037h0a.888.888,0,0,0,.524.731,2.8,2.8,0,0,0,2.538,0,.893.893,0,0,0,.524-.731h0Z" transform="translate(436.303 -399.097)"/><path class="b" d="M-433.24,401.045a2.8,2.8,0,0,1-2.538,0,.772.772,0,0,1,0-1.463,2.792,2.792,0,0,1,2.538,0A.772.772,0,0,1-433.24,401.045Z" transform="translate(436.303 -399.277)"/></g><g transform="translate(-404.397 398.552)"><path class="a" d="M-406.738,393.22h-4.206v1.214h0a1.04,1.04,0,0,0,.616.858,3.294,3.294,0,0,0,2.974,0,1.038,1.038,0,0,0,.616-.858h0Z" transform="translate(410.945 -392.005)"/><path class="b" d="M-407.353,394.288a3.279,3.279,0,0,1-2.974,0,.9.9,0,0,1,0-1.716,3.286,3.286,0,0,1,2.974,0A.906.906,0,0,1-407.353,394.288Z" transform="translate(410.945 -392.216)"/></g><g transform="translate(-401.812 405.653)"><path class="a" d="M-403.07,400.833v2.957l-.981.565V401.4Z" transform="translate(409.808 -397.507)"/><path class="b" d="M-403.051,401.978l-5.757-3.325.982-.568,5.756,3.327Z" transform="translate(408.808 -398.084)"/><path class="c" d="M-403.051,404.834l-5.757-3.323v-2.957l5.757,3.325Z" transform="translate(408.808 -397.986)"/></g><g transform="translate(-437.803 370.722)"><path class="a" d="M-413.774,385.674a161.035,161.035,0,0,1-23.616-16.456l-1.16.669,2.4,5.115s1.629,1.228,4.325,3.13l.415,2.286a172.613,172.613,0,0,0,17.262,11.457c7.685,4.427,15.706,8.918,15.706,8.918l1.16-.669.58-1.606a17.192,17.192,0,0,1,4.122,2.973l1.159-.67,2.519-3.607S-399.451,393.944-413.774,385.674Z" transform="translate(438.551 -369.218)"/><path class="c" d="M-414.932,386.225a160.985,160.985,0,0,1-23.619-16.454l1.242,5.783s1.629,1.231,4.324,3.132l.413,2.286a172.418,172.418,0,0,0,17.267,11.456,127.067,127.067,0,0,0,16.864,8.25l.581-1.609c3.261,1.491,5.281,2.308,5.281,2.308l2.518-3.611S-400.606,394.5-414.932,386.225Z" transform="translate(438.551 -369.102)"/></g><g transform="translate(-442.112 364.994)"><path class="a" d="M-392.774,389.529l-4.953-1.911-4.344,7.278,3.363-4.558,3.5.717Z" transform="translate(450.524 -359.624)"/><path class="e" d="M-384.362,392.378s-22.342-5.526-57.75-22.607v.9a117.432,117.432,0,0,0,22.021,16.123,143.819,143.819,0,0,0,26.432,11.854l4.344-6.377,4.953,1.01Z" transform="translate(442.112 -363.373)"/><path class="f" d="M-414.184,380.938A160.981,160.981,0,0,1-437.8,364.484l-4.309,6.4a117.432,117.432,0,0,0,22.021,16.123,143.958,143.958,0,0,0,26.432,11.853l4.344-6.38S-399.858,389.209-414.184,380.938Z" transform="translate(442.112 -364.484)"/><path class="e" d="M-414.932,380.938a160.982,160.982,0,0,1-23.619-16.454l4.984,1.031a117.384,117.384,0,0,0,22.022,16.123,143.758,143.758,0,0,0,26.434,11.85l-4.953-1.01S-400.606,389.209-414.932,380.938Z" transform="translate(442.86 -364.484)"/></g><g transform="translate(-439.043 362.057)"><path class="g" d="M-389.167,392.6s-10.546-3.275-24.869-11.544a154.8,154.8,0,0,1-23.62-16.454l-1.92-2.149.682-.394a150.4,150.4,0,0,0,24.869,18.161,136.317,136.317,0,0,0,27.378,12.01l-.68.395Z" transform="translate(439.576 -362.057)"/><path class="h" d="M-389.847,392.92s-10.551-3.271-24.87-11.541a154.767,154.767,0,0,1-23.619-16.454l-1.24-2.542a150.664,150.664,0,0,0,24.869,18.16,136.565,136.565,0,0,0,27.381,12.011Z" transform="translate(439.576 -361.989)"/></g><g transform="translate(-412.693 434.476)"><path class="c" d="M-417.8,423.24V425l.585.339V423.58Z" transform="translate(417.801 -421.621)"/><path class="b" d="M-417.216,423.861l2.8-1.619L-415,421.9l-2.8,1.619Z" transform="translate(417.801 -421.903)"/><path class="a" d="M-417.317,425.564l2.8-1.618v-1.763l-2.8,1.619Z" transform="translate(417.902 -421.844)"/></g></g></svg>