<svg xmlns="http://www.w3.org/2000/svg" xmlns:xlink="http://www.w3.org/1999/xlink" width="34.436" height="89.582" viewBox="0 0 34.436 89.582"><defs><style>.a{fill:none;}.b{clip-path:url(#a);}.c{fill:#a52c53;}.d{fill:#ed4b41;}.e{fill:#f99a96;}.f{fill:#d84c52;}.g{fill:#fff;}</style><clipPath id="a"><rect class="a" width="34.436" height="89.582" transform="translate(0 0)"/></clipPath></defs><g transform="translate(0 0)"><g class="b"><path class="c" d="M18.645,22.107c0,.485-.606-22.107-1.4-22.107s-1.4,22.592-1.4,22.107l-.183,44.6c0,.547.729.971,1.58.971s1.579-.424,1.579-.971Z"/><path class="d" d="M17.369,22.107c0,.485-.121-22.107-.121-22.107-.789,0-1.4,22.592-1.4,22.107l-.182,44.6c0,.547.728.971,1.579.971s.3-.424.3-.971Z"/><path class="d" d="M15.669,23.018c-2-1.154-6.013,17.8-6.013,42.331l7.228-.287c0-24.536.789-40.89-1.215-42.044"/><path class="e" d="M13.847,27c-2.915-1.7-7.105,14.03-7.105,35.1L17.309,72.756l.06-9c0-21.074-.607-35.06-3.522-36.761"/><path class="d" d="M13.362,28.362c-2.915-1.7-7.106,14.03-7.106,35.1L16.824,74.12l.06-9c0-21.074-.546-35.06-3.522-36.761"/><path class="e" d="M12.207,33.193c-3.947-2.247-8.32,10.324-8.32,28.12L17.369,75.765l.73.152V64.973c0-17.734-2.005-29.533-5.892-31.78"/><path class="d" d="M11.66,34.74C7.713,32.493,3.34,45.064,3.34,62.859L16.823,76.948l.729.151V66.52c0-17.734-2-29.533-5.892-31.78"/><path class="e" d="M10.447,40.266c-4.191-2.429-8.139,7.289-8.139,21.561l14.03,14.242,1.093.03V66.034c0-14.272-2.794-23.4-6.984-25.768"/><path class="d" d="M9.839,42.178C5.648,39.748,1.7,49.466,1.7,63.739L15.669,76.4l1.093.484V68.006c.061-14.333-2.733-23.46-6.923-25.828"/><path class="e" d="M8.745,47.735C4.433,45.245.972,51.986.972,62.8l14.7,13.515.85-.3V67.247c0-10.75-3.462-17.083-7.774-19.512"/><path class="d" d="M7.956,49.707C3.644,47.217.182,53.958.182,64.769L14.454,77.8l1.275-.487V69.279c0-10.81-3.522-17.082-7.773-19.572"/><path class="d" d="M7.227,53.308C3.212,51.014,0,54.915,0,62.027v7.059L.8,71.61l10.44,6.309,3.212-.057v-12c0-7.114-3.27-10.264-7.228-12.559"/><path class="d" d="M11.185,64.891c0-3.557-2.294-3.266-5.162-4.93C3.212,58.3.861,59.847.861,63.4L.8,64.035v7.517L11.127,77.8V65.867Z"/><path class="c" d="M18.767,23.5c2-1.153,6.013,17.8,6.013,42.332l-7.228-.287c0-24.537-.79-40.891,1.215-42.045"/><path class="f" d="M20.589,27.424c2.915-1.7,7.1,14.029,7.1,35.1L17.127,73.181l-.061-9c0-21.075.607-35.061,3.523-36.761"/><path class="c" d="M21.075,28.788c2.915-1.7,7.106,14.029,7.106,35.1L17.613,74.545l-.06-9c0-21.075.607-35.061,3.522-36.761"/><path class="f" d="M22.289,33.618c3.947-2.247,8.32,10.325,8.32,28.12L17.127,76.191l-.73-.3V65.46c-.06-17.795,1.944-29.595,5.892-31.842"/><path class="c" d="M22.775,35.165c3.948-2.247,8.321,10.324,8.321,28.12L17.613,77.373l-.729-.3V67.006c0-17.795,2-29.533,5.891-31.841"/><path class="f" d="M23.99,40.691c4.191-2.43,8.139,7.288,8.139,21.561L18.1,76.433l-1.093-.364v-9.61c0-14.273,2.794-23.338,6.984-25.768"/><path class="c" d="M24.6,42.6c4.19-2.429,8.139,7.288,8.139,21.561L18.767,77.8l-1.094-.425V68.43C17.613,54.1,20.407,45.032,24.6,42.6"/><path class="f" d="M25.691,48.16c4.312-2.49,7.773,4.251,7.773,15.062l-14.7,13.515-.85-.3v-8.7c0-10.81,3.462-17.083,7.774-19.573"/><path class="c" d="M26.48,50.192c4.312-2.49,7.774,4.252,7.774,15.063L19.982,78.284,18.707,77.8V69.705c0-10.811,3.522-17.083,7.773-19.513"/><path class="c" d="M27.208,53.733c4.016-2.294,7.228,1.606,7.228,8.719v7.059l-.8,2.524-10.44,6.309-3.212-.056v-12c0-7.056,3.27-10.264,7.227-12.559"/><path class="c" d="M23.251,65.374c0-3.556,2.294-3.266,5.162-4.93,2.811-1.663,5.162-.114,5.162,3.443l.058.631v7.517L23.308,78.288v-12Z"/><path class="g" d="M11.788,62.875v5.006L9.6,66.546V61.54Z"/><path class="g" d="M8.4,60.891V65.9L6.209,64.562V59.557Z"/><path class="g" d="M5.161,58.889v5.006L2.967,62.56V57.65Z"/><path class="g" d="M11.788,69.99V74.9L9.6,73.661V68.656Z"/><path class="g" d="M8.4,67.911v5.005L6.209,71.582v-4.91Z"/><path class="g" d="M5.161,66v4.91L2.967,69.676V64.67Z"/><path class="f" d="M24.992,61.936v5.006L22.8,68.277V63.271Z"/><path class="f" d="M28.377,59.953v5.005l-2.192,1.335V61.287Z"/><path class="f" d="M31.618,58.046v4.91l-2.192,1.335V59.285Z"/><path class="f" d="M24.992,69.053v5.005L22.8,75.3v-4.91Z"/><path class="f" d="M28.377,67.068v4.91l-2.192,1.334V68.307Z"/><path class="f" d="M31.618,65.066v5.006l-2.192,1.239V66.4Z"/></g></g></svg>