<svg xmlns="http://www.w3.org/2000/svg" xmlns:xlink="http://www.w3.org/1999/xlink" width="31.236" height="61.538" viewBox="0 0 31.236 61.538"><defs><style>.a,.g{fill:none;}.b{clip-path:url(#a);}.c{clip-path:url(#b);}.d{fill:#422e17;}.e{fill:#db9526;}.f{fill:#f7eadc;}.g{stroke:#422e17;stroke-miterlimit:10;stroke-width:0.5px;}.h{opacity:0.45;mix-blend-mode:multiply;isolation:isolate;}.i{clip-path:url(#c);}.j{fill:#ed4b41;}</style><clipPath id="a"><rect class="a" width="31.236" height="61.538"/></clipPath><clipPath id="b"><rect class="a" width="31.236" height="61.538" transform="translate(0 0)"/></clipPath><clipPath id="c"><rect class="a" width="15.647" height="61.33" transform="translate(15.589)"/></clipPath></defs><g class="b"><g class="c"><path class="d" d="M30.138,55.136v2.382s-.459,1.622-2.946,2.627-7.264,1.393-11.208,1.393S6.6,61.094,4.911,60.247,2.148,58.523,1.83,57.411V55.136s1.038-2.65,2.292-3.256,23.635,0,23.635,0,2.381,1.616,2.381,3.256"/><path class="e" d="M29.026,14.338a16.4,16.4,0,0,0-5.285-4.9C19.019,6.523,11.947,8,9.479,8.554s-6.684,5.1-7.561,6.615S-1.188,21.382.8,28.391a14.047,14.047,0,0,0,7.089,7.486s9.717,1.355,14.973,0a11.6,11.6,0,0,0,7.161-5.641s3.3-8.352-1-15.9"/><path class="f" d="M1.535,22.385c0,5.782,4.289,10.47,9.579,10.47s9.578-4.688,9.578-10.47-4.288-10.47-9.578-10.47S1.535,16.6,1.535,22.385"/><path class="g" d="M.8,22.507c0,6.741,4.917,12.206,10.983,12.206s10.982-5.465,10.982-12.206S17.844,10.3,11.779,10.3.8,15.766.8,22.507Z"/><path class="e" d="M20.325,41.449c1.406.371.367,1.366.367,1.366s-.551,4.307,6.03,6.644c0,0,1.806,1.472.715,2.527-3.966,3.838-19.257,3.361-22.912.345-.611-.5-1.278-1.506,1.455-2.872s5.518-4.167,5.134-6.644c0,0-1.047-.9-.036-1.366,1.438-.662,7.535-.452,9.247,0"/><path class="d" d="M21.965,38.771v.812a6.813,6.813,0,0,0-2.187,1.552,25.081,25.081,0,0,1-8.007,0A9.456,9.456,0,0,0,9.62,39.724l-.142-.953a3.346,3.346,0,0,1,1.446-.388c1.13-.14,10.3-.352,11.041.388"/><path class="d" d="M17.086,7.014A4.655,4.655,0,0,0,15.7,0s-4.853,1.464-1.975,7.014Z"/><path class="g" d="M28.359,13.368s-3.9.3-3.825,9.313,3.825,10.173,3.825,10.173"/><path class="d" d="M22.411,37.1,19.642,38.62H11.778L8.659,37.1Z"/><path class="e" d="M21.965,38.771a34.926,34.926,0,0,1-12.279,0l-.066.953s6.9,1.358,12.345-.141Z"/><path class="e" d="M30.138,55.136c-4.925,3.325-21.87,3.992-28.3,0L1.83,57.411c4.581,4.127,25.124,3.829,28.308.107Z"/><path class="d" d="M8.7,25.972l.767-1.227H7.879Z"/><path class="d" d="M8.858,14.626l-.767,1.227H9.682Z"/><path class="d" d="M8.7,25.972l.776-3.466-.621-7.881L7.87,22.593Z"/><path class="d" d="M12.388,21.537,11.1,20.888l.148,1.584Z"/><path class="d" d="M1.076,22.437l1.293.649L2.221,21.5Z"/><path class="d" d="M12.388,21.537l-3.523-.45-7.789,1.35,8.024.244Z"/><path class="e" d="M23.258,35.739s.789.74.4,1.492a55.031,55.031,0,0,1-15.69,0,1.1,1.1,0,0,1,.308-1.357Z"/><path class="d" d="M8.674,8.843a19.809,19.809,0,0,1,5.047-1.829,7.151,7.151,0,0,1,3.394-.038,14.5,14.5,0,0,1,4.518,1.415,35.4,35.4,0,0,0-12.959.452"/><g class="h"><g class="i"><path class="j" d="M27.757,51.879l-.224-.006c.863-1.044-.811-2.414-.811-2.414-6.581-2.337-6.03-6.643-6.03-6.643s1.039-1-.367-1.367a9.986,9.986,0,0,0-1.271-.213c.239-.03.479-.062.724-.1a6.823,6.823,0,0,1,2.187-1.553v-.811a4.323,4.323,0,0,0-1.883-.393l1.647-.9c1.208-.128,1.932-.244,1.932-.244.356-.7-.284-1.373-.383-1.472a11.461,11.461,0,0,0,6.748-5.524s3.3-8.352-1-15.9a16.42,16.42,0,0,0-5.285-4.9A10.19,10.19,0,0,0,21.9,8.551h.062A16.778,16.778,0,0,0,17.391,6.99c-.091-.006-.184-.009-.276-.014A4.633,4.633,0,0,0,15.695,0l-.106.038c.3,1.454,1.074,5.575.4,6.9,6.776,3.364,14.154,16.7,3.271,28.838,0,0,.809,1.289-.094,1.915l-1.017.93.906.548-.015.9-.891.961s.439.41,0,1.454-3.311,7.872.228,9.2c2.32.872.729,2.922.729,2.922s.566.924,1.591,2.8a2.512,2.512,0,0,1,0,2.83s1.528.21.294,1.1c.951-.186,5.531-.912,6.206-1.185,2.487-1.005,2.946-2.627,2.946-2.627V55.136c0-1.64-2.381-3.257-2.381-3.257"/></g></g></g></g></svg>