<svg xmlns="http://www.w3.org/2000/svg" xmlns:xlink="http://www.w3.org/1999/xlink" width="40.189" height="44.208" viewBox="0 0 40.189 44.208"><defs><style>.a,.f,.i,.j,.k{fill:none;}.b{clip-path:url(#a);}.c{clip-path:url(#b);}.d{fill:#477de2;}.e{fill:#2861cd;}.f{stroke:#9da9ed;}.f,.i,.k{stroke-miterlimit:10;}.g{opacity:0.6;isolation:isolate;}.h{clip-path:url(#c);}.i,.j{stroke:#477de2;stroke-width:1.5px;}.j{stroke-miterlimit:9.999;}.k{stroke:#69dbff;}</style><clipPath id="a"><rect class="a" width="40.189" height="44.208"/></clipPath><clipPath id="b"><rect class="a" width="40.189" height="44.208" transform="translate(0 0)"/></clipPath><clipPath id="c"><rect class="a" width="33.5" height="31.9" transform="translate(2.595 3.858)"/></clipPath></defs><g class="b"><g class="c"><path class="d" d="M21.146,44.208h-2.2a2.263,2.263,0,0,1-2.3-2.3v-7.5h6.9v7.5a2.348,2.348,0,0,1-2.4,2.3"/><path class="e" d="M21.146,44.208h0v-9.8h2.3v7.5a2.2,2.2,0,0,1-2.3,2.3"/><path class="f" d="M34.646,15.108a23.7,23.7,0,0,1-5.7,12.4,28,28,0,0,1-11,8.2"/><path class="f" d="M3.646,17.208c3.2-2.4,8.7-4.6,15-5.8a33.4,33.4,0,0,1,14.2.2"/><path class="f" d="M17.146,35.008a28.52,28.52,0,0,1-5.8-12.5c-1.4-6.3-1-12.2.8-16.4"/><g class="g"><g class="h"><ellipse class="i" cx="16" cy="15.2" rx="16" ry="15.2" transform="translate(3.345 4.608)"/></g></g><path class="i" d="M35.345,18.908c.2,1.5-4.7,5.6-14.5,6.9-10.9,1.4-17.1-1.9-17.3-3.4"/><path class="i" d="M34.945,23.208c.2,1.5-4.4,5.4-13.8,6.6-10.4,1.3-16.2-2-16.4-3.5"/><path class="i" d="M34.146,14.108c.2,1.5-4.4,5.4-13.9,6.6-10.4,1.3-16.5-1.8-16.6-3.3"/><path class="i" d="M31.146,9.508c1,1.1-1.8,4.9-11.3,6-11.5,1.3-14.8-2.3-14.1-3.7"/><path class="i" d="M27.445,6.608c.8.4-1.6,3.7-8.3,4.3-9.7.9-10.8-2.3-10-2.8"/><path class="i" d="M33.445,27.208c-.5,1-2.4,4.5-11.8,5.6-10.7,1.2-13.6-2.3-14.5-3.2"/><path class="j" d="M17.682,5.114c.988-.113,1.814.018,1.845.292s-.743.589-1.731.7-1.814-.018-1.845-.293S16.694,5.227,17.682,5.114Z"/><path class="i" d="M16.745,6.108a20.894,20.894,0,0,0-7,16.3c0,2.3.5,9.9,5,11.9"/><path class="i" d="M19.845,5.808c9.9,3.1,13,11.2,13.1,15.7,0,2.3-1,8.9-6.9,12.1"/><path class="i" d="M19.445,6.108c6.2,5.9,8,12.6,8.1,17.1,0,2.3.4,6.9-4,11.3"/><path class="i" d="M17.146,6.108a82.825,82.825,0,0,0-.3,16.3c.1,2.4,1,10.2,2.4,12.6"/><path class="i" d="M15.946,6.108c-8.4,3.3-10.5,11.4-10.6,15.9,0,2.3,0,8.3,9.3,12.4"/><ellipse class="i" cx="16" cy="15.2" rx="16" ry="15.2" transform="translate(3.345 4.608)"/><path class="k" d="M32.845,11.608c3.8,1,6.4,2.9,6.8,5.2.7,4-7.2,7.4-17.9,9.4s-20.5,0-21.2-4c-.3-1.6.9-3.4,3.1-5.1"/><path class="k" d="M12.146,6.108c1.3-2.9,3.2-5,5.7-5.5,5.2-1.1,11.3,6.3,13.7,17s-.9,20.3-6.1,21.4c-2.6.6-5.6-.9-8.3-4"/><path class="k" d="M17.945,35.808c-4,1.5-7.8,1.4-10.4-.6-4.2-3.3-4.1-14.7,3-23s15.5-11.5,20.6-7.9c2.9,2.1,4.1,6.2,3.5,10.9"/></g></g></svg>