<svg xmlns="http://www.w3.org/2000/svg" width="27.246" height="95.149" viewBox="0 0 27.246 95.149"><defs><style>.a{fill:#6cb3ff;}.b{fill:#4d90f4;}.c{fill:#3a90da;}.d{fill:#3881c9;}.e{fill:#2e76bc;}.f{fill:#266daa;}</style></defs><g transform="translate(-74.667 -75.695)"><g transform="translate(74.667 122.049)"><path class="a" d="M81.138,118.82l-6.471-3.707,9.874-5.7,6.471,3.71Z" transform="translate(-74.667 -109.413)"/><path class="b" d="M79.374,150.921V117.809l9.874-5.7v33.112Z" transform="translate(-72.903 -108.402)"/><path class="c" d="M74.667,146.671V113.559l6.471,3.707v33.112Z" transform="translate(-74.667 -107.86)"/></g><g transform="translate(76.056 113.291)"><path class="a" d="M80.921,110.665l-5.244-3,8-4.618,5.244,3.006Z" transform="translate(-75.677 -103.043)"/><path class="b" d="M79.492,119.673v-9.827l8-4.616v9.827Z" transform="translate(-74.248 -102.223)"/><path class="c" d="M75.677,116.229V106.4l5.244,3v9.827Z" transform="translate(-75.677 -101.784)"/></g><path class="d" d="M80.087,108.244v9.827l.561.3v33.112l2.89,1.653V121.826l1.389-.8v-9.037l.824-.475Z" transform="translate(2.031 12.198)"/><path class="a" d="M88.85,115.23l-5.244-3,8-4.618,5.244,3.006Z" transform="translate(3.35 11.959)"/><g transform="translate(77.984 107.776)"><path class="a" d="M90.793,110.626l6.442-3.679L83.522,99.031l-6.442,3.681Z" transform="translate(-77.08 -99.031)"/><path class="d" d="M90.793,116.221v-6.6L77.08,101.71v6.6Z" transform="translate(-77.08 -98.026)"/><path class="b" d="M93.5,111.385v-6.6l-6.442,3.679v6.6Z" transform="translate(-73.341 -96.873)"/></g><g transform="translate(85.568 128.325)"><path class="a" d="M89.067,123.385,82.6,119.677l9.874-5.7,6.471,3.71Z" transform="translate(-82.596 -113.978)"/><path class="b" d="M87.3,155.486V122.373l9.874-5.7v33.112Z" transform="translate(-80.832 -112.967)"/><path class="c" d="M82.6,151.236V118.124l6.471,3.707v33.112Z" transform="translate(-82.596 -112.424)"/></g><path class="b" d="M87.421,124.237v-9.827l8-4.616v9.827Z" transform="translate(4.779 12.779)"/><g transform="translate(79.013 113.72)"><g transform="translate(4.105 2.365)"><path class="e" d="M80.814,106.014v-.94l.568.326v.938Z" transform="translate(-80.814 -105.075)"/><path class="e" d="M80.814,107.121v-.94l.568.326v.938Z" transform="translate(-80.814 -104.66)"/><path class="e" d="M80.814,108.228v-.94l.568.326v.938Z" transform="translate(-80.814 -104.245)"/><path class="e" d="M80.814,109.334v-.94l.568.326v.938Z" transform="translate(-80.814 -103.831)"/><path class="e" d="M80.814,110.441v-.94l.568.326v.938Z" transform="translate(-80.814 -103.416)"/><path class="e" d="M80.814,111.548v-.94l.568.326v.938Z" transform="translate(-80.814 -103.001)"/><path class="e" d="M80.814,112.654v-.94l.568.326v.938Z" transform="translate(-80.814 -102.586)"/><g transform="translate(1.762 1.018)"><path class="e" d="M82.1,106.755v-.94l.568.326v.938Z" transform="translate(-82.096 -105.815)"/><path class="e" d="M82.1,107.861v-.94l.568.326v.938Z" transform="translate(-82.096 -105.4)"/><path class="e" d="M82.1,108.968v-.94l.568.326v.938Z" transform="translate(-82.096 -104.986)"/><path class="e" d="M82.1,110.075v-.94l.568.326v.938Z" transform="translate(-82.096 -104.571)"/><path class="e" d="M82.1,111.181v-.94l.568.326v.938Z" transform="translate(-82.096 -104.156)"/><path class="e" d="M82.1,112.288v-.94l.568.326v.938Z" transform="translate(-82.096 -103.741)"/><path class="e" d="M82.1,113.395v-.94l.568.326v.938Z" transform="translate(-82.096 -103.327)"/></g><g transform="translate(3.485 2.013)"><path class="e" d="M83.35,107.479v-.94l.568.326v.938Z" transform="translate(-83.35 -106.539)"/><path class="e" d="M83.35,108.586v-.94l.568.326v.938Z" transform="translate(-83.35 -106.125)"/><path class="e" d="M83.35,109.692v-.94l.568.326v.938Z" transform="translate(-83.35 -105.71)"/><path class="e" d="M83.35,110.8v-.94l.568.326v.938Z" transform="translate(-83.35 -105.295)"/><path class="e" d="M83.35,111.906v-.94l.568.326v.938Z" transform="translate(-83.35 -104.88)"/><path class="e" d="M83.35,113.012v-.94l.568.326v.938Z" transform="translate(-83.35 -104.466)"/><path class="e" d="M83.35,114.119v-.94l.568.326v.938Z" transform="translate(-83.35 -104.051)"/></g></g><path class="e" d="M77.829,104.295v-.94l.568.326v.938Z" transform="translate(-77.829 -103.355)"/><path class="e" d="M77.829,105.4v-.94l.568.326v.938Z" transform="translate(-77.829 -102.94)"/><path class="e" d="M77.829,106.508v-.94l.568.326v.938Z" transform="translate(-77.829 -102.525)"/><g transform="translate(1.762 1.018)"><path class="e" d="M79.11,105.035v-.94l.568.326v.938Z" transform="translate(-79.11 -104.095)"/><path class="e" d="M79.11,106.141v-.94l.568.326v.938Z" transform="translate(-79.11 -103.68)"/><path class="e" d="M79.11,107.248v-.94l.568.326v.938Z" transform="translate(-79.11 -103.266)"/></g><g transform="translate(9.395 5.407)"><path class="e" d="M84.662,108.228v-.94l.568.326v.938Z" transform="translate(-84.662 -107.288)"/><path class="e" d="M84.662,109.334v-.94l.568.326v.938Z" transform="translate(-84.662 -106.873)"/><path class="e" d="M84.662,110.441v-.94l.568.326v.938Z" transform="translate(-84.662 -106.459)"/><g transform="translate(1.762 1.018)"><path class="e" d="M85.944,108.968v-.94l.568.326v.938Z" transform="translate(-85.944 -108.028)"/><path class="e" d="M85.944,110.075v-.94l.568.326v.938Z" transform="translate(-85.944 -107.614)"/><path class="e" d="M85.944,111.181v-.94l.568.326v.938Z" transform="translate(-85.944 -107.199)"/></g></g><g transform="translate(4.124 13.037)"><path class="e" d="M80.828,113.778v-.94l.568.326v.938Z" transform="translate(-80.828 -112.838)"/><path class="e" d="M80.828,114.884v-.94l.568.326v.938Z" transform="translate(-80.828 -112.423)"/><path class="e" d="M80.828,115.991v-.94l.568.326v.938Z" transform="translate(-80.828 -112.009)"/><path class="e" d="M80.828,117.1v-.94l.568.326v.938Z" transform="translate(-80.828 -111.594)"/><path class="e" d="M80.828,118.2v-.94l.568.326v.938Z" transform="translate(-80.828 -111.179)"/><path class="e" d="M80.828,119.311v-.94l.568.326v.938Z" transform="translate(-80.828 -110.764)"/><path class="e" d="M80.828,120.418v-.94l.568.326v.938Z" transform="translate(-80.828 -110.35)"/><g transform="translate(1.762 1.018)"><path class="e" d="M82.11,114.518v-.94l.568.326v.938Z" transform="translate(-82.11 -113.578)"/><path class="e" d="M82.11,115.625v-.94l.568.326v.938Z" transform="translate(-82.11 -113.164)"/><path class="e" d="M82.11,116.731v-.94l.568.326v.938Z" transform="translate(-82.11 -112.749)"/><path class="e" d="M82.11,117.838v-.94l.568.326v.938Z" transform="translate(-82.11 -112.334)"/><path class="e" d="M82.11,118.945V118l.568.326v.938Z" transform="translate(-82.11 -111.919)"/><path class="e" d="M82.11,120.051v-.94l.568.326v.938Z" transform="translate(-82.11 -111.505)"/><path class="e" d="M82.11,121.158v-.94l.568.326v.938Z" transform="translate(-82.11 -111.09)"/></g><g transform="translate(3.485 2.013)"><path class="e" d="M83.364,115.242v-.94l.568.326v.938Z" transform="translate(-83.364 -114.303)"/><path class="e" d="M83.364,116.349v-.94l.568.326v.938Z" transform="translate(-83.364 -113.888)"/><path class="e" d="M83.364,117.456v-.94l.568.326v.938Z" transform="translate(-83.364 -113.473)"/></g></g><g transform="translate(4.143 23.71)"><path class="e" d="M80.842,121.541v-.94l.568.326v.938Z" transform="translate(-80.842 -120.601)"/><path class="e" d="M80.842,122.648v-.94l.568.326v.938Z" transform="translate(-80.842 -120.187)"/><path class="e" d="M80.842,123.754v-.94l.568.326v.938Z" transform="translate(-80.842 -119.772)"/><path class="e" d="M80.842,124.861v-.94l.568.326v.938Z" transform="translate(-80.842 -119.357)"/><path class="e" d="M80.842,125.968v-.94l.568.326v.938Z" transform="translate(-80.842 -118.942)"/><path class="e" d="M80.842,127.074v-.94l.568.326v.938Z" transform="translate(-80.842 -118.528)"/><path class="e" d="M80.842,128.181v-.94l.568.326v.938Z" transform="translate(-80.842 -118.113)"/><g transform="translate(1.762 1.018)"><path class="e" d="M82.124,122.281v-.94l.568.326v.938Z" transform="translate(-82.124 -121.341)"/><path class="e" d="M82.124,123.388v-.94l.568.326v.938Z" transform="translate(-82.124 -120.927)"/><path class="e" d="M82.124,124.495v-.94l.568.326v.938Z" transform="translate(-82.124 -120.512)"/><path class="e" d="M82.124,125.6v-.94l.568.326v.938Z" transform="translate(-82.124 -120.097)"/><path class="e" d="M82.124,126.708v-.94l.568.326v.938Z" transform="translate(-82.124 -119.683)"/><path class="e" d="M82.124,127.814v-.94l.568.326v.938Z" transform="translate(-82.124 -119.268)"/><path class="e" d="M82.124,128.921v-.94l.568.326v.938Z" transform="translate(-82.124 -118.853)"/></g></g><g transform="translate(4.162 34.382)"><path class="e" d="M80.856,129.3v-.94l.568.326v.938Z" transform="translate(-80.856 -128.364)"/><path class="e" d="M80.856,130.411v-.94l.568.326v.938Z" transform="translate(-80.856 -127.95)"/><path class="e" d="M80.856,131.517v-.94l.568.326v.938Z" transform="translate(-80.856 -127.535)"/><path class="e" d="M80.856,132.624v-.94l.568.326v.938Z" transform="translate(-80.856 -127.12)"/><path class="e" d="M80.856,133.731v-.94l.568.326v.938Z" transform="translate(-80.856 -126.706)"/><path class="e" d="M80.856,134.837v-.94l.568.326v.938Z" transform="translate(-80.856 -126.291)"/><path class="e" d="M80.856,135.944V135l.568.326v.938Z" transform="translate(-80.856 -125.876)"/><g transform="translate(1.762 1.018)"><path class="e" d="M82.138,130.044v-.94l.568.326v.938Z" transform="translate(-82.138 -129.105)"/><path class="e" d="M82.138,131.151v-.94l.568.326v.938Z" transform="translate(-82.138 -128.69)"/><path class="e" d="M82.138,132.258v-.94l.568.326v.938Z" transform="translate(-82.138 -128.275)"/><path class="e" d="M82.138,133.364v-.94l.568.326v.938Z" transform="translate(-82.138 -127.861)"/><path class="e" d="M82.138,134.471v-.94l.568.326v.938Z" transform="translate(-82.138 -127.446)"/><path class="e" d="M82.138,135.578v-.94l.568.326v.938Z" transform="translate(-82.138 -127.031)"/><path class="e" d="M82.138,136.684v-.94l.568.326v.938Z" transform="translate(-82.138 -126.616)"/></g></g><g transform="translate(4.182 45.055)"><path class="e" d="M80.87,137.067v-.94l.568.326v.938Z" transform="translate(-80.87 -136.128)"/><path class="e" d="M80.87,138.174v-.94l.568.326v.938Z" transform="translate(-80.87 -135.713)"/><path class="e" d="M80.87,139.281v-.94l.568.326v.938Z" transform="translate(-80.87 -135.298)"/><g transform="translate(1.762 1.018)"><path class="e" d="M82.152,137.808v-.94l.568.326v.938Z" transform="translate(-82.152 -136.868)"/><path class="e" d="M82.152,138.914v-.94l.568.326v.938Z" transform="translate(-82.152 -136.453)"/><path class="e" d="M82.152,140.021v-.94l.568.326v.938Z" transform="translate(-82.152 -136.038)"/></g></g></g><path class="c" d="M83.606,120.794v-9.827l5.244,3V123.8Z" transform="translate(3.35 13.218)"/><g transform="translate(79.043 102.227)"><path class="a" d="M90.379,105.588l5.886-3.361L83.736,94.995,77.85,98.357Z" transform="translate(-77.85 -94.995)"/><path class="c" d="M90.379,110.7v-6.026L77.85,97.443v6.026Z" transform="translate(-77.85 -94.077)"/><path class="b" d="M92.849,106.282v-6.026l-5.886,3.361v6.026Z" transform="translate(-74.435 -93.023)"/></g><g transform="translate(83.255 100.478)"><path class="c" d="M86.938,103.437l-6.024-3.482,2.357-6.232,2.251,1.171Z" transform="translate(-80.914 -93.722)"/><path class="b" d="M85.682,103.437l3.506-1.876-2.333-7.838-2.589,1.171Z" transform="translate(-79.658 -93.722)"/></g><g transform="translate(85.607 75.695)"><g transform="translate(0 12.852)"><path class="c" d="M82.625,86.069V96.5c0,.778,1.085,1.41,2.422,1.41s2.424-.632,2.424-1.41V86.069Z" transform="translate(-82.625 -84.659)"/><ellipse class="a" cx="2.423" cy="1.41" rx="2.423" ry="1.41"/></g><g transform="translate(1.856)"><path class="c" d="M84.258,75.815l-.283,13.878c0,.181.254.329.566.329s.566-.147.566-.329l-.283-13.878Z" transform="translate(-83.975 -75.65)"/><path class="a" d="M84.747,75.86c0,.092-.126.165-.283.165s-.283-.073-.283-.165.126-.165.283-.165S84.747,75.769,84.747,75.86Z" transform="translate(-83.898 -75.695)"/></g></g><g transform="translate(76.76 120.233)"><path class="e" d="M76.19,108.8v-.71l.429.246v.708Z" transform="translate(-76.19 -108.092)"/><path class="e" d="M76.19,109.638v-.71l.429.246v.708Z" transform="translate(-76.19 -107.779)"/><path class="e" d="M76.19,110.474v-.71l.429.246v.708Z" transform="translate(-76.19 -107.465)"/><path class="e" d="M76.19,111.309v-.71l.429.246v.708Z" transform="translate(-76.19 -107.152)"/><path class="e" d="M76.19,112.145v-.71l.429.246v.708Z" transform="translate(-76.19 -106.839)"/><path class="e" d="M76.19,112.981v-.71l.429.246v.708Z" transform="translate(-76.19 -106.525)"/><path class="e" d="M76.19,113.817v-.71l.429.246v.708Z" transform="translate(-76.19 -106.212)"/></g><g transform="translate(78.22 121.07)"><path class="e" d="M77.251,109.411v-.71l.789.46v.708Z" transform="translate(-77.251 -108.701)"/><path class="e" d="M77.251,110.247v-.71l.789.46v.708Z" transform="translate(-77.251 -108.388)"/><path class="e" d="M77.251,111.083v-.71l.789.46v.708Z" transform="translate(-77.251 -108.075)"/><path class="e" d="M77.251,111.919v-.71l.789.46v.708Z" transform="translate(-77.251 -107.761)"/><path class="e" d="M77.251,112.755v-.71l.789.46v.708Z" transform="translate(-77.251 -107.448)"/><path class="e" d="M77.251,113.591v-.71l.789.46v.708Z" transform="translate(-77.251 -107.135)"/><path class="e" d="M77.251,114.427v-.71l.789.46v.708Z" transform="translate(-77.251 -106.822)"/></g><g transform="translate(79.964 122.081)"><path class="e" d="M78.52,110.146v-.71l.429.246v.708Z" transform="translate(-78.52 -109.436)"/><path class="e" d="M78.52,110.982v-.71l.429.246v.708Z" transform="translate(-78.52 -109.123)"/><path class="e" d="M78.52,111.818v-.71l.429.246v.708Z" transform="translate(-78.52 -108.81)"/><path class="e" d="M78.52,112.654v-.71l.429.246v.708Z" transform="translate(-78.52 -108.497)"/><path class="e" d="M78.52,113.49v-.71l.429.246v.708Z" transform="translate(-78.52 -108.183)"/><path class="e" d="M78.52,114.326v-.71l.429.246v.708Z" transform="translate(-78.52 -107.87)"/><path class="e" d="M78.52,115.162v-.71l.429.246v.708Z" transform="translate(-78.52 -107.557)"/></g><g transform="translate(75.411 130.332)"><path class="e" d="M75.208,116.378v-.94l.568.326v.938Z" transform="translate(-75.208 -115.438)"/><path class="e" d="M75.208,117.484v-.94l.568.326v.938Z" transform="translate(-75.208 -115.023)"/><path class="e" d="M75.208,118.591v-.94l.568.326v.938Z" transform="translate(-75.208 -114.608)"/><path class="e" d="M75.208,119.7v-.94l.568.326v.938Z" transform="translate(-75.208 -114.194)"/><path class="e" d="M75.208,120.8v-.94l.568.326v.938Z" transform="translate(-75.208 -113.779)"/><path class="e" d="M75.208,121.911v-.94l.568.326v.938Z" transform="translate(-75.208 -113.364)"/><path class="e" d="M75.208,123.018v-.94l.568.326v.938Z" transform="translate(-75.208 -112.95)"/><g transform="translate(1.932 1.109)"><path class="e" d="M76.614,117.184v-.94l1.045.609v.938Z" transform="translate(-76.614 -116.245)"/><path class="e" d="M76.614,118.291v-.94l1.045.609v.938Z" transform="translate(-76.614 -115.83)"/><path class="e" d="M76.614,119.4v-.94l1.045.609V120Z" transform="translate(-76.614 -115.415)"/><path class="e" d="M76.614,120.5v-.94l1.045.609v.938Z" transform="translate(-76.614 -115.001)"/><path class="e" d="M76.614,121.611v-.94l1.045.609v.938Z" transform="translate(-76.614 -114.586)"/><path class="e" d="M76.614,122.718v-.94l1.045.609v.938Z" transform="translate(-76.614 -114.171)"/><path class="e" d="M76.614,123.824v-.94l1.045.609v.938Z" transform="translate(-76.614 -113.756)"/></g><g transform="translate(4.241 2.447)"><path class="e" d="M78.293,118.158v-.94l.568.326v.938Z" transform="translate(-78.293 -117.218)"/><path class="e" d="M78.293,119.264v-.94l.568.326v.938Z" transform="translate(-78.293 -116.803)"/><path class="e" d="M78.293,120.371v-.94l.568.326v.938Z" transform="translate(-78.293 -116.389)"/><path class="e" d="M78.293,121.478v-.94l.568.326v.938Z" transform="translate(-78.293 -115.974)"/><path class="e" d="M78.293,122.584v-.94l.568.326v.938Z" transform="translate(-78.293 -115.559)"/><path class="e" d="M78.293,123.691v-.94l.568.326v.938Z" transform="translate(-78.293 -115.144)"/><path class="e" d="M78.293,124.8v-.94l.568.326v.938Z" transform="translate(-78.293 -114.73)"/></g></g><g transform="translate(75.411 141.018)"><path class="e" d="M75.208,124.151v-.94l.568.326v.938Z" transform="translate(-75.208 -123.211)"/><path class="e" d="M75.208,125.257v-.94l.568.326v.938Z" transform="translate(-75.208 -122.796)"/><path class="e" d="M75.208,126.364v-.94l.568.326v.938Z" transform="translate(-75.208 -122.382)"/><path class="e" d="M75.208,127.471v-.94l.568.326v.938Z" transform="translate(-75.208 -121.967)"/><path class="e" d="M75.208,128.577v-.94l.568.326v.938Z" transform="translate(-75.208 -121.552)"/><path class="e" d="M75.208,129.684v-.94l.568.326v.938Z" transform="translate(-75.208 -121.137)"/><path class="e" d="M75.208,130.791v-.94l.568.326v.938Z" transform="translate(-75.208 -120.723)"/><g transform="translate(1.932 1.109)"><path class="e" d="M76.614,124.958v-.94l1.045.609v.938Z" transform="translate(-76.614 -124.018)"/><path class="e" d="M76.614,126.064v-.94l1.045.609v.938Z" transform="translate(-76.614 -123.603)"/><path class="e" d="M76.614,127.171v-.94l1.045.609v.938Z" transform="translate(-76.614 -123.188)"/><path class="e" d="M76.614,128.278v-.94l1.045.609v.938Z" transform="translate(-76.614 -122.774)"/><path class="e" d="M76.614,129.384v-.94l1.045.609v.938Z" transform="translate(-76.614 -122.359)"/><path class="e" d="M76.614,130.491v-.94l1.045.609v.938Z" transform="translate(-76.614 -121.944)"/><path class="e" d="M76.614,131.6v-.94l1.045.609v.938Z" transform="translate(-76.614 -121.53)"/></g><g transform="translate(4.241 2.447)"><path class="e" d="M78.293,125.931v-.94l.568.326v.938Z" transform="translate(-78.293 -124.991)"/><path class="e" d="M78.293,127.038v-.94l.568.326v.938Z" transform="translate(-78.293 -124.576)"/><path class="e" d="M78.293,128.144v-.94l.568.326v.938Z" transform="translate(-78.293 -124.162)"/><path class="e" d="M78.293,129.251v-.94l.568.326v.938Z" transform="translate(-78.293 -123.747)"/><path class="e" d="M78.293,130.358v-.94l.568.326v.938Z" transform="translate(-78.293 -123.332)"/><path class="e" d="M78.293,131.464v-.94l.568.326v.938Z" transform="translate(-78.293 -122.918)"/><path class="e" d="M78.293,132.571v-.94l.568.326v.938Z" transform="translate(-78.293 -122.503)"/></g></g><g transform="translate(75.51 130.387)"><g transform="translate(0 0)"><path class="f" d="M75.28,116.418v-.94l.568.326v.938Z" transform="translate(-75.28 -115.479)"/><path class="f" d="M75.28,117.525v-.94l.568.326v.938Z" transform="translate(-75.28 -115.064)"/><path class="f" d="M75.28,118.632v-.94l.568.326v.938Z" transform="translate(-75.28 -114.649)"/><path class="f" d="M75.28,119.738v-.94l.568.326v.938Z" transform="translate(-75.28 -114.234)"/><path class="f" d="M75.28,120.845v-.94l.568.326v.938Z" transform="translate(-75.28 -113.82)"/><path class="f" d="M75.28,121.952v-.94l.568.326v.938Z" transform="translate(-75.28 -113.405)"/><path class="f" d="M75.28,123.058v-.94l.568.326v.938Z" transform="translate(-75.28 -112.99)"/></g><g transform="translate(1.932 1.109)"><path class="f" d="M76.686,117.225v-.94l1.045.609v.938Z" transform="translate(-76.686 -116.285)"/><path class="f" d="M76.686,118.332v-.94l1.045.609v.938Z" transform="translate(-76.686 -115.871)"/><path class="f" d="M76.686,119.438v-.94l1.045.609v.938Z" transform="translate(-76.686 -115.456)"/><path class="f" d="M76.686,120.545v-.94l1.045.609v.938Z" transform="translate(-76.686 -115.041)"/><path class="f" d="M76.686,121.652v-.94l1.045.609v.938Z" transform="translate(-76.686 -114.626)"/><path class="f" d="M76.686,122.758v-.94l1.045.609v.938Z" transform="translate(-76.686 -114.212)"/><path class="f" d="M76.686,123.865v-.94l1.045.609v.938Z" transform="translate(-76.686 -113.797)"/></g><g transform="translate(4.241 2.447)"><path class="f" d="M78.365,118.2v-.94l.568.326v.938Z" transform="translate(-78.365 -117.259)"/><path class="f" d="M78.365,119.305v-.94l.568.326v.938Z" transform="translate(-78.365 -116.844)"/><path class="f" d="M78.365,120.412v-.94l.568.326v.938Z" transform="translate(-78.365 -116.429)"/><path class="f" d="M78.365,121.518v-.94l.568.326v.938Z" transform="translate(-78.365 -116.015)"/><path class="f" d="M78.365,122.625v-.94l.568.326v.938Z" transform="translate(-78.365 -115.6)"/><path class="f" d="M78.365,123.732v-.94l.568.326v.938Z" transform="translate(-78.365 -115.185)"/><path class="f" d="M78.365,124.838v-.94l.568.326v.938Z" transform="translate(-78.365 -114.77)"/></g></g><g transform="translate(75.51 141.074)"><g transform="translate(0 0)"><path class="f" d="M75.28,124.191v-.94l.568.326v.938Z" transform="translate(-75.28 -123.252)"/><path class="f" d="M75.28,125.3v-.94l.568.326v.938Z" transform="translate(-75.28 -122.837)"/><path class="f" d="M75.28,126.4v-.94l.568.326v.938Z" transform="translate(-75.28 -122.422)"/><path class="f" d="M75.28,127.511v-.94l.568.326v.938Z" transform="translate(-75.28 -122.008)"/><path class="f" d="M75.28,128.618v-.94l.568.326v.938Z" transform="translate(-75.28 -121.593)"/><path class="f" d="M75.28,129.725v-.94l.568.326v.938Z" transform="translate(-75.28 -121.178)"/><path class="f" d="M75.28,130.831v-.94l.568.326v.938Z" transform="translate(-75.28 -120.763)"/></g><g transform="translate(1.932 1.109)"><path class="f" d="M76.686,125v-.94l1.045.609v.938Z" transform="translate(-76.686 -124.058)"/><path class="f" d="M76.686,126.1v-.94l1.045.609v.938Z" transform="translate(-76.686 -123.644)"/><path class="f" d="M76.686,127.212v-.94l1.045.609v.938Z" transform="translate(-76.686 -123.229)"/><path class="f" d="M76.686,128.318v-.94l1.045.609v.938Z" transform="translate(-76.686 -122.814)"/><path class="f" d="M76.686,129.425v-.94l1.045.609v.938Z" transform="translate(-76.686 -122.4)"/><path class="f" d="M76.686,130.531v-.94l1.045.609v.938Z" transform="translate(-76.686 -121.985)"/><path class="f" d="M76.686,131.638v-.94l1.045.609v.938Z" transform="translate(-76.686 -121.57)"/></g><g transform="translate(4.241 2.447)"><path class="f" d="M78.365,125.972v-.94l.568.326v.938Z" transform="translate(-78.365 -125.032)"/><path class="f" d="M78.365,127.078v-.94l.568.326v.938Z" transform="translate(-78.365 -124.617)"/><path class="f" d="M78.365,128.185v-.94l.568.326v.938Z" transform="translate(-78.365 -124.202)"/><path class="f" d="M78.365,129.291v-.94l.568.326v.938Z" transform="translate(-78.365 -123.788)"/><path class="f" d="M78.365,130.4v-.94l.568.326v.938Z" transform="translate(-78.365 -123.373)"/><path class="f" d="M78.365,131.5v-.94l.568.326v.938Z" transform="translate(-78.365 -122.958)"/><path class="f" d="M78.365,132.611v-.94l.568.326v.938Z" transform="translate(-78.365 -122.543)"/></g></g><g transform="translate(86.288 136.45)"><g transform="translate(0 0)"><path class="f" d="M83.12,120.828v-.94l.568.326v.938Z" transform="translate(-83.12 -119.888)"/><path class="f" d="M83.12,121.935v-.94l.568.326v.938Z" transform="translate(-83.12 -119.473)"/><path class="f" d="M83.12,123.041v-.94l.568.326v.938Z" transform="translate(-83.12 -119.059)"/><path class="f" d="M83.12,124.148v-.94l.568.326v.938Z" transform="translate(-83.12 -118.644)"/><path class="f" d="M83.12,125.254v-.94l.568.326v.938Z" transform="translate(-83.12 -118.229)"/><path class="f" d="M83.12,126.361v-.94l.568.326v.938Z" transform="translate(-83.12 -117.815)"/><path class="f" d="M83.12,127.468v-.94l.568.326v.938Z" transform="translate(-83.12 -117.4)"/></g><g transform="translate(1.932 1.109)"><path class="f" d="M84.525,121.635v-.94l1.045.609v.938Z" transform="translate(-84.525 -120.695)"/><path class="f" d="M84.525,122.741v-.94l1.045.609v.938Z" transform="translate(-84.525 -120.28)"/><path class="f" d="M84.525,123.848v-.94l1.045.609v.938Z" transform="translate(-84.525 -119.865)"/><path class="f" d="M84.525,124.955v-.94l1.045.609v.938Z" transform="translate(-84.525 -119.451)"/><path class="f" d="M84.525,126.061v-.94l1.045.609v.938Z" transform="translate(-84.525 -119.036)"/><path class="f" d="M84.525,127.168v-.94l1.045.609v.938Z" transform="translate(-84.525 -118.621)"/><path class="f" d="M84.525,128.275v-.94l1.045.609v.938Z" transform="translate(-84.525 -118.207)"/></g><g transform="translate(4.241 2.447)"><path class="f" d="M86.2,122.608v-.94l.568.326v.938Z" transform="translate(-86.205 -121.668)"/><path class="f" d="M86.2,123.715v-.94l.568.326v.938Z" transform="translate(-86.205 -121.254)"/><path class="f" d="M86.2,124.821v-.94l.568.326v.938Z" transform="translate(-86.205 -120.839)"/><path class="f" d="M86.2,125.928v-.94l.568.326v.938Z" transform="translate(-86.205 -120.424)"/><path class="f" d="M86.2,127.035v-.94l.568.326v.938Z" transform="translate(-86.205 -120.009)"/><path class="f" d="M86.2,128.141v-.94l.568.326v.938Z" transform="translate(-86.205 -119.595)"/><path class="f" d="M86.2,129.248v-.94l.568.326v.938Z" transform="translate(-86.205 -119.18)"/></g></g><g transform="translate(86.288 147.136)"><g transform="translate(0 0)"><path class="f" d="M83.12,128.6v-.94l.568.326v.938Z" transform="translate(-83.12 -127.661)"/><path class="f" d="M83.12,129.708v-.94l.568.326v.938Z" transform="translate(-83.12 -127.247)"/><path class="f" d="M83.12,130.814v-.94l.568.326v.938Z" transform="translate(-83.12 -126.832)"/><path class="f" d="M83.12,131.921v-.94l.568.326v.938Z" transform="translate(-83.12 -126.417)"/><path class="f" d="M83.12,133.028v-.94l.568.326v.938Z" transform="translate(-83.12 -126.002)"/><path class="f" d="M83.12,134.134v-.94l.568.326v.938Z" transform="translate(-83.12 -125.588)"/><path class="f" d="M83.12,135.241v-.94l.568.326v.938Z" transform="translate(-83.12 -125.173)"/></g><g transform="translate(1.932 1.109)"><path class="f" d="M84.525,129.408v-.94l1.045.609v.938Z" transform="translate(-84.525 -128.468)"/><path class="f" d="M84.525,130.514v-.94l1.045.609v.938Z" transform="translate(-84.525 -128.053)"/><path class="f" d="M84.525,131.621v-.94l1.045.609v.938Z" transform="translate(-84.525 -127.639)"/><path class="f" d="M84.525,132.728v-.94l1.045.609v.938Z" transform="translate(-84.525 -127.224)"/><path class="f" d="M84.525,133.834v-.94l1.045.609v.938Z" transform="translate(-84.525 -126.809)"/><path class="f" d="M84.525,134.941V134l1.045.609v.938Z" transform="translate(-84.525 -126.394)"/><path class="f" d="M84.525,136.048v-.94l1.045.609v.938Z" transform="translate(-84.525 -125.98)"/></g><g transform="translate(4.241 2.447)"><path class="f" d="M86.2,130.381v-.94l.568.326v.938Z" transform="translate(-86.205 -129.441)"/><path class="f" d="M86.2,131.488v-.94l.568.326v.938Z" transform="translate(-86.205 -129.027)"/><path class="f" d="M86.2,132.594v-.94l.568.326v.938Z" transform="translate(-86.205 -128.612)"/><path class="f" d="M86.2,133.7v-.94l.568.326v.938Z" transform="translate(-86.205 -128.197)"/><path class="f" d="M86.2,134.808v-.94l.568.326v.938Z" transform="translate(-86.205 -127.783)"/><path class="f" d="M86.2,135.914v-.94l.568.326v.938Z" transform="translate(-86.205 -127.368)"/><path class="f" d="M86.2,137.021v-.94l.568.326v.938Z" transform="translate(-86.205 -126.953)"/></g></g><g transform="translate(92.575 134.306)"><g transform="translate(0 3.809)"><g transform="translate(1.634)"><path class="e" d="M89.58,121.727V121.1l-.7.407v.627Z" transform="translate(-88.882 -121.1)"/><path class="e" d="M89.58,122.467v-.628l-.7.407v.627Z" transform="translate(-88.882 -120.823)"/><path class="e" d="M89.58,123.206v-.628l-.7.407v.627Z" transform="translate(-88.882 -120.546)"/><path class="e" d="M89.58,123.945v-.628l-.7.407v.627Z" transform="translate(-88.882 -120.268)"/><path class="e" d="M89.58,124.685v-.628l-.7.407v.627Z" transform="translate(-88.882 -119.991)"/><path class="e" d="M89.58,125.424V124.8l-.7.407v.627Z" transform="translate(-88.882 -119.714)"/><path class="e" d="M89.58,126.163v-.628l-.7.407v.627Z" transform="translate(-88.882 -119.437)"/></g><g transform="translate(0 0.945)"><path class="e" d="M88.391,122.415v-.628l-.7.407v.627Z" transform="translate(-87.693 -121.787)"/><path class="e" d="M88.391,123.154v-.628l-.7.407v.627Z" transform="translate(-87.693 -121.51)"/><path class="e" d="M88.391,123.894v-.628l-.7.407v.627Z" transform="translate(-87.693 -121.233)"/><path class="e" d="M88.391,124.633v-.628l-.7.407v.627Z" transform="translate(-87.693 -120.956)"/><path class="e" d="M88.391,125.372v-.628l-.7.407v.627Z" transform="translate(-87.693 -120.679)"/><path class="e" d="M88.391,126.112v-.628l-.7.407v.627Z" transform="translate(-87.693 -120.402)"/><path class="e" d="M88.391,126.851v-.628l-.7.407v.626Z" transform="translate(-87.693 -120.125)"/></g><g transform="translate(1.634 7.143)"><path class="e" d="M89.58,126.923V126.3l-.7.407v.627Z" transform="translate(-88.882 -126.295)"/><path class="e" d="M89.58,127.662v-.628l-.7.407v.627Z" transform="translate(-88.882 -126.018)"/><path class="e" d="M89.58,128.4v-.628l-.7.407v.626Z" transform="translate(-88.882 -125.741)"/><path class="e" d="M89.58,129.141v-.628l-.7.407v.627Z" transform="translate(-88.882 -125.464)"/></g><g transform="translate(0 8.088)"><path class="e" d="M88.391,127.611v-.628l-.7.407v.627Z" transform="translate(-87.693 -126.983)"/><path class="e" d="M88.391,128.35v-.628l-.7.407v.627Z" transform="translate(-87.693 -126.706)"/><path class="e" d="M88.391,129.089v-.628l-.7.407v.627Z" transform="translate(-87.693 -126.429)"/><path class="e" d="M88.391,129.829V129.2l-.7.407v.626Z" transform="translate(-87.693 -126.152)"/></g></g><g transform="translate(3.369 1.864)"><g transform="translate(1.634)"><path class="e" d="M92.031,120.313v-.628l-.7.407v.627Z" transform="translate(-91.332 -119.685)"/><path class="e" d="M92.031,121.052v-.628l-.7.407v.627Z" transform="translate(-91.332 -119.408)"/><path class="e" d="M92.031,121.791v-.628l-.7.407v.627Z" transform="translate(-91.332 -119.131)"/><path class="e" d="M92.031,122.531V121.9l-.7.407v.627Z" transform="translate(-91.332 -118.854)"/><path class="e" d="M92.031,123.27v-.628l-.7.407v.627Z" transform="translate(-91.332 -118.577)"/><path class="e" d="M92.031,124.009v-.628l-.7.407v.627Z" transform="translate(-91.332 -118.3)"/><path class="e" d="M92.031,124.749v-.628l-.7.407v.627Z" transform="translate(-91.332 -118.022)"/></g><g transform="translate(0 0.945)"><path class="e" d="M90.842,121v-.628l-.7.407v.627Z" transform="translate(-90.144 -120.372)"/><path class="e" d="M90.842,121.74v-.628l-.7.407v.627Z" transform="translate(-90.144 -120.095)"/><path class="e" d="M90.842,122.479v-.628l-.7.407v.627Z" transform="translate(-90.144 -119.818)"/><path class="e" d="M90.842,123.218v-.628l-.7.407v.627Z" transform="translate(-90.144 -119.541)"/><path class="e" d="M90.842,123.958v-.628l-.7.407v.627Z" transform="translate(-90.144 -119.264)"/><path class="e" d="M90.842,124.7v-.628l-.7.407v.627Z" transform="translate(-90.144 -118.987)"/><path class="e" d="M90.842,125.436v-.628l-.7.407v.627Z" transform="translate(-90.144 -118.71)"/></g><g transform="translate(1.634 7.143)"><path class="e" d="M92.031,125.508v-.628l-.7.407v.627Z" transform="translate(-91.332 -124.881)"/><path class="e" d="M92.031,126.248v-.628l-.7.407v.627Z" transform="translate(-91.332 -124.603)"/><path class="e" d="M92.031,126.987v-.628l-.7.407v.627Z" transform="translate(-91.332 -124.326)"/><path class="e" d="M92.031,127.726V127.1l-.7.407v.627Z" transform="translate(-91.332 -124.049)"/></g><g transform="translate(0 8.088)"><path class="e" d="M90.842,126.2v-.628l-.7.407v.627Z" transform="translate(-90.144 -125.568)"/><path class="e" d="M90.842,126.935v-.628l-.7.407v.627Z" transform="translate(-90.144 -125.291)"/><path class="e" d="M90.842,127.675v-.628l-.7.407v.626Z" transform="translate(-90.144 -125.014)"/><path class="e" d="M90.842,128.414v-.628l-.7.407v.627Z" transform="translate(-90.144 -124.737)"/></g></g><g transform="translate(6.584 0)"><g transform="translate(1.634)"><path class="e" d="M94.369,118.957v-.628l-.7.407v.627Z" transform="translate(-93.671 -118.329)"/><path class="e" d="M94.369,119.7v-.628l-.7.407v.627Z" transform="translate(-93.671 -118.052)"/><path class="e" d="M94.369,120.436v-.628l-.7.407v.627Z" transform="translate(-93.671 -117.775)"/><path class="e" d="M94.369,121.175v-.628l-.7.407v.627Z" transform="translate(-93.671 -117.498)"/><path class="e" d="M94.369,121.914v-.628l-.7.407v.627Z" transform="translate(-93.671 -117.221)"/><path class="e" d="M94.369,122.654v-.628l-.7.407v.627Z" transform="translate(-93.671 -116.944)"/><path class="e" d="M94.369,123.393v-.628l-.7.407v.627Z" transform="translate(-93.671 -116.667)"/></g><g transform="translate(0 0.945)"><path class="e" d="M93.18,119.645v-.628l-.7.407v.627Z" transform="translate(-92.482 -119.017)"/><path class="e" d="M93.18,120.384v-.628l-.7.407v.627Z" transform="translate(-92.482 -118.74)"/><path class="e" d="M93.18,121.123V120.5l-.7.407v.627Z" transform="translate(-92.482 -118.463)"/><path class="e" d="M93.18,121.863v-.628l-.7.407v.627Z" transform="translate(-92.482 -118.186)"/><path class="e" d="M93.18,122.6v-.628l-.7.407v.627Z" transform="translate(-92.482 -117.909)"/><path class="e" d="M93.18,123.341v-.628l-.7.407v.627Z" transform="translate(-92.482 -117.631)"/><path class="e" d="M93.18,124.081v-.628l-.7.407v.627Z" transform="translate(-92.482 -117.354)"/></g><g transform="translate(1.634 7.143)"><path class="e" d="M94.369,124.153v-.628l-.7.407v.627Z" transform="translate(-93.671 -123.525)"/><path class="e" d="M94.369,124.892v-.628l-.7.407v.627Z" transform="translate(-93.671 -123.248)"/><path class="e" d="M94.369,125.631V125l-.7.407v.627Z" transform="translate(-93.671 -122.971)"/><path class="e" d="M94.369,126.371v-.628l-.7.407v.627Z" transform="translate(-93.671 -122.694)"/></g><g transform="translate(0 8.088)"><path class="e" d="M93.18,124.84v-.628l-.7.407v.627Z" transform="translate(-92.482 -124.212)"/><path class="e" d="M93.18,125.58v-.628l-.7.407v.627Z" transform="translate(-92.482 -123.935)"/><path class="e" d="M93.18,126.319v-.628l-.7.407v.627Z" transform="translate(-92.482 -123.658)"/><path class="e" d="M93.18,127.058v-.628l-.7.407v.627Z" transform="translate(-92.482 -123.381)"/></g></g></g><g transform="translate(92.575 145.597)"><g transform="translate(0 3.809)"><g transform="translate(1.634)"><path class="e" d="M89.58,129.94v-.628l-.7.407v.627Z" transform="translate(-88.882 -129.312)"/><path class="e" d="M89.58,130.679v-.628l-.7.407v.627Z" transform="translate(-88.882 -129.035)"/><path class="e" d="M89.58,131.419v-.628l-.7.407v.627Z" transform="translate(-88.882 -128.758)"/><path class="e" d="M89.58,132.158v-.628l-.7.407v.627Z" transform="translate(-88.882 -128.481)"/><path class="e" d="M89.58,132.9v-.628l-.7.407v.626Z" transform="translate(-88.882 -128.204)"/><path class="e" d="M89.58,133.637v-.628l-.7.407v.626Z" transform="translate(-88.882 -127.927)"/><path class="e" d="M89.58,134.376v-.628l-.7.407v.627Z" transform="translate(-88.882 -127.65)"/></g><g transform="translate(0 0.945)"><path class="e" d="M88.391,130.628V130l-.7.407v.627Z" transform="translate(-87.693 -130)"/><path class="e" d="M88.391,131.367v-.628l-.7.407v.627Z" transform="translate(-87.693 -129.723)"/><path class="e" d="M88.391,132.106v-.628l-.7.407v.627Z" transform="translate(-87.693 -129.446)"/><path class="e" d="M88.391,132.846v-.628l-.7.407v.627Z" transform="translate(-87.693 -129.169)"/><path class="e" d="M88.391,133.585v-.628l-.7.407v.627Z" transform="translate(-87.693 -128.892)"/><path class="e" d="M88.391,134.324V133.7l-.7.407v.627Z" transform="translate(-87.693 -128.615)"/><path class="e" d="M88.391,135.064v-.628l-.7.407v.627Z" transform="translate(-87.693 -128.338)"/></g><g transform="translate(1.634 7.143)"><path class="e" d="M89.58,135.136v-.628l-.7.407v.627Z" transform="translate(-88.882 -134.508)"/><path class="e" d="M89.58,135.875v-.628l-.7.407v.627Z" transform="translate(-88.882 -134.231)"/><path class="e" d="M89.58,136.614v-.628l-.7.407v.627Z" transform="translate(-88.882 -133.954)"/><path class="e" d="M89.58,137.354v-.628l-.7.407v.627Z" transform="translate(-88.882 -133.677)"/></g><g transform="translate(0 8.088)"><path class="e" d="M88.391,135.823V135.2l-.7.407v.627Z" transform="translate(-87.693 -135.196)"/><path class="e" d="M88.391,136.563v-.628l-.7.407v.627Z" transform="translate(-87.693 -134.919)"/><path class="e" d="M88.391,137.3v-.628l-.7.407v.627Z" transform="translate(-87.693 -134.641)"/><path class="e" d="M88.391,138.041v-.628l-.7.407v.627Z" transform="translate(-87.693 -134.364)"/></g></g><g transform="translate(3.369 1.864)"><g transform="translate(1.634)"><path class="e" d="M92.031,128.525V127.9l-.7.407v.627Z" transform="translate(-91.332 -127.897)"/><path class="e" d="M92.031,129.265v-.628l-.7.407v.627Z" transform="translate(-91.332 -127.62)"/><path class="e" d="M92.031,130v-.628l-.7.407v.627Z" transform="translate(-91.332 -127.343)"/><path class="e" d="M92.031,130.743v-.628l-.7.407v.626Z" transform="translate(-91.332 -127.066)"/><path class="e" d="M92.031,131.483v-.628l-.7.407v.627Z" transform="translate(-91.332 -126.789)"/><path class="e" d="M92.031,132.222v-.628l-.7.407v.627Z" transform="translate(-91.332 -126.512)"/><path class="e" d="M92.031,132.961v-.628l-.7.407v.626Z" transform="translate(-91.332 -126.235)"/></g><g transform="translate(0 0.945)"><path class="e" d="M90.842,129.213v-.628l-.7.407v.627Z" transform="translate(-90.144 -128.585)"/><path class="e" d="M90.842,129.952v-.628l-.7.407v.627Z" transform="translate(-90.144 -128.308)"/><path class="e" d="M90.842,130.692v-.628l-.7.407v.627Z" transform="translate(-90.144 -128.031)"/><path class="e" d="M90.842,131.431V130.8l-.7.407v.626Z" transform="translate(-90.144 -127.754)"/><path class="e" d="M90.842,132.17v-.628l-.7.407v.627Z" transform="translate(-90.144 -127.477)"/><path class="e" d="M90.842,132.91v-.628l-.7.407v.627Z" transform="translate(-90.144 -127.2)"/><path class="e" d="M90.842,133.649v-.628l-.7.407v.627Z" transform="translate(-90.144 -126.923)"/></g><g transform="translate(1.634 7.143)"><path class="e" d="M92.031,133.721v-.628l-.7.407v.627Z" transform="translate(-91.332 -133.093)"/><path class="e" d="M92.031,134.46v-.628l-.7.407v.627Z" transform="translate(-91.332 -132.816)"/><path class="e" d="M92.031,135.2v-.628l-.7.407v.626Z" transform="translate(-91.332 -132.539)"/><path class="e" d="M92.031,135.939v-.628l-.7.407v.627Z" transform="translate(-91.332 -132.262)"/></g><g transform="translate(0 8.088)"><path class="e" d="M90.842,134.409v-.628l-.7.407v.627Z" transform="translate(-90.144 -133.781)"/><path class="e" d="M90.842,135.148v-.628l-.7.407v.627Z" transform="translate(-90.144 -133.504)"/><path class="e" d="M90.842,135.887v-.628l-.7.407v.627Z" transform="translate(-90.144 -133.227)"/><path class="e" d="M90.842,136.627V136l-.7.407v.627Z" transform="translate(-90.144 -132.95)"/></g></g><g transform="translate(6.584 0)"><g transform="translate(1.634)"><path class="e" d="M94.369,127.17v-.628l-.7.407v.627Z" transform="translate(-93.671 -126.542)"/><path class="e" d="M94.369,127.909v-.628l-.7.407v.627Z" transform="translate(-93.671 -126.265)"/><path class="e" d="M94.369,128.648v-.628l-.7.407v.627Z" transform="translate(-93.671 -125.988)"/><path class="e" d="M94.369,129.388v-.628l-.7.407v.627Z" transform="translate(-93.671 -125.711)"/><path class="e" d="M94.369,130.127V129.5l-.7.407v.626Z" transform="translate(-93.671 -125.434)"/><path class="e" d="M94.369,130.866v-.628l-.7.407v.627Z" transform="translate(-93.671 -125.157)"/><path class="e" d="M94.369,131.606v-.628l-.7.407v.627Z" transform="translate(-93.671 -124.879)"/></g><g transform="translate(0 0.945)"><path class="e" d="M93.18,127.857v-.628l-.7.407v.627Z" transform="translate(-92.482 -127.229)"/><path class="e" d="M93.18,128.6v-.628l-.7.407V129Z" transform="translate(-92.482 -126.952)"/><path class="e" d="M93.18,129.336v-.628l-.7.407v.627Z" transform="translate(-92.482 -126.675)"/><path class="e" d="M93.18,130.075v-.628l-.7.407v.626Z" transform="translate(-92.482 -126.398)"/><path class="e" d="M93.18,130.815v-.628l-.7.407v.627Z" transform="translate(-92.482 -126.121)"/><path class="e" d="M93.18,131.554v-.628l-.7.407v.627Z" transform="translate(-92.482 -125.844)"/><path class="e" d="M93.18,132.293v-.628l-.7.407v.626Z" transform="translate(-92.482 -125.567)"/></g><g transform="translate(1.634 7.143)"><path class="e" d="M94.369,132.365v-.628l-.7.407v.627Z" transform="translate(-93.671 -131.738)"/><path class="e" d="M94.369,133.1v-.628l-.7.407v.627Z" transform="translate(-93.671 -131.46)"/><path class="e" d="M94.369,133.844v-.628l-.7.407v.626Z" transform="translate(-93.671 -131.183)"/><path class="e" d="M94.369,134.583v-.628l-.7.407v.627Z" transform="translate(-93.671 -130.906)"/></g><g transform="translate(0 8.088)"><path class="e" d="M93.18,133.053v-.628l-.7.407v.627Z" transform="translate(-92.482 -132.425)"/><path class="e" d="M93.18,133.792v-.628l-.7.407v.627Z" transform="translate(-92.482 -132.148)"/><path class="e" d="M93.18,134.532V133.9l-.7.407v.627Z" transform="translate(-92.482 -131.871)"/><path class="e" d="M93.18,135.271v-.628l-.7.407v.627Z" transform="translate(-92.482 -131.594)"/></g></g></g><g transform="translate(92.486 134.362)"><g transform="translate(0 3.809)"><g transform="translate(1.634)"><path class="f" d="M89.515,121.768v-.628l-.7.407v.627Z" transform="translate(-88.817 -121.14)"/><path class="f" d="M89.515,122.507v-.628l-.7.407v.627Z" transform="translate(-88.817 -120.863)"/><path class="f" d="M89.515,123.246v-.628l-.7.407v.627Z" transform="translate(-88.817 -120.586)"/><path class="f" d="M89.515,123.986v-.628l-.7.407v.627Z" transform="translate(-88.817 -120.309)"/><path class="f" d="M89.515,124.725V124.1l-.7.407v.627Z" transform="translate(-88.817 -120.032)"/><path class="f" d="M89.515,125.464v-.628l-.7.407v.627Z" transform="translate(-88.817 -119.755)"/><path class="f" d="M89.515,126.2v-.628l-.7.407v.627Z" transform="translate(-88.817 -119.478)"/></g><g transform="translate(0 0.945)"><path class="f" d="M88.327,122.455v-.628l-.7.407v.627Z" transform="translate(-87.629 -121.828)"/><path class="f" d="M88.327,123.195v-.628l-.7.407v.627Z" transform="translate(-87.629 -121.551)"/><path class="f" d="M88.327,123.934v-.628l-.7.407v.627Z" transform="translate(-87.629 -121.274)"/><path class="f" d="M88.327,124.673v-.628l-.7.407v.627Z" transform="translate(-87.629 -120.996)"/><path class="f" d="M88.327,125.413v-.628l-.7.407v.627Z" transform="translate(-87.629 -120.719)"/><path class="f" d="M88.327,126.152v-.628l-.7.407v.627Z" transform="translate(-87.629 -120.442)"/><path class="f" d="M88.327,126.891v-.628l-.7.407v.627Z" transform="translate(-87.629 -120.165)"/></g><g transform="translate(1.634 7.143)"><path class="f" d="M89.515,126.964v-.628l-.7.407v.627Z" transform="translate(-88.817 -126.336)"/><path class="f" d="M89.515,127.7v-.628l-.7.407v.627Z" transform="translate(-88.817 -126.059)"/><path class="f" d="M89.515,128.442v-.628l-.7.407v.626Z" transform="translate(-88.817 -125.782)"/><path class="f" d="M89.515,129.181v-.628l-.7.407v.627Z" transform="translate(-88.817 -125.505)"/></g><g transform="translate(0 8.088)"><path class="f" d="M88.327,127.651v-.628l-.7.407v.627Z" transform="translate(-87.629 -127.023)"/><path class="f" d="M88.327,128.39v-.628l-.7.407v.627Z" transform="translate(-87.629 -126.746)"/><path class="f" d="M88.327,129.13V128.5l-.7.407v.627Z" transform="translate(-87.629 -126.469)"/><path class="f" d="M88.327,129.869v-.628l-.7.407v.627Z" transform="translate(-87.629 -126.192)"/></g></g><g transform="translate(3.369 1.864)"><g transform="translate(1.634)"><path class="f" d="M91.966,120.353v-.628l-.7.407v.627Z" transform="translate(-91.268 -119.725)"/><path class="f" d="M91.966,121.092v-.628l-.7.407v.627Z" transform="translate(-91.268 -119.448)"/><path class="f" d="M91.966,121.832V121.2l-.7.407v.627Z" transform="translate(-91.268 -119.171)"/><path class="f" d="M91.966,122.571v-.628l-.7.407v.627Z" transform="translate(-91.268 -118.894)"/><path class="f" d="M91.966,123.31v-.628l-.7.407v.627Z" transform="translate(-91.268 -118.617)"/><path class="f" d="M91.966,124.05v-.628l-.7.407v.627Z" transform="translate(-91.268 -118.34)"/><path class="f" d="M91.966,124.789v-.628l-.7.407v.627Z" transform="translate(-91.268 -118.063)"/></g><g transform="translate(0 0.945)"><path class="f" d="M90.778,121.041v-.628l-.7.407v.627Z" transform="translate(-90.08 -120.413)"/><path class="f" d="M90.778,121.78v-.628l-.7.407v.627Z" transform="translate(-90.08 -120.136)"/><path class="f" d="M90.778,122.519v-.628l-.7.407v.627Z" transform="translate(-90.08 -119.859)"/><path class="f" d="M90.778,123.259v-.628l-.7.407v.626Z" transform="translate(-90.08 -119.582)"/><path class="f" d="M90.778,124v-.628l-.7.407v.627Z" transform="translate(-90.08 -119.305)"/><path class="f" d="M90.778,124.737v-.628l-.7.407v.627Z" transform="translate(-90.08 -119.028)"/><path class="f" d="M90.778,125.477v-.628l-.7.407v.626Z" transform="translate(-90.08 -118.75)"/></g><g transform="translate(1.634 7.143)"><path class="f" d="M91.966,125.549v-.628l-.7.407v.627Z" transform="translate(-91.268 -124.921)"/><path class="f" d="M91.966,126.288v-.628l-.7.407v.627Z" transform="translate(-91.268 -124.644)"/><path class="f" d="M91.966,127.027V126.4l-.7.407v.627Z" transform="translate(-91.268 -124.367)"/><path class="f" d="M91.966,127.767v-.628l-.7.407v.627Z" transform="translate(-91.268 -124.09)"/></g><g transform="translate(0 8.088)"><path class="f" d="M90.778,126.236v-.628l-.7.407v.627Z" transform="translate(-90.08 -125.608)"/><path class="f" d="M90.778,126.976v-.628l-.7.407v.627Z" transform="translate(-90.08 -125.331)"/><path class="f" d="M90.778,127.715v-.628l-.7.407v.627Z" transform="translate(-90.08 -125.054)"/><path class="f" d="M90.778,128.454v-.628l-.7.407v.627Z" transform="translate(-90.08 -124.777)"/></g></g><g transform="translate(6.584 0)"><g transform="translate(1.634)"><path class="f" d="M94.3,119v-.628l-.7.407v.627Z" transform="translate(-93.606 -118.37)"/><path class="f" d="M94.3,119.737v-.628l-.7.407v.627Z" transform="translate(-93.606 -118.093)"/><path class="f" d="M94.3,120.476v-.628l-.7.407v.627Z" transform="translate(-93.606 -117.815)"/><path class="f" d="M94.3,121.215v-.628l-.7.407v.627Z" transform="translate(-93.606 -117.538)"/><path class="f" d="M94.3,121.955v-.628l-.7.407v.627Z" transform="translate(-93.606 -117.261)"/><path class="f" d="M94.3,122.694v-.628l-.7.407v.627Z" transform="translate(-93.606 -116.984)"/><path class="f" d="M94.3,123.433v-.628l-.7.407v.627Z" transform="translate(-93.606 -116.707)"/></g><g transform="translate(0 0.945)"><path class="f" d="M93.116,119.685v-.628l-.7.407v.626Z" transform="translate(-92.418 -119.057)"/><path class="f" d="M93.116,120.424V119.8l-.7.407v.627Z" transform="translate(-92.418 -118.78)"/><path class="f" d="M93.116,121.164v-.628l-.7.407v.627Z" transform="translate(-92.418 -118.503)"/><path class="f" d="M93.116,121.9v-.628l-.7.407v.627Z" transform="translate(-92.418 -118.226)"/><path class="f" d="M93.116,122.642v-.628l-.7.407v.627Z" transform="translate(-92.418 -117.949)"/><path class="f" d="M93.116,123.382v-.628l-.7.407v.627Z" transform="translate(-92.418 -117.672)"/><path class="f" d="M93.116,124.121v-.628l-.7.407v.627Z" transform="translate(-92.418 -117.395)"/></g><g transform="translate(1.634 7.143)"><path class="f" d="M94.3,124.193v-.628l-.7.407v.626Z" transform="translate(-93.606 -123.565)"/><path class="f" d="M94.3,124.932V124.3l-.7.407v.627Z" transform="translate(-93.606 -123.288)"/><path class="f" d="M94.3,125.672v-.628l-.7.407v.626Z" transform="translate(-93.606 -123.011)"/><path class="f" d="M94.3,126.411v-.628l-.7.407v.626Z" transform="translate(-93.606 -122.734)"/></g><g transform="translate(0 8.088)"><path class="f" d="M93.116,124.881v-.628l-.7.407v.627Z" transform="translate(-92.418 -124.253)"/><path class="f" d="M93.116,125.62v-.628l-.7.407v.627Z" transform="translate(-92.418 -123.976)"/><path class="f" d="M93.116,126.359v-.628l-.7.407v.627Z" transform="translate(-92.418 -123.699)"/><path class="f" d="M93.116,127.1v-.628l-.7.407v.627Z" transform="translate(-92.418 -123.422)"/></g></g></g><g transform="translate(92.486 145.652)"><g transform="translate(0 3.809)"><g transform="translate(1.634)"><path class="f" d="M89.515,129.981v-.628l-.7.407v.627Z" transform="translate(-88.817 -129.353)"/><path class="f" d="M89.515,130.72v-.628l-.7.407v.627Z" transform="translate(-88.817 -129.076)"/><path class="f" d="M89.515,131.459v-.628l-.7.407v.627Z" transform="translate(-88.817 -128.799)"/><path class="f" d="M89.515,132.2v-.628l-.7.407v.627Z" transform="translate(-88.817 -128.522)"/><path class="f" d="M89.515,132.938v-.628l-.7.407v.626Z" transform="translate(-88.817 -128.244)"/><path class="f" d="M89.515,133.677v-.628l-.7.407v.627Z" transform="translate(-88.817 -127.967)"/><path class="f" d="M89.515,134.416v-.628l-.7.407v.627Z" transform="translate(-88.817 -127.69)"/></g><g transform="translate(0 0.945)"><path class="f" d="M88.327,130.668v-.628l-.7.407v.627Z" transform="translate(-87.629 -130.04)"/><path class="f" d="M88.327,131.407v-.628l-.7.407v.627Z" transform="translate(-87.629 -129.763)"/><path class="f" d="M88.327,132.147v-.628l-.7.407v.627Z" transform="translate(-87.629 -129.486)"/><path class="f" d="M88.327,132.886v-.628l-.7.407v.627Z" transform="translate(-87.629 -129.209)"/><path class="f" d="M88.327,133.625V133l-.7.407v.626Z" transform="translate(-87.629 -128.932)"/><path class="f" d="M88.327,134.365v-.628l-.7.407v.627Z" transform="translate(-87.629 -128.655)"/><path class="f" d="M88.327,135.1v-.628l-.7.407v.627Z" transform="translate(-87.629 -128.378)"/></g><g transform="translate(1.634 7.143)"><path class="f" d="M89.515,135.176v-.628l-.7.407v.627Z" transform="translate(-88.817 -134.548)"/><path class="f" d="M89.515,135.915v-.628l-.7.407v.627Z" transform="translate(-88.817 -134.271)"/><path class="f" d="M89.515,136.655v-.628l-.7.407v.627Z" transform="translate(-88.817 -133.994)"/><path class="f" d="M89.515,137.394v-.628l-.7.407v.627Z" transform="translate(-88.817 -133.717)"/></g><g transform="translate(0 8.088)"><path class="f" d="M88.327,135.864v-.628l-.7.407v.627Z" transform="translate(-87.629 -135.236)"/><path class="f" d="M88.327,136.6v-.628l-.7.407v.627Z" transform="translate(-87.629 -134.959)"/><path class="f" d="M88.327,137.342v-.628l-.7.407v.627Z" transform="translate(-87.629 -134.682)"/><path class="f" d="M88.327,138.082v-.628l-.7.407v.627Z" transform="translate(-87.629 -134.405)"/></g></g><g transform="translate(3.369 1.864)"><g transform="translate(1.634)"><path class="f" d="M91.966,128.566v-.628l-.7.407v.627Z" transform="translate(-91.268 -127.938)"/><path class="f" d="M91.966,129.305v-.628l-.7.407v.626Z" transform="translate(-91.268 -127.661)"/><path class="f" d="M91.966,130.044v-.628l-.7.407v.627Z" transform="translate(-91.268 -127.384)"/><path class="f" d="M91.966,130.784v-.628l-.7.407v.627Z" transform="translate(-91.268 -127.107)"/><path class="f" d="M91.966,131.523V130.9l-.7.407v.627Z" transform="translate(-91.268 -126.83)"/><path class="f" d="M91.966,132.262v-.628l-.7.407v.626Z" transform="translate(-91.268 -126.553)"/><path class="f" d="M91.966,133v-.628l-.7.407v.627Z" transform="translate(-91.268 -126.276)"/></g><g transform="translate(0 0.945)"><path class="f" d="M90.778,129.253v-.628l-.7.407v.627Z" transform="translate(-90.08 -128.625)"/><path class="f" d="M90.778,129.993v-.628l-.7.407v.627Z" transform="translate(-90.08 -128.348)"/><path class="f" d="M90.778,130.732V130.1l-.7.407v.627Z" transform="translate(-90.08 -128.071)"/><path class="f" d="M90.778,131.471v-.628l-.7.407v.627Z" transform="translate(-90.08 -127.794)"/><path class="f" d="M90.778,132.211v-.628l-.7.407v.627Z" transform="translate(-90.08 -127.517)"/><path class="f" d="M90.778,132.95v-.628l-.7.407v.627Z" transform="translate(-90.08 -127.24)"/><path class="f" d="M90.778,133.689v-.628l-.7.407v.627Z" transform="translate(-90.08 -126.963)"/></g><g transform="translate(1.634 7.143)"><path class="f" d="M91.966,133.761v-.628l-.7.407v.627Z" transform="translate(-91.268 -133.134)"/><path class="f" d="M91.966,134.5v-.628l-.7.407v.627Z" transform="translate(-91.268 -132.856)"/><path class="f" d="M91.966,135.24v-.628l-.7.407v.627Z" transform="translate(-91.268 -132.579)"/><path class="f" d="M91.966,135.979v-.628l-.7.407v.627Z" transform="translate(-91.268 -132.302)"/></g><g transform="translate(0 8.088)"><path class="f" d="M90.778,134.449v-.628l-.7.407v.627Z" transform="translate(-90.08 -133.821)"/><path class="f" d="M90.778,135.188v-.628l-.7.407v.627Z" transform="translate(-90.08 -133.544)"/><path class="f" d="M90.778,135.928V135.3l-.7.407v.627Z" transform="translate(-90.08 -133.267)"/><path class="f" d="M90.778,136.667v-.628l-.7.407v.627Z" transform="translate(-90.08 -132.99)"/></g></g><g transform="translate(6.584)"><g transform="translate(1.634)"><path class="f" d="M94.3,127.21v-.628l-.7.407v.627Z" transform="translate(-93.606 -126.582)"/><path class="f" d="M94.3,127.949v-.628l-.7.407v.627Z" transform="translate(-93.606 -126.305)"/><path class="f" d="M94.3,128.689v-.628l-.7.407v.626Z" transform="translate(-93.606 -126.028)"/><path class="f" d="M94.3,129.428V128.8l-.7.407v.627Z" transform="translate(-93.606 -125.751)"/><path class="f" d="M94.3,130.167v-.628l-.7.407v.627Z" transform="translate(-93.606 -125.474)"/><path class="f" d="M94.3,130.907v-.628l-.7.407v.626Z" transform="translate(-93.606 -125.197)"/><path class="f" d="M94.3,131.646v-.628l-.7.407v.626Z" transform="translate(-93.606 -124.92)"/></g><g transform="translate(0 0.945)"><path class="f" d="M93.116,127.9v-.628l-.7.407v.627Z" transform="translate(-92.418 -127.27)"/><path class="f" d="M93.116,128.637v-.628l-.7.407v.627Z" transform="translate(-92.418 -126.993)"/><path class="f" d="M93.116,129.376v-.628l-.7.407v.627Z" transform="translate(-92.418 -126.716)"/><path class="f" d="M93.116,130.116v-.628l-.7.407v.627Z" transform="translate(-92.418 -126.439)"/><path class="f" d="M93.116,130.855v-.628l-.7.407v.627Z" transform="translate(-92.418 -126.162)"/><path class="f" d="M93.116,131.594v-.628l-.7.407V132Z" transform="translate(-92.418 -125.885)"/><path class="f" d="M93.116,132.334v-.628l-.7.407v.627Z" transform="translate(-92.418 -125.607)"/></g><g transform="translate(1.634 7.143)"><path class="f" d="M94.3,132.406v-.628l-.7.407v.627Z" transform="translate(-93.606 -131.778)"/><path class="f" d="M94.3,133.145v-.628l-.7.407v.627Z" transform="translate(-93.606 -131.501)"/><path class="f" d="M94.3,133.884v-.628l-.7.407v.627Z" transform="translate(-93.606 -131.224)"/><path class="f" d="M94.3,134.624V134l-.7.407v.627Z" transform="translate(-93.606 -130.947)"/></g><g transform="translate(0 8.088)"><path class="f" d="M93.116,133.093v-.628l-.7.407v.627Z" transform="translate(-92.418 -132.465)"/><path class="f" d="M93.116,133.833V133.2l-.7.407v.627Z" transform="translate(-92.418 -132.188)"/><path class="f" d="M93.116,134.572v-.628l-.7.407v.627Z" transform="translate(-92.418 -131.911)"/><path class="f" d="M93.116,135.311v-.628l-.7.407v.627Z" transform="translate(-92.418 -131.634)"/></g></g></g><g transform="translate(87.462 126.347)"><path class="e" d="M83.975,113.25v-.71l.429.246v.708Z" transform="translate(-83.975 -112.54)"/><path class="e" d="M83.975,114.086v-.71l.429.246v.708Z" transform="translate(-83.975 -112.227)"/><path class="e" d="M83.975,114.921v-.71l.429.246v.708Z" transform="translate(-83.975 -111.913)"/><path class="e" d="M83.975,115.757v-.71l.429.246V116Z" transform="translate(-83.975 -111.6)"/><path class="e" d="M83.975,116.593v-.71l.429.246v.708Z" transform="translate(-83.975 -111.287)"/><path class="e" d="M83.975,117.429v-.71l.429.246v.708Z" transform="translate(-83.975 -110.973)"/><path class="e" d="M83.975,118.265v-.71l.429.246v.708Z" transform="translate(-83.975 -110.66)"/></g><g transform="translate(88.922 127.185)"><path class="e" d="M85.036,113.859v-.71l.789.46v.708Z" transform="translate(-85.036 -113.149)"/><path class="e" d="M85.036,114.695v-.71l.789.46v.708Z" transform="translate(-85.036 -112.836)"/><path class="e" d="M85.036,115.531v-.71l.789.46v.708Z" transform="translate(-85.036 -112.523)"/><path class="e" d="M85.036,116.367v-.71l.789.46v.708Z" transform="translate(-85.036 -112.209)"/><path class="e" d="M85.036,117.2v-.71l.789.46v.708Z" transform="translate(-85.036 -111.896)"/><path class="e" d="M85.036,118.039v-.71l.789.46v.708Z" transform="translate(-85.036 -111.583)"/><path class="e" d="M85.036,118.875v-.71l.789.46v.708Z" transform="translate(-85.036 -111.27)"/></g><g transform="translate(90.666 128.196)"><path class="e" d="M86.3,114.594v-.71l.429.246v.708Z" transform="translate(-86.305 -113.884)"/><path class="e" d="M86.3,115.43v-.71l.429.246v.708Z" transform="translate(-86.305 -113.571)"/><path class="e" d="M86.3,116.266v-.71l.429.246v.708Z" transform="translate(-86.305 -113.258)"/><path class="e" d="M86.3,117.1v-.71l.429.246v.708Z" transform="translate(-86.305 -112.945)"/><path class="e" d="M86.3,117.938v-.71l.429.246v.708Z" transform="translate(-86.305 -112.631)"/><path class="e" d="M86.3,118.774v-.71l.429.246v.708Z" transform="translate(-86.305 -112.318)"/><path class="e" d="M86.3,119.61v-.71l.429.246v.708Z" transform="translate(-86.305 -112.005)"/></g></g></svg>