<svg xmlns="http://www.w3.org/2000/svg" width="34.666" height="75.556" viewBox="0 0 34.666 75.556"><defs><style>.a{fill:#3caf5c;}.b{fill:#2f9a53;}.c,.f,.h{fill:#1e8a51;}.c{opacity:0.6;}.d{fill:#53bf73;}.d,.i{stroke:#53bf73;stroke-miterlimit:10;}.e{fill:#7fd689;}.f{opacity:0.8;}.g{fill:#80d687;}.i{fill:none;stroke-width:1.327px;}</style></defs><g transform="translate(-82.311 -142.121)"><g transform="translate(82.811 142.83)"><path class="a" d="M83.636,158.76l11.63,6.714v46.867l-11.63-6.714Z" transform="translate(-82.535 -137.498)"/><rect class="b" width="3.634" height="49.564" transform="translate(12.73 25.218)"/><path class="a" d="M107.344,199.11l-12.26,17.079-.012-47.235L111.3,147.276V193.6Z" transform="translate(-78.707 -141.342)"/><path class="c" d="M95.084,216.188l-.012-47.235L111.3,147.276V193.6" transform="translate(-78.707 -141.342)"/><path class="d" d="M115.959,145.564l-1.991-1.07a2.132,2.132,0,0,0-1.9.044l-28.878,17.3a.59.59,0,0,0,.008,1.108l12.392,7.2c.518.3,3.9.192,4.248-.295l16.44-22.891A.933.933,0,0,0,115.959,145.564Z" transform="translate(-82.811 -142.34)"/><path class="b" d="M84.865,162.881l9.989,5.789,3.647,0,16.215-22.487v-2.019l-2.152.433-.464.191L84.865,160.47Z" transform="translate(-82.124 -142.383)"/><path class="e" d="M114,143.142a2.015,2.015,0,0,0-1.9.044S86.216,158.7,85.433,159.168a1.327,1.327,0,0,0-.561,1.4v1.439a1.162,1.162,0,0,1,.561-.821c.783-.473,26.675-15.983,26.675-15.983a2.015,2.015,0,0,1,1.9-.044.791.791,0,0,1,.424.558v-1.547A.914.914,0,0,0,114,143.142Z" transform="translate(-82.131 -142.798)"/><path class="f" d="M114,143.142a2.015,2.015,0,0,0-1.9.044S86.216,158.7,85.433,159.168a1.327,1.327,0,0,0-.561,1.4v1.439a1.162,1.162,0,0,1,.561-.821c.783-.473,26.675-15.983,26.675-15.983a2.015,2.015,0,0,1,1.9-.044.791.791,0,0,1,.424.558v-1.547A.914.914,0,0,0,114,143.142Z" transform="translate(-82.131 -142.798)"/><path class="g" d="M83.636,188.34l11.63,6.714v2.52l-11.63-6.714Z" transform="translate(-82.535 -127.596)"/><path class="g" d="M83.636,182.04l11.63,6.714v2.52l-11.63-6.714Z" transform="translate(-82.535 -129.705)"/><path class="g" d="M83.636,175.74l11.63,6.714v2.52l-11.63-6.714Z" transform="translate(-82.535 -131.814)"/><path class="g" d="M83.636,169.441l11.63,6.714v2.52l-11.63-6.714Z" transform="translate(-82.535 -133.923)"/><path class="g" d="M83.636,163.141l11.63,6.714v2.52l-11.63-6.714Z" transform="translate(-82.535 -136.031)"/><rect class="g" width="3.634" height="2.511" transform="translate(12.73 67.468)"/><rect class="g" width="3.634" height="2.511" transform="translate(12.73 59.059)"/><rect class="g" width="3.634" height="2.511" transform="translate(12.73 50.651)"/><rect class="g" width="3.634" height="2.511" transform="translate(12.73 42.242)"/><rect class="g" width="3.634" height="2.511" transform="translate(12.73 33.833)"/><path class="h" d="M95.084,201.457l-.012-2.534L111.3,176.741v2.128Z" transform="translate(-78.707 -131.479)"/><path class="h" d="M95.084,195.207l-.012-2.534L111.3,170.491v2.128Z" transform="translate(-78.707 -133.571)"/><path class="h" d="M95.084,188.856l-.012-2.534L111.3,164.14v2.128Z" transform="translate(-78.707 -135.697)"/><path class="h" d="M95.084,182.643l-.012-2.534L111.3,157.927v2.128Z" transform="translate(-78.707 -137.777)"/><path class="h" d="M95.084,176.269l-.012-2.534L111.3,151.553v2.128Z" transform="translate(-78.707 -139.91)"/><path class="c" d="M107.344,151.694l-12.26,17.079-.012-2.93L111.3,144.166v2.019Z" transform="translate(-78.707 -142.383)"/><path class="i" d="M114.287,143.257l-.423-.259a1.786,1.786,0,0,0-1.586.036L84.836,159.493a.493.493,0,0,0,.007.926l9.57,5.8c.434.252,4.27.3,4.563-.105l15.582-21.688A.782.782,0,0,0,114.287,143.257Z" transform="translate(-82.24 -142.83)"/></g></g></svg>