<svg xmlns="http://www.w3.org/2000/svg" viewBox="0 0 127.557 163.693"><title>PageFooterIcons</title><g id="Layer_1" data-name="Layer 1"><path d="M105.659,16H79.107V14.66a3.263,3.263,0,0,0-3.219-3.218H52.152a3.264,3.264,0,0,0-3.218,3.218V16H22.248A14.023,14.023,0,0,0,8.3,29.948V130.121c0,4.292,2.28,7.778,5.632,10.326v10.46a9.758,9.758,0,0,0,9.79,9.789H26.54a9.757,9.757,0,0,0,9.789-9.789v-6.973H91.981v6.973a9.757,9.757,0,0,0,9.789,9.789h2.816a9.758,9.758,0,0,0,9.79-9.789v-9.789a14.028,14.028,0,0,0,5.632-11.131V29.814A14.532,14.532,0,0,0,105.659,16ZM13.8,99.412V63.339H114.108v42.353c-49.618,11.733-90.689,2.155-100.308-.444V99.412Zm19.444,24.675a6.7,6.7,0,1,1-13.409,0,6.7,6.7,0,1,1,13.409,0Zm58.737,0a6.7,6.7,0,0,1,13.41,0,6.7,6.7,0,1,1-13.41,0Zm22.127-64.369h-2.951V55.829c0-2.682-1.877-4.827-4.023-4.827H95.2c-2.279,0-4.023,2.145-4.023,4.827v3.889H88.9V55.829C88.9,53.147,87.019,51,84.873,51H72.938c-2.28,0-4.022,2.145-4.022,4.827v3.889H65.3V46.845h48.813Zm-51.495,0H58.992V55.829c0-2.682-1.877-4.827-4.023-4.827H43.034c-2.28,0-4.023,2.145-4.023,4.827v3.889H36.6V55.829C36.6,53.147,34.72,51,32.574,51H20.639c-2.28,0-4.023,2.145-4.023,4.827v3.889H13.8V46.845H62.613ZM13.8,38.128V29.814A8.356,8.356,0,0,1,22.114,21.5h83.545a8.357,8.357,0,0,1,8.315,8.315l.134,8.448v5.9H13.8V38.128ZM30.562,150.907a4.014,4.014,0,0,1-4.156,4.157H23.59a4.015,4.015,0,0,1-4.158-4.157v-7.644a14.929,14.929,0,0,0,4.158.671h6.972Zm77.914,0a4.015,4.015,0,0,1-4.158,4.157H101.5a4.015,4.015,0,0,1-4.157-4.157v-6.973h8.314a18.279,18.279,0,0,0,2.817-.268Z" style="fill:#fff"/></g></svg>