<svg xmlns="http://www.w3.org/2000/svg" width="22.903" height="37.84" viewBox="0 0 22.903 37.84"><defs><style>.a{fill:#fff;}</style></defs><g transform="translate(-401 -431)"><path class="a" d="M19.9,37.84H3a3,3,0,0,1-3-3V3A3,3,0,0,1,3,0H19.9a3,3,0,0,1,3,3V34.839A3,3,0,0,1,19.9,37.84Zm-8.451-5.1a1.677,1.677,0,1,0,1.677,1.678A1.68,1.68,0,0,0,11.452,32.738ZM3.362,1.93a2,2,0,0,0-2,2V29.376a2,2,0,0,0,2,2H19.541a2,2,0,0,0,2-2V3.93a2,2,0,0,0-2-2Z" transform="translate(401 431)"/><g transform="translate(405.332 439.862)"><path class="a" d="M535.317,366.662c-.869,0-1.738-.007-2.606,0a.483.483,0,0,1-.515-.517q.007-2.607,0-5.213a.485.485,0,0,1,.524-.52c1.738.008,3.475,0,5.213,0a.454.454,0,0,1,.515.52c0,1.738,0,3.475,0,5.213a.491.491,0,0,1-.517.514C537.063,366.653,536.19,366.662,535.317,366.662Zm.012-4.015c-.21,0-.42,0-.63,0-.184,0-.269.085-.27.27q0,.624,0,1.248a.238.238,0,0,0,.269.273q.624,0,1.248,0c.19,0,.274-.086.275-.278q0-.618,0-1.236c0-.2-.079-.275-.285-.277S535.531,362.647,535.329,362.647Z" transform="translate(-524.302 -360.416)"/><path class="a" d="M366.494,529.429q0-1.3,0-2.607a.448.448,0,0,1,.5-.5c1.738,0,3.476.005,5.214,0a.5.5,0,0,1,.528.526q-.015,2.6,0,5.2a.5.5,0,0,1-.52.523c-1.738-.009-3.476,0-5.214,0a.459.459,0,0,1-.513-.512Q366.494,530.739,366.494,529.429Zm3.12-.888c-.206,0-.413,0-.619,0-.186,0-.272.084-.273.269q0,.625,0,1.25c0,.191.078.271.266.273q.631,0,1.262,0a.233.233,0,0,0,.263-.266q0-.625,0-1.25c0-.189-.089-.274-.28-.275C370.026,528.54,369.82,528.541,369.613,528.541Z" transform="translate(-366.489 -518.414)"/><path class="a" d="M372.653,363.612c0,.869-.009,1.738,0,2.607a.492.492,0,0,1-.521.522q-2.607-.014-5.214,0a.5.5,0,0,1-.516-.516c.008-1.742,0-3.484,0-5.226a.452.452,0,0,1,.507-.5h5.226a.449.449,0,0,1,.509.511Q372.654,362.309,372.653,363.612Zm-3.116-.891c-.206,0-.413,0-.619,0s-.278.076-.28.271q0,.625,0,1.25a.237.237,0,0,0,.271.27q.625,0,1.25,0a.24.24,0,0,0,.27-.273q0-.619,0-1.238c0-.2-.085-.279-.286-.28S369.74,362.721,369.537,362.721Z" transform="translate(-366.407 -360.49)"/><path class="a" d="M534.907,529.876h-2.184a.444.444,0,0,1-.5-.5q0-1.274,0-2.547a.449.449,0,0,1,.514-.51c.845,0,1.69.008,2.535,0a.485.485,0,0,1,.519.522c-.017.67,0,1.341,0,2.011v.146h2.17a.455.455,0,0,1,.516.51q0,1.279,0,2.559a.451.451,0,0,1-.5.5H535.4a.452.452,0,0,1-.5-.494q0-1.018,0-2.035Z" transform="translate(-524.328 -518.416)"/></g></g></svg>