<?xml version="1.0" encoding="utf-8"?>
<!-- Generator: Adobe Illustrator 23.0.2, SVG Export Plug-In . SVG Version: 6.00 Build 0)  -->
<svg version="1.1" id="Layer_1" xmlns="http://www.w3.org/2000/svg" xmlns:xlink="http://www.w3.org/1999/xlink" x="0px" y="0px"
	 viewBox="0 0 265.632 463.842" style="enable-background:new 0 0 265.632 463.842;" xml:space="preserve">
<style type="text/css">
	.st0{fill:#FFFFFF;}
</style>
<title>Untitled-17</title>
<path class="st0" d="M200.823,413.9H51.764c-0.142-0.152-0.265-0.393-0.428-0.443c-17.121-5.251-25.191-17.839-25.192-39.315
	c-0.005-54.709-0.01-109.418-0.014-164.126c0-40.442,0.006-80.884,0.018-121.326c0-14.276,5-25.273,15.147-32.416
	c3.19-2.246,6.963-3.27,10.469-4.853h149.059c5.419,1.513,10.626,3.608,14.982,8.053c7.719,7.878,11.189,18.022,11.185,30.185
	c-0.017,62.297-0.005,124.594,0.035,186.891c0,33.272-0.033,66.544-0.1,99.816c-0.053,15.716-5.872,27.337-17.583,34.216
	C206.686,412.14,203.673,412.813,200.823,413.9z M214.51,339.721v-221.5H39.658v221.5H214.51z M214.725,354.931H38.354
	c0,7.333-0.022,14.4,0.005,21.47c0.052,13.664,7.349,22.6,18.551,22.674c8.343,0.051,16.686,0,25.03,0
	c38.127,0,76.254-0.003,114.381-0.009c10.129-0.01,17.866-8.336,18.343-20.045c0.32-7.879,0.061-15.791,0.061-24.094V354.931z
	 M214.77,102.991c0-4.694,0-9.04,0-13.386c-0.022-14.515-7.269-23.336-19.213-23.346c-20.472-0.017-40.944-0.022-61.416-0.016
	c-25.9,0-51.81-0.045-77.716,0.016c-9.229,0.022-16.671,7.26-17.782,17.954c-0.636,6.113-0.115,12.4-0.115,18.778H214.77z"/>
<path class="st0" d="M201.324,416.523H50.681l-0.761-0.76c-17.766-5.686-26.4-19.319-26.4-41.63L23.5,210.012l0.021-121.331
	c0-15.35,5.47-26.978,16.265-34.555c2.397-1.575,4.98-2.846,7.69-3.784c1.07-0.422,2.159-0.843,3.208-1.316l1.09-0.236
	l149.758,0.092c5.162,1.45,11.125,3.609,16.142,8.75c7.937,8.07,11.947,18.845,11.947,32.026
	c-0.02,35.594-0.013,71.192,0.021,106.793l0.02,92.573c0,29.117-0.033,58.234-0.1,87.351c-0.041,16.871-6.4,29.147-18.876,36.478
	c-1.997,1.089-4.107,1.958-6.292,2.591c-0.884,0.288-1.769,0.576-2.612,0.9L201.324,416.523z M52.984,411.259h147.373
	c0.782-0.288,1.584-0.555,2.386-0.812c1.826-0.522,3.591-1.239,5.264-2.138c10.775-6.313,16.244-17.068,16.285-31.955
	c0.103-29.107,0.137-58.217,0.1-87.33l-0.02-92.573c-0.021-35.595-0.028-71.193-0.021-106.793c0-11.916-3.413-21.19-10.425-28.346
	c-4.072-4.133-9.048-6-13.469-7.258H52.326c-0.966,0.421-1.953,0.8-2.94,1.192c-2.306,0.792-4.509,1.858-6.56,3.177
	c-9.315,6.549-14.044,16.728-14.044,30.258l-0.021,121.331l0.021,164.121c0,20.234,7.4,31.924,23.318,36.8L52.984,411.259z
	 M66.309,401.728c-3.146,0-6.272-0.01-9.418-0.03c-12.6-0.072-21.118-10.23-21.159-25.293c-0.02-4.688-0.02-9.4,0-14.167V352.3
	h181.631v2.632c0,2.57,0.02,5.11,0.041,7.618c0.062,5.614,0.1,11.1-0.1,16.574c-0.535,13.067-9.356,22.567-20.974,22.578
	c-26.69,0.02-53.442,0-80.071,0.02l-34.319-0.01l-7.814,0.01C71.511,401.718,68.92,401.728,66.309,401.728z M41,357.56v4.688
	c-0.02,4.76-0.02,9.449,0,14.137c0.041,12.132,6.292,20,15.936,20.049c5.717,0.03,11.44,0.037,17.17,0.02l7.835-0.01l34.319,0.01
	c26.629-0.02,53.32-0.027,80.071-0.02c8.7-0.011,15.3-7.382,15.71-17.52c0.206-5.387,0.165-10.785,0.1-16.327
	c0-1.665-0.021-3.341-0.041-5.027H41z M217.141,342.354H37.028V115.588h180.109L217.141,342.354z M42.292,337.089h169.581V120.852
	H42.292V337.089z M217.4,105.615H35.9v-2.632c0-1.985-0.042-3.948-0.1-5.912c-0.202-4.377-0.126-8.762,0.226-13.129
	c1.254-11.937,9.644-20.3,20.4-20.316c18.507-0.052,37.034-0.031,55.52-0.031l83.608,0.031c13.468,0.01,21.837,9.962,21.858,25.97
	L217.4,105.615z M41.14,100.351h171V89.6c-0.021-12.954-6.231-20.7-16.594-20.706l-83.608-0.031
	c-18.507-0.01-37.013-0.041-55.52,0.031c-7.958,0.02-14.209,6.436-15.175,15.6c-0.311,4.143-0.373,8.301-0.185,12.451
	C41.078,98.068,41.12,99.209,41.14,100.351z"/>
<path class="st0" d="M139.186,379.28c0.022,6.905-5.422,12.495-12.133,12.452c-6.6-0.039-11.987-5.504-12.072-12.257
	c-0.088-6.947,5.231-12.495,12.01-12.534C133.818,366.904,139.163,372.312,139.186,379.28z"/>
<path class="st0" d="M126.678,394.367h-0.079c-7.742-0.053-14.109-6.615-14.209-14.619c-0.144-4.217,1.615-8.313,4.895-11.399
	c2.421-2.219,5.753-3.498,9.254-3.552h0.079c3.49,0.019,6.827,1.257,9.274,3.439c3.291,3.037,5.092,7.086,5.014,11.276l0,0
	c0.103,4.228-1.706,8.32-5.032,11.381C133.458,393.079,130.148,394.329,126.678,394.367z M126.618,369.267h-0.04
	c-2.148,0.037-4.188,0.837-5.652,2.216c-2.333,2.235-3.569,5.185-3.442,8.213c0.06,5.594,4.179,10.168,9.154,10.203h0.04
	c2.118-0.041,4.13-0.82,5.592-2.165c2.369-2.217,3.642-5.166,3.542-8.204l0,0c0.092-3.004-1.166-5.919-3.502-8.117
	c-1.49-1.358-3.542-2.132-5.691-2.145L126.618,369.267L126.618,369.267z"/>
<path class="st0" d="M127.991,92.027c-5.333,0-10.666,0.041-16-0.013c-4.242-0.043-6.771-2.721-6.862-7.114
	c-0.095-4.539,2.495-7.621,6.779-7.655c10.859-0.086,21.718-0.086,32.576,0c4.118,0.034,6.716,3.045,6.738,7.374
	c0.024,4.534-2.576,7.354-6.945,7.394C138.85,92.07,133.42,92.027,127.991,92.027z"/>
<path class="st0" d="M118.806,94.675c-2.282,0-4.565-0.01-6.826-0.031c-5.655-0.051-9.377-3.866-9.48-9.7
	c-0.16-2.801,0.811-5.549,2.694-7.629c1.772-1.776,4.192-2.751,6.7-2.7c10.837-0.113,21.735-0.093,32.613,0
	c5.449,0.041,9.294,4.143,9.356,9.983c0.02,6.046-3.722,9.994-9.562,10.045c-3.763,0.051-7.485,0.041-11.309,0.021l-5-0.011
	l-3.202,0.017C122.796,94.67,120.801,94.675,118.806,94.675z M128.206,79.808c-5.429,0-10.837,0.031-16.266,0.072
	c-1.096-0.053-2.165,0.345-2.961,1.1c-0.9,1.073-1.337,2.461-1.213,3.856c0.062,3.033,1.46,4.513,4.257,4.544
	c4.277,0.041,8.513,0.021,12.749,0.021L128,89.39l5.017,0.011c3.743,0,7.506,0.02,11.248-0.021c2.9-0.031,4.359-1.625,4.339-4.75
	c-0.021-1.1-0.35-4.719-4.133-4.75c-5.431-0.041-10.842-0.072-16.267-0.072H128.206z"/>
</svg>
