<svg xmlns="http://www.w3.org/2000/svg" viewBox="0 0 127.557 163.693"><title>PageFooterIcons</title><g id="Layer_1" data-name="Layer 1"><path d="M62.517,152.516c-.921-.269-1.86-.487-2.76-.815a10.74,10.74,0,0,1-5.829-4.816C42.5,127.057,30.941,107.3,19.691,87.367A49.808,49.808,0,0,1,13.4,56.923,50.2,50.2,0,0,1,28.739,25.494,49.448,49.448,0,0,1,53.347,12.363,50.109,50.109,0,0,1,85.4,15.842a49.775,49.775,0,0,1,25.639,26.2,49.92,49.92,0,0,1,1.877,35.31,62,62,0,0,1-5.763,12.938c-10.629,18.382-21.3,36.739-31.852,55.166a13.608,13.608,0,0,1-9.474,7.061ZM82.812,58.863c.23-10.04-8.013-18.494-18.3-18.772A18.642,18.642,0,0,0,45.536,58.469C45.22,68.55,53.692,77.192,64.049,77.354A18.718,18.718,0,0,0,82.812,58.863Z" style="fill:#fff"/></g></svg>