<svg id="Layer_1" data-name="Layer 1" xmlns="http://www.w3.org/2000/svg" viewBox="0 0 168.36 91.34"><title>Google Reviews</title><path d="M114.14,28.94l.19-1.34h4.15c0,.52.1,1,.1,1.47,0,5.83,0,11.65,0,17.47a16.53,16.53,0,0,1-.46,3.91c-1.09,4.28-4.2,6.69-8.86,7a9.79,9.79,0,0,1-9.9-6.16l3.27-1.43c1.64,1.21,2.92,2.52,4.48,3.2a5.79,5.79,0,0,0,3.67-.11c2.66-.81,3.61-3,3.41-7.3a8.11,8.11,0,0,1-7.44,2.14,10.26,10.26,0,0,1-6.53-4.36,10.79,10.79,0,0,1,1.23-13.49C105,26.26,109.31,25.9,114.14,28.94ZM103,37.34c0,3.31,1.93,5.92,4.76,6.38a5.79,5.79,0,0,0,6.75-5.35c.43-3.94-2-7.27-5.46-7.45C105.79,30.75,103.05,33.65,103,37.34Z" style="fill:#fff"/><path d="M52.19,37.31a10.58,10.58,0,0,1,21.15,0,10.58,10.58,0,1,1-21.15,0Zm16.53,0a6,6,0,1,0-11.94,0c0,3.71,2.52,6.44,6,6.46S68.73,41,68.72,37.33Z" style="fill:#fff"/><path d="M75.29,37.25a10.58,10.58,0,0,1,21.15.17,10.58,10.58,0,1,1-21.15-.17Zm16.53.08a6,6,0,1,0-11.93,0c0,3.72,2.52,6.45,6,6.46S91.83,41,91.82,37.33Z" style="fill:#fff"/><path d="M133.75,40.56c2.21,4.16,6.13,4.31,10.46.49l3.39,2.25A10.39,10.39,0,0,1,139,48a10.13,10.13,0,0,1-10-7.31c-1.43-4.85.39-10,4.34-12.45a9.32,9.32,0,0,1,13,3.31c.55.93,1,2,1.52,3.15Zm8.66-7.42c-1.53-2.18-3.52-2.79-5.7-1.93A5.48,5.48,0,0,0,133.12,37Z" style="fill:#fff"/><path d="M121.91,16.32h4.36V47.24h-4.36Z" style="fill:#fff"/><path d="M46.66,19.54l-3.44,3.68-.34-.29a11,11,0,0,0-5.37-2.58,11.17,11.17,0,0,0-9.12,2.26,10.88,10.88,0,0,0-4.07,6.54,11.23,11.23,0,0,0,1.51,8.51,11.36,11.36,0,0,0,9.94,5.26,10.79,10.79,0,0,0,7.09-2.86,11.52,11.52,0,0,0,3.07-4.56l.06-.16H36.72V30.29H52.06c0,.29-.05.57-.08.86-.06.69-.12,1.39-.19,2.09A15.8,15.8,0,0,1,50.94,37a16.35,16.35,0,0,1-5.44,7.51,16.18,16.18,0,0,1-6.17,3,16.4,16.4,0,0,1-12-1.72,16.39,16.39,0,0,1-7.23-8.52,15.45,15.45,0,0,1-.94-4,15.64,15.64,0,0,1,0-3.42,16,16,0,0,1,2-6.35,16.37,16.37,0,0,1,8.12-7.21,16,16,0,0,1,4.46-1.14,16.51,16.51,0,0,1,12.87,4.22l.09.09S46.65,19.52,46.66,19.54Z" style="fill:#fff"/><polygon points="88.45 65.35 90.2 68.7 94.1 69.23 91.28 71.85 91.96 75.53 88.47 73.8 84.99 75.55 85.65 71.86 82.83 69.25 86.72 68.71 88.45 65.35" style="fill:#fff"/><polygon points="101.33 65.35 103.08 68.7 106.98 69.23 104.17 71.85 104.84 75.53 101.35 73.8 97.87 75.55 98.53 71.86 95.71 69.25 99.6 68.71 101.33 65.35" style="fill:#fff"/><polygon points="114.22 65.35 115.96 68.7 119.86 69.23 117.05 71.85 117.72 75.53 114.23 73.8 110.75 75.55 111.41 71.86 108.59 69.25 112.48 68.71 114.22 65.35" style="fill:#fff"/><polygon points="139.97 65.42 139.93 65.35 138.2 68.71 134.3 69.25 137.13 71.86 136.47 75.55 139.95 73.8 139.97 73.81 139.97 65.42" style="fill:#fff"/><path d="M136.28,75.8l.69-3.89-3-2.76,4.11-.57L139.93,65l1.84,3.53,4.12.56-3,2.77.71,3.89L140,74Zm-1.66-6.45,2.66,2.46-.62,3.48L140,73.64l3.29,1.64-.63-3.48,2.65-2.47-3.67-.5-1.66-3.17-1.64,3.18Z" style="fill:#fff"/><polygon points="127.1 65.35 128.85 68.7 132.74 69.23 129.93 71.85 130.6 75.53 127.12 73.8 123.64 75.55 124.29 71.86 121.47 69.25 125.36 68.71 127.1 65.35" style="fill:#fff"/><path d="M21,64.73H24.9a4.56,4.56,0,0,1,1.78.3,3,3,0,0,1,1.1.74,2.56,2.56,0,0,1,.56,1,4.16,4.16,0,0,1,.16,1.08,3,3,0,0,1-.19,1,3,3,0,0,1-.55.9,3.09,3.09,0,0,1-.87.68,2.91,2.91,0,0,1-1.15.34L28.93,76H27L24.17,71H22.48V76H21Zm1.52,5h2a6.4,6.4,0,0,0,.88-.07,2.4,2.4,0,0,0,.78-.27,1.36,1.36,0,0,0,.55-.54,2.26,2.26,0,0,0,0-1.86,1.43,1.43,0,0,0-.55-.54,2.18,2.18,0,0,0-.78-.26,5.14,5.14,0,0,0-.88-.08h-2Z" style="fill:#fff"/><path d="M31.35,72.72a1.89,1.89,0,0,0,.21.89,2.36,2.36,0,0,0,.56.69,2.91,2.91,0,0,0,.81.45,3.09,3.09,0,0,0,1,.15A2.1,2.1,0,0,0,35,74.59a3.41,3.41,0,0,0,.9-.81L37,74.6a4,4,0,0,1-3.33,1.54,4.11,4.11,0,0,1-1.6-.3A3.43,3.43,0,0,1,30.87,75a3.64,3.64,0,0,1-.77-1.25,4.45,4.45,0,0,1-.27-1.56,4.29,4.29,0,0,1,.29-1.57,4.08,4.08,0,0,1,.81-1.25,3.66,3.66,0,0,1,1.23-.83,3.93,3.93,0,0,1,1.55-.3,3.77,3.77,0,0,1,1.69.35,3.39,3.39,0,0,1,1.13.91,3.71,3.71,0,0,1,.64,1.27,5.36,5.36,0,0,1,.2,1.43v.51Zm4.5-1.14a2.93,2.93,0,0,0-.15-.87,1.84,1.84,0,0,0-.41-.69,1.78,1.78,0,0,0-.67-.46,2.46,2.46,0,0,0-.94-.17,2.38,2.38,0,0,0-1.7.71,2.47,2.47,0,0,0-.46.71,1.79,1.79,0,0,0-.17.77Z" style="fill:#fff"/><path d="M38.18,68.44h1.64l2.25,5.75,2.16-5.75h1.52L42.8,76H41.23Z" style="fill:#fff"/><path d="M46.78,65.75a1,1,0,0,1,.31-.74,1,1,0,0,1,.73-.31,1,1,0,0,1,.74.31,1,1,0,0,1,.31.74,1,1,0,0,1-.31.73,1,1,0,0,1-.74.31,1.06,1.06,0,0,1-1-1Zm.33,2.69h1.43V76H47.11Z" style="fill:#fff"/><path d="M51.88,72.72a1.89,1.89,0,0,0,.21.89,2.21,2.21,0,0,0,.56.69,2.91,2.91,0,0,0,.81.45,3.09,3.09,0,0,0,.95.15,2.1,2.1,0,0,0,1.16-.31,3.41,3.41,0,0,0,.9-.81l1.08.82a4,4,0,0,1-3.33,1.54,4.2,4.2,0,0,1-1.61-.3A3.48,3.48,0,0,1,51.4,75a3.64,3.64,0,0,1-.77-1.25,4.45,4.45,0,0,1-.27-1.56,4,4,0,0,1,1.1-2.82,3.66,3.66,0,0,1,1.23-.83,3.93,3.93,0,0,1,1.55-.3,3.77,3.77,0,0,1,1.69.35,3.39,3.39,0,0,1,1.13.91,3.71,3.71,0,0,1,.64,1.27,5.36,5.36,0,0,1,.2,1.43v.51Zm4.5-1.14a2.93,2.93,0,0,0-.15-.87,1.84,1.84,0,0,0-.41-.69,1.78,1.78,0,0,0-.67-.46,2.46,2.46,0,0,0-.94-.17,2.38,2.38,0,0,0-1.7.71,2.74,2.74,0,0,0-.47.71,1.93,1.93,0,0,0-.16.77Z" style="fill:#fff"/><path d="M58.71,68.44h1.6L62,74.05h0l1.8-5.61h1.52l1.9,5.61h0l1.6-5.61H70.4L68,76H66.53l-2-5.61h0L62.7,76H61.18Z" style="fill:#fff"/><path d="M75.62,70.33A2,2,0,0,0,75,69.8a1.73,1.73,0,0,0-.91-.22,1.67,1.67,0,0,0-.88.22.67.67,0,0,0-.37.62.73.73,0,0,0,.21.54,1.5,1.5,0,0,0,.51.33,2.49,2.49,0,0,0,.62.19l.57.11a8.93,8.93,0,0,1,.87.27,2.74,2.74,0,0,1,.69.41,1.76,1.76,0,0,1,.46.62,2.17,2.17,0,0,1,.17.89,2.06,2.06,0,0,1-.27,1.08,2.16,2.16,0,0,1-.7.74A2.81,2.81,0,0,1,75,76a4.59,4.59,0,0,1-1.1.13,4.33,4.33,0,0,1-1.64-.29,2.91,2.91,0,0,1-1.26-1l1.08-.89a4.65,4.65,0,0,0,.77.62,1.93,1.93,0,0,0,1.05.27,2.48,2.48,0,0,0,.54-.06,1.42,1.42,0,0,0,.49-.17,1,1,0,0,0,.35-.3.68.68,0,0,0,.14-.42.72.72,0,0,0-.2-.52,1.37,1.37,0,0,0-.48-.33,3.58,3.58,0,0,0-.58-.19l-.55-.12c-.3-.07-.6-.16-.87-.25a2.8,2.8,0,0,1-.73-.38,1.85,1.85,0,0,1-.51-.6,2.24,2.24,0,0,1,.06-1.93,2.14,2.14,0,0,1,.65-.72,3.11,3.11,0,0,1,.92-.43,4.07,4.07,0,0,1,1-.14,3.79,3.79,0,0,1,1.45.29,2.23,2.23,0,0,1,1.11.95Z" style="fill:#fff"/></svg>