<svg xmlns="http://www.w3.org/2000/svg" xmlns:xlink="http://www.w3.org/1999/xlink" width="31.025" height="51.892" viewBox="0 0 31.025 51.892"><defs><style>.a{fill:none;}.b{fill:#2371af;}.c{fill:#9addf4;}.d{fill:#0091dd;}.e{fill:#38b1e5;}.f{clip-path:url(#a);}.g{fill:#0071aa;}</style><clipPath id="a"><rect class="a" width="31.025" height="51.892" transform="translate(0 0)"/></clipPath></defs><g transform="translate(0 0)"><path class="b" d="M8.812,42.062l6.361,9.807-.013-1.99L8.812,40.163Z"/><path class="c" d="M8.812,40.194l6.348,9.717,15.151-3.888-6.351-9.7Z"/><path class="d" d="M8.812,40.194l6.348,9.717.178-1.889,5.49-10.939Z"/><path class="d" d="M15.16,49.911l.013,1.981,15.138-3.7V46.022Z"/><path class="b" d="M15.545,41.906l.013,6.923-5.16-7.9V34.093Z"/><path class="c" d="M10.4,34.12l5.147,7.813,13.1-3.339L23.5,30.8Z"/><path class="e" d="M15.545,41.934l.013,6.916,13.087-3.164V38.594Z"/><g class="f"><path class="e" d="M22.971,21.28s3.382-1.79,4.176-.5,2.089,6.663,2.089,6.663l1.79.4a4.027,4.027,0,0,1-2.387,1.293c-1.492.2-2.724-3.093-2.883-3.778-.6-2.566-1.89-2.268-1.89-2.268Z"/><path class="d" d="M23.107,21.212c.089-.044.22-.107.382-.18l1.745.607,1.315.564.47,2.349.752,3.289,2.573.606a3.837,3.837,0,0,1-1.7.69c-1.492.2-2.723-3.094-2.883-3.779-.6-2.566-1.89-2.268-1.89-2.268l-.713-1.442Z"/><path class="b" d="M20.187,29.056,18,33.014l-.1.5-1.292,1.611s1.591.5,2.387-.3c-.1-.6-.2-1.015-.2-1.015l.895-1.093.7-1.293,1.392-1.79Z"/><path class="b" d="M7.662,2.094l1.974-.658s2.537,1.974,2.818,3.383a18.791,18.791,0,0,0,.47,1.973l-.376.282.188.658.752,1.785-.377.188.282,1.034.846,1.41-.846-.283s-1.033-.939.283.659.939,1.691.939,1.691l-1.6-.282-1.691-.94Z"/><path class="b" d="M5.569,17.8l-1.89,2.585L1.391,21.877,0,22.692v1.969l.8,1.492.5,1.392,1.094.4,1.392.5H5.27l-.6-1.492-1.094.4-.4-.4-1.49-1.571v-1.81l3.579-.975,2.386-1.71s-.2-1.192-2.087-3.082"/><path class="d" d="M15.542,11.812,12.75,13.039,11.8,13l-.262.542.372.573,1.052-.51.4.317,2.2-.6.932-.367-.17-.789-.371-.572Z"/><path class="g" d="M18,13.027l-3.281,2.585-.3,3.382,4.375-.4-.6-1.79Z"/><path class="b" d="M16.806,25.059s.5,2.884,1.591,3.58a4.064,4.064,0,0,1,1.491,2.088l1.492-.1-.5-3.083-.8-2.188Z"/><path class="e" d="M7.16,8.7c.13-.5.218-.845.218-.845-1.491-1.989-1.491-2.188.7-6.067C10.2,1.9,11.472,4.6,12.2,7.436c-1.668.4-3.382.813-5.037,1.265"/><path class="e" d="M5.867,14.22a15.636,15.636,0,0,1,.3-2.287c.116-.406.5-1.894.8-3.064,1.758-.48,3.455-1.009,5.227-1.433.471,2.025.77,4.1.929,5.292.5.8,1.392,4.177,2.684,5.072s6.067.7,7.458,3.381.1,4.375-3.479,4.872c-6.464.9-13.425-3.082-14.319-4.176A9.86,9.86,0,0,1,4.176,17.1,17.036,17.036,0,0,1,5.867,14.22"/><path class="e" d="M7.558,19.988l-1.89,2.585L3.381,24.065l-1.392.816V26.85l.8,1.492.5,1.391,1.093.4,1.393.5H7.26l-.6-1.492-1.094.4-.4-.4L3.68,27.565V25.756l3.58-.976,2.386-1.709s-.2-1.193-2.088-3.083"/><path class="e" d="M19.491,22.275s-.7,5.37-.4,6.166,2.386,2.883,3.282,2.883.4-1.989.5-2.784,1.492-3.083,1.392-4.177-3.281-4.773-4.772-2.088"/><path class="e" d="M22.773,29.633a3.022,3.022,0,0,1,1.193,1.989c0,1.094-.8,1.592-1.193,1.194s-.9-1.591-1.393-2.088,1.393-1.1,1.393-1.1"/><path class="e" d="M22.573,32.119a46.927,46.927,0,0,1-.9,4.773,2.864,2.864,0,0,0-.8,1.393s-.1.9.7.9,1.292-.995,1.292-.995l-.2-.9.5-.5a39.1,39.1,0,0,1,.8-5.171c-.2-.9-1.393.5-1.393.5"/><path class="e" d="M17.246,12.9l-.839,2.911-.894,4.774s1.889.794,2.385.1a10.5,10.5,0,0,0,.9-2.783l1.592-1.791.1-2.287Z"/><path class="d" d="M4.176,17.1A17.1,17.1,0,0,1,5.867,14.22a15.636,15.636,0,0,1,.3-2.287c.116-.406.5-1.893.8-3.064.264-.072.525-.146.786-.22v-.1c-.2.052-.4.1-.6.154.13-.5.218-.845.218-.845C6.46,6.631,6.11,6.083,6.485,4.939l2.3,2.137-.844,4.417.187,2.537-1.5,2.161L6.253,19.48l.281,2.255-.939.468L4.934,20.9A11,11,0,0,1,4.176,17.1"/><path class="d" d="M.077,22.647l1.314-.771L3.68,20.385l.639-.8.806.923L1.272,22.766Z"/><path class="d" d="M10.387,22.017l1.5-1.5-1.41,2.536.753,1.034s3.946.846,4.6.846a3.057,3.057,0,0,0,1.222-.283l1.785-1.221,1.222-.846-.47,1.974-.472,1.573A21.049,21.049,0,0,1,8.735,23.936l-.227-.7Z"/><path class="e" d="M8.035,1.79c-.855.038-2.984,1.989-2.884,2.387a4.386,4.386,0,0,1,.1.895L4.056,6.862S2.863,8.254,2.863,8.851a1.614,1.614,0,0,0,1.413,1.511c.895.1,1.292-1,1.988-1.293s2.964.179,3.561-.218a7.11,7.11,0,0,0,1.591-3.382c0-.7-1.1-3.778-3.381-3.679"/><path class="d" d="M7.14,2.486,7.24.994,8.036,0,9.229,2.685Z"/><path class="d" d="M5.25,5.072a4.386,4.386,0,0,0-.1-.895c-.1-.4,2.029-2.349,2.884-2.387a2.391,2.391,0,0,1,.9.14l-.6.457-1.047.647-1.222,1.5L5.783,5.665,3.9,7.639l-.752.939.47,1.128,2.06-.188c-.406.414-.787.912-1.405.844A1.614,1.614,0,0,1,2.863,8.851c0-.6,1.194-1.989,1.194-1.989Z"/><path class="b" d="M10.106,5.2,9.73,7.168l-.468.66L7.569,9.141l.847.942L9.544,8.674l.467-.754.189-.94Z"/><path class="d" d="M7.664,5.2l.563-.375.846.093-.939.94Z"/><path class="b" d="M7.662,2.094l1.6-.188-.188-.657s-.563-.376-1.409.845"/><path class="e" d="M8.333,2.386S8.433.4,9.029,0a9.462,9.462,0,0,1,.9,2.883c0,.6-1.592-.5-1.592-.5"/><path class="b" d="M9.925,2.884l1.491,2.585,1.414,5.458.282-1.221-.375-1.973-.47-2.068-.658-2.349L9.73,1.906Z"/><path class="d" d="M21.55,39.176c-.76-.025-.668-.891-.668-.891a2.855,2.855,0,0,1,.8-1.392,38.975,38.975,0,0,0,.841-4.409,19.139,19.139,0,0,0-1.031-1.634l1.115.186.845,1.41L22.6,36.674l-.657.658Z"/><path class="b" d="M5.768,30.628l-1.393-.5-1.093-.4-.5-1.391-.8-1.492V24.88l.81-.475-.4,2.872,1.222,1.5,1.5,1.316,1.861-.155.275.687Z"/><path class="d" d="M7.286,23.895l1.222-.657.048.614-1.3.928-3.58.975.411-.733Z"/><path class="e" d="M20.066,15.343l.376,1.314.845,1.975L22.6,21.169l.281,1.973h-.751l-.564-.281L21,22.3l.282-1.5-1.315-2.161-.658-1.222s-.376-2.819-.376-2.537Z"/><path class="d" d="M14.926,1.524a.228.228,0,0,1,.112-.044c.028.182-.155.371-.182.552-.018.124.027.494-.13.508-.325.031-.04-.953.006-1.053.09-.2.366-.322.332.014Z"/><path class="d" d="M15.408,12.372l1.08.579,2.764-3.035.471-1.07-1.069-.46L18,8.192Z"/><path class="e" d="M18.873,5.46l1.455.783.687,1.2-.448,1.567-.224,2.465.148,3.627-.519,1.368L18,15.25l-1.409-.376.17-2.616-.224-1.343.543-1.853.336-1.344,1.138-1.507Z"/><path class="e" d="M15.762,4.942l-.44,1.145,3.353,2.364,1.121.336.323-1.119L20.231,7Z"/><path class="d" d="M20.417,6.129l-.188-3.184-1.887.183.06,3.1Z"/><path class="e" d="M20.23,5.442l-1.248.31L17.8,5.692l-.042-.59a3.889,3.889,0,0,0,.2-.918c-.013-.21-.17-.307-.2-.517-.039-.241.177-.433.125-.65-.15-.012-.3,0-.451-.013-.111-.935,1.432-1.021,2-.995a1.321,1.321,0,0,1,1.186.6,1.747,1.747,0,0,1,.438,1.142,3.4,3.4,0,0,1-.367,1.009c-.061.117-.34.658-.446.684"/><path class="d" d="M18.26,3.13,17.394,4.5l1.082.289Z"/><path class="e" d="M16.335,5.005,14.771,2.387l-.078-.947-.571-.192-.521.44.636.981-.265.433.869,2.1.48.882.761-.268L16.6,5.38Z"/><path class="c" d="M10.575,15.061l1.315,1.5.094,2.443-.376.282L11.421,17.6l-.659-1.222L9.541,15.061Z"/><path class="c" d="M23.354,26.337l-.938,2.914,1.033,1.409a1.127,1.127,0,0,1-1.033-.564c-.47-.658-.941-1.221-.941-1.221l.471-.658Z"/><path class="c" d="M25.892,20.7l1.255.083.154,1.045.237.441.42.78-1.315-1.691-1.6-.376Z"/><path class="g" d="M5.748,9.651l1.276-.643L7.8,8.793l.027-.012,2.162-1.1a.149.149,0,1,0-.135-.266L7.7,8.509l-.771.216L6.9,8.736l-1.288.648a.15.15,0,0,0,.067.283.147.147,0,0,0,.067-.016"/><path class="g" d="M9.41,7.843a26.563,26.563,0,0,1,.558-3.458.149.149,0,0,0-.046-.147l-1.5-1.316a.155.155,0,0,0-.105-.037l-2.348.094a.15.15,0,0,0-.144.155.149.149,0,0,0,.155.143l2.29-.091L9.657,4.4a27.382,27.382,0,0,0-.544,3.411.149.149,0,0,0,.134.163h.014a.15.15,0,0,0,.149-.135"/><path class="g" d="M6.318,9.208A.152.152,0,0,0,6.4,9.015l-.295-.772a.148.148,0,0,0-.056-.072L4.925,7.419A.142.142,0,0,0,4.857,7.4L3.824,7.3h0a.149.149,0,0,0-.026.3l1,.09,1.055.7.277.728a.149.149,0,0,0,.139.1.177.177,0,0,0,.054-.01"/><path class="g" d="M5.857,8.519,9.521,6.453a.149.149,0,1,0-.146-.26L5.711,8.259a.15.15,0,0,0,.073.28.151.151,0,0,0,.073-.02"/><path class="d" d="M4.012,8.975c-.109.265-.12.511-.024.55s.261-.142.371-.4.12-.511.024-.55-.262.142-.371.405"/><path class="g" d="M5.937,15.855l2.8-1.213,4.679-.656a.149.149,0,0,0-.042-.3l-4.7.658-.038.011L6.051,15.48l.162-1.626a.147.147,0,0,0-.132-.163.151.151,0,0,0-.165.133L5.729,15.7a.148.148,0,0,0,.061.136.15.15,0,0,0,.087.028.16.16,0,0,0,.06-.012"/><path class="g" d="M12.606,16.044l2.256-.939a.151.151,0,0,0,.084-.091,3.169,3.169,0,0,0,.141-.882,1.363,1.363,0,0,0-.216-.8,1.044,1.044,0,0,0-.9-.4c-.037,0-.076,0-.117,0a.149.149,0,0,0,.02.3c.034,0,.066,0,.1,0a.737.737,0,0,1,.657.273,1.07,1.07,0,0,1,.161.626,2.6,2.6,0,0,1-.064.548c-.015.074-.031.135-.043.176l-2.15.9L9.944,15.29l-.03,0H9.84c-.506,0-3.44-.116-4.773-2.464a1.9,1.9,0,0,1-.246-.965A5.946,5.946,0,0,1,6.436,8.539c.181-.208.3-.326.3-.326A.15.15,0,0,0,6.523,8c0,.015-1.987,1.961-2,3.858a2.219,2.219,0,0,0,.286,1.114c1.447,2.513,4.5,2.61,5.032,2.613h.066l2.617.467a.107.107,0,0,0,.025,0,.143.143,0,0,0,.058-.012"/><path class="g" d="M22.7,37.438a.149.149,0,1,0-.05-.294l-.03,0a1.465,1.465,0,0,1-.523-.185c-.187-.1-.334-.193-.334-.193a.149.149,0,1,0-.164.25,2.662,2.662,0,0,0,1.021.426.528.528,0,0,0,.08-.006"/><path class="g" d="M19.124,26.276h0a.149.149,0,0,0,0-.3h-.07a27.735,27.735,0,0,1-4.811-.383c.509-.545,1.93-2.156,2.027-3.478a.149.149,0,1,0-.3-.018,4.916,4.916,0,0,1-1.087,2.269,12.743,12.743,0,0,1-1.031,1.206.147.147,0,0,0,.067.249,25.768,25.768,0,0,0,5.133.453h.071"/><path class="b" d="M8.884.4l.345,2.282L8.7,2.376Z"/><path class="d" d="M18.988,2.013l-.708.645-.021.472.208.655.376.47-.368.535.183.945L17.8,5.692l-.042-.59a3.937,3.937,0,0,0,.2-.918c-.013-.21-.17-.307-.2-.517-.038-.24.178-.433.125-.65-.15-.012-.3,0-.45-.013-.09-.75.885-.953,1.566-.991"/><path class="e" d="M16.215,25.585l2.725-.376.467-.188.752.094.566-.282-.094,1.691-2.161-.188-2.35-.376Z"/><path class="e" d="M15.214,20.485,18.4,24.363h1.491L18.6,21.977l-.9-1.592Z"/><path class="e" d="M18.4,24.463h1.491l.2,1h-.7l-.5.3-2.287-.3-.5-.3,1.492-.4.4-.3Z"/><path class="g" d="M17.653,24.9l.8-.3a.147.147,0,0,0,.063-.233l-3.134-3.919,1.26-4.694a.147.147,0,0,0-.1-.182.15.15,0,0,0-.183.105l-1.28,4.766a.149.149,0,0,0,.027.132L18.151,24.4l-.6.227a.149.149,0,0,0,.051.288.159.159,0,0,0,.053-.009"/><path class="d" d="M18.971,25.884l.439-.264.331.107.044.008h.846a.15.15,0,1,0,0-.3h-.822l-.371-.12a.148.148,0,0,0-.123.014l-.452.271-2.237-.291a.149.149,0,0,0-.039.3l2.288.3h.019a.149.149,0,0,0,.077-.021"/><path class="c" d="M17.9,20.683l2.261,4.432-3.1-4.417Z"/><path class="g" d="M12.948,25.356a1.712,1.712,0,0,0,.954-.786,9.364,9.364,0,0,0,.8-1.436c.474-1.02.805-2.009.806-2.012h0a.149.149,0,0,0-.283-.095s-.183.55-.472,1.249A11.547,11.547,0,0,1,13.659,24.4a1.484,1.484,0,0,1-.76.665.149.149,0,0,0,.025.3l.024,0"/><path class="d" d="M18.428,20.811a.15.15,0,0,0-.13-.167l-2.254-.281a.149.149,0,1,0-.037.3l2.255.282h.019a.149.149,0,0,0,.147-.131"/><path class="d" d="M16.777,13.651l.846-.188-1.692,5.92.189-2.255Z"/><path class="g" d="M18.794,18.6l-.983,1.069-.11.721.673.971.188-1.6Z"/><path class="d" d="M15.321,6.087l3.24,1.269,1.034.752-.282.939-1.221,1.128L17.9,9.047l.1-.855-2.258-1.4Z"/><rect class="e" width="3.43" height="0.298" transform="matrix(0.986, -0.164, 0.164, 0.986, 16.846, 13.316)"/><rect class="e" width="3.43" height="0.298" transform="matrix(0.986, -0.164, 0.164, 0.986, 16.846, 12.658)"/><path class="d" d="M19.5,15.624l.47,2.161.845,1.034,1.035,1.691.062.623c-.272-.023-.547-.029-.821-.042l-.181-1.144-1.692-2.068V13.933Z"/><rect class="d" width="0.298" height="2.671" transform="matrix(0.774, -0.633, 0.633, 0.774, 17.601, 14.591)"/><path class="b" d="M17.414,7.718l-.262.954V8.107Z"/><path class="d" d="M17.434,12.523l-.945.428.047-2.036.617-2.243V9.8Z"/><path class="d" d="M18.844,4.4a.149.149,0,1,0,0-.3h-.658a.149.149,0,1,0,0,.3Z"/><path class="d" d="M18.75,4.216a.149.149,0,1,0,0-.3h-.658a.149.149,0,0,0,0,.3Z"/><path class="d" d="M19.219,4.348l.463-.631.256.337v.588l-.2.547-.256-.42Z"/><path class="d" d="M18.979,3.082,18.9,2.8l-.678.19.081.287Z"/><path class="d" d="M20.607,6.254l-.251-.916L19.8,5.056l-.134.266.438.223L20.229,6l-1.309.171.038.295Z"/><path class="e" d="M19.931,12.1A3.045,3.045,0,0,1,18,9.807a2.246,2.246,0,0,1-.042-.3h0l-.3.014a3.381,3.381,0,0,0,2.164,2.858Z"/><path class="b" d="M14.8,16.564l.471,3.289.537-2.053Z"/></g></g></svg>