<?xml version="1.0" encoding="utf-8"?>
<!-- Generator: Adobe Illustrator 23.0.2, SVG Export Plug-In . SVG Version: 6.00 Build 0)  -->
<svg version="1.1" id="Layer_1" xmlns="http://www.w3.org/2000/svg" xmlns:xlink="http://www.w3.org/1999/xlink" x="0px" y="0px"
	 viewBox="0 0 307.737 463.842" style="enable-background:new 0 0 307.737 463.842;" xml:space="preserve">
<style type="text/css">
	.st0{fill:#222d68;}
</style>
<g>
	<title>Untitled-17</title>
	<g>
		<path class="st0" d="M150.708,357.291h0.076c3.171,0.011,6.255-1.042,8.756-2.992c5.398-4.178,6.386-11.94,2.209-17.338
			c-0.635-0.82-1.371-1.557-2.19-2.194c-2.53-1.948-5.639-2.991-8.832-2.962h-0.076c-3.199-0.001-6.304,1.078-8.812,3.063
			c-2.989,2.378-4.711,6.004-4.663,9.823C137.271,351.591,143.336,357.249,150.708,357.291z"/>
		<path class="st0" d="M167.161,61.589c-10.491-0.084-21-0.1-31.453,0c-2.4-0.054-4.724,0.845-6.464,2.5
			c-1.805,1.89-2.746,4.442-2.6,7.051c0.101,5.393,3.69,8.92,9.144,8.967c2.181,0.02,4.383,0.028,6.584,0.028
			c1.924,0,3.847-0.008,5.771-0.008l3.094-0.009l4.819,0.009c3.688,0.017,7.277,0.026,10.907-0.02
			c5.632-0.047,9.241-3.7,9.221-9.287C176.126,65.42,172.417,61.629,167.161,61.589z"/>
		<path class="st0" d="M210.361,158.585h-41.274v41.39h41.274V158.585z M180.933,172.808v-2.024h17.2v17.276h-1.4
			c-5.256,0-10.476,0.018-15.723-0.071h0.002C180.921,182.964,180.93,177.939,180.933,172.808z"/>
		<path class="st0" d="M112.224,200.293h9.029l11.479-0.017v-41.638H91.103v29.546c0,10.992,1.012,12.003,12.065,12.092
			C106.187,200.293,109.205,200.293,112.224,200.293z M120.603,170.852v16.96h-17.055l0.002-16.96H120.603z"/>
		<path class="st0" d="M210.423,233.285h-41.567v41.248h41.567V233.285z M181.099,262.551V245.4h17.232l0.009,2.273
			c0,4.989,0.009,9.89-0.24,14.808c-5.149,0.089-10.327,0.071-15.527,0.071H181.099z"/>
		<path class="st0" d="M111.318,233.019c-1.942,0.217-3.635,1.418-4.483,3.178c-0.565,1.325-0.988,2.706-1.261,4.12
			c-0.142,0.582-0.284,1.225-0.462,1.882l-0.763,2.858h16.229v17.583h-14.116l0.675,4.315c0.149,1.214,0.377,2.416,0.683,3.6
			c0.187,0.66,1.24,3.96,3.64,3.96c3.8,0.089,7.618,0.106,11.426,0.106h0.002h9.846V232.93h-6.9
			C120.88,232.876,116.103,232.895,111.318,233.019z"/>
		<path class="st0" d="M181.077,213.362l6.534-0.036c4.91-0.017,9.82-0.035,14.72-0.124c1.021,0,1.802,0.018,2.477,0.036
			c1.944-0.018,3.436,0.088,4.59-1.066c1.279-1.278,1.234-2.947,1.145-6.623l-0.026-0.941c-0.031-0.576-0.199-1.135-0.489-1.633
			l-2.168,0.708c0,0,0,0,0-0.001l2.093-0.885l-0.595-1.385H168.9v30.807h12.181L181.077,213.362z"/>
		<polygon class="st0" points="147.912,204.099 147.912,173.322 135.966,173.322 135.966,217.053 166.675,217.053 166.671,204.099
					"/>
		<polygon class="st0" points="147.925,235.452 135.993,235.452 135.993,274.816 153.536,274.816 153.536,263.186 147.925,262.725
					"/>
		<rect x="154.912" y="158.621" class="st0" width="11.648" height="40.892"/>
		<polygon class="st0" points="143.193,231.467 154.734,231.467 154.734,243.844 166.666,243.844 166.666,219.305 143.193,219.305
					"/>
		<path class="st0" d="M110.235,213.309c2.877-0.16,5.744-0.142,8.638-0.107l1.883,0.018l0.665,3.959h11.391v-15.737H95.471
			l2.85,3.658c0.408,0.533,0.817,1.012,1.189,1.456c0.557,0.59,1.041,1.246,1.439,1.953
			C103.062,213.132,107.048,213.468,110.235,213.309z"/>
		<polygon class="st0" points="196.067,214.499 184.641,214.499 184.641,232.059 210.352,232.059 210.352,219.999 196.644,219.999
					"/>
		<rect x="154.876" y="246.833" class="st0" width="11.764" height="27.983"/>
		<rect x="121.057" y="219.305" class="st0" width="17.508" height="11.791"/>
		<rect x="135.034" y="158.727" class="st0" width="17.978" height="11.506"/>
		<polygon class="st0" points="108.238,231.202 117.577,231.202 117.577,219.394 106.853,219.394 		"/>
		<path class="st0" d="M296.738,375.283c-0.675-0.552-1.31-1.151-1.9-1.794c-4.257-4.865-8.474-9.748-12.7-14.631l-16.939-19.6
			c0.968-1.19,1.927-2.38,2.876-3.552c2.722-3.373,5.394-6.676,8.2-9.854c8.22-9.105,12.665-20.999,12.431-33.264
			c-0.053-8.49-0.053-17-0.053-25.5c0.018-7.298,0.009-14.596-0.027-21.894c-0.009-2.769,0-5.557,0.009-8.345
			c0.036-8.221,0.071-16.708-0.506-25.054c-0.658-7.248-4.286-13.9-10.023-18.377c-5.912-4.933-13.606-7.19-21.246-6.233
			c-2.345,0.332-4.646,0.922-6.862,1.758c-0.03-36.684-0.036-73.368-0.018-110.052c0-12.163-3.862-22.089-11.479-29.528
			c-4.821-4.741-10.521-6.712-15.448-8.026L78.705,41.266l-0.9,0.177c-1.021,0.444-2.069,0.835-3.116,1.225
			c-2.579,0.86-5.046,2.022-7.351,3.463C56.977,53.126,51.73,63.834,51.73,77.985l-0.009,21.539c-1.428-1.35-2.93-2.618-4.5-3.8
			c-10.84-8.224-26.212-6.574-35.059,3.764c-9.099,10.168-8.61,25.689,1.11,35.264c9.455,9.144,19.282,18.164,28.782,26.9
			l8.584,7.893c0.325,0.288,0.686,0.533,1.074,0.728v0.479c-7.332-0.437-14.47,2.459-19.425,7.881
			c-9.907,10.617-9.135,26.971,1.758,37.217l5.1,4.741c-7.742,4.563-12.734,11.683-13.734,19.691
			c-1.039,8.345,2.335,16.833,9.251,23.314l4.51,4.172c-7.807,4.688-12.814,11.826-13.8,19.763
			c-1.021,8.278,2.388,16.762,9.367,23.278c5.611,5.274,11.266,10.512,16.983,15.643v15.448c0,20.42,8.195,32.92,25.054,38.229
			l1.758,2.006c3.66,4.349,7.563,8.487,11.692,12.394c11.159,10.137,24.522,14.01,39.659,11.737
			c12.278-1.9,22.248-3.622,31.384-5.433c1.793-0.373,2.548-0.089,3.888,1.527c2.743,3.3,5.588,6.533,8.488,9.8l5.158,5.877
			l13.83-12.092l-6.472-7.386c-3.729-4.226-7.36-8.363-10.849-12.607c-2.711-3.624-7.318-5.288-11.719-4.232l-3.347,0.622
			c-7.618,1.402-15.235,2.823-22.888,4.048l-2.877,0.479c-4.581,0.782-9.401,1.705-13.849,1.456
			c-6.735-0.199-13.171-2.828-18.12-7.4h111.206v-2.273c-0.006-12.772,0-25.533,0.018-38.282l0.009-7.653l-0.009-3.072
			c0-2.556-0.009-5.096,0.026-7.635c0.32-13.939,11.31-25.285,25.232-26.048c7.457-0.319,10.787-3.817,10.787-11.346l0.009-67.225
			c-0.059-1.518,0.063-3.038,0.364-4.527c1.281-4.901,6.081-7.937,11.381-7.316c4.91,0.604,8.612,5.078,8.621,10.423l0.009,32.192
			c-0.021,15.2-0.009,30.4,0.035,45.6c0.121,6.769-2.248,13.348-6.658,18.485c-5.535,6.693-11.054,13.405-16.558,20.135
			c-4.135,5.043-4.108,9.286,0.1,14.169l37.873,43.628l13.512-10.494v-2.841L296.738,375.283z M31.458,109.028
			c0.613-0.004,1.224,0.079,1.814,0.249c1.821,0.587,3.487,1.576,4.874,2.894c3.919,3.462,7.8,7.102,11.9,10.938l1.678,1.58
			l-0.009,20.828c-1.757-1.598-3.497-3.25-5.238-4.883l-7.715-7.174c-4.155-3.835-8.301-7.652-12.34-11.612
			c-2.403-2.334-2.936-5.991-1.3-8.914C26.363,110.573,28.792,109.076,31.458,109.028z M68.113,85.681
			c-0.193-3.859-0.126-7.727,0.2-11.577c0.926-8.578,7.052-14.56,14.9-14.578c17.821-0.029,35.663-0.035,53.526-0.018l80.648,0.018
			c10.165,0.019,16.238,7.245,16.255,19.319v10.1H68.191C68.173,87.863,68.138,86.762,68.113,85.681z M51.377,188.682
			c1.573-0.012,3.098,0.543,4.296,1.562c6.623,5.718,13.255,11.861,20.278,18.769c0.763,0.994,1.324,2.128,1.651,3.338
			c0.195,0.532,0.382,1.065,0.595,1.58c-0.407,2.856-2.188,5.331-4.768,6.623c-2.408,1.474-5.497,1.2-7.608-0.675
			c-7.809-6.836-14.45-12.962-20.3-18.75c-2.664-2.646-2.552-6.907,0.248-9.926h0.009C47.213,189.62,49.242,188.707,51.377,188.682z
			 M77.558,259.389c0.187,0.532,0.378,1.065,0.578,1.58c-0.296,2.858-2.021,5.372-4.582,6.676c-2.016,1.063-4.937,1.808-7.6-0.5
			c-7.271-6.357-14.116-12.66-20.34-18.75c-2.699-2.628-2.672-6.89,0.054-9.908l0.001,0.003c2.414-2.699,6.738-3.889,9.845-1.208
			c6.321,5.451,13.044,11.666,20.544,19.035C76.757,257.232,77.267,258.276,77.558,259.389z M45.698,285.595v-0.002
			c2.779-3.071,6.987-3.551,9.837-1.1c6.277,5.4,12.811,11.436,20.544,19c0.693,0.913,1.191,1.959,1.465,3.072
			c0.177,0.532,0.368,1.065,0.568,1.58c-0.595,3.302-2.016,5.38-4.546,6.658c-2.042,1.03-5.034,1.794-7.662-0.515
			c-7.608-6.676-14.258-12.802-20.33-18.732C42.898,292.928,42.946,288.65,45.698,285.595z M68.04,333.926
			c2.99,0.228,5.996-0.054,8.891-0.835c4.386-1.168,8.387-3.47,11.6-6.676h106.73v36.258l-95.5,0.018
			c-5.362,0-10.715,0.017-16.078-0.018c-9.597-0.071-15.59-7.227-15.634-18.715C68.031,340.655,68.04,337.299,68.04,333.926z
			 M197.358,307.806H96.05c-0.005-6.717-2.645-13.164-7.353-17.955c-1.828-1.882-3.737-3.658-5.69-5.469l-0.64-0.6
			c7.786-4.669,12.776-11.843,13.735-19.833c1.003-8.31-2.433-16.78-9.42-23.225c-1.438-1.332-2.85-2.663-4.315-4.048
			c7.786-4.653,12.767-11.844,13.726-19.887c0.987-8.292-2.406-16.726-9.313-23.119l-4.1-3.817
			c-4.457-4.137-8.913-8.292-13.379-12.323v-69.959h164.093v97.712c-1.441,3.641-2.184,7.52-2.193,11.435
			c-0.015,13.956-0.018,27.912-0.009,41.869v19.762c-0.444,0.142-0.888,0.266-1.323,0.373c-10.695,2.458-20.064,8.871-26.226,17.951
			C200.92,299.993,198.794,303.76,197.358,307.806z"/>
	</g>
</g>
</svg>
