<svg xmlns="http://www.w3.org/2000/svg" width="70.547" height="59.503" viewBox="0 0 70.547 59.503"><defs><style>.a{fill:#1b9;}.b{fill:#5aecbe;}.c{fill:#11d0ac;}.d{fill:#72f6ca;}</style></defs><g transform="translate(108.703 -428.572)"><ellipse class="a" cx="35.274" cy="14.522" rx="35.274" ry="14.522" transform="translate(-108.703 459.031)"/><g transform="translate(-106.198 452.345)"><path class="b" d="M-41.224,457.462v6.725c0,3.453-3.2,6.9-9.6,9.54-12.8,5.268-33.545,5.268-46.341,0-6.4-2.635-9.6-6.087-9.6-9.54v-6.725Z" transform="translate(106.761 -443.971)"/><path class="b" d="M-41.224,457.465V462.7c0,3.453-3.2,6.906-9.6,9.54-12.8,5.268-33.545,5.268-46.341,0-6.4-2.634-9.6-6.087-9.6-9.54v-5.232Z" transform="translate(106.761 -443.97)"/><ellipse class="c" cx="32.769" cy="13.491" rx="32.769" ry="13.491"/><ellipse class="c" cx="29.636" cy="12.201" rx="29.636" ry="12.201" transform="translate(3.133 1.29)"/></g><g transform="translate(-102.38 446.678)"><path class="d" d="M-60.422,443a2.951,2.951,0,0,1,1.959,0c.27.111.405.257.405.4v18.244c0,.146-.135.292-.405.4a2.951,2.951,0,0,1-1.959,0c-.27-.111-.405-.257-.405-.4V443.407C-60.827,443.261-60.692,443.116-60.422,443Z" transform="translate(116.258 -442.543)"/><path class="d" d="M-66.91,449.55a2.946,2.946,0,0,1,1.958,0c.271.111.406.257.406.4h0V468.2c0,.146-.135.292-.406.4a2.947,2.947,0,0,1-1.958,0c-.271-.111-.406-.257-.406-.4V449.953C-67.316,449.806-67.181,449.661-66.91,449.55Z" transform="translate(114.377 -440.646)"/><path class="d" d="M-101.437,442.775a2.967,2.967,0,0,0-1.959,0c-.27.112-.405.258-.405.4v18.243c0,.146.135.292.405.4a2.967,2.967,0,0,0,1.959,0c.27-.112.405-.258.405-.4V443.179C-101.032,443.033-101.167,442.888-101.437,442.775Z" transform="translate(103.801 -442.609)"/><path class="d" d="M-94.949,449.32a2.963,2.963,0,0,0-1.958,0c-.271.112-.406.258-.406.4h0v18.243c0,.147.135.293.406.4a2.947,2.947,0,0,0,1.958,0c.271-.111.405-.257.405-.4V449.724C-94.544,449.578-94.678,449.433-94.949,449.32Z" transform="translate(105.682 -440.712)"/><path class="d" d="M-81.262,452.128a2.947,2.947,0,0,1,1.958,0c.271.111.406.258.406.4h0v18.243c0,.146-.135.292-.406.4a2.963,2.963,0,0,1-1.958,0c-.271-.112-.405-.258-.405-.4V452.531C-81.667,452.386-81.533,452.239-81.262,452.128Z" transform="translate(110.217 -439.898)"/></g><g transform="translate(-106.198 428.572)"><path class="d" d="M-41.224,439.031v4.534c0,3.453-3.2,6.9-9.6,9.539-12.8,5.269-33.545,5.269-46.341,0-6.4-2.634-9.6-6.086-9.6-9.539v-4.534Z" transform="translate(106.761 -425.54)"/><ellipse class="c" cx="32.769" cy="13.491" rx="32.769" ry="13.491"/><path class="b" d="M-55.613,440.5l-.542,5.687-2.012-2.07Z" transform="translate(120.848 -425.113)"/><path class="b" d="M-57.755,448.246l.743-4.94s-3.359,2.88-5.134,3.379Z" transform="translate(119.694 -424.301)"/><path class="b" d="M-66.242,447.885l4.342,2.938.942-4.9Z" transform="translate(118.507 -423.541)"/><path class="b" d="M-66.509,452.436l1.623-4.991-6.035,1.45Z" transform="translate(117.151 -423.101)"/><path class="b" d="M-75.708,449.42l3.541,4.116,2.635-4.968Z" transform="translate(115.763 -422.775)"/><path class="b" d="M-80.594,449.555l3.429,4.422,2.873-4.748Z" transform="translate(114.347 -422.584)"/><path class="b" d="M-85.753,449.347l3.186,4.679,3.468-4.505Z" transform="translate(112.851 -422.549)"/><path class="b" d="M-90.631,448.809l2.677,4.862,3.614-4.167Z" transform="translate(111.437 -422.705)"/><path class="b" d="M-95.008,447.882l.822,4.706,4.824-3.511Z" transform="translate(110.168 -422.974)"/><path class="b" d="M-98.88,446.607l.784,4.827,4.209-3.182Z" transform="translate(109.046 -423.344)"/><path class="b" d="M-102.33,444.935l1.615,5.424,2.836-3.267Z" transform="translate(108.046 -423.828)"/><path class="b" d="M-104.631,443.28l.264,4.711,2.7-2.576Z" transform="translate(107.379 -424.308)"/><path class="b" d="M-106.251,441.118l.317,5.114,1.773-2.326Z" transform="translate(106.909 -424.935)"/><path class="b" d="M-106.746,439.39l.061,5.018.577-2.788Z" transform="translate(106.766 -425.436)"/><path class="b" d="M-55.888,439.169l-.027,5.229-.272-3.51Z" transform="translate(121.422 -425.5)"/></g></g></svg>