<svg xmlns="http://www.w3.org/2000/svg" width="58.052" height="49.181" viewBox="0 0 58.052 49.181"><defs><style>.a{fill:#99d260;}.b{fill:#12ab54;}.c{fill:#059c4e;opacity:0.8;}.d{fill:none;stroke:#69c55d;stroke-linecap:round;stroke-linejoin:round;stroke-width:1.177px;}.e{fill:#2ab764;}.f{fill:#4ccb6e;}.g{fill:#d3f1c9;}.h,.i,.j,.k,.l,.m,.n,.o,.p{fill:#007f49;mix-blend-mode:multiply;isolation:isolate;}.h{opacity:0.45;}.i{opacity:0.5;}.j{opacity:0.4;}.k{opacity:0.35;}.l{opacity:0.1;}.m{opacity:0.15;}.n{opacity:0.2;}.o{opacity:0.25;}.p{opacity:0.3;}</style></defs><g transform="translate(484.769 -318.233)"><path class="a" d="M-439.173,366.142l-7.862,2.4-8.715.828-8.715-.828-7.862-2.4-6.239-3.744-4.006-4.717-1.38-5.229V338.307l5.386,3.245,6.239-3.744,7.862-2.4,8.715-.828,8.715.828,7.862,2.4,6.239,3.744,5.386-3.245v14.144l-1.38,5.229-4.006,4.717Z" transform="translate(0 -2.548)"/><path class="b" d="M-439.173,349.561l-7.862,2.4-8.715.828-8.715-.828-7.862-2.4-6.239-3.744-4.006-4.717-1.38-5.229,1.38-5.229,4.006-4.717,6.239-3.744,7.862-2.4,8.715-.828,8.715.828,7.862,2.4,6.239,3.744,4.006,4.717,1.38,5.229-1.38,5.229-4.006,4.717Z" transform="translate(0 -0.112)"/><path class="c" d="M-439.173,349.561l-7.862,2.4-8.715.828-8.715-.828-7.862-2.4-6.239-3.744-4.006-4.717-1.38-5.229,1.38-5.229,4.006-4.717,6.239-3.744,7.862-2.4,8.715-.828,8.715.828,7.862,2.4,6.239,3.744,4.006,4.717,1.38,5.229-1.38,5.229-4.006,4.717Z" transform="translate(0 -0.112)"/><line class="d" y2="14.144" transform="translate(-428.927 340.988)"/><line class="d" y1="14.144" transform="translate(-427.547 335.759)"/><line class="d" y1="14.144" transform="translate(-428.927 340.988)"/><line class="d" y2="14.144" transform="translate(-432.933 345.705)"/><line class="d" y1="14.144" transform="translate(-432.933 345.705)"/><line class="d" y2="14.144" transform="translate(-439.173 349.449)"/><line class="d" y1="14.144" transform="translate(-439.173 349.449)"/><line class="d" y2="14.144" transform="translate(-447.035 351.853)"/><line class="d" y1="14.144" transform="translate(-447.035 351.853)"/><line class="d" y2="14.144" transform="translate(-455.75 352.681)"/><line class="d" y1="14.144" transform="translate(-483.938 335.759)"/><line class="d" y2="14.144" transform="translate(-482.558 340.988)"/><line class="d" y1="14.144" transform="translate(-482.558 340.988)"/><line class="d" y2="14.144" transform="translate(-478.552 345.705)"/><line class="d" y1="14.144" transform="translate(-478.552 345.705)"/><line class="d" y2="14.144" transform="translate(-472.313 349.449)"/><line class="d" y1="14.144" transform="translate(-472.313 349.449)"/><line class="d" y2="14.144" transform="translate(-464.451 351.853)"/><line class="d" y1="14.144" transform="translate(-464.451 351.853)"/><line class="d" y2="14.144" transform="translate(-455.736 352.681)"/><line class="d" x2="1.073" y2="1.52" transform="translate(-430 339.469)"/><line class="d" x1="1.128" y1="1.311" transform="translate(-428.675 334.448)"/><line class="d" x1="1.073" y1="1.52" transform="translate(-430 339.469)"/><line class="d" x2="0.912" y2="1.708" transform="translate(-433.846 343.997)"/><line class="d" x1="0.912" y1="1.708" transform="translate(-433.846 343.997)"/><line class="d" x2="0.663" y2="1.858" transform="translate(-439.835 347.591)"/><line class="d" x1="0.663" y1="1.858" transform="translate(-439.835 347.591)"/><line class="d" x2="0.348" y2="1.954" transform="translate(-447.383 349.898)"/><line class="d" x1="0.348" y1="1.954" transform="translate(-447.383 349.898)"/><line class="d" y2="1.987" transform="translate(-455.75 350.693)"/><line class="d" y1="1.311" x2="1.128" transform="translate(-483.938 334.448)"/><line class="d" x1="1.073" y2="1.52" transform="translate(-482.558 339.469)"/><line class="d" y1="1.52" x2="1.073" transform="translate(-482.558 339.469)"/><line class="d" x1="0.912" y2="1.708" transform="translate(-478.552 343.997)"/><line class="d" y1="1.708" x2="0.912" transform="translate(-478.552 343.997)"/><line class="d" x1="0.663" y2="1.858" transform="translate(-472.313 347.591)"/><line class="d" y1="1.858" x2="0.663" transform="translate(-472.313 347.591)"/><line class="d" x1="0.348" y2="1.954" transform="translate(-464.451 349.898)"/><line class="d" y1="1.954" x2="0.348" transform="translate(-464.451 349.898)"/><line class="d" y2="1.987" transform="translate(-455.736 350.693)"/><path class="e" d="M-471.276,326.36c-9.079,5.448-9.079,14.28,0,19.728s23.8,5.448,32.881,0,9.08-14.28,0-19.728S-462.2,320.913-471.276,326.36Zm19.606,11.763a6.763,6.763,0,0,1-6.33,0c-1.748-1.049-1.748-2.749,0-3.8a6.763,6.763,0,0,1,6.33,0C-449.922,335.374-449.922,337.074-451.67,338.124Z" transform="translate(-0.915 -0.63)"/><path class="f" d="M-470.239,326.2c-8.626,5.175-8.626,13.566,0,18.741s22.611,5.176,31.237,0,8.626-13.566,0-18.741S-461.613,321.025-470.239,326.2Zm18.625,11.175a6.424,6.424,0,0,1-6.013,0c-1.66-1-1.66-2.612,0-3.609a6.424,6.424,0,0,1,6.013,0C-449.953,334.764-449.953,336.379-451.614,337.376Z" transform="translate(-1.129 -0.637)"/><path class="g" d="M-475.12,323.076c-10.764,6.458-10.764,16.928,0,23.387s28.214,6.458,38.978,0,10.763-16.928,0-23.387S-464.357,316.618-475.12,323.076Zm38.161,22.9c-10.312,6.187-27.031,6.187-37.344,0s-10.312-16.219,0-22.407,27.031-6.188,37.344,0S-426.647,339.785-436.959,345.973Z" transform="translate(-0.118)"/><path class="h" d="M-418.764,344.225V358.37l1.38-5.229V339Z" transform="translate(-10.163 -3.237)"/><path class="i" d="M-423.51,349.908v14.144l4.006-4.717V345.191Z" transform="translate(-9.423 -4.203)"/><path class="h" d="M-430.9,354.523v14.144l6.239-3.744V350.78Z" transform="translate(-8.271 -5.074)"/><path class="j" d="M-440.216,357.618v14.144l7.862-2.4V355.215Z" transform="translate(-6.819 -5.766)"/><path class="k" d="M-450.541,358.89v14.144l8.715-.828V358.062Z" transform="translate(-5.209 -6.209)"/><path class="l" d="M-482.556,344.225V358.37l-1.38-5.229V339Z" transform="translate(-0.003 -3.237)"/><path class="m" d="M-478.295,349.908v14.144l-4.006-4.717V345.191Z" transform="translate(-0.257 -4.203)"/><path class="n" d="M-471.316,354.523v14.144l-6.239-3.744V350.78Z" transform="translate(-0.997 -5.074)"/><path class="o" d="M-462.3,357.618v14.144l-7.862-2.4V355.215Z" transform="translate(-2.15 -5.766)"/><path class="p" d="M-452.134,358.89v14.144l-8.715-.828V358.062Z" transform="translate(-3.602 -6.209)"/></g></svg>