<svg xmlns="http://www.w3.org/2000/svg" width="72.718" height="118.63" viewBox="0 0 72.718 118.63"><defs><style>.a{fill:#ff8e5e;}.b{fill:#f05c3a;}.c{fill:#e13f17;}.d{fill:none;stroke:#e13f17;stroke-linecap:round;stroke-linejoin:round;}</style></defs><g transform="translate(-142.959 -439.134)"><g transform="translate(149.184 495.091)"><path class="a" d="M146.25,473.174l4.165,9.469,41.526-4.72-4.165-9.212Z" transform="translate(-146.25 -468.711)"/><path class="b" d="M146.25,471.07v1.772l4.165,9.456v-1.747Z" transform="translate(-146.25 -466.607)"/><path class="c" d="M189.977,473.58l-41.526,4.72v1.759l41.526-4.737Z" transform="translate(-144.286 -464.368)"/></g><g transform="translate(186.271 446.877)"><path class="b" d="M165.853,443.227v51.926l1.286,2.856V446.042Z" transform="translate(-165.853 -443.227)"/><path class="c" d="M168.132,444.635l-1.6.151v51.966l1.6-.187Z" transform="translate(-165.246 -441.971)"/></g><g transform="translate(164.318 530.845)"><path class="b" d="M154.249,489.969v1.772l4.165,9.456v-1.747Z" transform="translate(-154.249 -485.506)"/><path class="c" d="M197.976,492.479l-41.526,4.72v1.759l41.526-4.737Z" transform="translate(-152.286 -483.267)"/><path class="a" d="M154.249,492.072l4.165,9.469,41.526-4.72-4.165-9.212Z" transform="translate(-154.249 -487.61)"/></g><g transform="translate(201.405 482.403)"><path class="b" d="M173.852,462.125v51.926l1.286,2.856V464.941Z" transform="translate(-173.852 -461.897)"/><path class="c" d="M176.131,463.533l-1.6.151v51.966l1.6-.187Z" transform="translate(-173.246 -460.641)"/><path class="a" d="M176.737,464.9,175.466,462l-1.614.228,1.286,2.816Z" transform="translate(-173.852 -462.005)"/></g><g transform="translate(142.96 458.549)"><path class="b" d="M142.96,450.758v4.03L184.679,547.4v-4Z" transform="translate(-142.96 -448.181)"/><path class="c" d="M196.01,498.217l-31,2.834v4.017l31-3.237Z" transform="translate(-123.292 -405.854)"/><path class="a" d="M142.96,452.358l41.719,92.62,31-3.219L171.7,449.4Z" transform="translate(-142.96 -449.396)"/></g><g transform="translate(152.725 439.134)"><path class="a" d="M168.738,446l-1.271-2.892-1.614.228,1.286,2.815Z" transform="translate(-132.307 -435.59)"/><g transform="translate(11.959 38.001)"><path class="b" d="M154.442,459.34v15.679l1.286,2.856v-15.72Z" transform="translate(-154.442 -459.113)"/><path class="c" d="M156.721,460.749l-1.6.151v15.72l1.6-.187Z" transform="translate(-153.836 -457.857)"/><path class="a" d="M157.328,462.112l-1.271-2.892-1.614.228,1.286,2.815Z" transform="translate(-154.442 -459.22)"/></g><g transform="translate(24.205 36.836)"><path class="b" d="M160.915,458.724V474.4l1.286,2.856V461.54Z" transform="translate(-160.915 -458.496)"/><path class="c" d="M163.194,460.132l-1.6.151V476l1.6-.187Z" transform="translate(-160.309 -457.24)"/><path class="a" d="M163.8,461.5,162.53,458.6l-1.614.228,1.286,2.816Z" transform="translate(-160.915 -458.604)"/></g><g transform="translate(0.81 39.659)"><path class="c" d="M182.118,461.7l-32.888,3.862v1.759l32.888-3.88Z" transform="translate(-147.943 -458.668)"/><path class="a" d="M148.549,463.625l1.286,3.363,32.888-3.862-1.435-3.029Z" transform="translate(-148.549 -460.096)"/></g><g transform="translate(0.81 11.548)"><path class="b" d="M148.549,445.358v51.926l1.286,2.856V448.173Z" transform="translate(-148.549 -445.13)"/><path class="c" d="M150.828,446.766l-1.6.151v51.966l1.6-.187Z" transform="translate(-147.943 -443.874)"/><path class="a" d="M151.435,448.129l-1.271-2.892-1.614.228,1.286,2.816Z" transform="translate(-148.549 -445.237)"/></g><g transform="translate(11.959 10.796)"><path class="b" d="M154.442,444.96v31.514l1.286,2.856V447.776Z" transform="translate(-154.442 -444.733)"/><path class="c" d="M156.721,446.369l-1.6.151v31.555l1.6-.187Z" transform="translate(-153.836 -443.477)"/><path class="a" d="M157.328,447.732l-1.271-2.892-1.614.228,1.286,2.815Z" transform="translate(-154.442 -444.84)"/></g><g transform="translate(24.205 9.392)"><path class="b" d="M160.915,444.218v31.514l1.286,2.856V447.034Z" transform="translate(-160.915 -443.991)"/><path class="c" d="M163.194,445.627l-1.6.151v31.555l1.6-.187Z" transform="translate(-160.309 -442.735)"/><path class="a" d="M163.8,446.99,162.53,444.1l-1.614.228,1.286,2.815Z" transform="translate(-160.915 -444.098)"/></g><g transform="translate(0.81 7.714)"><path class="c" d="M181.965,444.715l-32.736,4.047v1.759l32.736-4.065Z" transform="translate(-147.943 -441.87)"/><path class="a" d="M148.549,446.74l1.286,3.363,32.736-4.047-1.283-2.845Z" transform="translate(-148.549 -443.211)"/></g><g transform="translate(0.81 7.835)"><path class="b" d="M148.549,447.134l1.283,2.83-.6-6.6Z" transform="translate(-148.549 -443.194)"/><path class="c" d="M148.911,443.448l.6,6.6,1.365-.121-.6-6.649Z" transform="translate(-148.227 -443.275)"/></g><g transform="translate(12.077 6.425)"><path class="b" d="M154.505,446.388l1.283,2.83-.6-6.6Z" transform="translate(-154.505 -442.448)"/><path class="c" d="M154.867,442.7l.6,6.6,1.365-.121-.6-6.649Z" transform="translate(-154.182 -442.53)"/></g><g transform="translate(24.167 5.005)"><path class="b" d="M160.9,445.638l1.283,2.83-.6-6.6Z" transform="translate(-160.895 -441.698)"/><path class="c" d="M161.257,441.952l.6,6.6,1.365-.121-.6-6.649Z" transform="translate(-160.573 -441.779)"/></g><g transform="translate(33.783 3.789)"><path class="b" d="M165.978,444.995l1.283,2.83-.6-6.6Z" transform="translate(-165.978 -441.055)"/><path class="c" d="M166.34,441.309l.6,6.6,1.365-.121-.6-6.649Z" transform="translate(-165.655 -441.136)"/></g><path class="c" d="M155.968,454.477s.308-6.917,5.891-7.615c3.39-.424,4.715,2.639,4.715,5.765v-6.378l-10.606,1.328Z" transform="translate(-141.123 -432.787)"/><g transform="translate(0 4.34)"><circle class="b" cx="2.085" cy="2.085" r="2.085"/><path class="c" d="M150.079,441.619a1.8,1.8,0,1,1-1.215,3.394C150.712,445.425,151.426,442.323,150.079,441.619Z" transform="translate(-147.459 -441.257)"/><ellipse class="a" cx="0.398" cy="0.255" rx="0.398" ry="0.255" transform="translate(0.447 1.244) rotate(-50.642)"/></g><g transform="translate(11.316 2.808)"><circle class="b" cx="2.085" cy="2.085" r="2.085"/><path class="c" d="M156.06,440.809a1.8,1.8,0,1,1-1.215,3.394C156.7,444.616,157.407,441.513,156.06,440.809Z" transform="translate(-153.441 -440.448)"/><ellipse class="a" cx="0.398" cy="0.255" rx="0.398" ry="0.255" transform="translate(0.447 1.244) rotate(-50.642)"/></g><g transform="translate(23.406 1.406)"><circle class="b" cx="2.085" cy="2.085" r="2.085"/><path class="c" d="M162.449,440.068a1.8,1.8,0,1,1-1.213,3.394C163.084,443.874,163.8,440.772,162.449,440.068Z" transform="translate(-159.831 -439.706)"/><ellipse class="a" cx="0.398" cy="0.255" rx="0.398" ry="0.255" transform="translate(0.447 1.244) rotate(-50.642)"/></g><g transform="translate(32.981)"><circle class="b" cx="2.085" cy="2.085" r="2.085"/><path class="c" d="M167.512,439.325a1.8,1.8,0,1,1-1.215,3.394C168.145,443.131,168.859,440.029,167.512,439.325Z" transform="translate(-164.892 -438.963)"/><ellipse class="a" cx="0.398" cy="0.255" rx="0.398" ry="0.255" transform="translate(0.447 1.244) rotate(-50.642)"/></g></g><path class="d" d="M149.879,447.312S150.2,476.451,156.52,491c3.411,7.851,7.265-9.948,7.265-9.948" transform="translate(6.171 7.294)"/><path class="d" d="M155.751,446.917s.322,29.137,6.642,43.689c3.409,7.851,7.263-9.948,7.263-9.948" transform="translate(11.409 6.942)"/><path class="d" d="M162.178,446.148s.322,29.139,6.641,43.691c3.411,7.851,7.263-9.949,7.263-9.949" transform="translate(17.141 6.256)"/><path class="d" d="M167.022,445.549s.322,29.139,6.642,43.691c3.409,7.851,7.263-9.949,7.263-9.949" transform="translate(21.461 5.722)"/><g transform="translate(167.859 474.888)"><g transform="translate(11.959 38.001)"><path class="b" d="M162.442,478.239v15.679l1.286,2.856v-15.72Z" transform="translate(-162.442 -478.011)"/><path class="c" d="M164.721,479.647l-1.6.151v15.72l1.6-.187Z" transform="translate(-161.835 -476.755)"/><path class="a" d="M165.327,481.011l-1.271-2.892-1.614.228,1.286,2.815Z" transform="translate(-162.442 -478.119)"/></g><g transform="translate(24.205 36.836)"><path class="b" d="M168.915,477.623v14.628l1.286,2.856V480.438Z" transform="translate(-168.915 -477.395)"/><path class="c" d="M171.194,479.031l-1.6.151v14.669l1.6-.187Z" transform="translate(-168.308 -476.139)"/><path class="a" d="M171.8,480.394l-1.271-2.892-1.614.228,1.286,2.815Z" transform="translate(-168.915 -477.502)"/></g><g transform="translate(0.81 39.659)"><path class="c" d="M190.117,480.6l-32.888,3.862v1.759l32.888-3.88Z" transform="translate(-155.942 -477.567)"/><path class="a" d="M156.549,482.524l1.286,3.363,32.888-3.862-1.435-3.029Z" transform="translate(-156.549 -478.995)"/></g><g transform="translate(0.81 11.548)"><path class="b" d="M156.549,464.256v51.926l1.286,2.856V467.072Z" transform="translate(-156.549 -464.029)"/><path class="c" d="M158.828,465.664l-1.6.151v51.966l1.6-.187Z" transform="translate(-155.942 -462.773)"/><path class="a" d="M159.434,467.028l-1.271-2.892-1.614.228,1.286,2.815Z" transform="translate(-156.549 -464.136)"/></g><g transform="translate(11.959 10.796)"><path class="b" d="M162.442,463.859v31.514l1.286,2.856V466.674Z" transform="translate(-162.442 -463.631)"/><path class="c" d="M164.721,465.267l-1.6.151v31.555l1.6-.187Z" transform="translate(-161.835 -462.375)"/><path class="a" d="M165.327,466.63l-1.271-2.892-1.614.228,1.286,2.815Z" transform="translate(-162.442 -463.739)"/></g><g transform="translate(24.205 9.392)"><path class="b" d="M168.915,463.117v31.514l1.286,2.856V465.932Z" transform="translate(-168.915 -462.889)"/><path class="c" d="M171.194,464.525l-1.6.151v31.555l1.6-.187Z" transform="translate(-168.308 -461.633)"/><path class="a" d="M171.8,465.889,170.529,463l-1.614.228,1.286,2.815Z" transform="translate(-168.915 -462.997)"/></g><g transform="translate(0.81 7.714)"><path class="c" d="M189.965,463.613l-32.736,4.047v1.759l32.736-4.065Z" transform="translate(-155.942 -460.769)"/><path class="a" d="M156.549,465.639,157.835,469l32.736-4.047-1.283-2.845Z" transform="translate(-156.549 -462.11)"/></g><g transform="translate(0.81 7.835)"><path class="b" d="M156.549,466.032l1.283,2.83-.6-6.6Z" transform="translate(-156.549 -462.092)"/><path class="c" d="M156.911,462.347l.6,6.6,1.365-.121-.6-6.649Z" transform="translate(-156.226 -462.174)"/></g><g transform="translate(12.077 6.425)"><path class="b" d="M162.5,465.287l1.283,2.83-.6-6.6Z" transform="translate(-162.504 -461.347)"/><path class="c" d="M162.866,461.6l.6,6.6,1.365-.121-.6-6.649Z" transform="translate(-162.182 -461.428)"/></g><g transform="translate(24.167 5.005)"><path class="b" d="M168.895,464.536l1.283,2.83-.6-6.6Z" transform="translate(-168.895 -460.596)"/><path class="c" d="M169.257,460.851l.6,6.6,1.365-.121-.6-6.649Z" transform="translate(-168.572 -460.678)"/></g><g transform="translate(33.783 3.789)"><path class="b" d="M173.977,463.893l1.283,2.83-.6-6.6Z" transform="translate(-173.977 -459.953)"/><path class="c" d="M174.339,460.208l.6,6.6,1.365-.121-.6-6.649Z" transform="translate(-173.655 -460.035)"/></g><path class="c" d="M163.967,473.374s.308-6.915,5.893-7.613c3.388-.426,4.713,2.639,4.713,5.765v-6.378l-10.606,1.328Z" transform="translate(-149.123 -451.686)"/><g transform="translate(0 4.34)"><circle class="b" cx="2.085" cy="2.085" r="2.085"/><path class="c" d="M158.078,460.517a1.8,1.8,0,0,1-1.215,3.4C158.713,464.323,159.425,461.223,158.078,460.517Z" transform="translate(-155.459 -460.156)"/><ellipse class="a" cx="0.398" cy="0.255" rx="0.398" ry="0.255" transform="translate(0.447 1.244) rotate(-50.642)"/></g><g transform="translate(11.316 2.808)"><circle class="b" cx="2.085" cy="2.085" r="2.085"/><path class="c" d="M164.058,459.708a1.8,1.8,0,1,1-1.213,3.394C164.693,463.514,165.407,460.412,164.058,459.708Z" transform="translate(-161.44 -459.346)"/><ellipse class="a" cx="0.398" cy="0.255" rx="0.398" ry="0.255" transform="translate(0.447 1.244) rotate(-50.642)"/></g><g transform="translate(23.406 1.406)"><circle class="b" cx="2.085" cy="2.085" r="2.085"/><path class="c" d="M170.45,458.966a1.8,1.8,0,0,1-1.215,3.394C171.083,462.772,171.8,459.672,170.45,458.966Z" transform="translate(-167.83 -458.605)"/><ellipse class="a" cx="0.398" cy="0.255" rx="0.398" ry="0.255" transform="translate(0.447 1.244) rotate(-50.642)"/></g><g transform="translate(32.981)"><circle class="b" cx="2.085" cy="2.085" r="2.085"/><path class="c" d="M175.511,458.223a1.8,1.8,0,0,1-1.215,3.4C176.146,462.029,176.858,458.929,175.511,458.223Z" transform="translate(-172.892 -457.862)"/><ellipse class="a" cx="0.398" cy="0.255" rx="0.398" ry="0.255" transform="translate(0.447 1.244) rotate(-50.642)"/></g></g><path class="d" d="M157.771,466.221s.322,29.139,6.641,43.691" transform="translate(13.21 24.159)"/><path class="d" d="M163.643,465.825s.322,29.139,6.641,43.691" transform="translate(18.447 23.806)"/><path class="d" d="M170.07,465.057s.322,29.139,6.641,43.689" transform="translate(24.179 23.121)"/><path class="d" d="M174.914,464.458s.322,29.139,6.642,43.689" transform="translate(28.5 22.587)"/></g></svg>