<svg xmlns="http://www.w3.org/2000/svg" width="31.169" height="137.517" viewBox="0 0 31.169 137.517"><defs><style>.a{fill:#4cc2ed;}.b{fill:#1ca0db;}.c{fill:#69d3fa;}.d,.e{fill:none;stroke-linecap:round;stroke-miterlimit:10;}.d{stroke:#f0fcff;stroke-linejoin:round;}.e{stroke:#0068a1;}</style></defs><g transform="translate(364.355 -252.292)"><path class="a" d="M-341.975,276.831l.383,8.812,7.719,76.443v19.387l-14.9,8.939-14.9-8.939V362.086l7.719-76.443.382-8.812Z" transform="translate(0 -1.103)"/><path class="b" d="M-340.875,286.066l-7.18,85.382v19.387l14.9-8.939V362.51Z" transform="translate(-0.716 -1.526)"/><path class="c" d="M-355.579,286.066l7.18,85.382,7.18-85.382Z" transform="translate(-0.371 -1.526)"/><g transform="translate(-363.669 275.728)"><path class="d" d="M-355.568,276.831l-.382,8.812-7.719,76.443v19.387l14.9,8.939,14.9-8.939V362.086l-7.719-76.443-.383-8.812Z" transform="translate(363.669 -276.831)"/><path class="d" d="M-348.4,390.835V371.449l-7.18-85.382h14.359l-7.18,85.382" transform="translate(363.298 -277.254)"/><path class="d" d="M-363.669,366.184l14.9,8.939,14.9-8.939" transform="translate(363.669 -280.929)"/></g><line class="e" y1="27.108" transform="translate(-348.771 252.792)"/></g></svg>