<svg xmlns="http://www.w3.org/2000/svg" xmlns:xlink="http://www.w3.org/1999/xlink" width="42.442" height="58.381" viewBox="0 0 42.442 58.381"><defs><style>.a{fill:none;}.b{clip-path:url(#a);}.c{clip-path:url(#b);}.d{opacity:0.29;mix-blend-mode:multiply;isolation:isolate;}.e{clip-path:url(#c);}.f{fill:#231f20;}.g{clip-path:url(#d);}.h{fill:#99aeaa;}.i{clip-path:url(#e);}.j{clip-path:url(#f);}.k{clip-path:url(#g);}.l{fill:#546063;}.m{clip-path:url(#h);}.n{fill:#414a4d;}.o{clip-path:url(#j);}.p{clip-path:url(#k);}.q{fill:#778683;}.r{fill:#0a0a0a;}.s{fill:#3f3d3b;}.t{clip-path:url(#m);}.u{clip-path:url(#n);}.v{clip-path:url(#o);}.w{clip-path:url(#p);}.x{clip-path:url(#q);}.y{clip-path:url(#s);}.z{clip-path:url(#t);}.aa{clip-path:url(#v);}.ab{fill:#2e2e2e;}.ac{fill:#514f4e;}.ad{fill:#9f9f9f;}.ae{fill:#c8a858;}.af{opacity:0.47;}.ag{clip-path:url(#x);}.ah{fill:#353434;}.ai{clip-path:url(#y);}.aj{fill:#222120;}.ak{fill:#363433;}.al{clip-path:url(#aa);}.am{clip-path:url(#ab);}.an{fill:#545454;}.ao{fill:#8f8f8f;}.ap{fill:#646464;}.aq{fill:#fff;}.ar{clip-path:url(#ad);}.as{clip-path:url(#af);}.at{clip-path:url(#ag);}.au{clip-path:url(#ai);}.av{fill:#202f3a;}.aw{clip-path:url(#aj);}.ax{fill:#19242d;}.ay{fill:#11191f;}.az{clip-path:url(#al);}.ba{fill:#1c2932;}.bb{clip-path:url(#an);}.bc{clip-path:url(#ao);}.bd{clip-path:url(#aq);}.be{clip-path:url(#as);}.bf{clip-path:url(#at);}.bg{clip-path:url(#av);}.bh{clip-path:url(#ax);}.bi{clip-path:url(#ay);}.bj{clip-path:url(#ba);}.bk{clip-path:url(#bc);}.bl{clip-path:url(#bd);}.bm{clip-path:url(#bf);}.bn{clip-path:url(#bh);}.bo{clip-path:url(#bi);}.bp{clip-path:url(#bk);}.bq{clip-path:url(#bm);}.br{clip-path:url(#bn);}.bs{clip-path:url(#bp);}.bt{clip-path:url(#br);}.bu{clip-path:url(#bs);}.bv{clip-path:url(#bu);}.bw{clip-path:url(#bw);}.bx{clip-path:url(#bx);}.by{clip-path:url(#bz);}.bz{clip-path:url(#cb);}.ca{clip-path:url(#cc);}.cb{clip-path:url(#ce);}.cc{clip-path:url(#cg);}.cd{clip-path:url(#ch);}.ce{clip-path:url(#cj);}.cf{clip-path:url(#cl);}.cg{clip-path:url(#cm);}.ch{clip-path:url(#co);}.ci{clip-path:url(#cq);}.cj{clip-path:url(#cr);}.ck{clip-path:url(#ct);}.cl{clip-path:url(#cv);}.cm{clip-path:url(#cw);}.cn{clip-path:url(#cy);}.co{clip-path:url(#da);}.cp{clip-path:url(#db);}.cq{clip-path:url(#dd);}.cr{clip-path:url(#df);}.cs{clip-path:url(#dg);}.ct{clip-path:url(#di);}.cu{clip-path:url(#dk);}.cv{clip-path:url(#dl);}.cw{clip-path:url(#dn);}.cx{clip-path:url(#dp);}.cy{clip-path:url(#dq);}.cz{clip-path:url(#ds);}.da{clip-path:url(#du);}.db{clip-path:url(#dv);}.dc{clip-path:url(#dx);}.dd{clip-path:url(#dz);}.de{clip-path:url(#ea);}.df{clip-path:url(#ec);}.dg{clip-path:url(#ee);}.dh{clip-path:url(#ef);}.di{clip-path:url(#eh);}.dj{clip-path:url(#ej);}.dk{clip-path:url(#ek);}.dl{clip-path:url(#em);}.dm{clip-path:url(#eo);}.dn{clip-path:url(#ep);}.do{clip-path:url(#er);}.dp{clip-path:url(#et);}.dq{clip-path:url(#eu);}.dr{clip-path:url(#ew);}</style><clipPath id="a"><rect class="a" width="42.442" height="58.382"/></clipPath><clipPath id="b"><rect class="a" width="42.442" height="58.381" transform="translate(0 0)"/></clipPath><clipPath id="c"><rect class="a" width="41.01" height="40.944" transform="translate(0 17.278)"/></clipPath><clipPath id="d"><path class="a" d="M30.886,57.648l.479.28a.666.666,0,0,0,.3-.522l-.479-.278a.66.66,0,0,1-.3.52"/></clipPath><clipPath id="e"><path class="a" d="M30.671,57.669l.48.279a.212.212,0,0,0,.214-.02c-.159-.094-.319-.188-.479-.28a.209.209,0,0,1-.215.021"/></clipPath><clipPath id="f"><path class="a" d="M31.186,57.128l.479.278a.212.212,0,0,0-.088-.194l-.479-.278a.211.211,0,0,1,.088.194"/></clipPath><clipPath id="g"><path class="a" d="M30.884,56.954l.479.279a.215.215,0,0,1,.214-.021l-.479-.278a.157.157,0,0,0-.08-.021.268.268,0,0,0-.134.041"/></clipPath><clipPath id="h"><path class="a" d="M30.583,57.476a.211.211,0,0,0,.088.193l.48.279a.208.208,0,0,1-.088-.194.66.66,0,0,1,.3-.521l-.479-.279a.666.666,0,0,0-.3.522"/></clipPath><clipPath id="j"><path class="a" d="M30.883,56.585l.479.279a.442.442,0,0,1,.444-.043l-.48-.279a.318.318,0,0,0-.164-.042.564.564,0,0,0-.279.085"/></clipPath><clipPath id="k"><path class="a" d="M30.261,57.662a.436.436,0,0,0,.182.4l.479.279a.436.436,0,0,1-.182-.4,1.369,1.369,0,0,1,.622-1.076l-.479-.279a1.367,1.367,0,0,0-.622,1.077"/></clipPath><clipPath id="m"><path class="a" d="M7.905,44.259c.144.083.335.194.479.279a.66.66,0,0,0,.3-.521l-.48-.278a.662.662,0,0,1-.3.52"/></clipPath><clipPath id="n"><path class="a" d="M7.691,44.28l.479.279a.215.215,0,0,0,.214-.021c-.159-.094-.32-.186-.479-.279a.212.212,0,0,1-.214.021"/></clipPath><clipPath id="o"><path class="a" d="M8.2,43.739l.48.278a.206.206,0,0,0-.088-.193l-.479-.279a.209.209,0,0,1,.087.194"/></clipPath><clipPath id="p"><path class="a" d="M7.9,43.564l.48.279a.207.207,0,0,1,.213-.019l-.479-.279a.157.157,0,0,0-.08-.021.266.266,0,0,0-.134.04"/></clipPath><clipPath id="q"><path class="a" d="M7.6,44.086a.212.212,0,0,0,.089.194l.479.279a.21.21,0,0,1-.089-.194.663.663,0,0,1,.3-.522l-.48-.279a.666.666,0,0,0-.3.522"/></clipPath><clipPath id="s"><path class="a" d="M7.9,43.2l.48.278a.436.436,0,0,1,.442-.043l-.479-.278a.322.322,0,0,0-.164-.044A.558.558,0,0,0,7.9,43.2"/></clipPath><clipPath id="t"><path class="a" d="M7.28,44.273a.436.436,0,0,0,.181.4l.481.278a.432.432,0,0,1-.183-.4,1.371,1.371,0,0,1,.623-1.078L7.9,43.2a1.364,1.364,0,0,0-.622,1.077"/></clipPath><clipPath id="v"><path class="a" d="M41.619,10.93c-2.607,3.306-6.308,4.359-6.316,7.007l-.025,8.754c.008-2.649,3.71-3.7,6.316-7.006a3.465,3.465,0,0,0,.824-2.15q.012-4.214.023-8.43V8.844a3.47,3.47,0,0,1-.822,2.086"/></clipPath><clipPath id="x"><rect class="a" width="34.709" height="22.018" transform="translate(6.149 0.216)"/></clipPath><clipPath id="y"><path class="a" d="M4.438,24.9l.783.456a1.441,1.441,0,0,0,.655-1.135l-.782-.455A1.444,1.444,0,0,1,4.438,24.9"/></clipPath><clipPath id="aa"><path class="a" d="M5.087,21.275l.782.454A2.456,2.456,0,0,1,6.981,19.8L6.2,19.348a2.446,2.446,0,0,0-1.112,1.927"/></clipPath><clipPath id="ab"><path class="a" d="M.895,28.458l.783.454a2.893,2.893,0,0,1,1.309-2.269L2.2,26.188a2.892,2.892,0,0,0-1.308,2.27"/></clipPath><clipPath id="ad"><path class="a" d="M30.841,39.959l.783.461a1.463,1.463,0,0,0,.655-1.147l-.782-.46a1.465,1.465,0,0,1-.656,1.146"/></clipPath><clipPath id="af"><path class="a" d="M31.49,36.3l.782.461a2.481,2.481,0,0,1,1.113-1.947l-.783-.46A2.475,2.475,0,0,0,31.49,36.3"/></clipPath><clipPath id="ag"><path class="a" d="M27.3,43.555l.782.459a2.92,2.92,0,0,1,1.308-2.292l-.783-.459A2.916,2.916,0,0,0,27.3,43.555"/></clipPath><clipPath id="ai"><path class="a" d="M29.915,39.183l.009.283a.047.047,0,0,0,.027-.043l-.009-.284a.049.049,0,0,1-.027.044"/></clipPath><clipPath id="aj"><path class="a" d="M27.375,40.566c0,.014.012.028.034.038l-.01-.281a.051.051,0,0,1-.033-.041Z"/></clipPath><clipPath id="al"><path class="a" d="M27.709,40.476l.01.283a.166.166,0,0,0,.144-.01l-.01-.283a.159.159,0,0,1-.144.01"/></clipPath><clipPath id="an"><path class="a" d="M29.218,38.785l.009.284a.052.052,0,0,0,.027-.044l-.009-.282a.052.052,0,0,1-.027.042"/></clipPath><clipPath id="ao"><path class="a" d="M26.678,40.17a.05.05,0,0,0,.032.038l-.009-.284a.047.047,0,0,1-.032-.039Z"/></clipPath><clipPath id="aq"><path class="a" d="M27.013,40.079l.009.282a.154.154,0,0,0,.143-.01l-.008-.282a.166.166,0,0,1-.144.01"/></clipPath><clipPath id="as"><path class="a" d="M25.078,36.41l.009.284a.054.054,0,0,0,.028-.044l-.01-.283a.051.051,0,0,1-.027.043"/></clipPath><clipPath id="at"><path class="a" d="M22.539,37.794a.047.047,0,0,0,.032.038l-.01-.283a.052.052,0,0,1-.032-.039Z"/></clipPath><clipPath id="av"><path class="a" d="M22.873,37.7l.009.284a.157.157,0,0,0,.144-.01l-.009-.282a.162.162,0,0,1-.144.008"/></clipPath><clipPath id="ax"><path class="a" d="M24.38,36.013l.01.284a.049.049,0,0,0,.026-.044l-.009-.278a.049.049,0,0,1-.027.038m.027-.038v0Z"/></clipPath><clipPath id="ay"><path class="a" d="M21.841,37.4a.05.05,0,0,0,.032.04l-.008-.283a.054.054,0,0,1-.034-.039Z"/></clipPath><clipPath id="ba"><path class="a" d="M22.175,37.306l.009.283a.153.153,0,0,0,.144-.01l-.009-.282a.162.162,0,0,1-.144.009"/></clipPath><clipPath id="bc"><path class="a" d="M27.85,37.959l.009.286a.054.054,0,0,0,.028-.045l-.009-.278a.055.055,0,0,1-.028.037m.028-.037v0Z"/></clipPath><clipPath id="bd"><path class="a" d="M25.311,39.343a.048.048,0,0,0,.033.039l-.01-.284a.045.045,0,0,1-.032-.037Z"/></clipPath><clipPath id="bf"><path class="a" d="M25.645,39.253l.009.282a.155.155,0,0,0,.145-.01l-.01-.282a.162.162,0,0,1-.144.01"/></clipPath><clipPath id="bh"><path class="a" d="M27.153,37.563l.009.284c.019-.014.029-.028.027-.045l-.009-.282a.049.049,0,0,1-.027.043"/></clipPath><clipPath id="bi"><path class="a" d="M24.613,38.945a.052.052,0,0,0,.033.04l-.009-.281a.055.055,0,0,1-.033-.041Z"/></clipPath><clipPath id="bk"><path class="a" d="M24.948,38.857l.009.282a.157.157,0,0,0,.144-.01l-.009-.282a.17.17,0,0,1-.144.01"/></clipPath><clipPath id="bm"><path class="a" d="M26.421,37.167l.009.284a.052.052,0,0,0,.027-.045l-.009-.278a.053.053,0,0,1-.027.039m.027-.039v0Z"/></clipPath><clipPath id="bn"><path class="a" d="M23.882,38.551c0,.015.011.028.032.039l-.009-.284a.05.05,0,0,1-.033-.039Z"/></clipPath><clipPath id="bp"><path class="a" d="M24.215,38.461l.01.282a.154.154,0,0,0,.143-.01l-.009-.282a.169.169,0,0,1-.144.01"/></clipPath><clipPath id="br"><path class="a" d="M22.689,34.934l.01.284a.053.053,0,0,0,.027-.044l-.01-.279a.048.048,0,0,1-.027.039m.027-.039v0Z"/></clipPath><clipPath id="bs"><path class="a" d="M20.15,36.318a.049.049,0,0,0,.032.038l-.008-.283a.053.053,0,0,1-.034-.039Z"/></clipPath><clipPath id="bu"><path class="a" d="M20.484,36.226l.01.284a.16.16,0,0,0,.144-.01l-.01-.282a.159.159,0,0,1-.144.008"/></clipPath><clipPath id="bw"><path class="a" d="M21.992,34.537,22,34.82a.05.05,0,0,0,.027-.043l-.009-.284a.05.05,0,0,1-.027.044"/></clipPath><clipPath id="bx"><path class="a" d="M19.453,35.92a.046.046,0,0,0,.032.038l-.01-.282a.051.051,0,0,1-.032-.04Z"/></clipPath><clipPath id="bz"><path class="a" d="M19.786,35.83l.01.281a.154.154,0,0,0,.143-.007l-.009-.284a.156.156,0,0,1-.144.01"/></clipPath><clipPath id="cb"><path class="a" d="M17.852,32.162l.009.282a.048.048,0,0,0,.027-.042l-.008-.28a.06.06,0,0,1-.028.04m.028-.04v0Z"/></clipPath><clipPath id="cc"><path class="a" d="M15.313,33.545a.05.05,0,0,0,.032.038l-.009-.284a.043.043,0,0,1-.032-.038Z"/></clipPath><clipPath id="ce"><path class="a" d="M15.646,33.455l.01.281a.159.159,0,0,0,.144-.008l-.009-.283a.167.167,0,0,1-.145.01"/></clipPath><clipPath id="cg"><path class="a" d="M17.155,31.764l.009.284A.052.052,0,0,0,17.192,32l-.01-.283a.046.046,0,0,1-.027.043"/></clipPath><clipPath id="ch"><path class="a" d="M14.616,33.148a.05.05,0,0,0,.032.039l-.009-.284a.047.047,0,0,1-.033-.039Z"/></clipPath><clipPath id="cj"><path class="a" d="M14.95,33.058l.008.282a.155.155,0,0,0,.145-.01l-.009-.282a.16.16,0,0,1-.144.01"/></clipPath><clipPath id="cl"><path class="a" d="M20.625,33.712l.008.283a.052.052,0,0,0,.028-.044l-.009-.277a.053.053,0,0,1-.027.038m.027-.038v0Z"/></clipPath><clipPath id="cm"><path class="a" d="M18.085,35.094a.051.051,0,0,0,.033.04l-.009-.283a.048.048,0,0,1-.032-.039Z"/></clipPath><clipPath id="co"><path class="a" d="M18.419,35l.009.284a.164.164,0,0,0,.145-.009l-.01-.283a.156.156,0,0,1-.144.008"/></clipPath><clipPath id="cq"><path class="a" d="M19.927,33.315l.01.282a.048.048,0,0,0,.027-.042l-.009-.284a.052.052,0,0,1-.028.044"/></clipPath><clipPath id="cr"><path class="a" d="M17.388,34.7a.05.05,0,0,0,.032.038l-.009-.282a.056.056,0,0,1-.033-.039Z"/></clipPath><clipPath id="ct"><path class="a" d="M17.722,34.608l.01.281a.153.153,0,0,0,.144-.008l-.01-.284a.156.156,0,0,1-.144.011"/></clipPath><clipPath id="cv"><path class="a" d="M19.195,32.919l.009.282a.049.049,0,0,0,.028-.042l-.01-.28a.053.053,0,0,1-.027.04m.027-.04v0Z"/></clipPath><clipPath id="cw"><path class="a" d="M16.655,34.3a.054.054,0,0,0,.034.038l-.01-.282a.057.057,0,0,1-.033-.04Z"/></clipPath><clipPath id="cy"><path class="a" d="M16.989,34.212l.01.281a.159.159,0,0,0,.144-.008l-.009-.284a.164.164,0,0,1-.145.011"/></clipPath><clipPath id="da"><path class="a" d="M15.464,30.806l.009.283a.051.051,0,0,0,.027-.044l-.009-.285a.054.054,0,0,1-.027.046"/></clipPath><clipPath id="db"><path class="a" d="M12.924,32.188a.052.052,0,0,0,.033.038l-.01-.282a.052.052,0,0,1-.032-.039Z"/></clipPath><clipPath id="dd"><path class="a" d="M13.258,32.1l.01.284a.16.16,0,0,0,.144-.01l-.009-.284a.155.155,0,0,1-.145.01"/></clipPath><clipPath id="df"><path class="a" d="M14.766,30.409l.009.282a.046.046,0,0,0,.027-.043l-.009-.283a.053.053,0,0,1-.027.044"/></clipPath><clipPath id="dg"><path class="a" d="M12.227,31.792a.05.05,0,0,0,.032.038l-.009-.282a.051.051,0,0,1-.033-.041Z"/></clipPath><clipPath id="di"><path class="a" d="M12.561,31.7l.009.282a.148.148,0,0,0,.144-.01l-.009-.282a.162.162,0,0,1-.144.01"/></clipPath><clipPath id="dk"><path class="a" d="M10.627,28.032l.008.284c.02-.014.029-.028.028-.043l-.009-.284a.05.05,0,0,1-.027.043"/></clipPath><clipPath id="dl"><path class="a" d="M8.087,29.416c0,.015.012.028.033.038l-.01-.282a.051.051,0,0,1-.032-.04Z"/></clipPath><clipPath id="dn"><path class="a" d="M8.421,29.325l.009.283a.159.159,0,0,0,.144-.01l-.009-.282a.165.165,0,0,1-.144.009"/></clipPath><clipPath id="dp"><path class="a" d="M9.929,27.636l.01.283a.051.051,0,0,0,.027-.044l-.01-.278a.054.054,0,0,1-.027.039m.027-.039v0Z"/></clipPath><clipPath id="dq"><path class="a" d="M7.39,29.018a.05.05,0,0,0,.032.04l-.009-.284a.051.051,0,0,1-.033-.038Z"/></clipPath><clipPath id="ds"><path class="a" d="M7.724,28.929l.01.283a.152.152,0,0,0,.143-.011l-.009-.281a.169.169,0,0,1-.144.009"/></clipPath><clipPath id="du"><path class="a" d="M13.4,29.583l.009.282a.047.047,0,0,0,.027-.045l-.009-.276a.05.05,0,0,1-.027.039m.027-.039v0Z"/></clipPath><clipPath id="dv"><path class="a" d="M10.859,30.965a.056.056,0,0,0,.034.041l-.01-.285a.05.05,0,0,1-.033-.038Z"/></clipPath><clipPath id="dx"><path class="a" d="M11.194,30.875l.009.282a.153.153,0,0,0,.144-.008l-.009-.284a.153.153,0,0,1-.144.01"/></clipPath><clipPath id="dz"><path class="a" d="M12.7,29.187l.009.282a.051.051,0,0,0,.028-.045l-.01-.282a.056.056,0,0,1-.027.045"/></clipPath><clipPath id="ea"><path class="a" d="M10.163,30.569a.051.051,0,0,0,.032.039l-.01-.283a.05.05,0,0,1-.032-.04Z"/></clipPath><clipPath id="ec"><path class="a" d="M10.5,30.478l.009.282a.156.156,0,0,0,.144-.008l-.009-.283a.163.163,0,0,1-.144.009"/></clipPath><clipPath id="ee"><path class="a" d="M11.97,28.791l.009.282a.05.05,0,0,0,.027-.045L12,28.75a.055.055,0,0,1-.026.041M12,28.75v0Z"/></clipPath><clipPath id="ef"><path class="a" d="M9.43,30.173a.053.053,0,0,0,.033.039l-.009-.283a.052.052,0,0,1-.033-.04Z"/></clipPath><clipPath id="eh"><path class="a" d="M9.764,30.082l.01.283a.157.157,0,0,0,.143-.009l-.008-.283a.172.172,0,0,1-.145.009"/></clipPath><clipPath id="ej"><path class="a" d="M8.394,26.69l.009.283a.051.051,0,0,0,.027-.044l-.009-.283a.051.051,0,0,1-.027.044"/></clipPath><clipPath id="ek"><path class="a" d="M5.855,28.073a.05.05,0,0,0,.032.038l-.009-.282c-.021-.01-.032-.024-.032-.039Z"/></clipPath><clipPath id="em"><path class="a" d="M6.189,27.983l.009.281a.159.159,0,0,0,.144-.008l-.009-.284a.156.156,0,0,1-.144.011"/></clipPath><clipPath id="eo"><path class="a" d="M7.7,26.292l.01.284a.052.052,0,0,0,.027-.044l-.009-.283a.049.049,0,0,1-.028.043"/></clipPath><clipPath id="ep"><path class="a" d="M5.157,27.677a.05.05,0,0,0,.032.038l-.009-.282a.054.054,0,0,1-.032-.041Z"/></clipPath><clipPath id="er"><path class="a" d="M5.491,27.586l.01.282a.154.154,0,0,0,.144-.01l-.01-.282a.159.159,0,0,1-.144.01"/></clipPath><clipPath id="et"><path class="a" d="M6.964,25.9l.009.284A.051.051,0,0,0,7,26.136l-.009-.283a.049.049,0,0,1-.028.043"/></clipPath><clipPath id="eu"><path class="a" d="M4.425,27.28a.05.05,0,0,0,.033.039l-.01-.284A.05.05,0,0,1,4.416,27Z"/></clipPath><clipPath id="ew"><path class="a" d="M4.759,27.19l.009.282a.153.153,0,0,0,.144-.01L4.9,27.18a.159.159,0,0,1-.144.01"/></clipPath></defs><g class="b"><g class="c"><g class="d"><g class="e"><path class="f" d="M40.814,30.991,33.86,17.278,8.189,33.266,0,39.7l9.806,5.749c-.926.592-1.985,1.4-2.26,1.564L2.933,49.695a.522.522,0,0,0,.006.989l4.643,2.682a1.89,1.89,0,0,0,1.708,0L13.1,51.138a23.463,23.463,0,0,0,4.818-.938l8.473,4.968,1.506-.949,2.946,4,.975-.649-1.69-4.842c3.933-2.483,7.846-5.01,8.157-5.232a6.24,6.24,0,0,0,2.729-5.264c0-3.837-.195-11.244-.195-11.244"/></g></g></g><g class="g"><path class="h" d="M31.365,57.927l-.479-.279a.659.659,0,0,0,.3-.52.213.213,0,0,0-.087-.195l.479.279a.21.21,0,0,1,.088.194.666.666,0,0,1-.3.521"/></g><g class="i"><path class="h" d="M31.151,57.947l-.479-.278a.215.215,0,0,0,.214-.021l.479.278a.21.21,0,0,1-.214.021"/></g><g class="j"><path class="h" d="M31.365,57.927l-.479-.279a.659.659,0,0,0,.3-.52.213.213,0,0,0-.087-.195l.479.279a.21.21,0,0,1,.088.194.666.666,0,0,1-.3.521"/></g><g class="k"><path class="l" d="M31.363,57.232l-.479-.279a.212.212,0,0,1,.214-.02l.479.278a.217.217,0,0,0-.214.021"/></g><g class="m"><path class="l" d="M31.151,57.947l-.479-.278a.213.213,0,0,1-.089-.194.666.666,0,0,1,.3-.522l.479.279a.66.66,0,0,0-.3.521.208.208,0,0,0,.088.194"/></g><g class="c"><path class="n" d="M31.363,57.232c.167-.095.3-.019.3.173a.666.666,0,0,1-.3.521c-.168.1-.3.018-.3-.173a.658.658,0,0,1,.3-.521"/></g><g class="o"><path class="h" d="M31.362,56.863l-.479-.278a.436.436,0,0,1,.443-.043l.48.278a.445.445,0,0,0-.444.043"/></g><g class="p"><path class="h" d="M30.922,58.339l-.48-.279a.435.435,0,0,1-.182-.4,1.373,1.373,0,0,1,.622-1.077l.48.278a1.37,1.37,0,0,0-.622,1.078.434.434,0,0,0,.182.4"/></g><g class="c"><path class="q" d="M31.362,56.863c.344-.2.625-.039.626.358a1.369,1.369,0,0,1-.622,1.075c-.345.2-.625.04-.626-.356a1.373,1.373,0,0,1,.622-1.077m0,1.064a.666.666,0,0,0,.3-.521c0-.192-.135-.268-.3-.173a.656.656,0,0,0-.3.521c0,.191.135.269.3.173"/><path class="r" d="M41.433,16.777l-1.073-.322v-.038l-.064.019-.064-.019v.038l-1.074.322.766,14.174s.061.285.307.3v0h.128v0c.246-.012.278-.3.278-.3Z"/><path class="s" d="M32.664,40.484l-1.813-.308v-.044l-.073.022-.075-.022v.044l-1.247.374.877,16.288a.708.708,0,0,0,.666.6c.682,0,.739-.488.739-.488Z"/></g><g class="t"><path class="h" d="M8.384,44.538l-.479-.279a.662.662,0,0,0,.3-.52.211.211,0,0,0-.088-.195l.48.279a.21.21,0,0,1,.088.194.66.66,0,0,1-.3.521"/></g><g class="u"><path class="h" d="M8.17,44.558l-.479-.279a.214.214,0,0,0,.214-.02l.479.278a.212.212,0,0,1-.214.021"/></g><g class="v"><path class="h" d="M8.384,44.538l-.479-.279a.662.662,0,0,0,.3-.52.211.211,0,0,0-.088-.195l.48.279a.21.21,0,0,1,.088.194.66.66,0,0,1-.3.521"/></g><g class="w"><path class="l" d="M8.382,43.843,7.9,43.565a.208.208,0,0,1,.213-.021l.48.278a.212.212,0,0,0-.214.021"/></g><g class="x"><path class="l" d="M8.17,44.558l-.479-.279a.209.209,0,0,1-.089-.194.662.662,0,0,1,.3-.52l.479.278a.661.661,0,0,0-.3.522.209.209,0,0,0,.088.193"/></g><g class="c"><path class="n" d="M8.382,43.843c.166-.095.3-.018.3.173a.662.662,0,0,1-.3.521c-.168.1-.3.018-.3-.173a.662.662,0,0,1,.3-.521"/></g><g class="y"><path class="h" d="M8.381,43.474,7.9,43.2a.434.434,0,0,1,.443-.043l.479.278a.438.438,0,0,0-.443.043"/></g><g class="z"><path class="h" d="M7.941,44.95l-.48-.279a.436.436,0,0,1-.182-.4A1.369,1.369,0,0,1,7.9,43.2l.48.277a1.37,1.37,0,0,0-.622,1.078.433.433,0,0,0,.182.4"/></g><g class="c"><path class="q" d="M8.381,43.474c.344-.2.625-.039.626.357a1.369,1.369,0,0,1-.622,1.076c-.345.2-.625.04-.626-.356a1.373,1.373,0,0,1,.622-1.077m0,1.064a.66.66,0,0,0,.3-.521c0-.191-.136-.269-.3-.173a.66.66,0,0,0-.3.521c0,.191.136.27.3.173"/><path class="r" d="M9.683,27.095,7.87,26.786v-.044l-.074.023-.073-.023v.044l-1.248.375.877,16.288a.708.708,0,0,0,.666.6c.682,0,.739-.489.739-.489Z"/></g><g class="aa"><path class="ab" d="M42.442,8.781l-.024,8.754a3.448,3.448,0,0,1-.824,2.149c-2.606,3.306-6.308,4.358-6.316,7.007l.025-8.755c.008-2.648,3.709-3.7,6.316-7.006a3.443,3.443,0,0,0,.823-2.149"/></g><g class="c"><path class="r" d="M33.292,34.85,33.266,43.6,6.121,27.932l.028-8.7Z"/><path class="ac" d="M37.4,2.983c2.6,1.5,6.84,4.629,4.221,7.947-2.868,3.637-7.061,4.546-6.2,7.855.962,3.713,6.4,4.389,6.39,8.649,0,1.681-2.515,3.45-5.389,5.349L33.292,34.85,6.149,19.232,35.619,2.06a19.488,19.488,0,0,1,1.779.923"/><path class="r" d="M36.925,3.41c2.439,1.408,6.426,4.349,3.966,7.466-2.695,3.417-6.945,4.778-6.148,7.888,1.1,4.3,7.168,4.82,6.373,8.8-.225,1.124-.742,1.6-3.2,3.372L32.9,34.207,7.244,19.134,35.255,2.543c.035.015.715.317,1.67.867"/><path class="r" d="M28.075,44.217l-.009,2.375L.884,30.9l.01-2.376Z"/><path class="ad" d="M33.268,41.2l-5.193,3.018L.894,28.523l5.192-3.017Z"/><path class="ae" d="M35.319,16.185a27.286,27.286,0,0,1,3.632-3.308c.1-.115.2-.232.291-.353,2.461-3.117-1.526-6.058-3.965-7.466a18.63,18.63,0,0,0-1.671-.867L7.556,19.319,32.9,34.206s5.452-3.552,5.745-3.8a1.772,1.772,0,0,0,.9-1.374c.511-2.927-2.344-3.907-4.322-5.8a2.341,2.341,0,0,1-.574-1.45V18.669a3.72,3.72,0,0,1,.672-2.484"/><g class="af"><g class="ag"><path class="r" d="M6.149,19.231l18.855,3L40.858,8.311s-7.231-.085-7.445-1.179c-.375-1.93,5.927-5.6,3.046-6.565s-4.51.362-4.51.362Z"/></g></g><path class="ah" d="M24.929,15.123l8.593,18.634c.01.01.019.015.029.024l1.091-.714Z"/><path class="ac" d="M6.719,19.536l24.187-4.6,9.075-7.949,0-.617c-1.218,0-4.919.13-5.108-.762-.145-.681.74-1.655,1.536-2.492A4.512,4.512,0,0,0,37.488,1.8a1.414,1.414,0,0,0-.044-.743A.8.8,0,0,0,36.9.516a5.129,5.129,0,0,0-4.868.8L6.149,19.232Z"/><path class="ab" d="M6.149,19.231,30.9,14.372l9.093-7.993S35,6.39,34.79,5.3c-.377-1.93,4.634-3.981,1.753-4.945a4.834,4.834,0,0,0-4.511.361Z"/></g><g class="ai"><path class="s" d="M5.221,25.354,4.438,24.9a1.444,1.444,0,0,0,.656-1.134l.782.454a1.445,1.445,0,0,1-.655,1.136"/></g><g class="c"><path class="aj" d="M5.876,24.218l-.783-.455-.007-2.488.783.455Z"/><path class="aj" d="M1.68,29.162.9,28.706v-.249l.783.455Z"/><path class="ak" d="M2.987,26.643,2.2,26.188,4.438,24.9l.783.455Z"/></g><g class="al"><path class="s" d="M5.869,21.73l-.783-.455A2.45,2.45,0,0,1,6.2,19.348l.782.455A2.456,2.456,0,0,0,5.869,21.73"/></g><g class="am"><path class="s" d="M1.679,28.912.9,28.457A2.887,2.887,0,0,1,2.2,26.188l.784.456a2.889,2.889,0,0,0-1.309,2.268"/></g><g class="c"><path class="an" d="M6.981,19.8,7,26.09l-5.32,3.072v-.251a2.889,2.889,0,0,1,1.309-2.268l2.234-1.289a1.448,1.448,0,0,0,.655-1.136L5.869,21.73A2.448,2.448,0,0,1,6.981,19.8"/><path class="ao" d="M32.221,40.651l-.007.878L28.52,43.676l.007-.878Z"/><path class="ap" d="M28.527,42.8l-.006.878L2.818,28.937l.006-.879Z"/><path class="aq" d="M32.385,40.634,28.527,42.8,2.824,28.058l3.86-2.164Z"/></g><g class="ar"><path class="s" d="M31.625,40.419l-.784-.46a1.463,1.463,0,0,0,.656-1.147l.782.46a1.464,1.464,0,0,1-.654,1.147"/></g><g class="c"><path class="aj" d="M32.28,39.272l-.783-.46L31.49,36.3l.783.459Z"/><path class="aj" d="M28.083,44.267l-.783-.461v-.251l.783.459Z"/><path class="ak" d="M29.39,41.722l-.783-.46,2.234-1.3.783.46Z"/></g><g class="as"><path class="s" d="M32.272,36.759l-.783-.459A2.476,2.476,0,0,1,32.6,34.353l.782.459a2.486,2.486,0,0,0-1.112,1.947"/></g><g class="at"><path class="s" d="M28.082,44.014l-.783-.459a2.919,2.919,0,0,1,1.308-2.292l.783.459a2.926,2.926,0,0,0-1.308,2.292"/></g><g class="c"><path class="ab" d="M36.567,32.613l0-.03L33.292,34.85v.022a2.5,2.5,0,0,0-1.019,1.887l.007,2.514a1.467,1.467,0,0,1-.655,1.147l-2.235,1.3a2.926,2.926,0,0,0-1.308,2.292v.2l-.008,0-.009,2.376,5.2-2.994V43.6l2.561-1.482v0c3.19-1.8,5.952-4.258,5.955-5.94l.025-8.753c0,1.514-2.779,3.432-5.241,5.179"/></g><g class="au"><path class="av" d="M29.915,39.183l.009.283a.049.049,0,0,0,.027-.044l-.009-.283a.049.049,0,0,1-.027.044"/></g><g class="aw"><path class="av" d="M27.366,40.283l.009.283a.05.05,0,0,0,.033.039l-.009-.283a.05.05,0,0,1-.033-.039"/></g><g class="c"><path class="ax" d="M27.4,40.322l.009.283.311.154-.009-.283Z"/><path class="ay" d="M27.854,40.466l.009.283,2.061-1.283-.008-.283Z"/></g><g class="az"><path class="av" d="M27.709,40.476l.01.283a.157.157,0,0,0,.143-.01l-.009-.283a.159.159,0,0,1-.144.01"/></g><g class="c"><path class="ba" d="M27.393,40.239a.044.044,0,0,0,.005.083l.311.154a.162.162,0,0,0,.144-.01l2.061-1.283c.039-.026.036-.063,0-.083l-.311-.153a.156.156,0,0,0-.144.009Z"/></g><g class="bb"><path class="av" d="M29.217,38.786l.009.283a.05.05,0,0,0,.028-.044l-.01-.283a.05.05,0,0,1-.027.044"/></g><g class="bc"><path class="av" d="M26.668,39.885l.01.284a.051.051,0,0,0,.032.039l-.009-.284a.048.048,0,0,1-.033-.039"/></g><g class="c"><path class="ax" d="M26.7,39.924l.009.284.311.153-.009-.283Z"/><path class="ay" d="M27.156,40.069l.009.283,2.061-1.283-.009-.283Z"/></g><g class="bd"><path class="av" d="M27.012,40.079l.009.283a.156.156,0,0,0,.144-.01l-.009-.283a.156.156,0,0,1-.144.01"/></g><g class="c"><path class="ba" d="M26.7,39.842a.044.044,0,0,0,.005.083l.311.154a.162.162,0,0,0,.144-.01l2.061-1.283c.039-.026.037-.063,0-.083L28.9,38.55a.156.156,0,0,0-.144.009Z"/></g><g class="be"><path class="av" d="M25.078,36.411l.009.283a.051.051,0,0,0,.028-.044l-.01-.283a.05.05,0,0,1-.027.044"/></g><g class="bf"><path class="av" d="M22.529,37.51l.009.283q0,.024.033.039l-.01-.283a.05.05,0,0,1-.032-.039"/></g><g class="c"><path class="ax" d="M22.562,37.549l.009.283.311.154-.009-.283Z"/><path class="ay" d="M23.017,37.693l.009.283,2.061-1.283-.009-.282Z"/></g><g class="bg"><path class="av" d="M22.872,37.7l.009.283a.156.156,0,0,0,.144-.01l-.009-.283a.153.153,0,0,1-.144.01"/></g><g class="c"><path class="ba" d="M22.556,37.466a.044.044,0,0,0,.005.083l.311.153a.156.156,0,0,0,.144-.009l2.061-1.283c.039-.026.037-.063,0-.084l-.311-.153a.161.161,0,0,0-.145.01Z"/></g><g class="bh"><path class="av" d="M24.38,36.013l.009.283a.047.047,0,0,0,.027-.043l-.009-.283a.05.05,0,0,1-.027.043"/></g><g class="bi"><path class="av" d="M21.831,37.113l.009.283a.05.05,0,0,0,.033.039l-.009-.283a.05.05,0,0,1-.033-.039"/></g><g class="c"><path class="ax" d="M21.864,37.152l.009.283.311.154-.009-.284Z"/><path class="ay" d="M22.319,37.3l.009.283L24.389,36.3l-.009-.283Z"/></g><g class="bj"><path class="av" d="M22.175,37.306l.009.283a.153.153,0,0,0,.144-.01L22.32,37.3a.158.158,0,0,1-.145.01"/></g><g class="c"><path class="ba" d="M21.859,37.069a.044.044,0,0,0,.005.083l.311.154a.156.156,0,0,0,.144-.01l2.061-1.283a.044.044,0,0,0,0-.083l-.311-.153a.156.156,0,0,0-.144.01Z"/></g><g class="bk"><path class="av" d="M27.851,37.96l.008.284a.051.051,0,0,0,.027-.045l-.009-.282a.051.051,0,0,1-.026.043"/></g><g class="bl"><path class="av" d="M25.3,39.06l.009.283a.052.052,0,0,0,.033.039l-.01-.283a.05.05,0,0,1-.032-.039"/></g><g class="c"><path class="ax" d="M25.334,39.1l.01.283.31.154-.009-.283Z"/><path class="ay" d="M25.789,39.243l.009.283,2.061-1.283-.008-.283Z"/></g><g class="bm"><path class="av" d="M25.645,39.253l.009.283a.159.159,0,0,0,.144-.01l-.009-.283a.159.159,0,0,1-.144.01"/></g><g class="c"><path class="ba" d="M25.329,39.016a.044.044,0,0,0,0,.083l.311.154a.162.162,0,0,0,.144-.01L27.85,37.96c.039-.026.037-.063-.005-.083l-.311-.153a.156.156,0,0,0-.144.009Z"/></g><g class="bn"><path class="av" d="M27.153,37.563l.009.284a.055.055,0,0,0,.028-.045l-.01-.282a.047.047,0,0,1-.027.043"/></g><g class="bo"><path class="av" d="M24.6,38.663l.009.283a.052.052,0,0,0,.033.039l-.009-.282a.052.052,0,0,1-.033-.04"/></g><g class="c"><path class="ax" d="M24.637,38.7l.009.282.311.154-.009-.283Z"/><path class="ay" d="M25.092,38.846l.009.283,2.061-1.283-.009-.283Z"/></g><g class="bp"><path class="av" d="M24.948,38.856l.009.283a.156.156,0,0,0,.144-.01l-.009-.283a.16.16,0,0,1-.144.01"/></g><g class="c"><path class="ba" d="M24.631,38.619a.044.044,0,0,0,0,.083l.311.154a.162.162,0,0,0,.144-.01l2.061-1.283c.039-.026.037-.062-.005-.083l-.311-.153a.154.154,0,0,0-.144.01Z"/></g><g class="bq"><path class="av" d="M26.421,37.167l.009.284a.049.049,0,0,0,.027-.045l-.009-.282a.049.049,0,0,1-.027.043"/></g><g class="br"><path class="av" d="M23.872,38.267l.009.283a.052.052,0,0,0,.033.04l-.009-.284a.048.048,0,0,1-.033-.039"/></g><g class="c"><path class="ax" d="M23.9,38.306l.009.284.311.153-.009-.283Z"/><path class="ay" d="M24.359,38.45l.009.283L26.43,37.45l-.009-.283Z"/></g><g class="bs"><path class="av" d="M24.215,38.46l.01.283a.154.154,0,0,0,.143-.01l-.009-.283a.159.159,0,0,1-.144.01"/></g><g class="c"><path class="ba" d="M23.9,38.223c-.038.026-.036.063,0,.083l.311.154a.162.162,0,0,0,.144-.009l2.061-1.283c.039-.026.037-.063,0-.084l-.311-.153a.156.156,0,0,0-.144.009Z"/></g><g class="bt"><path class="av" d="M22.689,34.935l.009.283a.053.053,0,0,0,.028-.044l-.01-.284a.052.052,0,0,1-.027.045"/></g><g class="bu"><path class="av" d="M20.141,36.034l.01.283c0,.015.011.029.032.039l-.009-.283a.05.05,0,0,1-.033-.039"/></g><g class="c"><path class="ax" d="M20.173,36.073l.009.283.311.154-.009-.283Z"/><path class="ay" d="M20.628,36.217l.01.283L22.7,35.217l-.009-.283Z"/></g><g class="bv"><path class="av" d="M20.484,36.226l.009.284a.156.156,0,0,0,.144-.01l-.009-.282a.156.156,0,0,1-.144.008"/></g><g class="c"><path class="ba" d="M20.168,35.99a.044.044,0,0,0,.005.083l.311.153a.159.159,0,0,0,.144-.009l2.061-1.283c.039-.026.037-.063,0-.084l-.311-.153a.16.16,0,0,0-.144.01Z"/></g><g class="bw"><path class="av" d="M21.992,34.537,22,34.82a.05.05,0,0,0,.028-.044l-.01-.282a.048.048,0,0,1-.027.043"/></g><g class="bx"><path class="av" d="M19.443,35.637l.01.283a.048.048,0,0,0,.032.039l-.009-.283a.05.05,0,0,1-.033-.039"/></g><g class="c"><path class="ax" d="M19.476,35.676l.009.283.311.154-.009-.283Z"/><path class="ay" d="M19.931,35.82l.009.283L22,34.82l-.009-.283Z"/></g><g class="by"><path class="av" d="M19.787,35.83l.009.283a.156.156,0,0,0,.144-.009l-.009-.283a.159.159,0,0,1-.144.009"/></g><g class="c"><path class="ba" d="M19.47,35.593a.044.044,0,0,0,.005.083l.311.153a.159.159,0,0,0,.144-.009l2.061-1.283c.039-.026.037-.063,0-.083l-.312-.153a.156.156,0,0,0-.144.009Z"/></g><g class="bz"><path class="av" d="M17.853,32.162l.008.283a.053.053,0,0,0,.028-.044l-.01-.283c0,.015-.007.03-.026.044"/></g><g class="ca"><path class="av" d="M15.3,33.261l.009.283a.05.05,0,0,0,.033.039l-.01-.283a.049.049,0,0,1-.032-.039"/></g><g class="c"><path class="ax" d="M15.336,33.3l.009.284.311.153-.009-.283Z"/><path class="ay" d="M15.791,33.445l.009.283,2.061-1.283-.008-.283Z"/></g><g class="cb"><path class="av" d="M15.647,33.454l.009.283a.156.156,0,0,0,.144-.01l-.009-.282a.162.162,0,0,1-.144.009"/></g><g class="c"><path class="ba" d="M15.331,33.217a.044.044,0,0,0,.005.083l.311.154a.162.162,0,0,0,.144-.009l2.061-1.283c.039-.027.036-.064,0-.084l-.311-.153a.156.156,0,0,0-.144.009Z"/></g><g class="cc"><path class="av" d="M17.155,31.765l.009.283A.051.051,0,0,0,17.192,32l-.01-.283a.05.05,0,0,1-.027.044"/></g><g class="cd"><path class="av" d="M14.606,32.864l.01.283a.051.051,0,0,0,.032.04l-.009-.284a.048.048,0,0,1-.033-.039"/></g><g class="c"><path class="ax" d="M14.639,32.9l.009.284.311.153-.009-.283Z"/><path class="ay" d="M15.094,33.048l.009.283,2.061-1.283-.009-.283Z"/></g><g class="ce"><path class="av" d="M14.95,33.057l.009.283a.156.156,0,0,0,.144-.01l-.009-.282a.159.159,0,0,1-.144.009"/></g><g class="c"><path class="ba" d="M14.633,32.82c-.038.026-.036.063,0,.083l.311.154a.162.162,0,0,0,.144-.009l2.061-1.283c.039-.026.037-.064,0-.084l-.311-.153a.156.156,0,0,0-.144.009Z"/></g><g class="cf"><path class="av" d="M20.625,33.712l.009.283a.05.05,0,0,0,.027-.044l-.009-.283a.052.052,0,0,1-.027.044"/></g><g class="cg"><path class="av" d="M18.076,34.811l.009.283a.052.052,0,0,0,.033.039l-.009-.283a.048.048,0,0,1-.033-.039"/></g><g class="c"><path class="ax" d="M18.109,34.85l.009.283.311.154L18.42,35Z"/><path class="ay" d="M18.563,34.994l.01.283,2.06-1.283-.008-.282Z"/></g><g class="ch"><path class="av" d="M18.419,35l.009.283a.158.158,0,0,0,.145-.01l-.01-.283a.153.153,0,0,1-.144.01"/></g><g class="c"><path class="ba" d="M18.1,34.768c-.038.025-.037.062,0,.083L18.42,35a.154.154,0,0,0,.143-.009l2.062-1.283a.045.045,0,0,0-.006-.084l-.31-.153a.161.161,0,0,0-.145.01Z"/></g><g class="ci"><path class="av" d="M19.927,33.315l.009.283a.05.05,0,0,0,.028-.044l-.01-.283a.05.05,0,0,1-.027.044"/></g><g class="cj"><path class="av" d="M17.378,34.414l.01.283a.048.048,0,0,0,.032.039l-.009-.282a.052.052,0,0,1-.033-.04"/></g><g class="c"><path class="ax" d="M17.411,34.454l.009.283.311.153-.009-.282Z"/><path class="ay" d="M17.866,34.6l.009.284L19.936,33.6l-.009-.282Z"/></g><g class="ck"><path class="av" d="M17.722,34.607l.009.282a.153.153,0,0,0,.144-.009l-.009-.283a.156.156,0,0,1-.144.01"/></g><g class="c"><path class="ba" d="M17.406,34.37c-.038.026-.036.063,0,.083l.311.154a.156.156,0,0,0,.144-.01l2.061-1.282c.039-.026.037-.063,0-.084l-.31-.153a.158.158,0,0,0-.145.01Z"/></g><g class="cl"><path class="av" d="M19.195,32.918l.009.283a.052.052,0,0,0,.028-.044l-.01-.283a.051.051,0,0,1-.027.044"/></g><g class="cm"><path class="av" d="M16.646,34.018l.009.283a.052.052,0,0,0,.033.039l-.009-.282a.052.052,0,0,1-.033-.04"/></g><g class="c"><path class="ax" d="M16.679,34.058l.009.283.311.153-.009-.283Z"/><path class="ay" d="M17.134,34.2l.009.283L19.2,33.2l-.009-.283Z"/></g><g class="cn"><path class="av" d="M16.99,34.211l.01.283a.154.154,0,0,0,.143-.01l-.008-.283a.158.158,0,0,1-.145.01"/></g><g class="c"><path class="ba" d="M16.674,33.974a.044.044,0,0,0,.005.083l.311.154a.162.162,0,0,0,.144-.01l2.061-1.283c.039-.026.037-.062,0-.083l-.311-.153a.159.159,0,0,0-.144.009Z"/></g><g class="co"><path class="av" d="M15.464,30.806l.009.283a.051.051,0,0,0,.027-.045l-.009-.283a.052.052,0,0,1-.027.045"/></g><g class="cp"><path class="av" d="M12.915,31.905l.009.283a.05.05,0,0,0,.033.039l-.009-.283a.05.05,0,0,1-.033-.039"/></g><g class="c"><path class="ax" d="M12.948,31.944l.009.283.311.154-.009-.283Z"/><path class="ay" d="M13.4,32.088l.009.282,2.061-1.282-.009-.283Z"/></g><g class="cq"><path class="av" d="M13.258,32.1l.009.283a.159.159,0,0,0,.144-.01l-.008-.282a.161.161,0,0,1-.145.009"/></g><g class="c"><path class="ba" d="M12.942,31.861a.044.044,0,0,0,0,.083l.311.153a.159.159,0,0,0,.144-.009l2.061-1.283a.044.044,0,0,0-.005-.084l-.311-.153a.16.16,0,0,0-.144.01Z"/></g><g class="cr"><path class="av" d="M14.766,30.409l.009.283a.052.052,0,0,0,.028-.044l-.01-.283a.051.051,0,0,1-.027.044"/></g><g class="cs"><path class="av" d="M12.217,31.508l.01.283a.048.048,0,0,0,.032.039l-.009-.283a.05.05,0,0,1-.033-.039"/></g><g class="c"><path class="ax" d="M12.25,31.547l.009.283.311.154-.009-.283Z"/><path class="ay" d="M12.7,31.691l.009.283,2.061-1.283-.009-.282Z"/></g><g class="ct"><path class="av" d="M12.561,31.7l.009.283a.156.156,0,0,0,.144-.01l-.009-.283a.156.156,0,0,1-.144.01"/></g><g class="c"><path class="ba" d="M12.245,31.464a.044.044,0,0,0,.005.083l.311.154a.162.162,0,0,0,.144-.01l2.061-1.282c.039-.026.037-.063-.005-.084l-.31-.153a.158.158,0,0,0-.145.009Z"/></g><g class="cu"><path class="av" d="M10.627,28.033l.009.283a.052.052,0,0,0,.027-.044l-.009-.283a.052.052,0,0,1-.027.044"/></g><g class="cv"><path class="av" d="M8.078,29.132l.009.284c0,.015.012.028.033.038l-.01-.282a.051.051,0,0,1-.032-.04"/></g><g class="c"><path class="ax" d="M8.11,29.171l.01.283.31.154-.009-.284Z"/><path class="ay" d="M8.565,29.316l.009.283,2.061-1.283-.008-.283Z"/></g><g class="cw"><path class="av" d="M8.421,29.325l.009.283a.159.159,0,0,0,.144-.009l-.009-.283a.156.156,0,0,1-.144.009"/></g><g class="c"><path class="ba" d="M8.1,29.088a.044.044,0,0,0,.005.083l.311.153a.159.159,0,0,0,.144-.008l2.062-1.284a.045.045,0,0,0-.005-.084l-.311-.153a.161.161,0,0,0-.145.01Z"/></g><g class="cx"><path class="av" d="M9.929,27.636l.009.282a.051.051,0,0,0,.028-.043l-.01-.283a.053.053,0,0,1-.027.044"/></g><g class="cy"><path class="av" d="M7.38,28.735l.009.283a.055.055,0,0,0,.033.04l-.009-.284a.048.048,0,0,1-.033-.039"/></g><g class="c"><path class="ax" d="M7.413,28.774l.009.284.311.153-.009-.284Z"/><path class="ay" d="M7.868,28.919l.009.283,2.061-1.283-.009-.283Z"/></g><g class="cz"><path class="av" d="M7.724,28.928l.009.284a.159.159,0,0,0,.144-.01l-.009-.283a.156.156,0,0,1-.144.009"/></g><g class="c"><path class="ba" d="M7.408,28.691a.044.044,0,0,0,.005.083l.311.153a.159.159,0,0,0,.144-.008l2.061-1.283c.039-.026.037-.064-.005-.084L9.613,27.4a.156.156,0,0,0-.144.009Z"/></g><g class="da"><path class="av" d="M13.4,29.583l.009.283a.052.052,0,0,0,.027-.045l-.009-.282a.052.052,0,0,1-.027.044"/></g><g class="db"><path class="av" d="M10.851,30.682l.008.283a.055.055,0,0,0,.033.04l-.01-.284a.047.047,0,0,1-.031-.039"/></g><g class="c"><path class="ax" d="M10.883,30.721l.01.284.31.153-.009-.283Z"/><path class="ay" d="M11.338,30.865l.009.283,2.061-1.283-.009-.282Z"/></g><g class="dc"><path class="av" d="M11.194,30.875l.009.283a.156.156,0,0,0,.144-.01l-.008-.283a.158.158,0,0,1-.145.01"/></g><g class="c"><path class="ba" d="M10.878,30.638a.044.044,0,0,0,.005.083l.311.154a.156.156,0,0,0,.144-.01L13.4,29.583c.039-.026.037-.064-.005-.084l-.311-.153a.156.156,0,0,0-.144.009Z"/></g><g class="dd"><path class="av" d="M12.7,29.186l.009.283a.053.053,0,0,0,.028-.044l-.01-.283a.05.05,0,0,1-.027.044"/></g><g class="de"><path class="av" d="M10.153,30.285l.01.283a.048.048,0,0,0,.032.039l-.009-.282a.052.052,0,0,1-.033-.04"/></g><g class="c"><path class="ax" d="M10.186,30.325l.009.283.311.153-.009-.283Z"/><path class="ay" d="M10.641,30.468l.009.283,2.061-1.283-.009-.282Z"/></g><g class="df"><path class="av" d="M10.5,30.478l.008.283a.156.156,0,0,0,.144-.01l-.009-.283a.155.155,0,0,1-.143.01"/></g><g class="c"><path class="ba" d="M10.18,30.241c-.038.026-.036.063.005.083l.311.154a.159.159,0,0,0,.144-.01L12.7,29.186c.039-.027.037-.063-.005-.084l-.311-.153a.157.157,0,0,0-.144.01Z"/></g><g class="dg"><path class="av" d="M11.97,28.79l.009.283a.05.05,0,0,0,.027-.044L12,28.746a.053.053,0,0,1-.027.044"/></g><g class="dh"><path class="av" d="M9.421,29.889l.009.283a.052.052,0,0,0,.033.039l-.009-.282a.052.052,0,0,1-.033-.04"/></g><g class="c"><path class="ax" d="M9.454,29.929l.009.283.311.153-.009-.283Z"/><path class="ay" d="M9.909,30.072l.009.283,2.061-1.283-.009-.282Z"/></g><g class="di"><path class="av" d="M9.764,30.082l.01.283a.154.154,0,0,0,.143-.01l-.008-.283a.161.161,0,0,1-.145.01"/></g><g class="c"><path class="ba" d="M9.448,29.845a.045.045,0,0,0,.005.084l.311.153a.162.162,0,0,0,.144-.009l2.061-1.283c.039-.026.037-.063-.005-.084l-.311-.153a.153.153,0,0,0-.144.01Z"/></g><g class="dj"><path class="av" d="M8.394,26.69l.009.283a.052.052,0,0,0,.028-.044l-.01-.283a.049.049,0,0,1-.027.044"/></g><g class="dk"><path class="av" d="M5.845,27.79l.01.283a.048.048,0,0,0,.032.039l-.009-.283a.05.05,0,0,1-.033-.039"/></g><g class="c"><path class="ax" d="M5.878,27.828l.009.284.311.153-.009-.283Z"/><path class="ay" d="M6.333,27.973l.009.283L8.4,26.973l-.009-.283Z"/></g><g class="dl"><path class="av" d="M6.189,27.982l.009.283a.159.159,0,0,0,.144-.01l-.009-.283a.156.156,0,0,1-.144.01"/></g><g class="c"><path class="ba" d="M5.872,27.745a.044.044,0,0,0,0,.083l.311.154a.159.159,0,0,0,.144-.009L8.393,26.69c.039-.026.038-.063-.005-.084l-.311-.153a.157.157,0,0,0-.144.01Z"/></g><g class="dm"><path class="av" d="M7.7,26.293l.009.283a.05.05,0,0,0,.028-.044l-.01-.283a.048.048,0,0,1-.027.044"/></g><g class="dn"><path class="av" d="M5.148,27.393l.009.283a.05.05,0,0,0,.033.039l-.01-.282a.053.053,0,0,1-.032-.04"/></g><g class="c"><path class="ax" d="M5.18,27.432l.009.283.311.153-.009-.283Z"/><path class="ay" d="M5.635,27.576l.009.283,2.061-1.283L7.7,26.293Z"/></g><g class="do"><path class="av" d="M5.491,27.585l.009.283a.156.156,0,0,0,.144-.01l-.009-.283a.156.156,0,0,1-.144.01"/></g><g class="c"><path class="ba" d="M5.175,27.349c-.038.026-.036.062,0,.083l.311.154a.162.162,0,0,0,.144-.01L7.7,26.293c.039-.026.037-.063,0-.083l-.311-.153a.158.158,0,0,0-.145.009Z"/></g><g class="dp"><path class="av" d="M6.964,25.9l.009.284A.052.052,0,0,0,7,26.136l-.01-.282a.046.046,0,0,1-.027.042"/></g><g class="dq"><path class="av" d="M4.416,27l.009.283a.05.05,0,0,0,.033.039l-.01-.283A.05.05,0,0,1,4.416,27"/></g><g class="c"><path class="ax" d="M4.448,27.036l.009.283.311.154-.009-.283Z"/><path class="ay" d="M4.9,27.179l.009.283,2.061-1.283L6.964,25.9Z"/></g><g class="dr"><path class="av" d="M4.759,27.189l.009.283a.156.156,0,0,0,.144-.01L4.9,27.179a.156.156,0,0,1-.144.01"/></g><g class="c"><path class="ba" d="M4.443,26.952a.044.044,0,0,0,.005.083l.311.154a.156.156,0,0,0,.144-.01L6.964,25.9a.044.044,0,0,0-.005-.083l-.311-.153a.154.154,0,0,0-.144.01Z"/></g></g></svg>