<svg xmlns="http://www.w3.org/2000/svg" width="16.721" height="88.75" viewBox="0 0 16.721 88.75"><defs><style>.a{fill:#1c283d;}.b{fill:#fffaa2;}.b,.c,.d{stroke-linecap:round;stroke-linejoin:round;}.c,.d{fill:none;stroke-dasharray:0.1 2.7;}.c{stroke:#2b15ff;stroke-width:2px;}.d{stroke:#17ffe8;}.e,.f{stroke:none;}.f{fill:#f20063;}</style></defs><g transform="translate(394.444 -346.159)"><rect class="a" width="16.721" height="88.75" rx="3.34" transform="translate(-394.444 346.159)"/><g transform="translate(-388.956 350.817)"><g class="b" transform="translate(386.869 -352.472)"><path class="e" d="M -380.6430358886719 359.2745666503906 L -380.9756469726562 359.2745666503906 L -383.2835388183594 359.2745666503906 L -383.4845581054688 359.2745666503906 L -383.5277099609375 359.0782470703125 L -383.8564147949219 357.582763671875 L -383.9631958007812 357.582763671875 L -383.9631958007812 359.0245666503906 L -383.9631958007812 359.2745666503906 L -384.2131958007812 359.2745666503906 L -386.4819946289062 359.2745666503906 L -386.7319946289062 359.2745666503906 L -386.7319946289062 359.0245666503906 L -386.7319946289062 352.4719848632812 L -386.7319946289062 352.2219848632812 L -386.4819946289062 352.2219848632812 L -383.7239990234375 352.2219848632812 C -382.6462707519531 352.2219848632812 -381.8861694335938 352.4035034179688 -381.4002685546875 352.7769470214844 C -380.9007263183594 353.1609191894531 -380.6474304199219 353.8561706542969 -380.6474304199219 354.8433532714844 C -380.6474304199219 355.747802734375 -380.8793640136719 356.4305419921875 -381.3373107910156 356.8759765625 L -380.7355041503906 358.9550476074219 L -380.6430358886719 359.2745666503906 Z M -383.9728088378906 355.2927856445312 L -383.6650085449219 355.2927856445312 C -383.5738830566406 355.2927856445312 -383.4361572265625 355.2927856445312 -383.4361572265625 354.9023742675781 C -383.4361572265625 354.5119323730469 -383.6025390625 354.5119323730469 -383.7239990234375 354.5119323730469 L -383.9728088378906 354.5119323730469 L -383.9728088378906 355.2927856445312 Z"/><path class="f" d="M -380.9756469726562 359.0245666503906 L -381.6212463378906 356.7941284179688 C -381.1387023925781 356.403076171875 -380.8974304199219 355.7530822753906 -380.8974304199219 354.8433532714844 C -380.8974304199219 353.9336242675781 -381.1158447265625 353.3108825683594 -381.5526123046875 352.9751586914062 C -381.9894104003906 352.6394653320312 -382.7131958007812 352.4719848632812 -383.7239990234375 352.4719848632812 L -386.4819946289062 352.4719848632812 L -386.4819946289062 359.0245666503906 L -384.2131958007812 359.0245666503906 L -384.2131958007812 357.332763671875 L -383.6553955078125 357.332763671875 L -383.2835388183594 359.0245666503906 L -380.9756469726562 359.0245666503906 M -384.2228088378906 354.2619323730469 L -383.7239990234375 354.2619323730469 C -383.3654479980469 354.2619323730469 -383.1861572265625 354.4751892089844 -383.1861572265625 354.9023742675781 C -383.1861572265625 355.3288269042969 -383.3462524414062 355.5427856445312 -383.6650085449219 355.5427856445312 L -384.2228088378906 355.5427856445312 L -384.2228088378906 354.2619323730469 M -380.9756469726562 359.5245666503906 L -383.2835388183594 359.5245666503906 C -383.4910583496094 359.5245666503906 -383.6738586425781 359.39697265625 -383.7483215332031 359.2090148925781 C -383.8217163085938 359.3938598632812 -384.002197265625 359.5245666503906 -384.2131958007812 359.5245666503906 L -386.4819946289062 359.5245666503906 C -386.7581481933594 359.5245666503906 -386.9819946289062 359.3007202148438 -386.9819946289062 359.0245666503906 L -386.9819946289062 352.4719848632812 C -386.9819946289062 352.1958312988281 -386.7581481933594 351.9719848632812 -386.4819946289062 351.9719848632812 L -383.7239990234375 351.9719848632812 C -382.5890808105469 351.9719848632812 -381.7791442871094 352.1704406738281 -381.2479248046875 352.5787353515625 C -380.6835632324219 353.0125122070312 -380.3974304199219 353.7744445800781 -380.3974304199219 354.8433532714844 C -380.3974304199219 355.7486267089844 -380.6190490722656 356.4535827636719 -381.0570983886719 356.9447937011719 L -380.495361328125 358.8855590820312 C -380.45166015625 359.0365600585938 -380.4815063476562 359.1993103027344 -380.5759582519531 359.3249816894531 C -380.67041015625 359.4506530761719 -380.8184509277344 359.5245666503906 -380.9756469726562 359.5245666503906 Z"/></g><g class="b" transform="translate(387.006 -355.555)"><path class="e" d="M -380.3363647460938 371.0346069335938 L -380.6489562988281 371.0346069335938 L -382.9369201660156 371.0346069335938 L -383.1327209472656 371.0346069335938 L -383.1796569824219 370.8445129394531 L -383.3186645507812 370.28125 L -384.4157104492188 370.28125 L -384.5307922363281 370.83544921875 L -384.5721435546875 371.0346069335938 L -384.7755737304688 371.0346069335938 L -387.0060119628906 371.0346069335938 L -387.3172607421875 371.0346069335938 L -387.2501220703125 370.7306823730469 L -385.8025207519531 364.1780700683594 L -385.7592163085938 363.9819946289062 L -385.5584106445312 363.9819946289062 L -382.1253051757812 363.9819946289062 L -381.9253540039062 363.9819946289062 L -381.8814086914062 364.1770324707031 L -380.4050598144531 370.7296752929688 L -380.3363647460938 371.0346069335938 Z M -384.0317077636719 368.0503540039062 L -383.6488647460938 368.0503540039062 L -383.835205078125 366.8385925292969 L -384.0317077636719 368.0503540039062 Z"/><path class="f" d="M -380.6489562988281 370.7846069335938 L -382.1253051757812 364.2319946289062 L -385.5584106445312 364.2319946289062 L -387.0060119628906 370.7846069335938 L -384.7755737304688 370.7846069335938 L -384.619140625 370.03125 L -383.1228637695312 370.03125 L -382.9369201660156 370.7846069335938 L -380.6489562988281 370.7846069335938 M -383.9543762207031 366.0116577148438 L -383.7094116210938 366.0116577148438 L -383.3574829101562 368.3003540039062 L -384.3255004882812 368.3003540039062 L -383.9543762207031 366.0116577148438 M -380.6489562988281 371.2846069335938 L -382.9369201660156 371.2846069335938 C -383.1669006347656 371.2846069335938 -383.3672485351562 371.1277160644531 -383.42236328125 370.9044189453125 L -383.5144653320312 370.53125 L -384.2123107910156 370.53125 L -384.2860107421875 370.8862609863281 C -384.3341979980469 371.1182861328125 -384.5386047363281 371.2846069335938 -384.7755737304688 371.2846069335938 L -387.0060119628906 371.2846069335938 C -387.1575622558594 371.2846069335938 -387.3009338378906 371.2158813476562 -387.3958435058594 371.0977172851562 C -387.4907531738281 370.9795532226562 -387.5269470214844 370.8247375488281 -387.4942321777344 370.6767578125 L -386.046630859375 364.1241455078125 C -385.9960327148438 363.8950805664062 -385.7929992675781 363.7319946289062 -385.5584106445312 363.7319946289062 L -382.1253051757812 363.7319946289062 C -381.8915100097656 363.7319946289062 -381.6889343261719 363.8940124511719 -381.6375427246094 364.1221008300781 L -380.1611938476562 370.6747131347656 C -380.1278076171875 370.8229064941406 -380.1636047363281 370.978271484375 -380.2584838867188 371.0968933105469 C -380.3533630371094 371.2155456542969 -380.4970397949219 371.2846069335938 -380.6489562988281 371.2846069335938 Z"/></g><g class="b" transform="translate(386.933 -358.638)"><path class="e" d="M -383.8612976074219 382.7945861816406 L -386.7269897460938 382.7945861816406 L -386.9769897460938 382.7945861816406 L -386.9769897460938 382.5445861816406 L -386.9769897460938 375.9920043945312 L -386.9769897460938 375.7420043945312 L -386.7269897460938 375.7420043945312 L -383.9594421386719 375.7420043945312 C -382.7674255371094 375.7420043945312 -381.8878173828125 376.0237731933594 -381.3450622558594 376.5794982910156 C -380.8047180175781 377.1351318359375 -380.5309143066406 378.0149230957031 -380.5309143066406 379.1948852539062 C -380.5309143066406 380.3688659667969 -380.7913818359375 381.2690124511719 -381.3050231933594 381.8703002929688 C -381.8282775878906 382.4835815429688 -382.6883544921875 382.7945861816406 -383.8612976074219 382.7945861816406 Z M -384.2082214355469 380.4463806152344 L -384.0568237304688 380.4463806152344 C -383.7919921875 380.4463806152344 -383.6001281738281 380.3872375488281 -383.4865112304688 380.2706604003906 C -383.4348449707031 380.2130432128906 -383.3189086914062 380.005615234375 -383.3189086914062 379.3070373535156 C -383.3189086914062 378.6034851074219 -383.4093322753906 378.3517761230469 -383.4631958007812 378.2643737792969 C -383.5327758789062 378.15234375 -383.7437438964844 378.0902709960938 -384.0568237304688 378.0902709960938 L -384.2082214355469 378.0902709960938 L -384.2082214355469 380.4463806152344 Z"/><path class="f" d="M -383.8612976074219 382.5445861816406 C -382.7597351074219 382.5445861816406 -381.9710083007812 382.2656860351562 -381.4951171875 381.7079162597656 C -381.0192260742188 381.1508483886719 -380.7809143066406 380.3134155273438 -380.7809143066406 379.1948852539062 C -380.7809143066406 378.0763549804688 -381.02880859375 377.2632751464844 -381.5238952636719 376.7541809082031 C -382.0196838378906 376.2465515136719 -382.831298828125 375.9920043945312 -383.9594421386719 375.9920043945312 L -386.7269897460938 375.9920043945312 L -386.7269897460938 382.5445861816406 L -383.8612976074219 382.5445861816406 M -384.4582214355469 377.8402709960938 L -384.0568237304688 377.8402709960938 C -383.6399536132812 377.8402709960938 -383.3713684082031 377.9383850097656 -383.2503967285156 378.1331787109375 C -383.12939453125 378.3294372558594 -383.0689086914062 378.7204895019531 -383.0689086914062 379.3070373535156 C -383.0689086914062 379.8943481445312 -383.1478271484375 380.2721252441406 -383.3042602539062 380.4418029785156 C -383.4673156738281 380.6115112304688 -383.7181701660156 380.6963806152344 -384.0568237304688 380.6963806152344 L -384.4582214355469 380.6963806152344 L -384.4582214355469 377.8402709960938 M -383.8612976074219 383.0445861816406 L -386.7269897460938 383.0445861816406 C -387.0031127929688 383.0445861816406 -387.2269897460938 382.8207397460938 -387.2269897460938 382.5445861816406 L -387.2269897460938 375.9920043945312 C -387.2269897460938 375.7158508300781 -387.0031127929688 375.4920043945312 -386.7269897460938 375.4920043945312 L -383.9594421386719 375.4920043945312 C -382.6975708007812 375.4920043945312 -381.7577819824219 375.7991333007812 -381.1661987304688 376.4048156738281 C -380.5785217285156 377.0091247558594 -380.2809143066406 377.9475708007812 -380.2809143066406 379.1948852539062 C -380.2809143066406 380.4300842285156 -380.5615234375 381.3848571777344 -381.1149597167969 382.0326843261719 C -381.6877746582031 382.7040710449219 -382.6118469238281 383.0445861816406 -383.8612976074219 383.0445861816406 Z M -383.9582214355469 378.3427429199219 L -383.9582214355469 380.19287109375 C -383.8258666992188 380.1829223632812 -383.7269287109375 380.1521606445312 -383.6733703613281 380.1036682128906 C -383.656494140625 380.0757446289062 -383.5689086914062 379.90185546875 -383.5689086914062 379.3070373535156 C -383.5689086914062 378.6483459472656 -383.6500549316406 378.4456787109375 -383.6717529296875 378.4032897949219 C -383.6878662109375 378.3929443359375 -383.7620544433594 378.3531188964844 -383.9582214355469 378.3427429199219 Z"/></g><g class="b" transform="translate(386.28 -361.722)"><path class="e" d="M -381.7162170410156 394.5545959472656 L -381.9662170410156 394.5545959472656 L -384.2349853515625 394.5545959472656 L -384.4849853515625 394.5545959472656 L -384.4849853515625 394.3045959472656 L -384.4849853515625 387.7520141601562 L -384.4849853515625 387.5020141601562 L -384.2349853515625 387.5020141601562 L -381.9662170410156 387.5020141601562 L -381.7162170410156 387.5020141601562 L -381.7162170410156 387.7520141601562 L -381.7162170410156 394.3045959472656 L -381.7162170410156 394.5545959472656 Z"/><path class="f" d="M -381.9662170410156 394.3045959472656 L -381.9662170410156 387.7520141601562 L -384.2349853515625 387.7520141601562 L -384.2349853515625 394.3045959472656 L -381.9662170410156 394.3045959472656 M -381.9662170410156 394.8045959472656 L -384.2349853515625 394.8045959472656 C -384.5111389160156 394.8045959472656 -384.7349853515625 394.5807495117188 -384.7349853515625 394.3045959472656 L -384.7349853515625 387.7520141601562 C -384.7349853515625 387.4758605957031 -384.5111389160156 387.2520141601562 -384.2349853515625 387.2520141601562 L -381.9662170410156 387.2520141601562 C -381.6900634765625 387.2520141601562 -381.4662170410156 387.4758605957031 -381.4662170410156 387.7520141601562 L -381.4662170410156 394.3045959472656 C -381.4662170410156 394.5807495117188 -381.6900634765625 394.8045959472656 -381.9662170410156 394.8045959472656 Z"/></g><g class="b" transform="translate(386.985 -364.76)"><path class="e" d="M -383.8013305664062 406.3971252441406 C -384.9550476074219 406.3971252441406 -385.8164978027344 406.096923828125 -386.3617553710938 405.5049133300781 C -386.9020080566406 404.9190673828125 -387.176025390625 403.9884948730469 -387.176025390625 402.7391357421875 C -387.176025390625 401.4897766113281 -386.9035034179688 400.5606994628906 -386.3660583496094 399.9777221679688 C -385.82470703125 399.3887634277344 -384.9634704589844 399.0899963378906 -383.8065185546875 399.0899963378906 C -382.6493530273438 399.0899963378906 -381.7876586914062 399.3887023925781 -381.2453308105469 399.9778442382812 C -380.7084350585938 400.5610656738281 -380.4362182617188 401.4916076660156 -380.4362182617188 402.7435607910156 C -380.4362182617188 403.9952087402344 -380.7084045410156 404.9259338378906 -381.2452087402344 405.5098876953125 C -381.7879638671875 406.0986938476562 -382.6478881835938 406.3971252441406 -383.8013305664062 406.3971252441406 Z M -383.796142578125 401.4286499023438 C -384.1112365722656 401.4286499023438 -384.2024536132812 401.5446166992188 -384.2467346191406 401.6456604003906 C -384.3109741210938 401.7913513183594 -384.3872680664062 402.0994873046875 -384.3872680664062 402.7435607910156 C -384.3872680664062 403.3868408203125 -384.3109130859375 403.6954956054688 -384.2468566894531 403.8411254882812 C -384.2023620605469 403.9429931640625 -384.1117858886719 404.0592346191406 -383.8013305664062 404.0592346191406 C -383.4920349121094 404.0592346191406 -383.4035339355469 403.9459533691406 -383.3609924316406 403.8472595214844 C -383.2987365722656 403.704345703125 -383.2249755859375 403.39697265625 -383.2249755859375 402.7391357421875 C -383.2249755859375 402.0812683105469 -383.2964172363281 401.7747192382812 -383.3563842773438 401.6333923339844 C -383.380126953125 401.577392578125 -383.4432067871094 401.4286499023438 -383.796142578125 401.4286499023438 Z"/><path class="f" d="M -383.8065185546875 399.3399963378906 C -384.894775390625 399.3399963378906 -385.6871948242188 399.6085815429688 -386.1822509765625 400.1471557617188 C -386.6781005859375 400.6850280761719 -386.926025390625 401.5490417480469 -386.926025390625 402.7391357421875 C -386.926025390625 403.9292297363281 -386.6766357421875 404.7947082519531 -386.1778564453125 405.3355407714844 C -385.6790771484375 405.8771057128906 -384.8866577148438 406.1471252441406 -383.8013305664062 406.1471252441406 C -382.7160034179688 406.1471252441406 -381.925048828125 405.8785705566406 -381.4292602539062 405.3406982421875 C -380.9341430664062 404.8020935058594 -380.6862182617188 403.9373779296875 -380.6862182617188 402.7435607910156 C -380.6862182617188 401.5505065917969 -380.9341430664062 400.6850280761719 -381.4292602539062 400.1471557617188 C -381.925048828125 399.6085815429688 -382.7174682617188 399.3399963378906 -383.8065185546875 399.3399963378906 M -383.8013305664062 404.3092346191406 C -384.1436767578125 404.3092346191406 -384.3687133789062 404.1867370605469 -384.4757080078125 403.9417724609375 C -384.5834350585938 403.6968383789062 -384.6372680664062 403.2976684570312 -384.6372680664062 402.7435607910156 C -384.6372680664062 402.189453125 -384.5834350585938 401.78955078125 -384.4757080078125 401.5453491210938 C -384.3687133789062 401.3011169433594 -384.1422119140625 401.1786499023438 -383.796142578125 401.1786499023438 C -383.4508666992188 401.1786499023438 -383.227294921875 401.2974548339844 -383.126220703125 401.5357666015625 C -383.025146484375 401.7740783691406 -382.9749755859375 402.1747131347656 -382.9749755859375 402.7391357421875 C -382.9749755859375 403.3028259277344 -383.026611328125 403.7056884765625 -383.1314086914062 403.9462280273438 C -383.2354125976562 404.1874694824219 -383.458984375 404.3092346191406 -383.8013305664062 404.3092346191406 M -383.8065185546875 398.8399963378906 C -382.5765991210938 398.8399963378906 -381.6530151367188 399.1658630371094 -381.0614013671875 399.8085021972656 C -380.4806823730469 400.4393920898438 -380.1862182617188 401.4268798828125 -380.1862182617188 402.7435607910156 C -380.1862182617188 404.0783996582031 -380.472412109375 405.0386352539062 -381.0611572265625 405.6790771484375 C -381.6534118652344 406.3215942382812 -382.5751953125 406.6471252441406 -383.8013305664062 406.6471252441406 C -385.0277709960938 406.6471252441406 -385.9511108398438 406.3197937011719 -386.5456237792969 405.6742553710938 C -387.1297302246094 405.0409240722656 -387.426025390625 404.0533142089844 -387.426025390625 402.7391357421875 C -387.426025390625 401.4249877929688 -387.1312561035156 400.4389038085938 -386.5498657226562 399.8082580566406 C -385.95947265625 399.1659545898438 -385.0363159179688 398.8399963378906 -383.8065185546875 398.8399963378906 Z M -383.8013305664062 403.8092346191406 C -383.6789245605469 403.8092346191406 -383.6080017089844 403.7887268066406 -383.590576171875 403.748291015625 C -383.5469055175781 403.6481018066406 -383.4749755859375 403.3863525390625 -383.4749755859375 402.7391357421875 C -383.4749755859375 402.0908203125 -383.5448608398438 401.8292541503906 -383.5865173339844 401.7310180664062 C -383.6071166992188 401.6824340820312 -383.7521667480469 401.6786499023438 -383.796142578125 401.6786499023438 C -383.9882202148438 401.6786499023438 -384.0096740722656 401.7275695800781 -384.0177307128906 401.7460021972656 C -384.0626831054688 401.8479309082031 -384.1372680664062 402.1113891601562 -384.1372680664062 402.7435607910156 C -384.1372680664062 403.3750305175781 -384.0625610351562 403.6392211914062 -384.0180358886719 403.740478515625 C -384.0086669921875 403.7618713378906 -383.9880065917969 403.8092346191406 -383.8013305664062 403.8092346191406 Z"/></g><g class="b" transform="translate(386.752 -369.132)"><path class="e" d="M -383.2608032226562 423.0751342773438 C -384.0323181152344 423.0751342773438 -384.6173706054688 422.9651489257812 -385.0494384765625 422.7389526367188 C -385.4963073730469 422.5045471191406 -385.8209228515625 422.111083984375 -386.0144653320312 421.5693664550781 C -386.1984558105469 421.0572204589844 -386.2879638671875 420.3482360839844 -386.2879638671875 419.4023742675781 C -386.2879638671875 418.0305786132812 -386.0721740722656 417.1063232421875 -385.6282348632812 416.5767517089844 C -385.1737060546875 416.0326538085938 -384.36083984375 415.7680053710938 -383.1434936523438 415.7680053710938 C -382.6610412597656 415.7680053710938 -382.0846862792969 415.8357543945312 -381.4304504394531 415.9692993164062 L -381.0889587402344 416.0377807617188 L -380.8811340332031 416.0794372558594 L -380.8882751464844 416.2913208007812 L -380.9472961425781 418.0414123535156 L -380.9564819335938 418.3140258789062 L -381.2272644042969 418.2811584472656 C -381.7497863769531 418.2177734375 -382.2381286621094 418.1856079101562 -382.6787109375 418.1856079101562 C -383.1801452636719 418.1856079101562 -383.3190002441406 418.297119140625 -383.3554382324219 418.3450622558594 C -383.3981628417969 418.4021606445312 -383.5 418.6090698242188 -383.5 419.2658996582031 C -383.5 419.9062805175781 -383.455078125 420.192138671875 -383.4173583984375 420.3192138671875 C -383.376220703125 420.4574584960938 -383.3186950683594 420.5459594726562 -383.2464599609375 420.5820617675781 C -383.1897583007812 420.6102600097656 -383.042724609375 420.6578369140625 -382.6982421875 420.6582641601562 L -381.1772155761719 420.6001586914062 L -380.9220886230469 420.5904235839844 L -380.9176940917969 420.845703125 L -380.8881530761719 422.5670166015625 L -380.8847351074219 422.7665405273438 L -381.0785217285156 422.8141174316406 C -381.7840881347656 422.9873046875 -382.518310546875 423.0751342773438 -383.2608032226562 423.0751342773438 Z"/><path class="f" d="M -383.2608032226562 422.8251342773438 C -382.5370483398438 422.8251342773438 -381.8294677734375 422.7410278320312 -381.1381225585938 422.5713195800781 L -381.1676635742188 420.8499755859375 L -382.6934814453125 420.9082641601562 C -383.0003662109375 420.9082641601562 -383.2217407226562 420.8735961914062 -383.3582153320312 420.8056945800781 C -383.4954833984375 420.7370910644531 -383.5950927734375 420.598388671875 -383.6570434570312 420.3903198242188 C -383.718994140625 420.1815185546875 -383.75 419.8067321777344 -383.75 419.2658996582031 C -383.75 418.7243347167969 -383.684326171875 418.3672180175781 -383.5545043945312 418.19384765625 C -383.4238891601562 418.0219116210938 -383.1317138671875 417.9356079101562 -382.6787109375 417.9356079101562 C -382.2256469726562 417.9356079101562 -381.7320556640625 417.9680786132812 -381.1971435546875 418.0329895019531 L -381.1381225585938 416.2828979492188 L -381.48046875 416.2142639160156 C -382.1201782226562 416.0836486816406 -382.6742553710938 416.0180053710938 -383.1434936523438 416.0180053710938 C -384.2716674804688 416.0180053710938 -385.0360107421875 416.2577819824219 -385.4366455078125 416.7373657226562 C -385.8380737304688 417.2162170410156 -386.0379638671875 418.1045532226562 -386.0379638671875 419.4023742675781 C -386.0379638671875 420.3091735839844 -385.952392578125 421.0027160644531 -385.779052734375 421.4852600097656 C -385.6063842773438 421.9685363769531 -385.3245239257812 422.3123474121094 -384.9334716796875 422.5174560546875 C -384.5416870117188 422.7225952148438 -383.984619140625 422.8251342773438 -383.2608032226562 422.8251342773438 M -383.2608032226562 423.3251342773438 C -384.0736999511719 423.3251342773438 -384.6966857910156 423.2058410644531 -385.1654052734375 422.9604187011719 C -385.6697998046875 422.6958618164062 -386.0345764160156 422.2561950683594 -386.2499084472656 421.6535034179688 C -386.4436340332031 421.1141662597656 -386.5379638671875 420.3775634765625 -386.5379638671875 419.4023742675781 C -386.5379638671875 417.9693908691406 -386.3030395507812 416.9925842285156 -385.81982421875 416.4161376953125 C -385.3151550292969 415.81201171875 -384.4395141601562 415.5180053710938 -383.1434936523438 415.5180053710938 C -382.644287109375 415.5180053710938 -382.0510864257812 415.5874328613281 -381.3804626464844 415.724365234375 L -381.0398254394531 415.7926635742188 C -380.7999877929688 415.8407287597656 -380.6301574707031 416.0552978515625 -380.6383972167969 416.2997436523438 L -380.6974182128906 418.0498352050781 C -380.7021484375 418.18994140625 -380.7654724121094 418.3215942382812 -380.8719177246094 418.4127807617188 C -380.9630126953125 418.4907836914062 -381.0785217285156 418.5329895019531 -381.1971435546875 418.5329895019531 C -381.2171630859375 418.5329895019531 -381.2372741699219 418.5317993164062 -381.2573852539062 418.5293579101562 C -381.7699584960938 418.4671630859375 -382.2481689453125 418.4356079101562 -382.6787109375 418.4356079101562 C -383.0036010742188 418.4356079101562 -383.1275634765625 418.4872436523438 -383.1597595214844 418.5043640136719 C -383.1819152832031 418.55078125 -383.25 418.736572265625 -383.25 419.2658996582031 C -383.25 419.908447265625 -383.2047119140625 420.1570739746094 -383.1777038574219 420.2481079101562 C -383.1561889648438 420.3203125 -383.1354370117188 420.3515319824219 -383.127685546875 420.3614196777344 C -383.1001586914062 420.3721008300781 -382.9876403808594 420.4075012207031 -382.7028198242188 420.4082336425781 L -381.1867370605469 420.350341796875 C -381.1803588867188 420.35009765625 -381.1740112304688 420.3499755859375 -381.1676330566406 420.3499755859375 C -381.0400695800781 420.3499755859375 -380.9170532226562 420.3987731933594 -380.8240356445312 420.4867858886719 C -380.7263793945312 420.5791625976562 -380.6700439453125 420.7070007324219 -380.667724609375 420.8414001464844 L -380.63818359375 422.562744140625 C -380.6341857910156 422.796142578125 -380.792236328125 423.0012512207031 -381.0189208984375 423.056884765625 C -381.7439575195312 423.2348937988281 -382.4982299804688 423.3251342773438 -383.2608032226562 423.3251342773438 Z"/></g><g class="b" transform="translate(386.285 -372.245)"><path class="e" d="M -381.7362060546875 434.6925659179688 L -381.9862060546875 434.6925659179688 L -384.2550048828125 434.6925659179688 L -384.5050048828125 434.6925659179688 L -384.5050048828125 434.4425659179688 L -384.5050048828125 427.8900146484375 L -384.5050048828125 427.6400146484375 L -384.2550048828125 427.6400146484375 L -381.9862060546875 427.6400146484375 L -381.7362060546875 427.6400146484375 L -381.7362060546875 427.8900146484375 L -381.7362060546875 434.4425659179688 L -381.7362060546875 434.6925659179688 Z"/><path class="f" d="M -381.9862060546875 434.4425659179688 L -381.9862060546875 427.8900146484375 L -384.2550048828125 427.8900146484375 L -384.2550048828125 434.4425659179688 L -381.9862060546875 434.4425659179688 M -381.9862060546875 434.9425659179688 L -384.2550048828125 434.9425659179688 C -384.5311584472656 434.9425659179688 -384.7550048828125 434.7187194824219 -384.7550048828125 434.4425659179688 L -384.7550048828125 427.8900146484375 C -384.7550048828125 427.6138610839844 -384.5311584472656 427.3900146484375 -384.2550048828125 427.3900146484375 L -381.9862060546875 427.3900146484375 C -381.7100524902344 427.3900146484375 -381.4862060546875 427.6138610839844 -381.4862060546875 427.8900146484375 L -381.4862060546875 434.4425659179688 C -381.4862060546875 434.7187194824219 -381.7100524902344 434.9425659179688 -381.9862060546875 434.9425659179688 Z"/></g><g class="b" transform="translate(386.751 -375.192)"><path class="e" d="M -382.1629943847656 445.9345703125 L -382.4129943847656 445.9345703125 L -384.6817932128906 445.9345703125 L -384.9317932128906 445.9345703125 L -384.9317932128906 445.6845703125 L -384.9317932128906 441.230224609375 L -386.0320129394531 441.230224609375 L -386.2820129394531 441.230224609375 L -386.2820129394531 440.980224609375 L -386.2820129394531 439.1319885253906 L -386.2820129394531 438.8819885253906 L -386.0320129394531 438.8819885253906 L -381.1417236328125 438.8819885253906 L -380.8917236328125 438.8819885253906 L -380.8917236328125 439.1319885253906 L -380.8917236328125 440.980224609375 L -380.8917236328125 441.230224609375 L -381.1417236328125 441.230224609375 L -382.1629943847656 441.230224609375 L -382.1629943847656 445.6845703125 L -382.1629943847656 445.9345703125 Z"/><path class="f" d="M -386.0320129394531 439.1319885253906 L -386.0320129394531 440.980224609375 L -384.6817932128906 440.980224609375 L -384.6817932128906 445.6845703125 L -382.4129943847656 445.6845703125 L -382.4129943847656 440.980224609375 L -381.1417236328125 440.980224609375 L -381.1417236328125 439.1319885253906 L -386.0320129394531 439.1319885253906 M -386.0320129394531 438.6319885253906 L -381.1417236328125 438.6319885253906 C -380.8655700683594 438.6319885253906 -380.6417236328125 438.8558349609375 -380.6417236328125 439.1319885253906 L -380.6417236328125 440.980224609375 C -380.6417236328125 441.2563781738281 -380.8655700683594 441.480224609375 -381.1417236328125 441.480224609375 L -381.9129943847656 441.480224609375 L -381.9129943847656 445.6845703125 C -381.9129943847656 445.9607238769531 -382.1368408203125 446.1845703125 -382.4129943847656 446.1845703125 L -384.6817932128906 446.1845703125 C -384.9579467773438 446.1845703125 -385.1817932128906 445.9607238769531 -385.1817932128906 445.6845703125 L -385.1817932128906 441.480224609375 L -386.0320129394531 441.480224609375 C -386.3081665039062 441.480224609375 -386.5320129394531 441.2563781738281 -386.5320129394531 440.980224609375 L -386.5320129394531 439.1319885253906 C -386.5320129394531 438.8558349609375 -386.3081665039062 438.6319885253906 -386.0320129394531 438.6319885253906 Z"/></g><g class="b" transform="translate(386.957 -378.153)"><path class="e" d="M -382.4330444335938 457.2255859375 L -382.6830444335938 457.2255859375 L -384.9518432617188 457.2255859375 L -385.2018432617188 457.2255859375 L -385.2018432617188 456.9755859375 L -385.2018432617188 454.9720458984375 L -387.0509033203125 450.5188598632812 L -387.1945190429688 450.1730041503906 L -386.8200073242188 450.1730041503906 L -384.4139709472656 450.1730041503906 L -384.2314453125 450.1730041503906 L -384.1758422851562 450.3468627929688 L -383.7942504882812 451.5405578613281 L -383.4000549316406 450.3447265625 L -383.3434753417969 450.1730041503906 L -383.1626281738281 450.1730041503906 L -380.7661743164062 450.1730041503906 L -380.3879089355469 450.1730041503906 L -380.5361633300781 450.52099609375 L -382.4330444335938 454.9732666015625 L -382.4330444335938 456.9755859375 L -382.4330444335938 457.2255859375 Z"/><path class="f" d="M -382.6830444335938 456.9755859375 L -382.6830444335938 454.9222106933594 L -380.7661743164062 450.4230041503906 L -383.1626281738281 450.4230041503906 L -383.7978820800781 452.3501892089844 L -384.4139709472656 450.4230041503906 L -386.8200073242188 450.4230041503906 L -384.9518432617188 454.9222106933594 L -384.9518432617188 456.9755859375 L -382.6830444335938 456.9755859375 M -382.6830444335938 457.4755859375 L -384.9518432617188 457.4755859375 C -385.2279663085938 457.4755859375 -385.4518432617188 457.2517395019531 -385.4518432617188 456.9755859375 L -385.4518432617188 455.0218811035156 L -387.2817687988281 450.61474609375 C -387.3458557128906 450.46044921875 -387.32861328125 450.2843627929688 -387.2358703613281 450.1453857421875 C -387.1430969238281 450.0064392089844 -386.9870910644531 449.9230041503906 -386.8200073242188 449.9230041503906 L -384.4139709472656 449.9230041503906 C -384.1964721679688 449.9230041503906 -384.0039367675781 450.0635986328125 -383.9377136230469 450.270751953125 L -383.7905883789062 450.7309265136719 L -383.6375122070312 450.2664794921875 C -383.5699157714844 450.0614929199219 -383.3784484863281 449.9230041503906 -383.1626281738281 449.9230041503906 L -380.7661743164062 449.9230041503906 C -380.5982971191406 449.9230041503906 -380.4416198730469 450.0072631835938 -380.3490295410156 450.1473083496094 C -380.2564697265625 450.2873840332031 -380.2403869628906 450.4645385742188 -380.3061828613281 450.6189880371094 L -382.1830444335938 455.0242919921875 L -382.1830444335938 456.9755859375 C -382.1830444335938 457.2517395019531 -382.4068908691406 457.4755859375 -382.6830444335938 457.4755859375 Z"/></g></g><g transform="translate(-392.471 348.345)"><line class="c" y2="80.667" transform="translate(0.041 1.569)"/><line class="c" y2="80.667" transform="translate(12.583 1.569)"/><line class="c" x2="13.261"/><line class="c" x2="13.261" transform="translate(0 84.005)"/></g><g transform="translate(-392.471 348.345)"><line class="d" y2="80.667" transform="translate(0.041 1.569)"/><line class="d" y2="80.667" transform="translate(12.583 1.569)"/><line class="d" x2="13.261"/><line class="d" x2="13.261" transform="translate(0 84.005)"/></g></g></svg>