<svg xmlns="http://www.w3.org/2000/svg" width="80.513" height="92.847" viewBox="0 0 80.513 92.847"><defs><style>.a{fill:#ff2655;}.b{isolation:isolate;}.c{fill:#6c7a88;}.d{fill:#d51f47;}.e{fill:#fe597d;}.f{fill:#ff3f69;}.g{fill:#2fa1e1;}.h{fill:#288abe;}.i{fill:#71c9ff;}.j{fill:#35b5ff;}.k{fill:#fe9c00;}.l{fill:#ffd009;}.m{fill:#cf8700;}.n{fill:#ffbd00;}.o{fill:#df9200;}</style></defs><g transform="translate(306.177 -338.986)"><path class="a" d="M-286.523,364.667l0-12.923a8.844,8.844,0,0,1,4-6.922l5.146-2.97c2.205-1.276,4-.24,4,2.305V357.08l1.8-1.037V343.122c0-3.691-2.6-5.19-5.8-3.349l-5.146,2.971a12.834,12.834,0,0,0-5.795,10.039V365.7Z"/><g class="b"><path class="c" d="M-292.285,423.445l-13.892-8.073,6.963-52.751,13.893,8.071Z"/><path class="a" d="M-299.214,362.62l-6.963,52.751,6.9,4.009,7.365-52.52Z"/><path class="d" d="M-285.321,370.691l-6.592-3.831-7.365,52.52,6.992,4.064Z"/><path class="e" d="M-285.321,370.691l-13.893-8.071,35.512-20.5,13.893,8.073Z"/><path class="d" d="M-296.936,362.554l33.023-19.069,11.412,6.634-33.026,19.065Z"/><path class="f" d="M-249.809,350.189l7.238,44.554-49.715,28.7,6.964-52.753Z"/></g><path class="a" d="M-274.284,371.926V359.009a8.844,8.844,0,0,1,4-6.928l5.144-2.97c2.2-1.275,4-.238,4,2.307v12.925l1.8-1.039V350.382c0-3.688-2.6-5.191-5.793-3.347l-5.144,2.972a12.832,12.832,0,0,0-5.795,10.037v12.923Z"/><path class="d" d="M-273.738,371.445c0-.882-.618-1.237-1.379-.8a3.042,3.042,0,0,0-1.379,2.386c0,.879.617,1.235,1.379.8A3.044,3.044,0,0,0-273.738,371.445Z"/><path class="d" d="M-258.861,362.662c0-.878-.616-1.236-1.379-.795a3.045,3.045,0,0,0-1.378,2.387c0,.878.617,1.234,1.378.8A3.041,3.041,0,0,0-258.861,362.662Z"/><path class="g" d="M-245.7,355.432c2.714-1.563,5.315,1.828,5.315,5.557l1.04-.6c0-4.4-3.068-8.057-6.355-6.159s-5.574,8.651-5.572,13.044l1.038-.6C-250.234,362.944-248.414,357-245.7,355.432Z"/><g class="b"><path class="g" d="M-257.853,368.841l-2.073,35.911,4.168,2.426,2-35.961Z"/><path class="h" d="M-249.664,373.6l-4.1-2.384-2,35.961,4.017,2.335Z"/><path class="i" d="M-249.664,373.6l-8.189-4.759,21.731-12.545,8.188,4.757Z"/><path class="h" d="M-256.784,368.843l20.662-11.928,7.118,4.137-20.66,11.929Z"/><path class="j" d="M-227.934,361.053l2.27,33.4-26.077,15.057,2.078-35.913Z"/></g><path class="g" d="M-239.241,360.493c2.716-1.57,5.093,2.466,5.093,6.2l1.042-.6c0-4.391-2.846-8.7-6.135-6.8s-5.795,9.294-5.795,13.689l1.04-.6C-244,368.645-241.956,362.058-239.241,360.493Z"/><path class="h" d="M-243.689,372.5c0-.523-.367-.734-.817-.471a1.8,1.8,0,0,0-.817,1.414c0,.521.365.731.817.472A1.813,1.813,0,0,0-243.689,372.5Z"/><path class="h" d="M-232.933,366.264c0-.523-.366-.732-.817-.471a1.8,1.8,0,0,0-.818,1.414c0,.521.366.731.818.472A1.81,1.81,0,0,0-232.933,366.264Z"/><path class="k" d="M-269.1,375.7c2.766-1.6,5.013,1.619,5.013,5.419l1.062-.611c0-4.476-2.726-7.967-6.075-6.033s-6.075,8.572-6.075,13.048l1.061-.615C-274.111,383.11-271.863,377.3-269.1,375.7Z"/><g class="b"><path class="l" d="M-274.035,395.089l-8.682-5.043,23.039-13.3,8.68,5.044Z"/><path class="m" d="M-281.582,390.048l21.9-12.648,7.547,4.388-21.9,12.646Z"/><path class="n" d="M-251,381.791l.105,36.741-23.038,13.3-.1-36.744Z"/></g><path class="k" d="M-282.716,390.047l.1,36.742,3.854,2.24V392.346Z"/><path class="o" d="M-274.035,395.089l-4.723-2.743v36.683l4.827,2.8Z"/><path class="k" d="M-262.186,380.775c2.768-1.6,5.012,2.97,5.012,6.77l1.061-.614c0-4.476-2.724-9.313-6.073-7.378s-6.077,9.917-6.077,14.393l1.065-.613C-267.2,389.536-264.952,382.372-262.186,380.775Z"/></g></svg>