<svg xmlns="http://www.w3.org/2000/svg" width="51.389" height="76.839" viewBox="0 0 51.389 76.839"><defs><style>.a{fill:#216f8e;}.b{fill:#0086a5;}.c{fill:#4cd0d1;}.d{fill:#14b4bc;}.e{fill:#40c1be;}.f{fill:#087d93;}.g{fill:#18637c;}.h{fill:#13adaf;}.i{fill:#fff;}</style></defs><g transform="translate(0 0)"><path class="a" d="M46.5,42.535l.447-.49v-7.39l-1.915-18.2L46.5,34.919Z"/><path class="b" d="M46.5,42.535l-1.227.221v-7.6l-.241-18.707L46.5,34.919Z"/><path class="c" d="M43.825,42.535l1.449.221v-7.6l-.241-18.707L43.825,34.974Z"/><path class="d" d="M43.145,42.141l.68.394V34.974l1.208-18.52L43.145,34.706Z"/><path class="e" d="M45.274,35.16l-1.449-.186,1.208-18.52Z"/><path class="f" d="M46.5,34.919l-1.227.24-.241-18.706Z"/><path class="g" d="M46.948,34.655l-.447.264L45.033,16.453Z"/><path class="h" d="M43.145,34.706l.68.268,1.208-18.52Z"/><path class="c" d="M20.406,38.392l12.32,2.783-1.268,2.261-9.438-2.2Z"/><path class="b" d="M39.658,42.812l2.936,4.969,8.8-3.892-2.7-4.8Z"/><path class="a" d="M45.343,46.49V61.151l5.949-3.243V43.876Z"/><path class="a" d="M34.577,53.425v9.129L22.77,68.92V59Z"/><path class="a" d="M44.33,40.084l-.188,6.177-9.8,4.247V44.063Z"/><path class="b" d="M42.935,52.9l-8.6-2.39.173,3.033,4.523,1.186Z"/><path class="d" d="M34.513,53.541V64.675l4.522,1.372V54.727Z"/><path class="d" d="M47.233,50.789l-8.6-2.39.172,3.033,4.523,1.186Z"/><path class="a" d="M39.036,66.047,47.3,61.194V50.851l-8.266,3.875Z"/><path class="d" d="M34.341,44.063v6.445l9.8,2.721V46.438Z"/><path class="a" d="M21.668,41.048v6.445l9.8,2.72v-6.79Z"/><path class="d" d="M.886,47.366l4.857,1.283,4.743-1.769-4.8-1.108Z"/><path class="a" d="M5.686,48.662V69.876l5.026-2.656V46.8Z"/><path class="c" d="M.886,68.03l4.8,1.846V48.661l-4.8-1.295Z"/><path class="a" d="M5.661,0,8.342,33.744V47.66l.819-.9V33.26Z"/><path class="b" d="M6.1,34.183V48.064l2.241-.4V33.744L5.661,0Z"/><path class="c" d="M5.661,0,3.454,33.844V47.66l2.647.4V34.183Z"/><path class="d" d="M2.21,33.353V46.94l1.244.72V33.844L5.661,0Z"/><path class="e" d="M5.661,0,3.454,33.844l2.647.339Z"/><path class="f" d="M6.1,34.183l2.241-.439L5.661,0Z"/><path class="g" d="M8.342,33.744l.819-.483L5.661,0Z"/><path class="h" d="M2.21,33.353l1.244.491L5.661,0Z"/><path class="a" d="M26.712,66.811V71.2l9.781-5.884V61.392Z"/><path class="d" d="M3.749,65.393v5.27l1.359.564V65.938Z"/><path class="a" d="M5.109,71.228l1.4-.791v-17.7l-.7-1.6-.958.315.628,1.633V64.736l-.368,1.2Z"/><path class="d" d="M3.749,65.393l.425-1.027V52.74l.674-1.3.628,1.633V64.736l-.368,1.2Z"/><path class="d" d="M0,69.052l1.36.565V64.327L0,63.782Z"/><path class="a" d="M1.36,69.617l1.4-.791v-17.7l-.7-1.6-.959.315.629,1.633V63.125l-.368,1.2Z"/><path class="d" d="M.425,51.129V62.755L0,63.782l1.36.546.367-1.2V51.466L1.1,49.833Z"/><path class="b" d="M34.341,50.508,20.854,56.519l2.188,2.426,11.472-5.4Z"/><path class="d" d="M10.712,49.239,41.738,37.933l2.592,2.151L13.777,52.253Z"/><path class="a" d="M13.777,52.253l20.563-8.19v6.445L13.682,59.529Z"/><path class="c" d="M10.712,49.239l3.065,3.014-.094,7.277-2.971-.909Z"/><path class="b" d="M34.513,60.273l1.979,1.119-9.781,5.419L25.1,65.21Z"/><path class="c" d="M32.726,41.217,45.046,44l-1.268,2.261-9.438-2.2Z"/><path class="d" d="M26.712,71.2,25.1,70.164V65.21l1.613,1.6Z"/><path class="d" d="M14.618,51.524l5.64,1.611,5.025-2.006-5.64-1.612Z"/><path class="a" d="M20.257,53.136V76.064l5.026-2.871V51.129Z"/><path class="c" d="M14.618,73.721l5.639,2.343V53.136l-5.639-1.612Z"/><path class="d" d="M17.438,76.273l1.359.565V71.549L17.438,71Z"/><path class="a" d="M18.535,57.055l.629,1.633V70.347l-.368,1.2v5.29l1.4-.79v-17.7l-.7-1.6Z"/><path class="d" d="M17.437,71l.425-1.027V58.351l.674-1.3.629,1.633V70.347l-.369,1.2Z"/><path class="b" d="M6.5,70.437l8.113,3.453V57.253l-4.565-9.887L6.5,54.377Z"/><path class="a" d="M10.052,47.366l.434-.156,4.131,8.774-.5.195Z"/><path class="b" d="M42.593,63.958V48.436l2.061-5.994L46.3,46.749V61.784Z"/><path class="c" d="M44.654,42.442h-.209L42.3,48.4V63.958h.29V48.436Z"/><path class="d" d="M13.258,69.256v5.27l1.36.564V69.8Z"/><path class="a" d="M14.618,75.091l1.4-.791V56.6l-.7-1.6-.958.315.628,1.633V68.6l-.367,1.2Z"/><path class="d" d="M13.258,69.256l.425-1.027V56.6l.675-1.3.628,1.633V68.6l-.368,1.2Z"/><path class="a" d="M8,56.823l1.593.941v-3.04l1.3.724v3.04l1.591.94v1.52l-.723.435-.868-1.3v6.514l-.725.434L9.59,59.283,8,58.343Z"/><path class="i" d="M7.273,57.257l1.592.869V55.158l1.3.724v3.04l1.592.94v1.52l-1.592-.94v6.586l-1.3-.8V59.718l-1.592-.941Z"/><path class="c" d="M9.59,54.725l-.724.434,1.3.724.725-.434Z"/><path class="c" d="M11.76,59.863l-1.593-.941.725-.434,1.592.941Z"/><path class="c" d="M8,56.823l-.724.434,1.593.869v-.8Z"/><path class="a" d="M22.607,52.033l.818-.9v-13.5l-3.5-33.261,2.682,33.744Z"/><path class="b" d="M22.607,52.033l-2.241.4V38.555L19.925,4.373l2.682,33.744Z"/><path class="c" d="M17.719,52.033l2.647.4V38.555l-.44-34.182L17.719,38.217Z"/><path class="d" d="M16.475,51.312l1.243.72V38.216L19.925,4.373l-3.45,33.353Z"/><path class="e" d="M20.366,38.555l-2.647-.339L19.926,4.373Z"/><path class="f" d="M22.607,38.117l-2.241.438L19.925,4.373Z"/><path class="g" d="M23.426,37.633l-.818.483L19.926,4.373Z"/><path class="h" d="M16.475,37.727l1.243.49L19.925,4.373Z"/></g></svg>