<svg xmlns="http://www.w3.org/2000/svg" width="26.934" height="100.839" viewBox="0 0 26.934 100.839"><defs><style>.a{fill:#0a1e2b;}.b{fill:#050f16;}.c{fill:#084575;}.d{fill:#124a81;}.e{fill:#1c5b8e;}.f{fill:#00375b;}.g{fill:#091624;}.h{fill:#0c2030;}.i{fill:#122d44;}.j,.o{fill:#ffee4d;}.j,.k,.l{stroke-miterlimit:10;}.k,.q{fill:#ff66a4;}.l{fill:#3bf1ff;}.m,.n,.o,.p,.q{stroke:none;}.n{fill:#ff2287;}.p{fill:#ff4848;}</style></defs><g transform="translate(-112.257 -56.227)"><g transform="translate(114.114 58.833)"><path d="M136.422,129.109l-7.537,4.641v9.1l7.537-4.655Z" transform="translate(-111.343 -46.691)"/><path class="a" d="M117.234,126.368l13.593,7.839v9.1l-13.593-7.853Z" transform="translate(-113.285 -47.148)"/><g transform="translate(12.564 88.705)"><path class="b" d="M124.618,134.534v8.917l.986.57V135.1Z" transform="translate(-124.618 -134.492)"/><path d="M126.522,134.5l-1.058.61v8.918l1.058-.611Z" transform="translate(-124.477 -134.498)"/></g><g transform="translate(0 81.416)"><path class="b" d="M113.848,128.286V137.2l.986.57v-8.918Z" transform="translate(-113.848 -128.244)"/><path d="M115.752,128.25l-1.058.61v8.918l1.058-.611Z" transform="translate(-113.708 -128.25)"/></g><path class="c" d="M136.991,93.161l-11.523,6.768v41.839L136.991,135Z" transform="translate(-111.913 -52.68)"/><path class="c" d="M127.905,85.277,113.848,93.21v41.839l14.057-7.933Z" transform="translate(-113.848 -53.993)"/><g transform="translate(0 39.261)"><path class="d" d="M126.327,98.418,113.848,123.8v2.347l13.373-27.2Z" transform="translate(-113.848 -91.065)"/><path class="d" d="M127.251,106.872l-12.484,25.39,12.484,7.22Z" transform="translate(-113.695 -89.657)"/><path class="d" d="M123.209,96.843l-9.361,19.039v7.566l12.246-24.905Z" transform="translate(-113.848 -91.327)"/><path class="d" d="M121,95.727l-7.151,14.544v2.584l8.136-16.548Z" transform="translate(-113.848 -91.513)"/><path class="d" d="M113.848,92.115v9.05l3.45-7.017Z" transform="translate(-113.848 -92.115)"/><path class="e" d="M117.3,93.858l-3.45,7.017v9.707L121,96.038Z" transform="translate(-113.848 -91.825)"/><path class="e" d="M127.4,98.977l-.182-.107-13.373,27.2v6.908l1.072.62,12.484-25.39Z" transform="translate(-113.848 -90.99)"/><path class="e" d="M121.985,96.225l-8.136,16.548v3.212l9.361-19.039Z" transform="translate(-113.848 -91.43)"/><path class="e" d="M126.094,98.3l-12.246,24.905v.611l12.479-25.379Z" transform="translate(-113.848 -91.085)"/></g><g transform="translate(2.198 41.689)"><path class="c" d="M115.864,94.274l-.132-.078v35.4l.132.076Z" transform="translate(-115.732 -94.196)"/><path class="c" d="M118.26,95.954l-.132-.078v35.4l.132.076Z" transform="translate(-115.333 -93.916)"/><path class="c" d="M120.679,97.407l-.132-.078v35.4l.132.076Z" transform="translate(-114.93 -93.674)"/><path class="c" d="M123.075,98.907l-.132-.078v35.4l.132.076Z" transform="translate(-114.531 -93.424)"/></g><g transform="translate(16.312 42.628)"><path class="f" d="M132.87,95.079,133,95v35.4l-.132.076Z" transform="translate(-126.991 -95.001)"/><path class="f" d="M130.227,97.213l.132-.078v35.4l-.132.076Z" transform="translate(-127.432 -94.646)"/><path class="f" d="M127.831,98.713l.132-.078v35.4l-.132.076Z" transform="translate(-127.831 -94.396)"/></g><path d="M136.991,93.161l-11.523,6.768v2.141L136.991,95.3Z" transform="translate(-111.913 -52.68)"/><path class="b" d="M113.848,92.115V94.4l13.556,7.84V100.1Z" transform="translate(-113.848 -52.854)"/><path d="M136.991,108.406l-11.523,6.768v2.141l11.523-6.768Z" transform="translate(-111.913 -50.14)"/><path class="b" d="M113.848,107.36v2.288l13.556,7.84v-2.141Z" transform="translate(-113.848 -50.314)"/><path d="M136.991,122.535,125.468,129.3v8.222l11.523-6.768Z" transform="translate(-111.913 -47.786)"/><path class="b" d="M113.848,121.49v8.369L127.4,137.7v-8.222Z" transform="translate(-113.848 -47.96)"/><path class="g" d="M136.991,99.415l-11.523,6.768v.252l11.523-6.768Z" transform="translate(-111.913 -51.638)"/><path class="h" d="M113.848,98.369v.4l13.556,7.84v-.252Z" transform="translate(-113.848 -51.812)"/><path class="g" d="M136.991,104l-11.523,6.768v.252l11.523-6.768Z" transform="translate(-111.913 -50.875)"/><path class="h" d="M113.848,102.95v.4l13.556,7.84v-.252Z" transform="translate(-113.848 -51.049)"/><path class="g" d="M136.991,113.759l-11.523,6.768v.252l11.523-6.768Z" transform="translate(-111.913 -49.248)"/><path class="h" d="M113.848,112.714v.4l13.556,7.84V120.7Z" transform="translate(-113.848 -49.422)"/><path class="g" d="M136.991,118.341l-11.523,6.768v.252l11.523-6.768Z" transform="translate(-111.913 -48.485)"/><path class="h" d="M113.848,117.3v.4l13.556,7.84v-.252Z" transform="translate(-113.848 -48.659)"/><path class="i" d="M127.905,85.277l-14.057,7.978,13.556,7.987,11.523-6.768Z" transform="translate(-113.848 -53.993)"/><path class="c" d="M134.5,63.479l-8.773,14.039v25.82l8.773-5.216Z" transform="translate(-111.87 -57.625)"/><g transform="translate(2.951 13.469)"><path class="d" d="M127.018,77.366l-9.057,18.421.9.52,8.159-16.593Z" transform="translate(-116.114 -68.78)"/><path class="d" d="M122.779,73.239l-6.4,13.017v2.585l7.386-15.021Z" transform="translate(-116.378 -69.467)"/><path class="d" d="M116.378,70.006v7.082l2.7-5.491Z" transform="translate(-116.378 -70.006)"/><path class="d" d="M127.282,75.706l-2.294-1.351-8.61,17.512V95.22l1.613.933,9.291-18.9Z" transform="translate(-116.378 -69.282)"/><path class="d" d="M126.359,87.7l-4.443,9.036,4.443,2.57Z" transform="translate(-115.456 -67.059)"/><path class="e" d="M119.078,71.37l-2.7,5.491v9.707l6.4-13.017Z" transform="translate(-116.378 -69.779)"/><path class="e" d="M126.89,79.378l-8.159,16.593,3.716,2.149,4.443-9.036Z" transform="translate(-115.986 -68.445)"/><path class="e" d="M123.764,73.736l-7.386,15.021V91.97l8.61-17.512Z" transform="translate(-116.378 -69.385)"/><path class="e" d="M127.052,76.842l-9.291,18.9.234.135,9.057-18.421Z" transform="translate(-116.148 -68.867)"/></g><g transform="translate(5.272 14.836)"><path class="c" d="M118.5,71.256l-.132-.078V97.105l.132.076Z" transform="translate(-118.368 -71.178)"/><path class="c" d="M120.9,72.668l-.132-.078V98.473l.132.076Z" transform="translate(-117.969 -70.943)"/><path class="c" d="M123.315,74.093l-.132-.078V99.868l.132.076Z" transform="translate(-117.565 -70.706)"/><path class="c" d="M125.749,75.524l-.132-.078-.039,25.8.171.1Z" transform="translate(-117.166 -70.467)"/></g><g transform="translate(13.855 9.517)"><path class="f" d="M130.8,66.8l.132-.177V99.131l-.132.076Z" transform="translate(-124.88 -66.619)"/><path class="f" d="M128.154,72.272l.132-.177v28.13l-.132.076Z" transform="translate(-125.32 -65.707)"/><path class="f" d="M125.725,75.535l.132-.151.039,25.872-.171.1Z" transform="translate(-125.725 -65.159)"/></g><g transform="translate(2.951)"><path class="e" d="M129,59.837,118.374,69.01l-2,2.69,2.694,1.588,13.194-11.513Z" transform="translate(-116.378 -58.231)"/><path class="e" d="M133.9,62.849,121.852,74.961l.977.575,12.049-12.11Z" transform="translate(-115.466 -57.729)"/><path class="e" d="M134.817,63.479,123.808,76.2l2.237,1.318Z" transform="translate(-115.141 -57.625)"/><path class="e" d="M131.882,61.5,118.688,73.011l3.691,2.175L134.43,63.074Z" transform="translate(-115.993 -57.955)"/><path class="e" d="M135,63.5l-.266-.157-12.049,12.11,1.3.769,8.271-8.338Z" transform="translate(-115.327 -57.647)"/><path class="e" d="M126,58.461l-7.913,10.779,10.623-9.173Z" transform="translate(-116.093 -58.461)"/></g><g transform="translate(2.963 27.913)"><path class="g" d="M134.5,83.417l-8.773,5.216v.252l8.773-5.216Z" transform="translate(-114.833 -82.216)"/><path class="h" d="M116.388,82.388v.37l10.889,6.3V88.8Z" transform="translate(-116.388 -82.388)"/><path class="g" d="M134.5,88l-8.773,5.216v.252L134.5,88.25Z" transform="translate(-114.833 -81.453)"/><path class="h" d="M116.388,86.969v.37l10.889,6.3v-.252Z" transform="translate(-116.388 -81.625)"/></g><g transform="translate(2.963 17.703)"><path class="g" d="M134.5,74.665l-8.773,5.216v.252l8.773-5.216Z" transform="translate(-114.833 -73.464)"/><path class="h" d="M116.388,73.636v.37l10.889,6.3v-.252Z" transform="translate(-116.388 -73.636)"/><path class="g" d="M134.5,79.246l-8.773,5.216v.252L134.5,79.5Z" transform="translate(-114.833 -72.701)"/><path class="h" d="M116.388,78.217v.37l10.889,6.3v-.252Z" transform="translate(-116.388 -72.872)"/></g></g><g class="j" transform="translate(0.353 4.021)"><path class="m" d="M 126.0874481201172 102.7515182495117 L 114.8748321533203 96.34041595458984 L 114.8748321533203 81.23194122314453 L 126.0874481201172 87.77787017822266 L 126.0874481201172 102.7515182495117 Z"/><path class="n" d="M 115.3748321533203 82.10280609130859 L 115.3748321533203 96.05034637451172 L 125.5874481201172 101.8896713256836 L 125.5874481201172 88.06493377685547 L 115.3748321533203 82.10280609130859 M 114.3748321533203 80.36106872558594 L 126.5874481201172 87.49079895019531 L 126.5874481201172 103.6133728027344 L 114.3748321533203 96.6304931640625 L 114.3748321533203 80.36106872558594 Z"/></g><g class="k" transform="translate(0 6.367)"><path class="m" d="M 126.5551681518555 119.3640518188477 L 112.7573623657227 111.3464813232422 L 112.7573623657227 95.32015228271484 L 126.5551681518555 103.4746551513672 L 126.5551681518555 119.3640518188477 Z"/><path class="o" d="M 113.2573623657227 96.19644165039062 L 113.2573623657227 111.0587310791016 L 126.0551528930664 118.495231628418 L 126.0551528930664 103.7599487304688 L 113.2573623657227 96.19644165039062 M 112.2573623657227 94.44385528564453 L 127.0551528930664 103.1893615722656 L 127.0551528930664 120.2328720092773 L 112.2573623657227 111.6342239379883 L 112.2573623657227 94.44385528564453 Z"/></g><g class="l" transform="translate(0.353 9.268)"><path class="m" d="M 126.202392578125 140.1519470214844 L 114.8748321533203 133.6162872314453 L 114.8748321533203 112.7363967895508 L 126.202392578125 119.4069747924805 L 126.202392578125 140.1519470214844 Z"/><path class="p" d="M 115.3748321533203 113.6110687255859 L 115.3748321533203 133.3275146484375 L 125.702392578125 139.2861938476562 L 125.702392578125 119.6927795410156 L 115.3748321533203 113.6110687255859 M 114.3748321533203 111.8616943359375 L 126.702392578125 119.1211547851562 L 126.702392578125 141.0176696777344 L 114.3748321533203 133.9050598144531 L 114.3748321533203 111.8616943359375 Z"/></g><g class="l" transform="translate(0.814 2.082)"><path class="m" d="M 127.3727111816406 88.02234649658203 L 117.6449661254883 82.45146942138672 L 117.6449661254883 69.59885406494141 L 127.3727111816406 75.30288696289062 L 127.3727111816406 88.02234649658203 Z"/><path class="p" d="M 118.1449661254883 70.47165679931641 L 118.1449661254883 82.16161346435547 L 126.8727111816406 87.15982055664062 L 126.8727111816406 75.58932495117188 L 118.1449661254883 70.47165679931641 M 117.1449661254883 68.72605895996094 L 127.8727111816406 75.01645660400391 L 127.8727111816406 88.88487243652344 L 117.1449661254883 82.74131774902344 L 117.1449661254883 68.72605895996094 Z"/></g><g class="j" transform="translate(1.024)"><path class="m" d="M 125.6929931640625 73.87242889404297 L 118.9049072265625 69.95316314697266 L 118.9049072265625 57.1068000793457 L 125.6929931640625 61.15406799316406 L 125.6929931640625 73.87242889404297 Z"/><path class="q" d="M 119.4049072265625 57.98703765869141 L 119.4049072265625 69.66448974609375 L 125.1929931640625 73.00637817382812 L 125.1929931640625 61.43807983398438 L 119.4049072265625 57.98703765869141 M 118.4049072265625 56.22655487060547 L 126.1929931640625 60.87005615234375 L 126.1929931640625 74.73847198486328 L 118.4049072265625 70.24183654785156 L 118.4049072265625 56.22655487060547 Z"/></g></g></svg>