<svg xmlns="http://www.w3.org/2000/svg" width="44.536" height="62.975" viewBox="0 0 44.536 62.975"><defs><style>.a{fill:#c5b4e7;}.b{fill:#8b76b9;}.c{fill:#573c90;}.d{fill:#a992d5;}.e{fill:#9e86c1;}</style></defs><g transform="translate(234.403 -101.652)"><rect class="a" width="9.209" height="47.349" transform="translate(-221.422 101.652)"/><path class="b" d="M-194.816,135.5v11.211h-9.426s-3.373-1.488-10.914-1.389-16.966,2.879-16.966,2.879H-234.4v-13l9.227-1.984,13.99-.694,7.143.495Z" transform="translate(0 16.424)"/><path class="a" d="M-234.4,136.091l6.548.2,13.246-.893,7.888.695,2.877.695,9.029.715,4.949-4.983-29.708-1.655Z" transform="translate(0 15.538)"/><path class="a" d="M-213.484,121.363h-8.947l6.046.783Z" transform="translate(6.369 10.485)"/><path class="c" d="M-217.722,103.234v29.4l2.9-.783v14.23l-5.1,2.923V101.652Z" transform="translate(7.706)"/><rect class="d" width="9.625" height="37.967" transform="translate(-223.069 111.078)"/><rect class="a" width="8.573" height="33.748" transform="translate(-204.611 101.652)"/><path class="c" d="M-207.846,103.234l-1.514-1.582V135.4l1.514-1.714Z" transform="translate(13.322)"/><path class="d" d="M-214.383,131.653V107.8h9.209v24.652Z" transform="translate(10.65 3.273)"/><path class="c" d="M-205.906,108.563l-2.466-.758V137l2.466-.758Z" transform="translate(13.848 3.273)"/><rect class="b" width="10.567" height="15.071" transform="translate(-225.176 134.049)"/><path class="a" d="M-231.564,132.1l4.878-1.45,2.7.725Z" transform="translate(1.51 15.426)"/><path class="e" d="M-231.564,135.256V131.85l7.58-.725v2.707Z" transform="translate(1.51 15.678)"/><path class="c" d="M-203.613,131.943v8.733l-4.949,6.35v-10.1Z" transform="translate(13.746 16.113)"/><path class="b" d="M-219.13,130.135V133.8l6.962.5v-3.632Z" transform="translate(8.125 15.152)"/><path class="a" d="M-213.725,128.5l-5.4,2.5,6.962.527,5.166-2.439Z" transform="translate(8.125 14.282)"/><path class="b" d="M-215.171,123.681v13.982l8.9,2.216V124.011Z" transform="translate(10.23 11.719)"/><path class="a" d="M-213.325,123.208l-1.846.725,8.9.33,1.514-.861Z" transform="translate(10.23 11.467)"/><path class="c" d="M-205.38,136.887l-3.98,3.665V124.683l3.98-2.266Z" transform="translate(13.322 11.046)"/><path class="e" d="M-221.483,122.9l2.4-.289v15.241l-2.4.119Z" transform="translate(6.873 11.149)"/><path class="a" d="M-228.38,123l2.107-.586,10.857.3-2.4.289Z" transform="translate(3.204 11.046)"/><rect class="c" width="1.231" height="22.683" transform="translate(-213.444 111.078)"/></g></svg>