<svg id="Layer_1" data-name="Layer 1" xmlns="http://www.w3.org/2000/svg" viewBox="0 0 1253.015 405.654"><title>GoogleLogosvg</title><path d="M1191.093,391.2H67.664A39.209,39.209,0,0,1,28.5,352.03V70.373A39.208,39.208,0,0,1,67.664,31.209H1191.093a39.208,39.208,0,0,1,39.164,39.164V352.03A39.209,39.209,0,0,1,1191.093,391.2ZM67.664,39.209A31.2,31.2,0,0,0,36.5,70.373V352.03A31.2,31.2,0,0,0,67.664,383.2H1191.093a31.2,31.2,0,0,0,31.164-31.165V70.373a31.2,31.2,0,0,0-31.164-31.164Z" style="fill:#fff"/><path d="M352.3,156.869c-4.485,5.14-9.115,9.733-12.921,14.93-18.349,25.05-11.254,58.09,15.961,73.864,3.916,2.27,3.994,4.156,2.544,7.819a141.445,141.445,0,0,1-26.4,42.631c-10.628,11.855-22.1,14.665-36.391,8.085-15.432-7.107-30.194-7.066-45.673-.177-15.373,6.843-24.6,4.91-35.851-7.445-24.738-27.161-37.8-59.2-37.389-96.109.194-17.409,5.509-33.36,17.731-46.447,12-12.855,33.61-21.885,52.715-14.391,4.178,1.638,8.458,3.027,12.583,4.785a25.107,25.107,0,0,0,19.343.362c8.869-3.211,17.858-6.886,27.094-8.11C322.206,134.471,342.936,141.793,352.3,156.869Z" style="fill:#fff"/><path d="M312.229,82.183c3.347,19.962-14.936,50.907-43.208,50.864C261.329,114.128,290.075,80.288,312.229,82.183Z" style="fill:#fff"/><path d="M648.811,244.121a14.892,14.892,0,0,0,2.1-1.438c18.449-20.275,45.932-14.653,54.1,11.485,4.859,15.54,3.473,30.825-6.549,44.324a31.09,31.09,0,0,1-34.486,10.813c-3.438-1.147-6.486-3.7-9.426-5.974-1.031-.8-1.2-2.707-1.767-4.108l-2.285,1.714V340.3H634.11V231.978c3.8,0,7.83-.191,11.814.147.89.075,2.117,1.919,2.325,3.1A78.08,78.08,0,0,1,648.811,244.121Zm1.341,26.452c.357,3.958.5,7.577,1.041,11.133,1.3,8.481,7.052,14.336,15.179,15.725,8.6,1.469,16.147-1.9,20.11-9.589,5.508-10.684,5.613-21.81.994-32.772a18.483,18.483,0,0,0-19.255-11.447,19.836,19.836,0,0,0-16.783,15.628C650.671,263.06,650.539,267,650.152,270.573Z" style="fill:#fff"/><path d="M545.049,232.177h13.543c.483,3.857.941,7.523,1.468,11.735.9-.636,1.616-.9,1.94-1.4,10.115-15.846,39.618-17.876,51.459,5.089,7.894,15.311,6.067,38.41-4.675,51.767-8.729,10.854-25.966,14.81-37.757,8.344-3.194-1.751-5.822-4.533-9.528-7.5v40h-16.45Zm16.2,39.154.276.021c0,2.266-.068,4.534.012,6.8.376,10.637,6.895,18.085,17.084,19.578,9.082,1.331,17.772-4.617,20.9-14.363a42.348,42.348,0,0,0,.806-23.195c-2.454-10.238-10.092-16.694-19.329-16.614-9.256.079-16.619,6.579-18.792,17.01C561.476,264.069,561.542,267.738,561.244,271.331Z" style="fill:#fff"/><path d="M439.671,308.872c5.992-18.7,11.758-36.712,17.541-54.722,5.195-16.179,10.462-32.334,15.564-48.542.848-2.694,2-3.887,5.015-3.684,4.511.3,9.061.166,13.59.042,2.247-.061,3.458.485,4.229,2.9q16.378,51.194,32.963,102.321a6.938,6.938,0,0,1,.016,1.682c-5.013,0-9.98.181-14.914-.145-1.058-.069-2.482-1.809-2.908-3.062-2.806-8.251-5.533-16.538-7.956-24.908-.8-2.759-2.123-3.542-4.784-3.511-9.365.107-18.734.14-28.1-.016-3-.05-4.12,1.1-4.9,3.93-2.283,8.273-5.047,16.412-7.433,24.658-.662,2.286-1.692,3.195-4.09,3.107C449.137,308.757,444.762,308.872,439.671,308.872ZM483.709,216.2c-4.924,16.724-9.516,32.319-14.2,48.224h28.936C493.564,248.45,488.808,232.884,483.709,216.2Z" style="fill:#fff"/><path d="M802.745,205.257l-3.653,11.983c-7.818-1.019-15.3-2.186-22.825-2.864a18.772,18.772,0,0,0-7.483,1.375,13.233,13.233,0,0,0-9.342,11.7,13.037,13.037,0,0,0,6.2,12.782c4.035,2.6,8.47,4.585,12.751,6.8,5.212,2.692,10.677,4.973,15.633,8.07,18.269,11.42,16.352,39.167-.856,49.421-13.437,8.007-39.066,8.14-51.9-.75,1.172-4.157,2.382-8.445,3.414-12.106,7.07,1.8,13.772,4.226,20.661,5a34.454,34.454,0,0,0,15.464-1.861,15.224,15.224,0,0,0,4.121-26.243c-3.654-2.991-8.287-4.805-12.522-7.065-5.97-3.184-12.509-5.576-17.883-9.553-16.39-12.127-15.436-35.016,2.011-45.546C771.437,197.409,787.021,199.459,802.745,205.257Z" style="fill:#fff"/><path d="M949.2,270.093c-.191,16.454-5.8,30.019-21.53,37.241-25.708,11.8-52.863-5.788-53.309-34.02-.207-13.161,2.8-25.118,12.977-33.918,11.993-10.375,26.187-11.453,40.381-5.825,13.814,5.478,20.157,16.991,21.266,31.545.069.9.166,1.806.208,2.71C949.23,268.58,949.2,269.337,949.2,270.093Zm-16.806.6c-.211-7.826-1.66-15.307-6.7-21.616-6.834-8.559-20.378-8.87-27.463-.729-9.541,10.965-9.752,32.585-.427,43.821a17.594,17.594,0,0,0,28.09-.643C930.542,285.36,932.1,278.242,932.4,270.7Z" style="fill:#fff"/><path d="M1077.771,305.227c-16.343,7.888-46.766,9.032-58.528-12.086-10.018-17.985-5.065-44.88,11.023-56.643,19.5-14.258,46.236-4.04,50.769,19.6,1.09,5.688,1.02,11.6,1.55,18.24h-52.194c-.5,11.994,6.288,20.719,17.4,22.969,9.152,1.852,17.989.126,27.37-2.593C1076.04,298.243,1076.913,301.767,1077.771,305.227Zm-11.519-42.76c.3-7.254-1.361-13.545-7.217-17.746a15.939,15.939,0,0,0-18.32-.779c-6.719,4.034-9.977,10.4-10.416,18.525Z" style="fill:#fff"/><path d="M817.709,244.455V232.081h10.742c0-3.848.15-7.26-.049-10.652-.149-2.54.678-3.85,3.218-4.488,4.215-1.059,8.352-2.432,13.009-3.818v18.649h18.826v12.622h-18.8c0,3.724-.039,7,.007,10.266.149,10.558-.3,21.174.683,31.656.867,9.283,4.931,11.65,14.257,10.5.865-.106,1.74-.137,3.171-.246,0,3.514.092,6.814-.063,10.1a3.393,3.393,0,0,1-1.338,2.46c-6.267,3.491-20.38,1.422-25.755-3.621-4.6-4.318-6.329-9.906-6.5-15.917-.38-13.275-.464-26.558-.662-39.837-.024-1.615,0-3.231,0-5.3Z" style="fill:#fff"/><path d="M965.29,232.177h13.252c.314,4.5.624,8.928.933,13.354l.929.643c5.247-9.957,12.2-16.967,24.558-15.214v14.853a16.371,16.371,0,0,1-2.478.4c-13.41.187-20.8,7.527-20.932,21.112-.121,12.233-.027,24.469-.027,36.7v4.618H965.29Z" style="fill:#fff"/><path d="M450.033,163.446V111.682c8.552-1.51,16.892-1.952,25.221.178,13.355,3.417,18.464,15.409,16.872,27.778C490.2,154.6,481.765,162.1,465.984,163.379,460.781,163.8,455.516,163.446,450.033,163.446Zm7.283-26.691c0,5.738-.111,11.48.093,17.211.041,1.164,1.046,3.021,1.99,3.311,7.542,2.323,18.425-2.089,21.97-9a25.246,25.246,0,0,0,.809-22.254c-3.178-7.4-15.543-12.255-22.941-9.089-.965.413-1.792,2.288-1.837,3.516C457.2,125.879,457.314,131.319,457.316,136.755Z" style="fill:#fff"/><path d="M800.8,129.309V108.632h7.623v53.916h-5.975c-.309-1.288-.67-2.79-.975-4.057-3.19,1.763-5.955,4.093-9.1,4.873-7.776,1.927-15.145-2.113-17.335-10.033a32.579,32.579,0,0,1-.688-15C777.172,125.268,788.584,121.388,800.8,129.309Zm.136,15.1h-.021c0-1.356.074-2.716-.014-4.066-.316-4.858-3.464-8.65-7.689-9.344-4.6-.756-8.844,1.234-10.43,5.925a26.375,26.375,0,0,0-1.364,10.957c.7,6.439,5.321,10.082,10.913,9.651,5.217-.4,8.494-4.711,8.6-11.315C800.945,145.615,800.937,145.013,800.937,144.41Z" style="fill:#fff"/><path d="M548.892,125.867h7.7q3.332,13.821,6.642,27.553l1.331-.017q2.5-8.254,4.991-16.51c.777-2.589,1.593-5.172,2.232-7.8.559-2.3,1.464-3.483,4.232-3.494,2.885-.011,3.579,1.5,4.163,3.657,1.961,7.258,3.93,14.514,5.96,21.752a21.71,21.71,0,0,0,1.844,3.39c2.6-10.113,4.934-19.186,7.31-28.428h7.417c-3.8,12.077-7.434,23.83-11.316,35.5-.27.809-2.358,1.214-3.663,1.435-2.534.43-3.994-.333-4.754-3.29-1.962-7.633-4.457-15.129-7.07-23.776a29.933,29.933,0,0,0-1.689,3.408c-2.17,7.043-4.367,14.079-6.389,21.165-.814,2.85-2.938,2.909-4.964,2.434-1.444-.339-3.491-1.381-3.854-2.548C555.5,148.974,552.28,137.553,548.892,125.867Z" style="fill:#fff"/><path d="M1004.79,130.188c.652-.577,1.327-1.13,1.953-1.735a12.239,12.239,0,0,1,12.987-2.905,10.976,10.976,0,0,1,8.042,10.445c.362,8.7.1,17.429.1,26.555h-7.261c0-5.529.012-11.2-.007-16.875a61.3,61.3,0,0,0-.165-6.783c-.561-4.88-3.12-7.507-7.3-7.806a8.127,8.127,0,0,0-8.944,7.194c-.632,5.67-.452,11.432-.587,17.155-.053,2.245-.009,4.492-.009,7.127h-7.151V108.638h7.017v21.244Z" style="fill:#fff"/><path d="M881.086,144.126c-.045,12.176-7.208,19.729-18.63,19.647-10.5-.076-17.818-7.97-17.786-19.191.034-11.575,7.63-19.707,18.446-19.747C874.1,124.8,881.131,132.338,881.086,144.126Zm-28.4.479c.028,7.748,3.938,13.33,9.638,13.76,5.508.415,9.746-4.379,10.809-12.246a13.812,13.812,0,0,0,.171-2.248c-.249-7.89-4.774-13.671-10.532-13.49-6.017.19-10.044,5.689-10.086,13.771C852.685,144.3,852.686,144.454,852.686,144.6Z" style="fill:#fff"/><path d="M701.458,163.784c-10.547.033-17.97-7.7-18.123-18.891-.158-11.528,7.457-19.931,18.162-20.043,11.073-.116,18.678,7.805,18.616,19.391C720.051,155.707,712.375,163.749,701.458,163.784Zm-10.217-19.237c.015,7.592,4.031,13.366,9.615,13.823,5.7.466,10.192-4.553,11.11-12.427.946-8.105-3.8-15.419-10.122-15.6C695.666,130.162,691.226,136.112,691.241,144.547Z" style="fill:#fff"/><path d="M503.317,144.2c.074-11.821,7.338-19.433,18.471-19.355,10.512.073,17.845,7.962,17.807,19.157-.04,11.919-7.565,19.867-18.729,19.783C509.857,163.7,503.242,156.317,503.317,144.2Zm28.259.225c.04-8.118-4.269-14.035-10.243-14.067s-10.461,5.909-10.5,13.93c-.04,8.043,4.343,14.039,10.3,14.089C527.053,158.424,531.537,152.435,531.576,144.423Z" style="fill:#fff"/><path d="M646.651,162.487c-7.758,1.09-7.757,1.09-7.762-6.139,0-5.432.1-10.868-.05-16.3-.164-5.947-3.056-9.116-7.88-9-4.747.118-8.533,3.984-8.642,9.262-.153,7.362-.039,14.729-.039,22.013-7.685,1.435-7.873,1.288-7.875-5.821,0-10.086,0-20.172,0-30.6,3.466-.1,7.415-1.763,7.04,4.841a32.226,32.226,0,0,0,2.864-2.007c4.02-3.627,8.607-4.883,13.794-3.165,5.383,1.783,8.085,6.166,8.406,11.3C647.039,145.4,646.651,153.986,646.651,162.487Z" style="fill:#fff"/><path d="M1074.293,146.238h-25.267c1.061,10.6,6.845,13.3,22.008,10.469.4,1.443.811,2.931,1.2,4.342-8.868,4.564-20.74,3.232-26.053-2.7-5.859-6.544-6.325-18.61-1.013-26.228a16.675,16.675,0,0,1,18.727-6.7c6,1.769,10.083,7.619,10.385,14.947C1074.355,142.136,1074.293,143.911,1074.293,146.238Zm-7.733-5.922c.664-6.126-1.856-9.764-6.849-10.215-6.255-.566-9.863,2.878-10.443,10.215Z" style="fill:#fff"/><path d="M894.672,125.944H900.5c.227,1.375.458,2.774.8,4.858,1.3-.951,2.225-1.552,3.064-2.256,4.116-3.459,8.659-4.73,13.868-2.841,5.354,1.941,7.876,6.081,8.041,11.446.259,8.4.069,16.819.069,25.512h-7.3c0-4.729.029-9.492-.01-14.254a94.778,94.778,0,0,0-.282-9.952c-.564-4.942-3.688-7.613-8.076-7.386a8.311,8.311,0,0,0-8.125,8.147c-.216,5.732-.09,11.477-.1,17.217-.011,7.158,0,7.158-7.776,6.065Z" style="fill:#fff"/><path d="M760.2,162.889c-2.776-.515-6.849,2.278-6.765-3.048-3.69,1.358-7.029,3.28-10.557,3.733-6.414.824-10.464-2.147-12.111-7.751a11.437,11.437,0,0,1,6.342-13.574c3.077-1.44,6.561-2.07,9.913-2.844a34.6,34.6,0,0,1,5.26-.433c.509-8.632-5.278-10.811-17.168-6.768-2.6-3.057-1.719-5.2,1.954-6.035a41.89,41.89,0,0,1,9.834-1.228c8.258.123,13.121,5.193,13.28,13.447.078,4.081.017,8.164.018,12.246Zm-6.423-14.653c-1.042-1.427-2.161-4.112-3.11-4.053a25.832,25.832,0,0,0-9.487,2.292c-3.637,1.76-3.631,5.543-2.358,8.72,1.326,3.307,4.524,3.709,7.71,2.855C750.788,156.907,752.848,153.828,753.772,148.236Z" style="fill:#fff"/><path d="M966.244,131.526l-4.6-.644-.223-4.776,5.183-.7c-.221-4.81.518-9.2,7.447-8.269.134,2.436.285,5.175.461,8.358l8.667.416V130.9l-8.777.615c0,7.159-.261,14.061.086,20.933.258,5.107,4.5,5.234,8.359,5.174,1.263,4.136.342,6.121-4.2,6.139-7.718.031-11.531-3.266-11.73-11.006-.171-6.634-.113-13.273-.175-19.91A5.962,5.962,0,0,0,966.244,131.526Z" style="fill:#fff"/><path d="M669.992,108.705v53.964H662.58V108.705Z" style="fill:#fff"/></svg>