<?xml version="1.0" encoding="UTF-8"?>
<svg id="Layer_1" data-name="Layer 1" xmlns="http://www.w3.org/2000/svg" viewBox="0 0 142 47">
  <defs>
    <style>
      .cls-1 {
        fill: #eb1d43;
      }
    </style>
  </defs>
  <path class="cls-1" d="m31.23,13.62c-5.35,0-9.71,4.36-9.71,9.71s4.36,9.71,9.71,9.71,9.71-4.36,9.71-9.71-4.36-9.71-9.71-9.71Zm0,14.56c-2.68,0-4.85-2.18-4.85-4.85s2.18-4.86,4.85-4.86,4.85,2.18,4.85,4.86-2.18,4.85-4.85,4.85Z"/>
  <path class="cls-1" d="m53.07,13.62c-2.59,0-5.03,1.01-6.87,2.84-1.83,1.83-2.84,4.27-2.84,6.87,0,.02,0,.04,0,.06,0,.01,0,.02,0,.03v18.44c0,1.34,1.09,2.43,2.43,2.43s2.43-1.09,2.43-2.43v-10.13c1.46.85,3.13,1.3,4.85,1.3,5.35,0,9.71-4.36,9.71-9.71s-4.36-9.71-9.71-9.71Zm0,14.56c-1.21,0-2.36-.44-3.25-1.25-1.02-.92-1.6-2.23-1.6-3.6,0-1.3.5-2.52,1.42-3.43.92-.92,2.14-1.42,3.43-1.42,2.68,0,4.85,2.18,4.85,4.86s-2.18,4.85-4.85,4.85Z"/>
  <path class="cls-1" d="m87.65,13.62c-1.34,0-2.43,1.09-2.43,2.43v14.57c0,1.34,1.09,2.43,2.43,2.43s2.43-1.09,2.43-2.43v-14.57c0-1.34-1.09-2.43-2.43-2.43Z"/>
  <path class="cls-1" d="m89.9,4.2c-.06-.15-.14-.29-.22-.42-.09-.13-.19-.26-.3-.37-.11-.11-.24-.22-.37-.3-.13-.09-.27-.16-.42-.22-.15-.06-.3-.11-.46-.14-.79-.16-1.63.1-2.19.66-.12.11-.22.24-.3.37-.09.13-.16.27-.22.42-.06.14-.11.3-.14.45-.03.16-.05.32-.05.48s.02.31.05.47c.03.16.08.31.14.45.06.15.13.29.22.42.08.13.19.25.3.37.45.45,1.08.71,1.72.71.16,0,.31-.01.47-.04.16-.04.31-.08.46-.14.15-.06.28-.14.42-.22.13-.09.25-.19.37-.3.45-.45.71-1.08.71-1.72,0-.16-.02-.32-.05-.48-.03-.15-.08-.31-.14-.45Z"/>
  <path class="cls-1" d="m81.48,13.91c-1.2-.6-2.66-.12-3.26,1.08l-5.13,10.22-5.16-10.22c-.6-1.2-2.06-1.68-3.26-1.07-1.2.6-1.68,2.06-1.07,3.26l7.33,14.53s.01.02.02.03c.05.09.1.18.16.27h0c.06.08.12.16.19.24.02.02.04.04.05.06.06.06.12.12.19.18.01.01.02.02.04.03.08.06.16.12.24.17.02.01.05.03.07.04.04.02.08.05.12.07.02.01.05.02.07.03.04.02.07.03.11.05.06.03.13.05.19.07.03.01.07.02.1.03.07.02.15.03.22.05.03,0,.05.01.08.01.1.01.21.02.31.02,0,0,0,0,0,0s0,0,0,0c.1,0,.21,0,.31-.02.03,0,.05,0,.08-.01.07-.01.15-.03.22-.05.03,0,.07-.02.1-.03.06-.02.13-.04.19-.07.04-.02.08-.03.11-.05.02-.01.05-.02.08-.03.04-.02.08-.04.11-.07.02-.01.05-.03.07-.04.09-.05.17-.11.24-.17.01,0,.02-.02.03-.03.07-.06.13-.12.19-.18.02-.02.03-.04.05-.06.07-.08.13-.15.19-.24,0,0,0,0,0,0,.06-.09.11-.18.16-.27,0-.01.01-.02.02-.03l7.3-14.53c.6-1.2.12-2.66-1.08-3.26Z"/>
  <path class="cls-1" d="m138.57,13.88c-1.2-.6-2.66-.12-3.26,1.07l-5.16,10.24-3.29-6.53s-.02-.03-.02-.04c-.02-.04-.05-.08-.07-.13-.02-.03-.03-.06-.05-.08-.03-.04-.05-.08-.08-.12-.02-.03-.04-.05-.06-.08-.03-.04-.06-.07-.09-.1-.02-.03-.05-.05-.07-.08-.03-.03-.06-.06-.09-.09-.03-.02-.06-.05-.08-.07-.03-.03-.06-.05-.1-.07-.03-.02-.06-.05-.1-.07-.03-.02-.07-.04-.1-.06-.04-.02-.07-.04-.11-.06-.02,0-.03-.02-.05-.03-.02,0-.04-.02-.06-.03-.04-.02-.07-.03-.11-.05-.04-.02-.08-.03-.12-.05-.03-.01-.06-.02-.1-.03-.04-.01-.09-.03-.14-.04-.03,0-.06-.01-.09-.02-.05,0-.09-.02-.14-.02-.03,0-.07,0-.1-.01-.04,0-.09,0-.13-.01-.04,0-.08,0-.11,0-.04,0-.08,0-.11,0-.04,0-.09,0-.13.01-.03,0-.07,0-.1.01-.05,0-.09.02-.14.02-.03,0-.06.01-.09.02-.05.01-.09.02-.14.04-.03,0-.06.02-.09.03-.04.01-.08.03-.12.05-.03.01-.07.03-.1.05-.02,0-.04.02-.06.03-.02,0-.03.02-.05.03-.04.02-.07.04-.1.06-.04.02-.07.04-.1.06-.03.02-.06.04-.09.07-.03.03-.07.05-.1.08-.03.02-.05.05-.08.07-.03.03-.07.06-.1.09-.02.02-.05.05-.07.07-.03.03-.06.07-.09.1-.02.03-.04.05-.06.08-.03.04-.06.08-.08.12-.02.03-.03.05-.05.08-.03.04-.05.08-.07.13,0,.01-.02.03-.02.04l-3.29,6.53-5.16-10.24c-.41-.82-1.25-1.33-2.17-1.33h-16.34c-1.34,0-2.43,1.09-2.43,2.43v14.56c0,1.34,1.09,2.43,2.43,2.43h14.57c1.34,0,2.43-1.09,2.43-2.43s-1.09-2.43-2.43-2.43h-12.14v-2.43h7.37c1.34,0,2.43-1.09,2.43-2.43s-1.09-2.43-2.43-2.43h-7.37v-2.43h12.42l6.55,12.99c.05.15.12.29.21.42.44.72,1.24,1.15,2.08,1.15s1.63-.44,2.07-1.15c.1-.16.18-.33.24-.51l3.14-6.23,3.14,6.23c.19.59.61,1.1,1.21,1.4.35.18.72.26,1.09.26,0,0,.01,0,.02,0,0,0,.01,0,.02,0,.37,0,.74-.08,1.09-.26.6-.3,1.02-.82,1.21-1.4l7.18-14.24c.6-1.2.12-2.66-1.07-3.26Z"/>
  <path class="cls-1" d="m18.98,13.62H4.52c-1.34,0-2.43,1.09-2.43,2.43s1.09,2.43,2.43,2.43h4.85v12.14c0,1.34,1.09,2.43,2.43,2.43s2.43-1.09,2.43-2.43v-12.14h4.74c1.34,0,2.43-1.09,2.43-2.43s-1.09-2.43-2.43-2.43Z"/>
</svg>