<svg id="Layer_1" data-name="Layer 1" xmlns="http://www.w3.org/2000/svg" viewBox="0 0 1253.015 405.654"><title>GoogleLogosvg</title><path d="M68.968,378.713c-4.636,0-10.714-.327-16.659-2.864-15.592-6.652-24.467-18.442-26.377-35.043a56.855,56.855,0,0,1-.291-6.48q-.018-128.249-.012-256.495V68.67a42.05,42.05,0,0,1,35.3-41.18c1.518-.239,2.987-.33,4.408-.419.4-.025.805-.049,1.207-.078.679-.049,1.312-.039,1.871-.03l.585.006h104.07q505.476,0,1010.954-.028a45.461,45.461,0,0,1,16.3,2.715,42.214,42.214,0,0,1,26.988,37.7c.03.929.048,1.858.048,2.788v62.319q0,101.787.024,203.575c0,8.665-2.023,16.053-6.195,22.585-8.245,12.907-20.07,19.651-35.144,20.048-.943.024-1.889.02-2.837.014l-1.131,0H556.7q-243.856,0-487.717.029ZM67.7,34.955c-.2,0-.391,0-.586.018-.426.03-.851.056-1.278.083-1.294.08-2.516.156-3.661.337A33.988,33.988,0,0,0,33.629,68.67v9.161q0,128.247.012,256.493a50.017,50.017,0,0,0,.238,5.568c1.58,13.726,8.635,23.082,21.569,28.6,3.6,1.536,7.773,2.222,13.524,2.222h.014q243.859-.046,487.718-.029l626.554,0c.856,0,1.719.01,2.578-.013,12.431-.326,21.79-5.676,28.612-16.357a32.885,32.885,0,0,0,4.938-18.274q-.039-101.79-.024-203.579V70.147q0-1.262-.044-2.523a34.133,34.133,0,0,0-21.82-30.485,37.134,37.134,0,0,0-13.475-2.2q-505.479.042-1010.954.028H69c-.236,0-.472,0-.708-.007C68.093,34.959,67.894,34.955,67.7,34.955Z" style="fill:#fff"/><path d="M137.205,307.367c-.906-3.864-2.49-7.487-2.5-11.113q-.21-95.6.041-191.2c.011-3.72,1.745-7.435,2.779-11.563L244.415,200.42Z" style="fill:#fff"/><path d="M149.6,308.835l101.566-101.38,29.081,29.1L149.981,309.7Z" style="fill:#fff"/><path d="M150.1,91.659l130.094,72.99-29.1,28.851L149.852,92.371Z" style="fill:#fff"/><path d="M256.141,200.849c10.434-10.349,19.884-19.878,29.59-29.138a5.957,5.957,0,0,1,5.46-.728c11.819,6.334,23.572,12.809,35.127,19.612,10.186,6,10.047,14.2-.245,20.185-11.433,6.653-23,13.087-34.624,19.394-1.366.741-4.209.844-5.153-.046C276.281,220.692,266.511,211,256.141,200.849Z" style="fill:#fff"/><path d="M500.444,251.832H464.751c-.031-5.06-.038-9.915.016-14.74,1.738-.452,48.564-.6,52.043-.165.191,1.248.5,2.559.579,3.884.8,13.031-1.576,25.291-9.565,35.914-7.964,10.591-18.347,17.443-31.668,19.558-29.986,4.761-54.039-12.428-62.767-34.706-7.8-19.918-4.388-38.379,9.151-54.828a54.458,54.458,0,0,1,34.393-19.621c15.31-2.435,29.347.986,41.728,10.535,1.539,1.188,3.007,2.467,4.395,3.611l-10.841,10.818c-1.8-1.284-3.693-2.77-5.713-4.062-24.3-15.551-55.711-1.96-60.493,26.5-2.606,15.512,1.877,29.039,14.374,39.186,8.378,6.8,18.24,9.008,28.87,8.045a36.1,36.1,0,0,0,21.808-9.39c5.826-5.359,8.725-12.152,9.584-19.913C500.66,252.327,500.559,252.181,500.444,251.832Z" style="fill:#fff"/><path d="M682.084,307.024l13-5.7c.24.5.4.826.549,1.152a19.025,19.025,0,0,0,21.153,11.045c8.207-1.467,13.6-6.974,14.853-15.464a85.565,85.565,0,0,0,.48-8.564c.022-.491-.06-.987-.112-1.763a7.168,7.168,0,0,0-1.292.793c-7.1,7.334-15.8,9-25.376,6.823-14.688-3.346-25.058-15.665-26.718-30.59a36.7,36.7,0,0,1,22.5-37.4c10.433-4.187,20.215-3.045,29.019,4.277.405.337.81.677,1.228,1a3.427,3.427,0,0,0,.707.243c.02-.934.044-1.789.054-2.644.009-.812,0-1.624,0-2.578H747.06c.04.837.1,1.571.105,2.3q.007,30.422.011,60.844a49.117,49.117,0,0,1-2.356,16.251c-4.25,12.293-13.075,18.945-25.8,20.673a34.624,34.624,0,0,1-22.094-3.847,35.35,35.35,0,0,1-14.573-15.633,3.817,3.817,0,0,1-.264-.623A2.67,2.67,0,0,1,682.084,307.024Zm11.482-46.08a21.974,21.974,0,0,0,3.341,12.278c4.131,6.48,10.064,9.986,17.8,9.533,7.807-.457,13.184-4.767,16.233-11.859a24.409,24.409,0,0,0-.31-20.4c-5.031-11.087-17.962-14.685-27.925-7.77C696.417,247.088,693.66,253.4,693.566,260.944Z" style="fill:#fff"/><path d="M671.73,261.983c.216,18.114-12.491,32.874-30.567,35.509-15.821,2.305-30.729-5.287-37.722-19.431-8.626-17.451-2.6-40.707,17.332-49.115,12.336-5.2,24.528-4.281,35.824,3.069,9.343,6.079,13.879,15.181,14.935,26.13C671.655,259.419,671.667,260.7,671.73,261.983Zm-15.894-2.048a49.536,49.536,0,0,0-1.145-6.339,19.575,19.575,0,0,0-33.205-8.1c-7.81,8.2-7.863,22.678-.112,30.951a19.139,19.139,0,0,0,27.847.78C653.757,272.861,655.708,267.379,655.836,259.935Z" style="fill:#fff"/><path d="M593.894,262.014c-.673,15-7.028,26.469-21,32.68-21.347,9.491-46.162-2.407-50.5-26.075-2.372-12.952,1.039-24.384,10.8-33.531a33.893,33.893,0,0,1,20.524-9.019c9.965-.93,19.187,1.192,27.165,7.536,7,5.563,10.921,12.921,12.326,21.667C593.577,257.5,593.675,259.762,593.894,262.014Zm-15.959-1.874a47.161,47.161,0,0,0-1.085-6.177c-2.181-7.438-6.914-12.441-14.623-14.159-7.57-1.688-14.04.525-19.17,6.261-7.217,8.069-7.226,21.519-.182,29.757a19.175,19.175,0,0,0,28.29,1.5C575.8,272.927,577.74,267.373,577.935,260.14Z" style="fill:#fff"/><path d="M846.185,282.034a54.761,54.761,0,0,1-3.592,4.558c-10.062,10.311-22.235,13.728-35.99,9.8-13.174-3.762-21.1-13-24.119-26.26a38,38,0,0,1,3.615-27.2,32.66,32.66,0,0,1,38.25-15.723A29.351,29.351,0,0,1,838.5,236.92a48.519,48.519,0,0,1,8.263,15.794l-47.329,19.918c4.826,12.988,25.317,16.011,35.011,1.027ZM796.6,260.191,828.636,246.7a32.19,32.19,0,0,0-2.438-3.082,15.413,15.413,0,0,0-8.837-4.171,15.86,15.86,0,0,0-11.9,3.24C799.717,246.851,796.874,252.554,796.6,260.191Z" style="fill:#fff"/><path d="M773.049,294.441H757.607c-.485-1.707-.589-101.9-.1-104.523h15.27a1.505,1.505,0,0,1,.133.117.483.483,0,0,1,.138.176,2.723,2.723,0,0,1,.131.658q.015,51.094.014,102.19C773.189,293.426,773.117,293.794,773.049,294.441Z" style="fill:#fff"/><path d="M880.641,189.887c.807-.046,1.47-.116,2.132-.117,11.609-.006,23.219-.024,34.829,0a36.085,36.085,0,0,1,17.421,4.115c12.009,6.525,18.074,16.77,17.39,30.355-.688,13.665-8.116,22.96-20.622,28.254a37.216,37.216,0,0,1-14.575,2.676c-6.031.018-12.062,0-18.093,0h-2.655v39.345c-5.367.059-10.516.023-15.827.019ZM896.523,239.9a8.073,8.073,0,0,0,1.036.152c7.305,0,14.61.025,21.914-.034a16.407,16.407,0,0,0,13.933-7.539c4.991-7.246,5.157-13.438,1.323-19.618-3.455-5.57-8.492-8.681-15.126-8.771-7.379-.1-14.76-.035-22.141-.033a6.056,6.056,0,0,0-.939.162Z" style="fill:#fff"/><path d="M1048.942,294.449h-15.008c-.074-2.749-.147-5.463-.22-8.178l-.5-.195c-.543.568-1.1,1.118-1.624,1.7-2.9,3.269-6.215,6.047-10.49,7.191-10.626,2.845-20.243.923-28.14-7-8.393-8.423-9.338-24.844,4.191-33.135,10.829-6.636,22.233-7.375,33.963-2.4.528.224,1.066.426,1.833.732a12.963,12.963,0,0,0-5.058-9.922c-6.12-4.656-12.849-5.149-19.86-2.318-2.673,1.08-4.449,3.288-6.107,5.812l-14.242-5.872c.814-1.518,1.446-2.945,2.293-4.23a23.8,23.8,0,0,1,12.2-9.3,37.04,37.04,0,0,1,28.832.987c10.034,4.577,15.667,12.637,17.5,23.412a34.474,34.474,0,0,1,.419,5.618c.037,11.461.018,22.922.018,34.384ZM1031.933,266.2a2.753,2.753,0,0,0-.5-.391,31.243,31.243,0,0,0-18.276-2.741,16.59,16.59,0,0,0-8.877,3.615,8.44,8.44,0,0,0-2.87,8.749c.829,3.559,3.5,5.351,6.69,6.427C1020.682,286.106,1031.172,275.26,1031.933,266.2Z" style="fill:#fff"/><path d="M1075.765,326.3h-15.852c.373-.894.662-1.637.99-2.362,4.656-10.3,9.292-20.6,14.006-30.871a4.182,4.182,0,0,0,.017-3.8q-12.882-29.514-25.663-59.073c-.325-.749-.614-1.513-1-2.483a18.692,18.692,0,0,1,1.865-.205q6.106-.024,12.214-.008c2.949,0,2.453-.111,3.423,2.261q8.335,20.4,16.646,40.8c.3.74.647,1.462.972,2.192l.536.038c.328-.7.7-1.376.977-2.092q7.427-19.055,14.834-38.115c.627-1.611,1.272-3.215,1.955-4.94h16.727Z" style="fill:#fff"/><path d="M976.713,294.44H961.272c-.487-1.7-.593-101.875-.107-104.521h15.272a1.689,1.689,0,0,1,.131.114.486.486,0,0,1,.138.177,2.661,2.661,0,0,1,.132.657q.015,51.095.014,102.19C976.852,293.425,976.78,293.793,976.713,294.44Z" style="fill:#fff"/><path d="M737.853,152.94c-2.435,0-4.753.038-7.067-.034a2.24,2.24,0,0,1-1.261-.74,7.136,7.136,0,0,1-.871-1.314q-10.692-16.91-21.384-33.817c-.468-.74-.971-1.458-1.713-2.569a54.95,54.95,0,0,0-.236,7.98c-.048,2.487-.011,4.975-.011,7.463v22.909h-7.172c-.471-1.624-.593-48.88-.123-51.735a5.17,5.17,0,0,1,.815-.126c2.558-.011,5.116-.006,7.769-.006l11.282,18.3,11.131,18.045a1.8,1.8,0,0,0,.322-.1c.055-.033.127-.1.127-.149.006-11.9,0-23.8,0-35.973,2.86-.259,5.53-.056,8.157-.122C738.1,102.753,738.3,147.549,737.853,152.94Z" style="fill:#fff"/><path d="M636.61,126.92c-.393-14.181,11.454-26.879,26.768-26.88a26.872,26.872,0,0,1,0,53.744C647.825,153.787,636.215,141.04,636.61,126.92Zm26.634-19.539c-5.977.358-9.337,2.052-13.577,6.841-6.44,7.272-8.025,22.778,5.605,29.8a17.776,17.776,0,0,0,7.525,2.161c6,.226,10.689-2.148,14.518-6.793,6.809-8.258,7.315-24.393-7.791-30.4A48.83,48.83,0,0,0,663.244,107.381Z" style="fill:#fff"/><path d="M455.347,132.723H437.228v-8.142h25.49c1.661,13.81-3.536,22.691-14.461,27.151-13.392,5.467-28.665.068-34.783-13.655-6.26-14.043-.254-30.8,15.4-36.49,8.827-3.208,17.082-1.451,24.478,4.247a32.756,32.756,0,0,1,3.31,3.4l-5.691,5.556a6.681,6.681,0,0,0-.627-1.123,12.982,12.982,0,0,0-8.219-4.753c-4.49-.72-9-.744-12.93,1.766-5.651,3.611-9.547,8.543-9.655,15.641a34.692,34.692,0,0,0,.457,6.293,14.1,14.1,0,0,0,5.294,8.94c3.218,2.539,6.58,4.864,10.8,5.313,7.3.776,13.145-1.84,17.378-7.856A10.137,10.137,0,0,0,455.347,132.723Z" style="fill:#fff"/><path d="M501.479,152.821h-30.74V101.087h30.813c.186,2.332.085,4.695.054,7.39-3.792.133-7.452.047-11.107.062-3.69.015-7.379,0-11.024,0-.557,1.693-.719,9.3-.307,14.093,2.174.135,4.407.042,6.631.059,2.338.017,4.676,0,7.014,0h7.073c.156,2.466.064,4.841.057,7.513-2.294.226-4.531.079-6.756.1-2.338.027-4.676.006-7.014.006H479.1c-.156,4.689-.055,9.245-.061,14.1,2.538.172,5,.065,7.454.084,2.489.02,4.978,0,7.466,0h7.524Z" style="fill:#fff"/><path d="M543.415,101.084v7.386H529.356v44.339h-8.427c-.117-4.869-.038-9.736-.052-14.6-.014-4.9,0-9.8,0-14.7V108.586H506.851v-7.5Z" style="fill:#fff"/><path d="M594.649,108.53H580.574v-7.47h35.673v7.4H602.285v44.331h-7.636Z" style="fill:#fff"/><path d="M566.272,101.054h8.168v51.724h-8.168Z" style="fill:#fff"/></svg>