<svg xmlns="http://www.w3.org/2000/svg" width="33.555" height="71.53" viewBox="0 0 33.555 71.53"><defs><style>.a{fill:#9cd9f2;opacity:0.8;}.b{fill:#13a1f9;}.c{fill:#1766c1;}.d{fill:#055aa0;}.e{fill:#2885cf;}</style></defs><g transform="translate(54.221 -320.435)"><g transform="translate(-54.2 360.739)"><path class="a" d="M-50.319,365.469l-3.883,2.309v.347l1.089.635,2.793-1.661Z" transform="translate(54.202 -355.903)"/><path class="a" d="M-50.319,363.741-54.2,366.05v.347l1.089.635,2.793-1.661Z" transform="translate(54.202 -356.088)"/><path class="a" d="M-50.319,362.013l-3.883,2.309v.347l1.089.634,2.793-1.661Z" transform="translate(54.202 -356.274)"/><path class="a" d="M-50.319,360.277l-3.883,2.309v.347l1.089.635,2.793-1.661Z" transform="translate(54.202 -356.46)"/><path class="a" d="M-50.319,358.549l-3.883,2.309v.347l1.089.635,2.793-1.661Z" transform="translate(54.202 -356.646)"/><path class="a" d="M-50.319,356.83l-3.883,2.309v.347l1.089.635,2.793-1.661Z" transform="translate(54.202 -356.83)"/></g><g transform="translate(-54.2 351.145)"><path class="a" d="M-50.319,355.077l-3.883,2.309v.347l1.089.634,2.793-1.661Z" transform="translate(54.202 -347.424)"/><path class="a" d="M-50.319,353.349l-3.883,2.309V356l1.089.635,2.793-1.661Z" transform="translate(54.202 -347.609)"/><path class="a" d="M-50.319,351.613l-3.883,2.309v.347l1.089.635,2.793-1.661Z" transform="translate(54.202 -347.796)"/><path class="a" d="M-50.319,349.885l-3.883,2.309v.347l1.089.635,2.793-1.661Z" transform="translate(54.202 -347.982)"/><path class="a" d="M-50.319,348.166l-3.883,2.309v.347l1.089.634,2.793-1.661Z" transform="translate(54.202 -348.166)"/></g><g transform="translate(-54.2 341.55)"><path class="a" d="M-50.319,346.413l-3.883,2.309v.347l1.089.634,2.793-1.661Z" transform="translate(54.202 -338.76)"/><path class="a" d="M-50.319,344.685l-3.883,2.309v.347l1.089.635,2.793-1.661Z" transform="translate(54.202 -338.945)"/><path class="a" d="M-50.319,342.949l-3.883,2.309v.347l1.089.635,2.793-1.661Z" transform="translate(54.202 -339.132)"/><path class="a" d="M-50.319,341.221-54.2,343.53v.347l1.089.635,2.793-1.661Z" transform="translate(54.202 -339.317)"/><path class="a" d="M-50.319,339.5l-3.883,2.309v.347l1.089.635,2.793-1.661Z" transform="translate(54.202 -339.502)"/></g><g transform="translate(-54.2 333.897)"><path class="a" d="M-50.319,339.5l-3.883,2.309v.347l1.089.635,2.793-1.661Z" transform="translate(54.202 -331.849)"/><path class="a" d="M-50.319,337.774l-3.883,2.309v.347l1.089.635,2.793-1.661Z" transform="translate(54.202 -332.035)"/><path class="a" d="M-50.319,336.038l-3.883,2.309v.347l1.089.635,2.793-1.661Z" transform="translate(54.202 -332.221)"/><path class="a" d="M-50.319,334.31l-3.883,2.309v.347l1.089.635,2.793-1.661Z" transform="translate(54.202 -332.407)"/><path class="a" d="M-50.319,332.591-54.2,334.9v.347l1.089.635,2.793-1.661Z" transform="translate(54.202 -332.591)"/></g><g transform="translate(-54.2 328.148)"><path class="a" d="M-50.319,332.591-54.2,334.9v.347l1.089.635,2.793-1.661Z" transform="translate(54.202 -326.842)"/><path class="a" d="M-50.319,330.864l-3.883,2.309v.347l1.089.634,2.793-1.661Z" transform="translate(54.202 -327.028)"/><path class="a" d="M-50.319,329.127l-3.883,2.309v.347l1.089.635,2.793-1.661Z" transform="translate(54.202 -327.214)"/><path class="a" d="M-50.319,327.4l-3.883,2.309v.347l1.089.635,2.793-1.661Z" transform="translate(54.202 -327.4)"/></g><g transform="translate(-24.549 373.443)"><path class="a" d="M-27.427,376.94l3.883,2.309v.347l-1.089.635-2.793-1.661Z" transform="translate(27.427 -367.374)"/><path class="a" d="M-27.427,375.213l3.883,2.309v.347l-1.089.635-2.793-1.661Z" transform="translate(27.427 -367.56)"/><path class="a" d="M-27.427,373.485l3.883,2.309v.347l-1.089.634-2.793-1.661Z" transform="translate(27.427 -367.745)"/><path class="a" d="M-27.427,371.749l3.883,2.309v.347l-1.089.635-2.793-1.661Z" transform="translate(27.427 -367.932)"/><path class="a" d="M-27.427,370.021l3.883,2.309v.347l-1.089.635-2.793-1.661Z" transform="translate(27.427 -368.117)"/><path class="a" d="M-27.427,368.3l3.883,2.309v.347l-1.089.635-2.793-1.661Z" transform="translate(27.427 -368.302)"/></g><g transform="translate(-24.549 363.848)"><path class="a" d="M-27.427,366.548l3.883,2.309v.347l-1.089.635-2.793-1.661Z" transform="translate(27.427 -358.895)"/><path class="a" d="M-27.427,364.821l3.883,2.309v.347l-1.089.634-2.793-1.661Z" transform="translate(27.427 -359.081)"/><path class="a" d="M-27.427,363.084l3.883,2.309v.347l-1.089.635-2.793-1.661Z" transform="translate(27.427 -359.267)"/><path class="a" d="M-27.427,361.357l3.883,2.309v.347l-1.089.635-2.793-1.661Z" transform="translate(27.427 -359.453)"/><path class="a" d="M-27.427,359.638l3.883,2.309v.347l-1.089.635-2.793-1.661Z" transform="translate(27.427 -359.638)"/></g><g transform="translate(-24.549 354.253)"><path class="a" d="M-27.427,357.884l3.883,2.309v.347l-1.089.635-2.793-1.661Z" transform="translate(27.427 -350.231)"/><path class="a" d="M-27.427,356.157l3.883,2.309v.347l-1.089.634-2.793-1.661Z" transform="translate(27.427 -350.417)"/><path class="a" d="M-27.427,354.42l3.883,2.309v.347l-1.089.635-2.793-1.661Z" transform="translate(27.427 -350.603)"/><path class="a" d="M-27.427,352.693-23.544,355v.347l-1.089.635-2.793-1.661Z" transform="translate(27.427 -350.789)"/><path class="a" d="M-27.427,350.973l3.883,2.309v.347l-1.089.635-2.793-1.661Z" transform="translate(27.427 -350.973)"/></g><g transform="translate(-24.549 346.601)"><path class="a" d="M-27.427,350.973l3.883,2.309v.347l-1.089.635-2.793-1.661Z" transform="translate(27.427 -343.321)"/><path class="a" d="M-27.427,349.246l3.883,2.309v.347l-1.089.634-2.793-1.661Z" transform="translate(27.427 -343.506)"/><path class="a" d="M-27.427,347.51l3.883,2.309v.347l-1.089.635-2.793-1.661Z" transform="translate(27.427 -343.693)"/><path class="a" d="M-27.427,345.782l3.883,2.309v.347l-1.089.634-2.793-1.661Z" transform="translate(27.427 -343.878)"/><path class="a" d="M-27.427,344.063l3.883,2.309v.347l-1.089.635-2.793-1.661Z" transform="translate(27.427 -344.063)"/></g><g transform="translate(-24.549 340.851)"><path class="a" d="M-27.427,344.063l3.883,2.309v.347l-1.089.635-2.793-1.661Z" transform="translate(27.427 -338.314)"/><path class="a" d="M-27.427,342.335l3.883,2.309v.347l-1.089.635-2.793-1.661Z" transform="translate(27.427 -338.499)"/><path class="a" d="M-27.427,340.6l3.883,2.309v.347l-1.089.635-2.793-1.661Z" transform="translate(27.427 -338.686)"/><path class="a" d="M-27.427,338.871l3.883,2.309v.347l-1.089.634-2.793-1.661Z" transform="translate(27.427 -338.871)"/></g><path class="a" d="M-20.675,387.418v-1.231l-1.427-.99V340.5l-30.983-12.727-.026,45.037-1.09.652-.021,1.333L-27,391.177Z" transform="translate(0 0.788)"/><path class="b" d="M-27,385.215l.022-.66L-54.2,368.17l-.022.66Z" transform="translate(0 5.127)"/><path class="b" d="M-27,383.487l.022-.661L-54.2,366.442l-.022.66Z" transform="translate(0 4.941)"/><path class="b" d="M-27,381.759l.022-.66L-54.2,364.715l-.022.66Z" transform="translate(0 4.756)"/><path class="b" d="M-29.644,380.535l6.33-3.76v-.656l-6.33,3.758Z" transform="translate(2.64 5.981)"/><path class="b" d="M-27,380.032l.022-.66L-54.2,362.987l-.022.66Z" transform="translate(0 4.57)"/><path class="b" d="M-29.644,378.807l6.33-3.76v-.657l-6.33,3.759Z" transform="translate(2.64 5.795)"/><path class="b" d="M-27,378.3l.022-.66L-54.2,361.26l-.022.66Z" transform="translate(0 4.385)"/><path class="b" d="M-29.644,377.08l6.33-3.759v-.657l-6.33,3.759Z" transform="translate(2.64 5.61)"/><path class="b" d="M-27,376.577l.022-.66L-54.2,359.532l-.022.661Z" transform="translate(0 4.199)"/><path class="b" d="M-29.644,375.352l6.33-3.76v-.656l-6.33,3.758Z" transform="translate(2.64 5.424)"/><path class="b" d="M-27,374.849l.022-.66L-54.2,357.8l-.022.66Z" transform="translate(0 4.014)"/><path class="b" d="M-29.644,373.624l6.33-3.76v-.657l-6.33,3.759Z" transform="translate(2.64 5.238)"/><path class="b" d="M-27,371.394l.022-.661L-54.2,354.349l-.022.66Z" transform="translate(0 3.643)"/><path class="b" d="M-29.644,370.17l6.33-3.76v-.656l-6.33,3.759Z" transform="translate(2.64 4.867)"/><path class="b" d="M-27,373.122l.022-.661L-54.2,356.077l-.022.66Z" transform="translate(0 3.828)"/><path class="b" d="M-29.644,371.9l6.33-3.76v-.656l-6.33,3.759Z" transform="translate(2.64 5.053)"/><path class="b" d="M-27,369.667l.022-.66L-54.2,352.622l-.022.66Z" transform="translate(0 3.457)"/><path class="b" d="M-29.644,368.442l6.33-3.76v-.656l-6.33,3.758Z" transform="translate(2.64 4.682)"/><path class="b" d="M-27,362.756l.022-.66L-54.2,345.712l-.022.66Z" transform="translate(0 2.715)"/><path class="b" d="M-29.644,361.532l6.33-3.76v-.657l-6.33,3.759Z" transform="translate(2.64 3.94)"/><path class="b" d="M-27,361.029l.022-.661L-54.2,343.984l-.022.66Z" transform="translate(0 2.529)"/><path class="b" d="M-29.644,359.8l6.33-3.76v-.656l-6.33,3.759Z" transform="translate(2.64 3.754)"/><path class="b" d="M-27,359.3l.022-.66L-54.2,342.257l-.022.66Z" transform="translate(0 2.344)"/><path class="b" d="M-29.644,358.076l6.33-3.76v-.656l-6.33,3.758Z" transform="translate(2.64 3.569)"/><path class="b" d="M-27,357.574l.022-.66L-54.2,340.529l-.022.66Z" transform="translate(0 2.158)"/><path class="b" d="M-29.644,356.349l6.33-3.76v-.657l-6.33,3.759Z" transform="translate(2.64 3.383)"/><path class="b" d="M-27,355.846l.022-.66L-54.2,338.8l-.022.66Z" transform="translate(0 1.973)"/><path class="b" d="M-29.644,354.621l6.33-3.76v-.657l-6.33,3.759Z" transform="translate(2.64 3.197)"/><path class="b" d="M-27,354.119l.022-.66L-54.2,337.074l-.022.661Z" transform="translate(0 1.787)"/><path class="b" d="M-29.644,352.894l6.33-3.76v-.656l-6.33,3.758Z" transform="translate(2.64 3.012)"/><path class="b" d="M-27,352.391l.022-.66L-54.2,335.346l-.022.66Z" transform="translate(0 1.602)"/><path class="b" d="M-29.644,351.166l6.33-3.76v-.657l-6.33,3.759Z" transform="translate(2.64 2.826)"/><path class="b" d="M-27,350.664l.022-.661L-54.2,333.619l-.022.66Z" transform="translate(0 1.416)"/><path class="b" d="M-29.644,349.439l6.33-3.76v-.656l-6.33,3.759Z" transform="translate(2.64 2.641)"/><path class="b" d="M-27,348.936l.022-.66L-54.2,331.891l-.022.66Z" transform="translate(0 1.23)"/><path class="b" d="M-29.644,347.711l6.33-3.76V343.3l-6.33,3.758Z" transform="translate(2.64 2.455)"/><path class="b" d="M-27,347.209l.022-.66L-54.2,330.164l-.022.66Z" transform="translate(0 1.045)"/><path class="b" d="M-29.644,345.984l6.33-3.76v-.657l-6.33,3.759Z" transform="translate(2.64 2.27)"/><path class="b" d="M-27,345.455l.022-.66L-54.2,328.41l-.022.66Z" transform="translate(0 0.857)"/><path class="b" d="M-29.644,344.23l6.33-3.76v-.657l-6.33,3.759Z" transform="translate(2.64 2.081)"/><path class="b" d="M-27,367.837l.022-.66L-54.2,350.793l-.022.66Z" transform="translate(0 3.261)"/><path class="b" d="M-29.644,366.613l6.33-3.76V362.2l-6.33,3.759Z" transform="translate(2.64 4.485)"/><path class="b" d="M-27,391.6l.022-51.39L-54.2,323.826l-.022,51.39Z" transform="translate(0 0.364)"/><path class="a" d="M-29.644,390.376l6.33-3.759V335.23l-6.33,3.759Z" transform="translate(2.64 1.589)"/><path class="c" d="M-27,384.6l.022-.66L-54.2,367.551l-.022.66Z" transform="translate(0 5.06)"/><path class="c" d="M-27,378.96l.022-.661L-54.2,361.915l-.022.66Z" transform="translate(0 4.455)"/><path class="c" d="M-29.644,381.644l6.33-3.76v-.656l-6.33,3.759Z" transform="translate(2.64 6.1)"/><path class="c" d="M-27,373.324l.022-.66L-54.2,356.279l-.022.66Z" transform="translate(0 3.85)"/><path class="c" d="M-29.644,379.916l6.33-3.76V375.5l-6.33,3.758Z" transform="translate(2.64 5.914)"/><path class="c" d="M-27,367.688l.022-.66L-54.2,350.643l-.022.66Z" transform="translate(0 3.245)"/><path class="c" d="M-29.644,378.188l6.33-3.76v-.657l-6.33,3.759Z" transform="translate(2.64 5.729)"/><path class="c" d="M-27,362.052l.022-.66L-54.2,345.008l-.022.66Z" transform="translate(0 2.639)"/><path class="c" d="M-29.644,376.461l6.33-3.76v-.657l-6.33,3.759Z" transform="translate(2.64 5.543)"/><path class="c" d="M-27,356.417l.022-.66L-54.2,339.372l-.022.661Z" transform="translate(0 2.034)"/><path class="c" d="M-29.644,374.733l6.33-3.76v-.656l-6.33,3.758Z" transform="translate(2.64 5.358)"/><path class="c" d="M-27,350.781l.022-.66L-54.2,333.736l-.022.66Z" transform="translate(0 1.429)"/><path class="c" d="M-29.644,373.006l6.33-3.76v-.657l-6.33,3.759Z" transform="translate(2.64 5.172)"/><path class="c" d="M-29.644,369.551l6.33-3.76v-.656l-6.33,3.759Z" transform="translate(2.64 4.801)"/><path class="c" d="M-29.644,371.278l6.33-3.76v-.656l-6.33,3.759Z" transform="translate(2.64 4.986)"/><path class="c" d="M-29.644,367.823l6.33-3.76v-.656l-6.33,3.758Z" transform="translate(2.64 4.615)"/><path class="c" d="M-29.644,366.439l6.33-3.76v-4.2l-6.33,3.759Z" transform="translate(2.64 4.086)"/><path class="c" d="M-29.644,364.368l6.33-3.76v-.657l-6.33,3.759Z" transform="translate(2.64 4.244)"/><path class="c" d="M-29.644,362.64l6.33-3.76v-.656l-6.33,3.758Z" transform="translate(2.64 4.059)"/><path class="c" d="M-29.644,360.913l6.33-3.76V356.5l-6.33,3.759Z" transform="translate(2.64 3.873)"/><path class="c" d="M-29.644,359.185l6.33-3.76v-.656l-6.33,3.759Z" transform="translate(2.64 3.688)"/><path class="c" d="M-29.644,357.458l6.33-3.76v-.656l-6.33,3.758Z" transform="translate(2.64 3.502)"/><path class="c" d="M-29.644,355.73l6.33-3.76v-.657l-6.33,3.759Z" transform="translate(2.64 3.316)"/><path class="c" d="M-29.644,354l6.33-3.76v-.657l-6.33,3.759Z" transform="translate(2.64 3.131)"/><path class="c" d="M-29.644,352.275l6.33-3.76v-.656l-6.33,3.758Z" transform="translate(2.64 2.945)"/><path class="c" d="M-29.644,350.547l6.33-3.76v-.657l-6.33,3.759Z" transform="translate(2.64 2.76)"/><path class="c" d="M-29.644,348.82l6.33-3.76V344.4l-6.33,3.759Z" transform="translate(2.64 2.574)"/><path class="c" d="M-27,345.145l.022-.66L-54.2,328.1l-.022.66Z" transform="translate(0 0.823)"/><path class="c" d="M-29.644,347.092l6.33-3.76v-.656l-6.33,3.758Z" transform="translate(2.64 2.389)"/><path class="c" d="M-29.644,345.365l6.33-3.76v-.657l-6.33,3.759Z" transform="translate(2.64 2.203)"/><path class="d" d="M-29.644,390.379l6.33-3.76V335.2l-6.33,3.759Z" transform="translate(2.64 1.586)"/><path class="c" d="M-27,340.578l6.33-3.759-27.217-16.384-6.329,3.759Z"/><path class="b" d="M-27.224,340.317-52.172,325.28l4.06-2.411,24.949,15.036Z" transform="translate(0.22 0.261)"/><path class="e" d="M-34.913,331.073l-13.209-7.844-.206-.038-1.651.981-.206.283,13.209,7.844.206-.283,1.516-.9Z" transform="translate(0.433 0.296)"/><path class="b" d="M-34.913,331.073l-13.209-7.844-.206-.038-1.651.981-.206.283,13.209,7.844.206-.283,1.516-.9Z" transform="translate(0.433 0.296)"/><path class="e" d="M-50.186,324.332l13.209,7.844v1.445l-13.209-7.844Z" transform="translate(0.433 0.419)"/><path class="c" d="M-50.186,324.332l13.209,7.844v1.445l-13.209-7.844Z" transform="translate(0.433 0.419)"/><path class="d" d="M-36.4,330.274l-1.651.981-.206.283v1.445l2.064-1.226v-1.444Z" transform="translate(1.714 1.057)"/></g></svg>