<?xml version="1.0" encoding="utf-8"?>
<!-- Generator: Adobe Illustrator 27.6.1, SVG Export Plug-In . SVG Version: 6.00 Build 0)  -->
<svg version="1.1" id="Layer_1" xmlns="http://www.w3.org/2000/svg" xmlns:xlink="http://www.w3.org/1999/xlink" x="0px" y="0px"
	 viewBox="0 0 29.9 136.2" style="enable-background:new 0 0 29.9 136.2;" xml:space="preserve">
<style type="text/css">
	.st0{fill:#FFEBC0;}
	.st1{fill:#4D4D4D;}
	.st2{fill:#333333;}
	.st3{fill:#FECF93;}
	.st4{fill:#1A1A1A;}
	.st5{fill:#DEB476;}
	.st6{fill:#C9954C;}
	.st7{fill:#292929;}
	.st8{fill:url(#SVGID_1_);}
</style>
<rect x="14.1" class="st0" width="1.8" height="22"/>
<rect x="15.8" y="1.5" class="st1" width="0.9" height="20.5"/>
<rect x="16.7" y="1.5" class="st0" width="1.8" height="20.5"/>
<rect x="20.2" y="7.3" class="st2" width="0.9" height="20.5"/>
<rect x="19.3" y="7.3" class="st0" width="0.9" height="20.5"/>
<rect x="21.1" y="7.3" class="st0" width="1.8" height="20.5"/>
<rect x="18.5" y="7.3" class="st2" width="0.9" height="20.5"/>
<rect x="14.1" y="22" class="st3" width="1.8" height="20.5"/>
<rect x="15.8" y="22" class="st2" width="0.9" height="20.5"/>
<rect x="16.7" y="22" class="st3" width="1.8" height="20.5"/>
<rect x="20.2" y="27.8" class="st4" width="0.9" height="20.5"/>
<rect x="19.3" y="27.8" class="st3" width="0.9" height="20.5"/>
<rect x="21.1" y="27.8" class="st3" width="1.8" height="20.5"/>
<rect x="18.5" y="27.8" class="st4" width="0.9" height="20.5"/>
<rect x="23.7" y="13.2" class="st0" width="1.8" height="20.5"/>
<rect x="22.9" y="13.2" class="st2" width="0.9" height="20.5"/>
<rect x="23.7" y="33.7" class="st3" width="1.8" height="20.5"/>
<rect x="22.9" y="33.7" class="st4" width="0.9" height="20.5"/>
<rect x="14.1" y="42.5" class="st5" width="1.8" height="41"/>
<rect x="15.8" y="42.5" class="st4" width="0.9" height="41"/>
<rect x="16.7" y="42.5" class="st5" width="1.8" height="41"/>
<rect x="20.2" y="48.4" width="0.9" height="41"/>
<rect x="19.3" y="48.4" class="st5" width="0.9" height="41"/>
<rect x="21.1" y="48.4" class="st5" width="1.8" height="41"/>
<rect x="18.5" y="48.4" width="0.9" height="41"/>
<rect x="23.7" y="54.2" class="st5" width="1.8" height="41"/>
<rect x="22.9" y="54.2" width="0.9" height="41"/>
<rect x="14.1" y="83.5" class="st6" width="1.8" height="46.9"/>
<rect x="15.8" y="83.5" width="0.9" height="46.9"/>
<rect x="16.7" y="83.5" class="st6" width="1.8" height="46.9"/>
<rect x="20.2" y="89.3" class="st7" width="0.9" height="41"/>
<rect x="19.3" y="89.3" class="st6" width="0.9" height="41"/>
<rect x="21.1" y="89.3" class="st6" width="1.8" height="46.9"/>
<rect x="18.5" y="89.3" class="st7" width="0.9" height="41"/>
<rect x="23.7" y="95.2" class="st6" width="1.8" height="41"/>
<rect x="22.9" y="95.2" class="st7" width="0.9" height="41"/>
<rect x="25.5" y="115.7" class="st7" width="0.9" height="20.5"/>
<rect x="26.4" y="115.7" class="st5" width="0.9" height="20.5"/>
<rect x="28.1" y="118.6" class="st5" width="1.8" height="17.6"/>
<rect x="27.2" y="118.6" class="st7" width="0.9" height="17.6"/>
<rect x="13.2" y="1.5" class="st1" width="0.9" height="20.5"/>
<rect x="11.4" y="1.5" class="st0" width="1.8" height="20.5"/>
<rect x="8.8" y="7.3" class="st2" width="0.9" height="20.5"/>
<rect x="9.7" y="7.3" class="st0" width="0.9" height="20.5"/>
<rect x="7" y="7.3" class="st0" width="1.8" height="20.5"/>
<rect x="10.5" y="7.3" class="st2" width="0.9" height="20.5"/>
<rect x="13.2" y="22" class="st2" width="0.9" height="20.5"/>
<rect x="11.4" y="22" class="st3" width="1.8" height="20.5"/>
<rect x="8.8" y="27.8" class="st4" width="0.9" height="20.5"/>
<rect x="9.7" y="27.8" class="st3" width="0.9" height="20.5"/>
<rect x="7" y="27.8" class="st3" width="1.8" height="20.5"/>
<rect x="10.5" y="27.8" class="st4" width="0.9" height="20.5"/>
<rect x="4.4" y="13.2" class="st0" width="1.8" height="20.5"/>
<rect x="6.2" y="13.2" class="st2" width="0.9" height="20.5"/>
<rect x="4.4" y="33.7" class="st3" width="1.8" height="20.5"/>
<rect x="6.2" y="33.7" class="st4" width="0.9" height="20.5"/>
<rect x="13.2" y="42.5" class="st4" width="0.9" height="41"/>
<rect x="11.4" y="42.5" class="st5" width="1.8" height="41"/>
<rect x="8.8" y="48.4" width="0.9" height="41"/>
<rect x="9.7" y="48.4" class="st5" width="0.9" height="41"/>
<rect x="7" y="48.4" class="st5" width="1.8" height="41"/>
<rect x="10.5" y="48.4" width="0.9" height="41"/>
<rect x="4.4" y="54.2" class="st5" width="1.8" height="41"/>
<rect x="6.2" y="54.2" width="0.9" height="41"/>
<rect x="13.2" y="83.5" width="0.9" height="46.9"/>
<rect x="11.4" y="83.5" class="st6" width="1.8" height="46.9"/>
<rect x="8.8" y="89.3" class="st7" width="0.9" height="41"/>
<rect x="9.7" y="89.3" class="st6" width="0.9" height="41"/>
<rect x="7" y="89.3" class="st6" width="1.8" height="46.9"/>
<rect x="10.5" y="89.3" class="st7" width="0.9" height="41"/>
<rect x="4.4" y="95.2" class="st6" width="1.8" height="41"/>
<rect x="6.2" y="95.2" class="st7" width="0.9" height="41"/>
<rect x="3.5" y="115.7" class="st7" width="0.9" height="20.5"/>
<rect x="2.6" y="115.7" class="st5" width="0.9" height="20.5"/>
<rect y="118.6" class="st5" width="1.8" height="17.6"/>
<rect x="1.8" y="118.6" class="st7" width="0.9" height="17.6"/>
<rect x="8.8" y="130.4" class="st7" width="12.3" height="5.9"/>
<linearGradient id="SVGID_1_" gradientUnits="userSpaceOnUse" x1="14.945" y1="-0.1102" x2="14.945" y2="4.9298" gradientTransform="matrix(1 0 0 -1 0 136.1298)">
	<stop  offset="0" style="stop-color:#83CAF0"/>
	<stop  offset="1" style="stop-color:#E3E3E3"/>
</linearGradient>
<rect x="9.7" y="131.2" class="st8" width="10.6" height="5"/>
</svg>
