<svg xmlns="http://www.w3.org/2000/svg" width="58.125" height="82.813" viewBox="0 0 58.125 82.813"><defs><style>.a{fill:#65abe2;}.b{fill:#2e8ad2;}.c{fill:#1f80cd;}.d{fill:#8cc3ee;}.e{fill:#1469ad;}.f{fill:#4397d9;}.g{fill:#7bb8e9;}.h{fill:#156bb1;}.i{fill:#115893;}</style></defs><g transform="translate(288.946 -230.255)"><g transform="translate(-249.491 289.557)"><path class="a" d="M-259.283,269.8l-5.96,3.444v-9.775l5.96-3.446Z" transform="translate(274.525 -258.113)"/><path class="b" d="M-260.474,274.232l-9.283-5.365V259.1l9.283,5.361Z" transform="translate(269.757 -259.097)"/></g><g transform="translate(-250.047 289.615)"><path class="c" d="M-265.265,264.57v-.779l6.479-3.737v.777Z" transform="translate(275.057 -258.144)"/><path class="c" d="M-260.235,265.55l-9.793-5.646v-.779l9.793,5.646Z" transform="translate(270.027 -259.125)"/></g><g transform="translate(-249.491 272.806)"><path class="a" d="M-259.283,268.632l-5.96,3.446V255.323l5.96-3.441Z" transform="translate(274.525 -249.965)"/><path class="b" d="M-260.474,273.062l-9.283-5.361V250.95l9.283,5.357Z" transform="translate(269.757 -250.95)"/></g><g transform="translate(-264.002 297.934)"><path class="a" d="M-266.338,273.877l-5.961,3.444v-9.773l5.961-3.446Z" transform="translate(281.582 -262.187)"/><path class="d" d="M-267.532,278.3l-9.283-5.357v-9.777l9.283,5.361Z" transform="translate(276.815 -263.171)"/></g><g transform="translate(-264.558 294.255)"><path class="e" d="M-272.323,268.644v-.779l6.48-3.735v.781Z" transform="translate(282.114 -258.48)"/><path class="f" d="M-267.294,270.767l-9.791-5.646,6.478-3.739,9.793,5.65Z" transform="translate(277.085 -261.382)"/><path class="c" d="M-267.294,269.626l-9.791-5.648V263.2l9.791,5.646Z" transform="translate(277.085 -259.461)"/></g><g transform="translate(-264.002 281.182)"><path class="a" d="M-266.338,272.707l-5.961,3.446V259.4l5.961-3.444Z" transform="translate(281.582 -254.039)"/><path class="d" d="M-267.532,277.137l-9.283-5.361V255.023l9.283,5.359Z" transform="translate(276.815 -255.023)"/></g><g transform="translate(-285.522 285.511)"><path class="a" d="M-276.806,267.839l-5.961,3.433V261.5l5.963-3.441Z" transform="translate(292.047 -256.145)"/><path class="d" d="M-278,272.257l-9.28-5.353v-9.775l9.28,5.357Z" transform="translate(287.281 -257.129)"/></g><g transform="translate(-286.08 281.832)"><path class="e" d="M-282.791,262.6v-.775l6.481-3.739v.779Z" transform="translate(292.581 -252.44)"/><path class="f" d="M-277.762,264.725l-9.791-5.65,6.478-3.735,9.794,5.646Z" transform="translate(287.552 -255.34)"/><path class="c" d="M-277.762,263.582l-9.791-5.646v-.779l9.791,5.65Z" transform="translate(287.552 -253.421)"/></g><g transform="translate(-285.522 268.757)"><path class="a" d="M-276.806,266.666l-5.961,3.441v-16.75l5.963-3.445Z" transform="translate(292.047 -247.996)"/><path class="d" d="M-278,271.092l-9.28-5.357V248.981l9.28,5.361Z" transform="translate(287.281 -248.981)"/></g><g transform="translate(-287.316 255.736)"><path class="e" d="M-282.659,260.477v-1.8l22.28-12.865v1.8Z" transform="translate(293.956 -239.301)"/><path class="f" d="M-276.857,262.028l-11.3-6.518,22.28-12.863,11.3,6.516Z" transform="translate(288.153 -242.648)"/><path class="c" d="M-276.857,257.217l-11.3-6.517v-1.8l11.3,6.518Z" transform="translate(288.153 -236.041)"/></g><g transform="translate(-265.857 268.178)"><path class="e" d="M-272.223,266.526v-1.793l22.282-12.864v1.795Z" transform="translate(283.52 -245.352)"/><path class="f" d="M-266.42,268.08l-11.3-6.517,22.28-12.864,11.3,6.517Z" transform="translate(277.717 -248.699)"/><path class="c" d="M-266.42,263.265l-11.3-6.514v-1.8l11.3,6.517Z" transform="translate(277.717 -242.092)"/></g><g transform="translate(-285.522 248.046)"><path class="g" d="M-256.474,268.511l-30.807-17.784,20.472-11.819,30.8,17.782Z" transform="translate(287.281 -238.908)"/><path class="h" d="M-268.06,250.86l-14.7,8.488v-6.616l14.7-8.488Z" transform="translate(292.054 -233.273)"/><path class="d" d="M-287.281,244.656v8.893l9.294,5.362h0c0-3.9,2.735-5.478,6.113-3.528a13.508,13.508,0,0,1,6.113,10.589l9.283,5.36,0-8.893Z" transform="translate(287.281 -232.837)"/><g transform="translate(9.279 16.83)"><path class="d" d="M-282.768,247.093l.014,9.244c0-3.9,2.735-5.477,6.113-3.528a13.508,13.508,0,0,1,6.113,10.589v-9.236Z" transform="translate(282.768 -247.093)"/></g><path class="a" d="M-251.829,256.45-272.3,268.269v-8.892l20.471-11.821Z" transform="translate(303.103 -229.774)"/></g><g transform="translate(-285.522 247.351)"><path class="h" d="M-256.474,268.174l-30.807-17.784,20.472-11.82,30.8,17.783Z" transform="translate(287.281 -238.57)"/><path class="h" d="M-256.478,262.8l-30.8-17.784v-.694l30.807,17.784Z" transform="translate(287.281 -232.499)"/><path class="i" d="M-272.3,259.734v-.695l20.471-11.821v.694" transform="translate(303.102 -229.436)"/></g><g transform="translate(-285.522 240.736)"><path class="g" d="M-256.474,264.953l-30.807-17.782,20.472-11.819,30.8,17.784Z" transform="translate(287.281 -235.353)"/><path class="h" d="M-256.478,265.5l-30.8-17.784V241.1l30.807,17.782Z" transform="translate(287.281 -229.282)"/><path class="i" d="M-251.829,250.616-272.3,262.437v-6.618L-251.829,244Z" transform="translate(303.102 -226.218)"/></g><g transform="translate(-288.946 238.847)"><path class="e" d="M-271.984,259.581v-1.934l23.248-13.42v1.935Z" transform="translate(306.861 -224.091)"/><path class="f" d="M-254.069,267.99l-34.878-20.136,23.247-13.421,34.879,20.136Z" transform="translate(288.946 -234.434)"/><path class="c" d="M-254.069,263.03l-34.878-20.135v-1.934l34.878,20.136Z" transform="translate(288.946 -227.54)"/></g><g transform="translate(-285.522 232.934)"><path class="g" d="M-256.474,261.162l-30.807-17.783,20.472-11.821,30.8,17.784Z" transform="translate(287.281 -231.558)"/><path class="d" d="M-256.478,262.889l-30.8-17.782v-7.8l30.807,17.783Z" transform="translate(287.281 -225.487)"/><path class="a" d="M-251.829,248.009-272.3,259.828v-7.8l20.471-11.82Z" transform="translate(303.102 -222.423)"/></g><g transform="translate(-287.313 230.255)"><path class="e" d="M-272.4,254.009v-1.793l22.282-12.865v1.8Z" transform="translate(304.792 -220.648)"/><path class="f" d="M-255.755,261.822l-32.4-18.7,22.279-12.864,32.4,18.7Z" transform="translate(288.152 -230.255)"/><path class="c" d="M-255.755,257.008l-32.4-18.7v-1.8l32.4,18.7Z" transform="translate(288.152 -223.648)"/></g></g></svg>